solid OpenSCAD_Model
  facet normal -0 0 1
    outer loop
      vertex 48.0306 25.3767 46
      vertex 49.8938 25 46
      vertex 49.5256 26.8511 46
    endloop
  endfacet
  facet normal 0 0 1
    outer loop
      vertex 49.8938 25 46
      vertex 48.4039 23.5 46
      vertex 49.8938 5 46
    endloop
  endfacet
  facet normal 0 0 1
    outer loop
      vertex 49.509 26.8911 46
      vertex 49.5256 26.8511 46
      vertex 49.5212 26.8728 46
    endloop
  endfacet
  facet normal -0 0 1
    outer loop
      vertex 48.4039 6.5 46
      vertex 49.8938 5 46
      vertex 48.4039 23.5 46
    endloop
  endfacet
  facet normal 0 0 1
    outer loop
      vertex 49.5256 26.8511 46
      vertex 49.509 26.8911 46
      vertex 48.0306 25.3767 46
    endloop
  endfacet
  facet normal 0 0 1
    outer loop
      vertex 48.0306 4.62335 46
      vertex 49.8938 5 46
      vertex 48.4039 6.5 46
    endloop
  endfacet
  facet normal -0 0 1
    outer loop
      vertex 46.9676 26.9676 46
      vertex 49.509 26.8911 46
      vertex 48.4604 28.4604 46
    endloop
  endfacet
  facet normal 0 0 1
    outer loop
      vertex 49.8938 5 46
      vertex 48.0306 4.62335 46
      vertex 49.5256 3.14891 46
    endloop
  endfacet
  facet normal 0 -0 1
    outer loop
      vertex 49.509 3.10887 46
      vertex 49.5256 3.14891 46
      vertex 48.0306 4.62335 46
    endloop
  endfacet
  facet normal 0 0 1
    outer loop
      vertex 49.8938 25 46
      vertex 48.0306 25.3767 46
      vertex 48.4039 23.5 46
    endloop
  endfacet
  facet normal 0 0 1
    outer loop
      vertex 49.509 26.8911 46
      vertex 46.9676 26.9676 46
      vertex 48.0306 25.3767 46
    endloop
  endfacet
  facet normal 0 0 1
    outer loop
      vertex 46.8911 29.509 46
      vertex 46.9676 26.9676 46
      vertex 48.4604 28.4604 46
    endloop
  endfacet
  facet normal 0 0 1
    outer loop
      vertex 46.8511 29.5256 46
      vertex 46.8911 29.509 46
      vertex 46.8728 29.5212 46
    endloop
  endfacet
  facet normal 0 0 1
    outer loop
      vertex 46.8911 29.509 46
      vertex 46.8511 29.5256 46
      vertex 45.3767 28.0306 46
    endloop
  endfacet
  facet normal 0 0 1
    outer loop
      vertex 46.8911 29.509 46
      vertex 45.3767 28.0306 46
      vertex 46.9676 26.9676 46
    endloop
  endfacet
  facet normal 0 0 1
    outer loop
      vertex 45 29.8938 46
      vertex 45.3767 28.0306 46
      vertex 46.8511 29.5256 46
    endloop
  endfacet
  facet normal 0 0 1
    outer loop
      vertex 45 29.8938 46
      vertex 43.5 28.4039 46
      vertex 45.3767 28.0306 46
    endloop
  endfacet
  facet normal 0 0 1
    outer loop
      vertex 45 29.8938 46
      vertex 6.5 28.4039 46
      vertex 43.5 28.4039 46
    endloop
  endfacet
  facet normal -0 0 1
    outer loop
      vertex 5 29.8938 46
      vertex 6.5 28.4039 46
      vertex 45 29.8938 46
    endloop
  endfacet
  facet normal 0 0 1
    outer loop
      vertex 5 29.8938 46
      vertex 4.62335 28.0306 46
      vertex 6.5 28.4039 46
    endloop
  endfacet
  facet normal -0 0 1
    outer loop
      vertex 3.14891 29.5256 46
      vertex 4.62335 28.0306 46
      vertex 5 29.8938 46
    endloop
  endfacet
  facet normal 0 0 1
    outer loop
      vertex 3.10887 29.509 46
      vertex 3.14891 29.5256 46
      vertex 3.12724 29.5212 46
    endloop
  endfacet
  facet normal 0 0 1
    outer loop
      vertex 3.14891 29.5256 46
      vertex 3.10887 29.509 46
      vertex 4.62335 28.0306 46
    endloop
  endfacet
  facet normal 0 0 1
    outer loop
      vertex 3.10887 29.509 46
      vertex 3.0324 26.9676 46
      vertex 4.62335 28.0306 46
    endloop
  endfacet
  facet normal -0 0 1
    outer loop
      vertex 1.53959 28.4604 46
      vertex 3.0324 26.9676 46
      vertex 3.10887 29.509 46
    endloop
  endfacet
  facet normal -0 0 1
    outer loop
      vertex 0.474446 26.8511 46
      vertex 1.96936 25.3767 46
      vertex 0.491031 26.8911 46
    endloop
  endfacet
  facet normal 0 0 1
    outer loop
      vertex 3.0324 26.9676 46
      vertex 0.491031 26.8911 46
      vertex 1.96936 25.3767 46
    endloop
  endfacet
  facet normal 0 0 1
    outer loop
      vertex 0.491031 26.8911 46
      vertex 3.0324 26.9676 46
      vertex 1.53959 28.4604 46
    endloop
  endfacet
  facet normal 0 0 1
    outer loop
      vertex 49.5256 3.14891 46
      vertex 49.509 3.10887 46
      vertex 49.5212 3.12724 46
    endloop
  endfacet
  facet normal 0 0 1
    outer loop
      vertex 46.9676 3.0324 46
      vertex 49.509 3.10887 46
      vertex 48.0306 4.62335 46
    endloop
  endfacet
  facet normal 0 0 1
    outer loop
      vertex 49.509 3.10887 46
      vertex 46.9676 3.0324 46
      vertex 48.4604 1.53959 46
    endloop
  endfacet
  facet normal 0 0 1
    outer loop
      vertex 46.9676 3.0324 46
      vertex 46.8911 0.491031 46
      vertex 48.4604 1.53959 46
    endloop
  endfacet
  facet normal -0 0 1
    outer loop
      vertex 45.3767 1.96936 46
      vertex 46.8911 0.491031 46
      vertex 46.9676 3.0324 46
    endloop
  endfacet
  facet normal 0 -0 1
    outer loop
      vertex 46.8511 0.474446 46
      vertex 46.8911 0.491031 46
      vertex 45.3767 1.96936 46
    endloop
  endfacet
  facet normal 0 0 1
    outer loop
      vertex 46.8911 0.491031 46
      vertex 46.8511 0.474446 46
      vertex 46.8728 0.478757 46
    endloop
  endfacet
  facet normal 0 0 1
    outer loop
      vertex 45.3767 1.96936 46
      vertex 45 0.106241 46
      vertex 46.8511 0.474446 46
    endloop
  endfacet
  facet normal -0 0 1
    outer loop
      vertex 43.5 1.59607 46
      vertex 45 0.106241 46
      vertex 45.3767 1.96936 46
    endloop
  endfacet
  facet normal -0 0 1
    outer loop
      vertex 6.5 1.59607 46
      vertex 45 0.106241 46
      vertex 43.5 1.59607 46
    endloop
  endfacet
  facet normal 0 0 1
    outer loop
      vertex 6.5 1.59607 46
      vertex 5 0.106241 46
      vertex 45 0.106241 46
    endloop
  endfacet
  facet normal 0 0 1
    outer loop
      vertex 4.62335 1.96936 46
      vertex 5 0.106241 46
      vertex 6.5 1.59607 46
    endloop
  endfacet
  facet normal 0 0 1
    outer loop
      vertex 4.62335 1.96936 46
      vertex 3.14891 0.474446 46
      vertex 5 0.106241 46
    endloop
  endfacet
  facet normal -0 0 1
    outer loop
      vertex 3.10887 0.491031 46
      vertex 3.14891 0.474446 46
      vertex 4.62335 1.96936 46
    endloop
  endfacet
  facet normal 0 0 1
    outer loop
      vertex 3.14891 0.474446 46
      vertex 3.10887 0.491031 46
      vertex 3.12724 0.478757 46
    endloop
  endfacet
  facet normal 0 0 1
    outer loop
      vertex 3.0324 3.0324 46
      vertex 3.10887 0.491031 46
      vertex 4.62335 1.96936 46
    endloop
  endfacet
  facet normal -0 0 1
    outer loop
      vertex 0.491031 3.10887 46
      vertex 3.0324 3.0324 46
      vertex 1.96936 4.62335 46
    endloop
  endfacet
  facet normal 0 0 1
    outer loop
      vertex 3.0324 3.0324 46
      vertex 1.53959 1.53959 46
      vertex 3.10887 0.491031 46
    endloop
  endfacet
  facet normal -0 0 1
    outer loop
      vertex 0.106241 5 46
      vertex 1.96936 4.62335 46
      vertex 1.59607 6.5 46
    endloop
  endfacet
  facet normal 0 0 1
    outer loop
      vertex 1.59607 23.5 46
      vertex 0.106241 25 46
      vertex 1.59607 6.5 46
    endloop
  endfacet
  facet normal 0 0 1
    outer loop
      vertex 0.106241 25 46
      vertex 1.96936 25.3767 46
      vertex 0.474446 26.8511 46
    endloop
  endfacet
  facet normal 0 0 1
    outer loop
      vertex 0.106241 5 46
      vertex 1.59607 6.5 46
      vertex 0.106241 25 46
    endloop
  endfacet
  facet normal 0 0 1
    outer loop
      vertex 0.474446 26.8511 46
      vertex 0.491031 26.8911 46
      vertex 0.478757 26.8728 46
    endloop
  endfacet
  facet normal 0 0 1
    outer loop
      vertex 1.96936 25.3767 46
      vertex 0.106241 25 46
      vertex 1.59607 23.5 46
    endloop
  endfacet
  facet normal 0 0 1
    outer loop
      vertex 1.96936 4.62335 46
      vertex 0.106241 5 46
      vertex 0.474446 3.14891 46
    endloop
  endfacet
  facet normal 0 0 1
    outer loop
      vertex 0.491031 3.10887 46
      vertex 0.474446 3.14891 46
      vertex 0.478757 3.12724 46
    endloop
  endfacet
  facet normal 0 0 1
    outer loop
      vertex 3.0324 3.0324 46
      vertex 0.491031 3.10887 46
      vertex 1.53959 1.53959 46
    endloop
  endfacet
  facet normal 0 0 1
    outer loop
      vertex 1.96936 4.62335 46
      vertex 0.474446 3.14891 46
      vertex 0.491031 3.10887 46
    endloop
  endfacet
  facet normal 0 1 -0
    outer loop
      vertex 43.5 1.59607 9.02455
      vertex 6.5 1.59607 46
      vertex 43.5 1.59607 46
    endloop
  endfacet
  facet normal 0 1 0
    outer loop
      vertex 6.5 1.59607 46
      vertex 43.5 1.59607 9.02455
      vertex 6.5 1.59607 9.02455
    endloop
  endfacet
  facet normal -0.396639 -0.593613 0.700215
    outer loop
      vertex 45.4642 25.4642 5.84265
      vertex 45.091 27.3409 7.22215
      vertex 44.563 26.0664 5.84265
    endloop
  endfacet
  facet normal 0.195091 -0.980785 0
    outer loop
      vertex 4.62335 28.0306 9.02455
      vertex 6.5 28.4039 46
      vertex 4.62335 28.0306 46
    endloop
  endfacet
  facet normal 0.195091 -0.980785 0
    outer loop
      vertex 6.5 28.4039 46
      vertex 4.62335 28.0306 9.02455
      vertex 6.5 28.4039 9.02455
    endloop
  endfacet
  facet normal 0.180744 0.908663 0.376381
    outer loop
      vertex 6.5 1.59607 9.02455
      vertex 6.5 2.34265 7.22215
      vertex 4.62335 1.96936 9.02455
    endloop
  endfacet
  facet normal 1 -0 0
    outer loop
      vertex 1.59607 6.5 46
      vertex 1.59607 23.5 9.02455
      vertex 1.59607 23.5 46
    endloop
  endfacet
  facet normal 1 0 0
    outer loop
      vertex 1.59607 23.5 9.02455
      vertex 1.59607 6.5 46
      vertex 1.59607 6.5 9.02455
    endloop
  endfacet
  facet normal 0.19509 0.980785 -0
    outer loop
      vertex 6.5 1.59607 9.02455
      vertex 4.62335 1.96936 46
      vertex 6.5 1.59607 46
    endloop
  endfacet
  facet normal 0.19509 0.980785 0
    outer loop
      vertex 4.62335 1.96936 46
      vertex 6.5 1.59607 9.02455
      vertex 4.62335 1.96936 9.02455
    endloop
  endfacet
  facet normal 0.381579 0.0759009 0.921215
    outer loop
      vertex 3.9336 5.43696 5.84265
      vertex 5.52455 6.5 5.09607
      vertex 3.72215 6.5 5.84265
    endloop
  endfacet
  facet normal -0.180744 0.908663 0.376381
    outer loop
      vertex 45.3767 1.96936 9.02455
      vertex 45.091 2.65911 7.22215
      vertex 43.5 2.34265 7.22215
    endloop
  endfacet
  facet normal -0.139281 0.700215 0.700215
    outer loop
      vertex 45.091 2.65911 7.22215
      vertex 43.5 3.72215 5.84265
      vertex 43.5 2.34265 7.22215
    endloop
  endfacet
  facet normal 0.139282 0.700214 0.700215
    outer loop
      vertex 6.5 3.72215 5.84265
      vertex 5.43696 3.9336 5.84265
      vertex 4.90905 2.65911 7.22215
    endloop
  endfacet
  facet normal -0.92388 0 0.382683
    outer loop
      vertex 47.6573 6.5 7.22215
      vertex 48.4039 23.5 9.02455
      vertex 47.6573 23.5 7.22215
    endloop
  endfacet
  facet normal -0.92388 0 0.382683
    outer loop
      vertex 48.4039 23.5 9.02455
      vertex 47.6573 6.5 7.22215
      vertex 48.4039 6.5 9.02455
    endloop
  endfacet
  facet normal 0.180745 -0.908664 0.37638
    outer loop
      vertex 4.90905 27.3409 7.22215
      vertex 6.5 27.6573 7.22215
      vertex 4.62335 28.0306 9.02455
    endloop
  endfacet
  facet normal -0.700214 -0.139282 0.700215
    outer loop
      vertex 46.2779 23.5 5.84265
      vertex 47.3409 25.0909 7.22215
      vertex 46.0664 24.563 5.84265
    endloop
  endfacet
  facet normal -0.216148 0.323488 0.921214
    outer loop
      vertex 44.563 3.9336 5.84265
      vertex 45.4642 4.53576 5.84265
      vertex 43.8733 5.5988 5.09607
    endloop
  endfacet
  facet normal 0.514716 0.770328 0.376381
    outer loop
      vertex 4.62335 1.96936 9.02455
      vertex 4.90905 2.65911 7.22215
      vertex 3.56031 3.56031 7.22215
    endloop
  endfacet
  facet normal -0.555571 -0.831469 0
    outer loop
      vertex 45.3767 28.0306 9.02455
      vertex 46.9676 26.9676 46
      vertex 45.3767 28.0306 46
    endloop
  endfacet
  facet normal -0.555571 -0.831469 -0
    outer loop
      vertex 46.9676 26.9676 46
      vertex 45.3767 28.0306 9.02455
      vertex 46.9676 26.9676 9.02455
    endloop
  endfacet
  facet normal 0.908663 0.180744 0.376381
    outer loop
      vertex 1.96936 4.62335 9.02455
      vertex 2.34265 6.5 7.22215
      vertex 1.59607 6.5 9.02455
    endloop
  endfacet
  facet normal -0.980785 -0.195091 0
    outer loop
      vertex 48.4039 23.5 9.02455
      vertex 48.0306 25.3767 46
      vertex 48.0306 25.3767 9.02455
    endloop
  endfacet
  facet normal -0.980785 -0.195091 0
    outer loop
      vertex 48.0306 25.3767 46
      vertex 48.4039 23.5 9.02455
      vertex 48.4039 23.5 46
    endloop
  endfacet
  facet normal -0.908663 0.180745 0.376381
    outer loop
      vertex 48.0306 4.62335 9.02455
      vertex 48.4039 6.5 9.02455
      vertex 47.6573 6.5 7.22215
    endloop
  endfacet
  facet normal -0 0.382683 0.92388
    outer loop
      vertex 6.5 5.52455 5.09607
      vertex 43.5 3.72215 5.84265
      vertex 43.5 5.52455 5.09607
    endloop
  endfacet
  facet normal 0 0.382683 0.92388
    outer loop
      vertex 43.5 3.72215 5.84265
      vertex 6.5 5.52455 5.09607
      vertex 6.5 3.72215 5.84265
    endloop
  endfacet
  facet normal 0 0.92388 0.382683
    outer loop
      vertex 43.5 2.34265 7.22215
      vertex 6.5 1.59607 9.02455
      vertex 43.5 1.59607 9.02455
    endloop
  endfacet
  facet normal 0 0.92388 0.382683
    outer loop
      vertex 6.5 1.59607 9.02455
      vertex 43.5 2.34265 7.22215
      vertex 6.5 2.34265 7.22215
    endloop
  endfacet
  facet normal -0.180744 0.908663 0.376381
    outer loop
      vertex 45.3767 1.96936 9.02455
      vertex 43.5 2.34265 7.22215
      vertex 43.5 1.59607 9.02455
    endloop
  endfacet
  facet normal 0 -1 0
    outer loop
      vertex 6.5 28.4039 9.02455
      vertex 43.5 28.4039 46
      vertex 6.5 28.4039 46
    endloop
  endfacet
  facet normal 0 -1 -0
    outer loop
      vertex 43.5 28.4039 46
      vertex 6.5 28.4039 9.02455
      vertex 43.5 28.4039 9.02455
    endloop
  endfacet
  facet normal -0.514717 -0.770328 0.376379
    outer loop
      vertex 46.4397 26.4397 7.22215
      vertex 46.9676 26.9676 9.02455
      vertex 45.3767 28.0306 9.02455
    endloop
  endfacet
  facet normal -0.831469 -0.555571 0
    outer loop
      vertex 48.0306 25.3767 9.02455
      vertex 46.9676 26.9676 46
      vertex 46.9676 26.9676 9.02455
    endloop
  endfacet
  facet normal -0.831469 -0.555571 0
    outer loop
      vertex 46.9676 26.9676 46
      vertex 48.0306 25.3767 9.02455
      vertex 48.0306 25.3767 46
    endloop
  endfacet
  facet normal 0.980785 0.19509 0
    outer loop
      vertex 1.96936 4.62335 46
      vertex 1.59607 6.5 9.02455
      vertex 1.59607 6.5 46
    endloop
  endfacet
  facet normal 0.980785 0.19509 0
    outer loop
      vertex 1.59607 6.5 9.02455
      vertex 1.96936 4.62335 46
      vertex 1.96936 4.62335 9.02455
    endloop
  endfacet
  facet normal -0.593613 -0.396639 0.700215
    outer loop
      vertex 47.3409 25.0909 7.22215
      vertex 46.4397 26.4397 7.22215
      vertex 45.4642 25.4642 5.84265
    endloop
  endfacet
  facet normal 0 -0.382684 0.923879
    outer loop
      vertex 6.5 26.2779 5.84265
      vertex 43.5 24.4755 5.09607
      vertex 43.5 26.2779 5.84265
    endloop
  endfacet
  facet normal 0 -0.382684 0.923879
    outer loop
      vertex 43.5 24.4755 5.09607
      vertex 6.5 26.2779 5.84265
      vertex 6.5 24.4755 5.09607
    endloop
  endfacet
  facet normal 0.593613 -0.396639 0.700215
    outer loop
      vertex 4.53576 25.4642 5.84265
      vertex 3.56031 26.4397 7.22215
      vertex 2.65911 25.0909 7.22215
    endloop
  endfacet
  facet normal 0.700214 -0.139281 0.700214
    outer loop
      vertex 3.72215 23.5 5.84265
      vertex 2.65911 25.0909 7.22215
      vertex 2.34265 23.5 7.22215
    endloop
  endfacet
  facet normal -0.700214 -0.139281 0.700215
    outer loop
      vertex 47.6573 23.5 7.22215
      vertex 47.3409 25.0909 7.22215
      vertex 46.2779 23.5 5.84265
    endloop
  endfacet
  facet normal -0.593613 0.396639 0.700215
    outer loop
      vertex 46.4397 3.56031 7.22215
      vertex 47.3409 4.90905 7.22215
      vertex 45.4642 4.53576 5.84265
    endloop
  endfacet
  facet normal -0.980785 0.195091 0
    outer loop
      vertex 48.0306 4.62335 9.02455
      vertex 48.4039 6.5 46
      vertex 48.4039 6.5 9.02455
    endloop
  endfacet
  facet normal -0.980785 0.195091 0
    outer loop
      vertex 48.4039 6.5 46
      vertex 48.0306 4.62335 9.02455
      vertex 48.0306 4.62335 46
    endloop
  endfacet
  facet normal -0.216149 0.323486 0.921215
    outer loop
      vertex 45.4642 4.53576 5.84265
      vertex 44.1897 5.81025 5.09607
      vertex 43.8733 5.5988 5.09607
    endloop
  endfacet
  facet normal -0.514717 0.770328 0.37638
    outer loop
      vertex 45.3767 1.96936 9.02455
      vertex 46.4397 3.56031 7.22215
      vertex 45.091 2.65911 7.22215
    endloop
  endfacet
  facet normal -0.0759008 0.38158 0.921214
    outer loop
      vertex 44.563 3.9336 5.84265
      vertex 43.8733 5.5988 5.09607
      vertex 43.5 5.52455 5.09607
    endloop
  endfacet
  facet normal 0.593613 0.396639 0.700215
    outer loop
      vertex 4.53576 4.53576 5.84265
      vertex 3.9336 5.43696 5.84265
      vertex 2.65911 4.90905 7.22215
    endloop
  endfacet
  facet normal 0.593613 0.39664 0.700215
    outer loop
      vertex 3.56031 3.56031 7.22215
      vertex 4.53576 4.53576 5.84265
      vertex 2.65911 4.90905 7.22215
    endloop
  endfacet
  facet normal 0.83147 0.55557 0
    outer loop
      vertex 3.0324 3.0324 46
      vertex 1.96936 4.62335 9.02455
      vertex 1.96936 4.62335 46
    endloop
  endfacet
  facet normal 0.83147 0.55557 0
    outer loop
      vertex 1.96936 4.62335 9.02455
      vertex 3.0324 3.0324 46
      vertex 3.0324 3.0324 9.02455
    endloop
  endfacet
  facet normal 0.180745 0.908663 0.376381
    outer loop
      vertex 6.5 2.34265 7.22215
      vertex 4.90905 2.65911 7.22215
      vertex 4.62335 1.96936 9.02455
    endloop
  endfacet
  facet normal 0.139281 0.700214 0.700214
    outer loop
      vertex 6.5 2.34265 7.22215
      vertex 6.5 3.72215 5.84265
      vertex 4.90905 2.65911 7.22215
    endloop
  endfacet
  facet normal -0.908663 -0.180745 0.376381
    outer loop
      vertex 48.4039 23.5 9.02455
      vertex 48.0306 25.3767 9.02455
      vertex 47.6573 23.5 7.22215
    endloop
  endfacet
  facet normal -0.908664 -0.180745 0.37638
    outer loop
      vertex 47.6573 23.5 7.22215
      vertex 48.0306 25.3767 9.02455
      vertex 47.3409 25.0909 7.22215
    endloop
  endfacet
  facet normal 0.980785 -0.19509 0
    outer loop
      vertex 1.59607 23.5 46
      vertex 1.96936 25.3767 9.02455
      vertex 1.96936 25.3767 46
    endloop
  endfacet
  facet normal 0.980785 -0.19509 0
    outer loop
      vertex 1.96936 25.3767 9.02455
      vertex 1.59607 23.5 46
      vertex 1.59607 23.5 9.02455
    endloop
  endfacet
  facet normal 0.514717 -0.770328 0.37638
    outer loop
      vertex 3.56031 26.4397 7.22215
      vertex 4.62335 28.0306 9.02455
      vertex 3.0324 26.9676 9.02455
    endloop
  endfacet
  facet normal -0.38158 -0.0759013 0.921214
    outer loop
      vertex 46.2779 23.5 5.84265
      vertex 46.0664 24.563 5.84265
      vertex 44.4755 23.5 5.09607
    endloop
  endfacet
  facet normal -0.707107 0 0.707107
    outer loop
      vertex 46.2779 23.5 5.84265
      vertex 47.6573 6.5 7.22215
      vertex 47.6573 23.5 7.22215
    endloop
  endfacet
  facet normal -0.707107 0 0.707107
    outer loop
      vertex 47.6573 6.5 7.22215
      vertex 46.2779 23.5 5.84265
      vertex 46.2779 6.5 5.84265
    endloop
  endfacet
  facet normal -0.0759013 -0.38158 0.921214
    outer loop
      vertex 44.563 26.0664 5.84265
      vertex 43.5 26.2779 5.84265
      vertex 43.5 24.4755 5.09607
    endloop
  endfacet
  facet normal -0.139282 -0.700214 0.700215
    outer loop
      vertex 44.563 26.0664 5.84265
      vertex 45.091 27.3409 7.22215
      vertex 43.5 26.2779 5.84265
    endloop
  endfacet
  facet normal 0.139281 -0.700214 0.700215
    outer loop
      vertex 6.5 26.2779 5.84265
      vertex 6.5 27.6573 7.22215
      vertex 4.90905 27.3409 7.22215
    endloop
  endfacet
  facet normal 0 -0.707107 0.707107
    outer loop
      vertex 6.5 27.6573 7.22215
      vertex 43.5 26.2779 5.84265
      vertex 43.5 27.6573 7.22215
    endloop
  endfacet
  facet normal 0 -0.707107 0.707107
    outer loop
      vertex 43.5 26.2779 5.84265
      vertex 6.5 27.6573 7.22215
      vertex 6.5 26.2779 5.84265
    endloop
  endfacet
  facet normal 0.92388 -0 0.382683
    outer loop
      vertex 1.59607 6.5 9.02455
      vertex 2.34265 23.5 7.22215
      vertex 1.59607 23.5 9.02455
    endloop
  endfacet
  facet normal 0.92388 0 0.382683
    outer loop
      vertex 2.34265 23.5 7.22215
      vertex 1.59607 6.5 9.02455
      vertex 2.34265 6.5 7.22215
    endloop
  endfacet
  facet normal 0.216148 0.323487 0.921215
    outer loop
      vertex 6.12671 5.5988 5.09607
      vertex 5.81025 5.81025 5.09607
      vertex 4.53576 4.53576 5.84265
    endloop
  endfacet
  facet normal 0.593613 -0.39664 0.700214
    outer loop
      vertex 3.9336 24.563 5.84265
      vertex 4.53576 25.4642 5.84265
      vertex 2.65911 25.0909 7.22215
    endloop
  endfacet
  facet normal 0.382683 0 0.92388
    outer loop
      vertex 3.72215 23.5 5.84265
      vertex 5.52455 6.5 5.09607
      vertex 5.52455 23.5 5.09607
    endloop
  endfacet
  facet normal 0.382683 0 0.92388
    outer loop
      vertex 5.52455 6.5 5.09607
      vertex 3.72215 23.5 5.84265
      vertex 3.72215 6.5 5.84265
    endloop
  endfacet
  facet normal -1 0 0
    outer loop
      vertex 48.4039 6.5 9.02455
      vertex 48.4039 23.5 46
      vertex 48.4039 23.5 9.02455
    endloop
  endfacet
  facet normal -1 -0 0
    outer loop
      vertex 48.4039 23.5 46
      vertex 48.4039 6.5 9.02455
      vertex 48.4039 6.5 46
    endloop
  endfacet
  facet normal -0.770328 0.514716 0.37638
    outer loop
      vertex 48.0306 4.62335 9.02455
      vertex 47.3409 4.90905 7.22215
      vertex 46.4397 3.56031 7.22215
    endloop
  endfacet
  facet normal -0.39664 0.593613 0.700215
    outer loop
      vertex 46.4397 3.56031 7.22215
      vertex 45.4642 4.53576 5.84265
      vertex 45.091 2.65911 7.22215
    endloop
  endfacet
  facet normal -0.39664 0.593613 0.700215
    outer loop
      vertex 45.091 2.65911 7.22215
      vertex 45.4642 4.53576 5.84265
      vertex 44.563 3.9336 5.84265
    endloop
  endfacet
  facet normal -0.382684 0 0.923879
    outer loop
      vertex 44.4755 23.5 5.09607
      vertex 46.2779 6.5 5.84265
      vertex 46.2779 23.5 5.84265
    endloop
  endfacet
  facet normal -0.382684 0 0.923879
    outer loop
      vertex 46.2779 6.5 5.84265
      vertex 44.4755 23.5 5.09607
      vertex 44.4755 6.5 5.09607
    endloop
  endfacet
  facet normal -0.700214 0.139281 0.700215
    outer loop
      vertex 47.3409 4.90905 7.22215
      vertex 47.6573 6.5 7.22215
      vertex 46.2779 6.5 5.84265
    endloop
  endfacet
  facet normal -0.908664 0.180745 0.37638
    outer loop
      vertex 48.0306 4.62335 9.02455
      vertex 47.6573 6.5 7.22215
      vertex 47.3409 4.90905 7.22215
    endloop
  endfacet
  facet normal 0.075901 0.381579 0.921215
    outer loop
      vertex 6.5 3.72215 5.84265
      vertex 6.5 5.52455 5.09607
      vertex 6.12671 5.5988 5.09607
    endloop
  endfacet
  facet normal 0 0.707107 0.707107
    outer loop
      vertex 43.5 3.72215 5.84265
      vertex 6.5 2.34265 7.22215
      vertex 43.5 2.34265 7.22215
    endloop
  endfacet
  facet normal 0 0.707107 0.707107
    outer loop
      vertex 6.5 2.34265 7.22215
      vertex 43.5 3.72215 5.84265
      vertex 6.5 3.72215 5.84265
    endloop
  endfacet
  facet normal 0.55557 0.83147 -0
    outer loop
      vertex 4.62335 1.96936 9.02455
      vertex 3.0324 3.0324 46
      vertex 4.62335 1.96936 46
    endloop
  endfacet
  facet normal 0.55557 0.83147 0
    outer loop
      vertex 3.0324 3.0324 46
      vertex 4.62335 1.96936 9.02455
      vertex 3.0324 3.0324 9.02455
    endloop
  endfacet
  facet normal -0.19509 0.980785 0
    outer loop
      vertex 45.3767 1.96936 9.02455
      vertex 43.5 1.59607 46
      vertex 45.3767 1.96936 46
    endloop
  endfacet
  facet normal -0.19509 0.980785 0
    outer loop
      vertex 43.5 1.59607 46
      vertex 45.3767 1.96936 9.02455
      vertex 43.5 1.59607 9.02455
    endloop
  endfacet
  facet normal 0.770327 -0.514717 0.37638
    outer loop
      vertex 3.56031 26.4397 7.22215
      vertex 3.0324 26.9676 9.02455
      vertex 1.96936 25.3767 9.02455
    endloop
  endfacet
  facet normal -0.216149 -0.323485 0.921215
    outer loop
      vertex 44.1897 24.1897 5.09607
      vertex 45.4642 25.4642 5.84265
      vertex 43.8733 24.4012 5.09607
    endloop
  endfacet
  facet normal -0.593613 -0.396639 0.700215
    outer loop
      vertex 46.0664 24.563 5.84265
      vertex 47.3409 25.0909 7.22215
      vertex 45.4642 25.4642 5.84265
    endloop
  endfacet
  facet normal -0.770328 -0.514717 0.376379
    outer loop
      vertex 48.0306 25.3767 9.02455
      vertex 46.9676 26.9676 9.02455
      vertex 46.4397 26.4397 7.22215
    endloop
  endfacet
  facet normal -0.770328 -0.514716 0.37638
    outer loop
      vertex 47.3409 25.0909 7.22215
      vertex 48.0306 25.3767 9.02455
      vertex 46.4397 26.4397 7.22215
    endloop
  endfacet
  facet normal 0.0759013 -0.38158 0.921214
    outer loop
      vertex 6.5 24.4755 5.09607
      vertex 6.5 26.2779 5.84265
      vertex 5.43696 26.0664 5.84265
    endloop
  endfacet
  facet normal 0.396639 -0.593613 0.700215
    outer loop
      vertex 5.43696 26.0664 5.84265
      vertex 4.90905 27.3409 7.22215
      vertex 4.53576 25.4642 5.84265
    endloop
  endfacet
  facet normal 0.0759019 -0.381579 0.921215
    outer loop
      vertex 6.12671 24.4012 5.09607
      vertex 6.5 24.4755 5.09607
      vertex 5.43696 26.0664 5.84265
    endloop
  endfacet
  facet normal 0.139282 -0.700214 0.700215
    outer loop
      vertex 5.43696 26.0664 5.84265
      vertex 6.5 26.2779 5.84265
      vertex 4.90905 27.3409 7.22215
    endloop
  endfacet
  facet normal 0.908663 0.180744 0.376381
    outer loop
      vertex 2.65911 4.90905 7.22215
      vertex 2.34265 6.5 7.22215
      vertex 1.96936 4.62335 9.02455
    endloop
  endfacet
  facet normal 0.323488 0.216147 0.921214
    outer loop
      vertex 4.53576 4.53576 5.84265
      vertex 5.5988 6.12671 5.09607
      vertex 3.9336 5.43696 5.84265
    endloop
  endfacet
  facet normal 0.216147 -0.323488 0.921214
    outer loop
      vertex 6.12671 24.4012 5.09607
      vertex 5.43696 26.0664 5.84265
      vertex 4.53576 25.4642 5.84265
    endloop
  endfacet
  facet normal 0.908663 -0.180744 0.376381
    outer loop
      vertex 2.34265 23.5 7.22215
      vertex 1.96936 25.3767 9.02455
      vertex 1.59607 23.5 9.02455
    endloop
  endfacet
  facet normal 0.700215 -0.139281 0.700214
    outer loop
      vertex 3.72215 23.5 5.84265
      vertex 3.9336 24.563 5.84265
      vertex 2.65911 25.0909 7.22215
    endloop
  endfacet
  facet normal 0.216148 -0.323486 0.921215
    outer loop
      vertex 5.81025 24.1897 5.09607
      vertex 6.12671 24.4012 5.09607
      vertex 4.53576 25.4642 5.84265
    endloop
  endfacet
  facet normal -0.555571 0.831469 0
    outer loop
      vertex 46.9676 3.0324 9.02455
      vertex 45.3767 1.96936 46
      vertex 46.9676 3.0324 46
    endloop
  endfacet
  facet normal -0.555571 0.831469 0
    outer loop
      vertex 45.3767 1.96936 46
      vertex 46.9676 3.0324 9.02455
      vertex 45.3767 1.96936 9.02455
    endloop
  endfacet
  facet normal -0.139281 0.700214 0.700215
    outer loop
      vertex 45.091 2.65911 7.22215
      vertex 44.563 3.9336 5.84265
      vertex 43.5 3.72215 5.84265
    endloop
  endfacet
  facet normal -0.0759009 0.381579 0.921215
    outer loop
      vertex 44.563 3.9336 5.84265
      vertex 43.5 5.52455 5.09607
      vertex 43.5 3.72215 5.84265
    endloop
  endfacet
  facet normal -0.38158 0.0759013 0.921214
    outer loop
      vertex 46.0664 5.43696 5.84265
      vertex 46.2779 6.5 5.84265
      vertex 44.4755 6.5 5.09607
    endloop
  endfacet
  facet normal -0.700214 0.139282 0.700215
    outer loop
      vertex 47.3409 4.90905 7.22215
      vertex 46.2779 6.5 5.84265
      vertex 46.0664 5.43696 5.84265
    endloop
  endfacet
  facet normal -0.83147 0.55557 0
    outer loop
      vertex 46.9676 3.0324 9.02455
      vertex 48.0306 4.62335 46
      vertex 48.0306 4.62335 9.02455
    endloop
  endfacet
  facet normal -0.83147 0.55557 0
    outer loop
      vertex 48.0306 4.62335 46
      vertex 46.9676 3.0324 9.02455
      vertex 46.9676 3.0324 46
    endloop
  endfacet
  facet normal -0.593613 0.396639 0.700215
    outer loop
      vertex 47.3409 4.90905 7.22215
      vertex 46.0664 5.43696 5.84265
      vertex 45.4642 4.53576 5.84265
    endloop
  endfacet
  facet normal -0.381579 0.0759019 0.921215
    outer loop
      vertex 46.0664 5.43696 5.84265
      vertex 44.4755 6.5 5.09607
      vertex 44.4012 6.12671 5.09607
    endloop
  endfacet
  facet normal 0.39664 0.593613 0.700215
    outer loop
      vertex 4.90905 2.65911 7.22215
      vertex 4.53576 4.53576 5.84265
      vertex 3.56031 3.56031 7.22215
    endloop
  endfacet
  facet normal 0.075901 0.381579 0.921215
    outer loop
      vertex 6.5 3.72215 5.84265
      vertex 6.12671 5.5988 5.09607
      vertex 5.43696 3.9336 5.84265
    endloop
  endfacet
  facet normal 0.707107 -0 0.707107
    outer loop
      vertex 2.34265 6.5 7.22215
      vertex 3.72215 23.5 5.84265
      vertex 2.34265 23.5 7.22215
    endloop
  endfacet
  facet normal 0.707107 0 0.707107
    outer loop
      vertex 3.72215 23.5 5.84265
      vertex 2.34265 6.5 7.22215
      vertex 3.72215 6.5 5.84265
    endloop
  endfacet
  facet normal 0.770328 0.514716 0.376381
    outer loop
      vertex 3.56031 3.56031 7.22215
      vertex 2.65911 4.90905 7.22215
      vertex 1.96936 4.62335 9.02455
    endloop
  endfacet
  facet normal 0.770328 0.514717 0.37638
    outer loop
      vertex 3.0324 3.0324 9.02455
      vertex 3.56031 3.56031 7.22215
      vertex 1.96936 4.62335 9.02455
    endloop
  endfacet
  facet normal 0.514717 0.770328 0.37638
    outer loop
      vertex 4.62335 1.96936 9.02455
      vertex 3.56031 3.56031 7.22215
      vertex 3.0324 3.0324 9.02455
    endloop
  endfacet
  facet normal 0.831469 -0.555571 0
    outer loop
      vertex 1.96936 25.3767 46
      vertex 3.0324 26.9676 9.02455
      vertex 3.0324 26.9676 46
    endloop
  endfacet
  facet normal 0.831469 -0.555571 0
    outer loop
      vertex 3.0324 26.9676 9.02455
      vertex 1.96936 25.3767 46
      vertex 1.96936 25.3767 9.02455
    endloop
  endfacet
  facet normal 0.55557 -0.83147 0
    outer loop
      vertex 3.0324 26.9676 9.02455
      vertex 4.62335 28.0306 46
      vertex 3.0324 26.9676 46
    endloop
  endfacet
  facet normal 0.55557 -0.83147 0
    outer loop
      vertex 4.62335 28.0306 46
      vertex 3.0324 26.9676 9.02455
      vertex 4.62335 28.0306 9.02455
    endloop
  endfacet
  facet normal -0.139281 -0.700214 0.700215
    outer loop
      vertex 45.091 27.3409 7.22215
      vertex 43.5 27.6573 7.22215
      vertex 43.5 26.2779 5.84265
    endloop
  endfacet
  facet normal -0.180744 -0.908664 0.37638
    outer loop
      vertex 45.091 27.3409 7.22215
      vertex 45.3767 28.0306 9.02455
      vertex 43.5 27.6573 7.22215
    endloop
  endfacet
  facet normal -0.323486 -0.216149 0.921215
    outer loop
      vertex 44.4012 23.8733 5.09607
      vertex 45.4642 25.4642 5.84265
      vertex 44.1897 24.1897 5.09607
    endloop
  endfacet
  facet normal 0.180745 -0.908663 0.376381
    outer loop
      vertex 6.5 27.6573 7.22215
      vertex 6.5 28.4039 9.02455
      vertex 4.62335 28.0306 9.02455
    endloop
  endfacet
  facet normal 0 -0.92388 0.382683
    outer loop
      vertex 6.5 27.6573 7.22215
      vertex 43.5 28.4039 9.02455
      vertex 6.5 28.4039 9.02455
    endloop
  endfacet
  facet normal 0 -0.92388 0.382683
    outer loop
      vertex 43.5 28.4039 9.02455
      vertex 6.5 27.6573 7.22215
      vertex 43.5 27.6573 7.22215
    endloop
  endfacet
  facet normal 0.396639 -0.593613 0.700215
    outer loop
      vertex 4.53576 25.4642 5.84265
      vertex 4.90905 27.3409 7.22215
      vertex 3.56031 26.4397 7.22215
    endloop
  endfacet
  facet normal 0.514716 -0.770328 0.37638
    outer loop
      vertex 4.90905 27.3409 7.22215
      vertex 4.62335 28.0306 9.02455
      vertex 3.56031 26.4397 7.22215
    endloop
  endfacet
  facet normal 0.323487 0.216148 0.921215
    outer loop
      vertex 5.81025 5.81025 5.09607
      vertex 5.5988 6.12671 5.09607
      vertex 4.53576 4.53576 5.84265
    endloop
  endfacet
  facet normal 0 0 1
    outer loop
      vertex 43.5 24.4755 5.09607
      vertex 44.4755 23.5 5.09607
      vertex 44.4012 23.8733 5.09607
    endloop
  endfacet
  facet normal 0 0 1
    outer loop
      vertex 44.4755 23.5 5.09607
      vertex 43.5 24.4755 5.09607
      vertex 44.4755 6.5 5.09607
    endloop
  endfacet
  facet normal 0 0 1
    outer loop
      vertex 43.5 24.4755 5.09607
      vertex 44.4012 23.8733 5.09607
      vertex 44.1897 24.1897 5.09607
    endloop
  endfacet
  facet normal 0 0 1
    outer loop
      vertex 43.5 5.52455 5.09607
      vertex 44.4755 6.5 5.09607
      vertex 43.5 24.4755 5.09607
    endloop
  endfacet
  facet normal 0 0 1
    outer loop
      vertex 43.5 24.4755 5.09607
      vertex 44.1897 24.1897 5.09607
      vertex 43.8733 24.4012 5.09607
    endloop
  endfacet
  facet normal 0 0 1
    outer loop
      vertex 44.4755 6.5 5.09607
      vertex 43.5 5.52455 5.09607
      vertex 44.4012 6.12671 5.09607
    endloop
  endfacet
  facet normal 0 0 1
    outer loop
      vertex 44.4012 6.12671 5.09607
      vertex 43.5 5.52455 5.09607
      vertex 44.1897 5.81025 5.09607
    endloop
  endfacet
  facet normal 0 0 1
    outer loop
      vertex 44.1897 5.81025 5.09607
      vertex 43.5 5.52455 5.09607
      vertex 43.8733 5.5988 5.09607
    endloop
  endfacet
  facet normal -0 0 1
    outer loop
      vertex 6.5 24.4755 5.09607
      vertex 43.5 5.52455 5.09607
      vertex 43.5 24.4755 5.09607
    endloop
  endfacet
  facet normal 0 0 1
    outer loop
      vertex 6.5 24.4755 5.09607
      vertex 6.5 5.52455 5.09607
      vertex 43.5 5.52455 5.09607
    endloop
  endfacet
  facet normal 0 0 1
    outer loop
      vertex 5.52455 23.5 5.09607
      vertex 6.5 24.4755 5.09607
      vertex 6.12671 24.4012 5.09607
    endloop
  endfacet
  facet normal 0 0 1
    outer loop
      vertex 6.5 24.4755 5.09607
      vertex 5.52455 23.5 5.09607
      vertex 6.5 5.52455 5.09607
    endloop
  endfacet
  facet normal 0 0 1
    outer loop
      vertex 5.52455 23.5 5.09607
      vertex 6.12671 24.4012 5.09607
      vertex 5.81025 24.1897 5.09607
    endloop
  endfacet
  facet normal -0 0 1
    outer loop
      vertex 5.52455 6.5 5.09607
      vertex 6.5 5.52455 5.09607
      vertex 5.52455 23.5 5.09607
    endloop
  endfacet
  facet normal 0 0 1
    outer loop
      vertex 5.52455 23.5 5.09607
      vertex 5.81025 24.1897 5.09607
      vertex 5.5988 23.8733 5.09607
    endloop
  endfacet
  facet normal 0 0 1
    outer loop
      vertex 6.5 5.52455 5.09607
      vertex 5.52455 6.5 5.09607
      vertex 6.12671 5.5988 5.09607
    endloop
  endfacet
  facet normal 0 0 1
    outer loop
      vertex 6.12671 5.5988 5.09607
      vertex 5.52455 6.5 5.09607
      vertex 5.81025 5.81025 5.09607
    endloop
  endfacet
  facet normal 0 0 1
    outer loop
      vertex 5.81025 5.81025 5.09607
      vertex 5.52455 6.5 5.09607
      vertex 5.5988 6.12671 5.09607
    endloop
  endfacet
  facet normal 0.381579 0.075901 0.921215
    outer loop
      vertex 5.5988 6.12671 5.09607
      vertex 5.52455 6.5 5.09607
      vertex 3.9336 5.43696 5.84265
    endloop
  endfacet
  facet normal 0.908663 -0.180745 0.376381
    outer loop
      vertex 2.34265 23.5 7.22215
      vertex 2.65911 25.0909 7.22215
      vertex 1.96936 25.3767 9.02455
    endloop
  endfacet
  facet normal 0.770328 -0.514716 0.376381
    outer loop
      vertex 2.65911 25.0909 7.22215
      vertex 3.56031 26.4397 7.22215
      vertex 1.96936 25.3767 9.02455
    endloop
  endfacet
  facet normal 0.381579 -0.0759009 0.921215
    outer loop
      vertex 5.52455 23.5 5.09607
      vertex 3.9336 24.563 5.84265
      vertex 3.72215 23.5 5.84265
    endloop
  endfacet
  facet normal -0.770328 0.514717 0.37638
    outer loop
      vertex 46.9676 3.0324 9.02455
      vertex 48.0306 4.62335 9.02455
      vertex 46.4397 3.56031 7.22215
    endloop
  endfacet
  facet normal -0.514717 0.770327 0.37638
    outer loop
      vertex 46.9676 3.0324 9.02455
      vertex 46.4397 3.56031 7.22215
      vertex 45.3767 1.96936 9.02455
    endloop
  endfacet
  facet normal -0.323488 0.216147 0.921214
    outer loop
      vertex 45.4642 4.53576 5.84265
      vertex 46.0664 5.43696 5.84265
      vertex 44.4012 6.12671 5.09607
    endloop
  endfacet
  facet normal -0.323486 0.216148 0.921215
    outer loop
      vertex 45.4642 4.53576 5.84265
      vertex 44.4012 6.12671 5.09607
      vertex 44.1897 5.81025 5.09607
    endloop
  endfacet
  facet normal 0.396639 0.593613 0.700215
    outer loop
      vertex 4.90905 2.65911 7.22215
      vertex 5.43696 3.9336 5.84265
      vertex 4.53576 4.53576 5.84265
    endloop
  endfacet
  facet normal 0.216147 0.323488 0.921214
    outer loop
      vertex 5.43696 3.9336 5.84265
      vertex 6.12671 5.5988 5.09607
      vertex 4.53576 4.53576 5.84265
    endloop
  endfacet
  facet normal 0.700214 0.139281 0.700214
    outer loop
      vertex 2.65911 4.90905 7.22215
      vertex 3.72215 6.5 5.84265
      vertex 2.34265 6.5 7.22215
    endloop
  endfacet
  facet normal 0.700214 0.139281 0.700215
    outer loop
      vertex 3.9336 5.43696 5.84265
      vertex 3.72215 6.5 5.84265
      vertex 2.65911 4.90905 7.22215
    endloop
  endfacet
  facet normal -0.0759018 -0.381579 0.921214
    outer loop
      vertex 43.8733 24.4012 5.09607
      vertex 44.563 26.0664 5.84265
      vertex 43.5 24.4755 5.09607
    endloop
  endfacet
  facet normal -0.216147 -0.323488 0.921214
    outer loop
      vertex 45.4642 25.4642 5.84265
      vertex 44.563 26.0664 5.84265
      vertex 43.8733 24.4012 5.09607
    endloop
  endfacet
  facet normal -0.323488 -0.216147 0.921214
    outer loop
      vertex 46.0664 24.563 5.84265
      vertex 45.4642 25.4642 5.84265
      vertex 44.4012 23.8733 5.09607
    endloop
  endfacet
  facet normal -0.381579 -0.0759021 0.921215
    outer loop
      vertex 44.4755 23.5 5.09607
      vertex 46.0664 24.563 5.84265
      vertex 44.4012 23.8733 5.09607
    endloop
  endfacet
  facet normal -0.180745 -0.908663 0.376381
    outer loop
      vertex 45.3767 28.0306 9.02455
      vertex 43.5 28.4039 9.02455
      vertex 43.5 27.6573 7.22215
    endloop
  endfacet
  facet normal -0.195091 -0.980785 0
    outer loop
      vertex 43.5 28.4039 9.02455
      vertex 45.3767 28.0306 46
      vertex 43.5 28.4039 46
    endloop
  endfacet
  facet normal -0.195091 -0.980785 -0
    outer loop
      vertex 45.3767 28.0306 46
      vertex 43.5 28.4039 9.02455
      vertex 45.3767 28.0306 9.02455
    endloop
  endfacet
  facet normal 0.323487 -0.216147 0.921215
    outer loop
      vertex 5.5988 23.8733 5.09607
      vertex 4.53576 25.4642 5.84265
      vertex 3.9336 24.563 5.84265
    endloop
  endfacet
  facet normal 0.381579 -0.0759012 0.921215
    outer loop
      vertex 5.52455 23.5 5.09607
      vertex 5.5988 23.8733 5.09607
      vertex 3.9336 24.563 5.84265
    endloop
  endfacet
  facet normal 0.323487 -0.216148 0.921215
    outer loop
      vertex 5.5988 23.8733 5.09607
      vertex 5.81025 24.1897 5.09607
      vertex 4.53576 25.4642 5.84265
    endloop
  endfacet
  facet normal -0.514717 -0.770328 0.37638
    outer loop
      vertex 46.4397 26.4397 7.22215
      vertex 45.3767 28.0306 9.02455
      vertex 45.091 27.3409 7.22215
    endloop
  endfacet
  facet normal -0.39664 -0.593613 0.700215
    outer loop
      vertex 45.4642 25.4642 5.84265
      vertex 46.4397 26.4397 7.22215
      vertex 45.091 27.3409 7.22215
    endloop
  endfacet
  facet normal 0.908664 0.180745 -0.37638
    outer loop
      vertex 49.1573 25 2.22215
      vertex 48.8409 26.5909 2.22215
      vertex 49.5306 26.8767 4.02455
    endloop
  endfacet
  facet normal -0.180763 0.908662 0.376375
    outer loop
      vertex 3.14891 29.5256 46
      vertex 3.12335 29.5306 45.9755
      vertex 3.12724 29.5212 46
    endloop
  endfacet
  facet normal 0.382684 0 -0.923879
    outer loop
      vertex 45.9755 5 0.0960732
      vertex 47.7779 25 0.842651
      vertex 47.7779 5 0.842651
    endloop
  endfacet
  facet normal 0.382684 0 -0.923879
    outer loop
      vertex 47.7779 25 0.842651
      vertex 45.9755 5 0.0960732
      vertex 45.9755 25 0.0960732
    endloop
  endfacet
  facet normal 0.700214 -0.139281 -0.700215
    outer loop
      vertex 48.8409 3.40905 2.22215
      vertex 47.7779 5 0.842651
      vertex 49.1573 5 2.22215
    endloop
  endfacet
  facet normal -0.908658 -0.180743 0.376393
    outer loop
      vertex 0.0960732 5 45.9755
      vertex 0.474446 3.14891 46
      vertex 0.106241 5 46
    endloop
  endfacet
  facet normal -0.908658 -0.180743 0.376393
    outer loop
      vertex 0.474446 3.14891 46
      vertex 0.0960732 5 45.9755
      vertex 0.469362 3.12335 45.9755
    endloop
  endfacet
  facet normal 0.180745 0.908663 -0.376381
    outer loop
      vertex 46.8767 29.5306 4.02455
      vertex 45 29.1573 2.22215
      vertex 45 29.9039 4.02455
    endloop
  endfacet
  facet normal 0.980785 0.195091 0
    outer loop
      vertex 49.9039 25 45.9755
      vertex 49.5306 26.8767 4.02455
      vertex 49.5306 26.8767 45.9755
    endloop
  endfacet
  facet normal 0.980785 0.195091 0
    outer loop
      vertex 49.5306 26.8767 4.02455
      vertex 49.9039 25 45.9755
      vertex 49.9039 25 4.02455
    endloop
  endfacet
  facet normal 0.0759013 0.38158 -0.921214
    outer loop
      vertex 46.063 27.5664 0.842651
      vertex 45 25.9755 0.0960732
      vertex 45 27.7779 0.842651
    endloop
  endfacet
  facet normal 0.593613 -0.396639 -0.700215
    outer loop
      vertex 48.8409 3.40905 2.22215
      vertex 46.9642 3.03576 0.842651
      vertex 47.5664 3.93696 0.842651
    endloop
  endfacet
  facet normal 0.180744 -0.908658 0.376393
    outer loop
      vertex 45 0.0960732 45.9755
      vertex 46.8511 0.474446 46
      vertex 45 0.106241 46
    endloop
  endfacet
  facet normal 0.180742 -0.908652 0.376408
    outer loop
      vertex 46.8511 0.474446 46
      vertex 45 0.0960732 45.9755
      vertex 46.8767 0.469362 45.9755
    endloop
  endfacet
  facet normal 0.707107 0 -0.707107
    outer loop
      vertex 47.7779 5 0.842651
      vertex 49.1573 25 2.22215
      vertex 49.1573 5 2.22215
    endloop
  endfacet
  facet normal 0.707107 0 -0.707107
    outer loop
      vertex 49.1573 25 2.22215
      vertex 47.7779 5 0.842651
      vertex 47.7779 25 0.842651
    endloop
  endfacet
  facet normal 0.180742 0.908668 0.376372
    outer loop
      vertex 46.8767 29.5306 45.9755
      vertex 46.8511 29.5256 46
      vertex 46.8728 29.5212 46
    endloop
  endfacet
  facet normal 0.908637 0.18074 0.376446
    outer loop
      vertex 49.9039 25 45.9755
      vertex 49.5256 26.8511 46
      vertex 49.8938 25 46
    endloop
  endfacet
  facet normal 0.908646 0.180742 0.376424
    outer loop
      vertex 49.5256 26.8511 46
      vertex 49.9039 25 45.9755
      vertex 49.5306 26.8767 45.9755
    endloop
  endfacet
  facet normal -0.908663 0.180744 -0.376381
    outer loop
      vertex 0.842651 25 2.22215
      vertex 0.0960732 25 4.02455
      vertex 0.469362 26.8767 4.02455
    endloop
  endfacet
  facet normal -0.514705 0.770337 0.376377
    outer loop
      vertex 3.12335 29.5306 45.9755
      vertex 3.10887 29.509 46
      vertex 3.12724 29.5212 46
    endloop
  endfacet
  facet normal 0.923852 -0 0.382749
    outer loop
      vertex 49.8938 5 46
      vertex 49.9039 25 45.9755
      vertex 49.8938 25 46
    endloop
  endfacet
  facet normal 0.923852 0 0.382749
    outer loop
      vertex 49.9039 25 45.9755
      vertex 49.8938 5 46
      vertex 49.9039 5 45.9755
    endloop
  endfacet
  facet normal -0.19509 -0.980785 0
    outer loop
      vertex 3.12335 0.469362 4.02455
      vertex 5 0.0960732 45.9755
      vertex 3.12335 0.469362 45.9755
    endloop
  endfacet
  facet normal -0.19509 -0.980785 -0
    outer loop
      vertex 5 0.0960732 45.9755
      vertex 3.12335 0.469362 4.02455
      vertex 5 0.0960732 4.02455
    endloop
  endfacet
  facet normal 0.908663 0.180745 -0.376381
    outer loop
      vertex 49.9039 25 4.02455
      vertex 49.1573 25 2.22215
      vertex 49.5306 26.8767 4.02455
    endloop
  endfacet
  facet normal 1 -0 0
    outer loop
      vertex 49.9039 5 45.9755
      vertex 49.9039 25 4.02455
      vertex 49.9039 25 45.9755
    endloop
  endfacet
  facet normal 1 0 0
    outer loop
      vertex 49.9039 25 4.02455
      vertex 49.9039 5 45.9755
      vertex 49.9039 5 4.02455
    endloop
  endfacet
  facet normal 0.908715 0.180623 0.376314
    outer loop
      vertex 49.5306 26.8767 45.9755
      vertex 49.5212 26.8728 46
      vertex 49.5256 26.8511 46
    endloop
  endfacet
  facet normal 0.180746 0.908665 0.376375
    outer loop
      vertex 45 29.9039 45.9755
      vertex 46.8511 29.5256 46
      vertex 46.8767 29.5306 45.9755
    endloop
  endfacet
  facet normal 0.180739 0.908638 0.376446
    outer loop
      vertex 46.8511 29.5256 46
      vertex 45 29.9039 45.9755
      vertex 45 29.8938 46
    endloop
  endfacet
  facet normal 0.770328 0.514717 -0.376379
    outer loop
      vertex 49.5306 26.8767 4.02455
      vertex 47.9397 27.9397 2.22215
      vertex 48.4676 28.4676 4.02455
    endloop
  endfacet
  facet normal 0.180744 0.908664 -0.37638
    outer loop
      vertex 46.591 28.8409 2.22215
      vertex 45 29.1573 2.22215
      vertex 46.8767 29.5306 4.02455
    endloop
  endfacet
  facet normal 0.700214 0.139281 -0.700215
    outer loop
      vertex 49.1573 25 2.22215
      vertex 47.7779 25 0.842651
      vertex 48.8409 26.5909 2.22215
    endloop
  endfacet
  facet normal -0.514717 -0.770328 -0.37638
    outer loop
      vertex 3.12335 0.469362 4.02455
      vertex 1.5324 1.5324 4.02455
      vertex 2.06031 2.06031 2.22215
    endloop
  endfacet
  facet normal -0.180743 -0.908658 0.376393
    outer loop
      vertex 5 0.0960732 45.9755
      vertex 3.14891 0.474446 46
      vertex 3.12335 0.469362 45.9755
    endloop
  endfacet
  facet normal -0.180743 -0.908658 0.376393
    outer loop
      vertex 3.14891 0.474446 46
      vertex 5 0.0960732 45.9755
      vertex 5 0.106241 46
    endloop
  endfacet
  facet normal -0.770323 -0.514714 0.376394
    outer loop
      vertex 1.5324 1.5324 45.9755
      vertex 0.491031 3.10887 46
      vertex 0.469362 3.12335 45.9755
    endloop
  endfacet
  facet normal -0.770323 -0.514714 0.376394
    outer loop
      vertex 0.491031 3.10887 46
      vertex 1.5324 1.5324 45.9755
      vertex 1.53959 1.53959 46
    endloop
  endfacet
  facet normal 0.555571 -0.831469 0
    outer loop
      vertex 46.8767 0.469362 4.02455
      vertex 48.4676 1.5324 45.9755
      vertex 46.8767 0.469362 45.9755
    endloop
  endfacet
  facet normal 0.555571 -0.831469 0
    outer loop
      vertex 48.4676 1.5324 45.9755
      vertex 46.8767 0.469362 4.02455
      vertex 48.4676 1.5324 4.02455
    endloop
  endfacet
  facet normal 0.323486 -0.216148 -0.921215
    outer loop
      vertex 46.9642 3.03576 0.842651
      vertex 45.6897 4.31025 0.0960732
      vertex 45.9012 4.62671 0.0960732
    endloop
  endfacet
  facet normal 0.514717 -0.770327 -0.37638
    outer loop
      vertex 48.4676 1.5324 4.02455
      vertex 46.8767 0.469362 4.02455
      vertex 47.9397 2.06031 2.22215
    endloop
  endfacet
  facet normal 0 -0.707107 -0.707107
    outer loop
      vertex 5 2.22215 0.842651
      vertex 45 0.842651 2.22215
      vertex 5 0.842651 2.22215
    endloop
  endfacet
  facet normal 0 -0.707107 -0.707107
    outer loop
      vertex 45 0.842651 2.22215
      vertex 5 2.22215 0.842651
      vertex 45 2.22215 0.842651
    endloop
  endfacet
  facet normal -0.195091 0.980785 0
    outer loop
      vertex 5 29.9039 4.02455
      vertex 3.12335 29.5306 45.9755
      vertex 5 29.9039 45.9755
    endloop
  endfacet
  facet normal -0.195091 0.980785 0
    outer loop
      vertex 3.12335 29.5306 45.9755
      vertex 5 29.9039 4.02455
      vertex 3.12335 29.5306 4.02455
    endloop
  endfacet
  facet normal -0.55557 0.83147 0
    outer loop
      vertex 3.12335 29.5306 4.02455
      vertex 1.5324 28.4676 45.9755
      vertex 3.12335 29.5306 45.9755
    endloop
  endfacet
  facet normal -0.55557 0.83147 0
    outer loop
      vertex 1.5324 28.4676 45.9755
      vertex 3.12335 29.5306 4.02455
      vertex 1.5324 28.4676 4.02455
    endloop
  endfacet
  facet normal -0.381579 -0.0759009 -0.921215
    outer loop
      vertex 2.4336 3.93696 0.842651
      vertex 2.22215 5 0.842651
      vertex 4.02455 5 0.0960732
    endloop
  endfacet
  facet normal 0.381579 0.0759021 -0.921215
    outer loop
      vertex 45.9755 25 0.0960732
      vertex 45.9012 25.3733 0.0960732
      vertex 47.5664 26.063 0.842651
    endloop
  endfacet
  facet normal 0 0.382684 -0.923879
    outer loop
      vertex 5 25.9755 0.0960732
      vertex 45 27.7779 0.842651
      vertex 45 25.9755 0.0960732
    endloop
  endfacet
  facet normal 0 0.382684 -0.923879
    outer loop
      vertex 45 27.7779 0.842651
      vertex 5 25.9755 0.0960732
      vertex 5 27.7779 0.842651
    endloop
  endfacet
  facet normal -0.323487 0.216147 -0.921215
    outer loop
      vertex 4.0988 25.3733 0.0960732
      vertex 2.4336 26.063 0.842651
      vertex 3.03576 26.9642 0.842651
    endloop
  endfacet
  facet normal -0.908652 0.180752 0.376404
    outer loop
      vertex 0.478757 26.8728 46
      vertex 0.469362 26.8767 45.9755
      vertex 0.474446 26.8511 46
    endloop
  endfacet
  facet normal 0.195091 0.980785 -0
    outer loop
      vertex 46.8767 29.5306 4.02455
      vertex 45 29.9039 45.9755
      vertex 46.8767 29.5306 45.9755
    endloop
  endfacet
  facet normal 0.195091 0.980785 0
    outer loop
      vertex 45 29.9039 45.9755
      vertex 46.8767 29.5306 4.02455
      vertex 45 29.9039 4.02455
    endloop
  endfacet
  facet normal -0.180739 0.908638 0.376446
    outer loop
      vertex 5 29.9039 45.9755
      vertex 3.14891 29.5256 46
      vertex 5 29.8938 46
    endloop
  endfacet
  facet normal -0.180747 0.908671 0.37636
    outer loop
      vertex 3.14891 29.5256 46
      vertex 5 29.9039 45.9755
      vertex 3.12335 29.5306 45.9755
    endloop
  endfacet
  facet normal 0 1 -0
    outer loop
      vertex 45 29.9039 4.02455
      vertex 5 29.9039 45.9755
      vertex 45 29.9039 45.9755
    endloop
  endfacet
  facet normal 0 1 0
    outer loop
      vertex 5 29.9039 45.9755
      vertex 45 29.9039 4.02455
      vertex 5 29.9039 4.02455
    endloop
  endfacet
  facet normal 0.514754 -0.770301 0.376385
    outer loop
      vertex 46.8911 0.491031 46
      vertex 46.8728 0.478757 46
      vertex 46.8767 0.469362 45.9755
    endloop
  endfacet
  facet normal 0.770309 0.514766 0.376351
    outer loop
      vertex 49.5306 26.8767 45.9755
      vertex 49.509 26.8911 46
      vertex 49.5212 26.8728 46
    endloop
  endfacet
  facet normal -0.180744 -0.908663 -0.376381
    outer loop
      vertex 5 0.0960732 4.02455
      vertex 3.12335 0.469362 4.02455
      vertex 5 0.842651 2.22215
    endloop
  endfacet
  facet normal 0 -0.923874 0.382696
    outer loop
      vertex 5 0.0960732 45.9755
      vertex 45 0.106241 46
      vertex 5 0.106241 46
    endloop
  endfacet
  facet normal 0 -0.923874 0.382696
    outer loop
      vertex 45 0.106241 46
      vertex 5 0.0960732 45.9755
      vertex 45 0.0960732 45.9755
    endloop
  endfacet
  facet normal -0.908658 -0.180743 0.376393
    outer loop
      vertex 0.474446 3.14891 46
      vertex 0.469362 3.12335 45.9755
      vertex 0.478757 3.12724 46
    endloop
  endfacet
  facet normal 0.770328 -0.514717 -0.37638
    outer loop
      vertex 48.4676 1.5324 4.02455
      vertex 47.9397 2.06031 2.22215
      vertex 49.5306 3.12335 4.02455
    endloop
  endfacet
  facet normal 0.514717 -0.770328 -0.37638
    outer loop
      vertex 46.8767 0.469362 4.02455
      vertex 46.591 1.15911 2.22215
      vertex 47.9397 2.06031 2.22215
    endloop
  endfacet
  facet normal 0.92388 0 -0.382683
    outer loop
      vertex 49.9039 5 4.02455
      vertex 49.1573 25 2.22215
      vertex 49.9039 25 4.02455
    endloop
  endfacet
  facet normal 0.92388 0 -0.382683
    outer loop
      vertex 49.1573 25 2.22215
      vertex 49.9039 5 4.02455
      vertex 49.1573 5 2.22215
    endloop
  endfacet
  facet normal 0 -1 0
    outer loop
      vertex 5 0.0960732 4.02455
      vertex 45 0.0960732 45.9755
      vertex 5 0.0960732 45.9755
    endloop
  endfacet
  facet normal 0 -1 -0
    outer loop
      vertex 45 0.0960732 45.9755
      vertex 5 0.0960732 4.02455
      vertex 45 0.0960732 4.02455
    endloop
  endfacet
  facet normal -0.216147 -0.323488 -0.921214
    outer loop
      vertex 3.93696 2.4336 0.842651
      vertex 3.03576 3.03576 0.842651
      vertex 4.62671 4.0988 0.0960732
    endloop
  endfacet
  facet normal -0.39664 -0.593613 -0.700215
    outer loop
      vertex 3.40905 1.15911 2.22215
      vertex 2.06031 2.06031 2.22215
      vertex 3.03576 3.03576 0.842651
    endloop
  endfacet
  facet normal 0 0.92388 -0.382683
    outer loop
      vertex 45 29.1573 2.22215
      vertex 5 29.9039 4.02455
      vertex 45 29.9039 4.02455
    endloop
  endfacet
  facet normal 0 0.92388 -0.382683
    outer loop
      vertex 5 29.9039 4.02455
      vertex 45 29.1573 2.22215
      vertex 5 29.1573 2.22215
    endloop
  endfacet
  facet normal -0.923874 0 0.382696
    outer loop
      vertex 0.0960732 5 45.9755
      vertex 0.106241 25 46
      vertex 0.0960732 25 45.9755
    endloop
  endfacet
  facet normal -0.923874 0 0.382696
    outer loop
      vertex 0.106241 25 46
      vertex 0.0960732 5 45.9755
      vertex 0.106241 5 46
    endloop
  endfacet
  facet normal -0.381579 -0.075901 -0.921215
    outer loop
      vertex 4.0988 4.62671 0.0960732
      vertex 2.4336 3.93696 0.842651
      vertex 4.02455 5 0.0960732
    endloop
  endfacet
  facet normal -0.323488 -0.216147 -0.921214
    outer loop
      vertex 3.03576 3.03576 0.842651
      vertex 2.4336 3.93696 0.842651
      vertex 4.0988 4.62671 0.0960732
    endloop
  endfacet
  facet normal 0 0.923852 0.382749
    outer loop
      vertex 45 29.9039 45.9755
      vertex 5 29.8938 46
      vertex 45 29.8938 46
    endloop
  endfacet
  facet normal 0 0.923852 0.382749
    outer loop
      vertex 5 29.8938 46
      vertex 45 29.9039 45.9755
      vertex 5 29.9039 45.9755
    endloop
  endfacet
  facet normal -0.770327 0.514717 -0.37638
    outer loop
      vertex 2.06031 27.9397 2.22215
      vertex 0.469362 26.8767 4.02455
      vertex 1.5324 28.4676 4.02455
    endloop
  endfacet
  facet normal 0.700214 0.139282 -0.700215
    outer loop
      vertex 47.7779 25 0.842651
      vertex 47.5664 26.063 0.842651
      vertex 48.8409 26.5909 2.22215
    endloop
  endfacet
  facet normal 0.770328 0.514716 -0.37638
    outer loop
      vertex 48.8409 26.5909 2.22215
      vertex 47.9397 27.9397 2.22215
      vertex 49.5306 26.8767 4.02455
    endloop
  endfacet
  facet normal 0.514717 0.770328 -0.376379
    outer loop
      vertex 47.9397 27.9397 2.22215
      vertex 46.8767 29.5306 4.02455
      vertex 48.4676 28.4676 4.02455
    endloop
  endfacet
  facet normal 0.908637 -0.18074 0.376446
    outer loop
      vertex 49.5256 3.14891 46
      vertex 49.9039 5 45.9755
      vertex 49.8938 5 46
    endloop
  endfacet
  facet normal 0.908647 -0.180742 0.376421
    outer loop
      vertex 49.9039 5 45.9755
      vertex 49.5256 3.14891 46
      vertex 49.5306 3.12335 45.9755
    endloop
  endfacet
  facet normal 0.908721 -0.180614 0.376303
    outer loop
      vertex 49.5256 3.14891 46
      vertex 49.5212 3.12724 46
      vertex 49.5306 3.12335 45.9755
    endloop
  endfacet
  facet normal 0.770325 0.514716 0.376386
    outer loop
      vertex 49.509 26.8911 46
      vertex 48.4676 28.4676 45.9755
      vertex 48.4604 28.4604 46
    endloop
  endfacet
  facet normal 0.770323 0.514714 0.376394
    outer loop
      vertex 48.4676 28.4676 45.9755
      vertex 49.509 26.8911 46
      vertex 49.5306 26.8767 45.9755
    endloop
  endfacet
  facet normal 0.514719 0.770331 0.376369
    outer loop
      vertex 48.4676 28.4676 45.9755
      vertex 46.8911 29.509 46
      vertex 48.4604 28.4604 46
    endloop
  endfacet
  facet normal 0.514714 0.770323 0.376394
    outer loop
      vertex 46.8911 29.509 46
      vertex 48.4676 28.4676 45.9755
      vertex 46.8767 29.5306 45.9755
    endloop
  endfacet
  facet normal 0.180722 -0.908664 0.37639
    outer loop
      vertex 46.8728 0.478757 46
      vertex 46.8511 0.474446 46
      vertex 46.8767 0.469362 45.9755
    endloop
  endfacet
  facet normal 0.908663 -0.180745 -0.376381
    outer loop
      vertex 49.5306 3.12335 4.02455
      vertex 49.1573 5 2.22215
      vertex 49.9039 5 4.02455
    endloop
  endfacet
  facet normal 0.180744 -0.908663 -0.376381
    outer loop
      vertex 46.8767 0.469362 4.02455
      vertex 45 0.842651 2.22215
      vertex 46.591 1.15911 2.22215
    endloop
  endfacet
  facet normal 0.770319 -0.514773 0.376321
    outer loop
      vertex 49.5212 3.12724 46
      vertex 49.509 3.10887 46
      vertex 49.5306 3.12335 45.9755
    endloop
  endfacet
  facet normal 0.514707 -0.770313 0.376423
    outer loop
      vertex 48.4676 1.5324 45.9755
      vertex 46.8911 0.491031 46
      vertex 46.8767 0.469362 45.9755
    endloop
  endfacet
  facet normal 0.514711 -0.770319 0.376404
    outer loop
      vertex 46.8911 0.491031 46
      vertex 48.4676 1.5324 45.9755
      vertex 48.4604 1.53959 46
    endloop
  endfacet
  facet normal 0 -0.92388 -0.382683
    outer loop
      vertex 5 0.842651 2.22215
      vertex 45 0.0960732 4.02455
      vertex 5 0.0960732 4.02455
    endloop
  endfacet
  facet normal 0 -0.92388 -0.382683
    outer loop
      vertex 45 0.0960732 4.02455
      vertex 5 0.842651 2.22215
      vertex 45 0.842651 2.22215
    endloop
  endfacet
  facet normal 0 -0.382683 -0.92388
    outer loop
      vertex 45 2.22215 0.842651
      vertex 5 4.02455 0.0960732
      vertex 45 4.02455 0.0960732
    endloop
  endfacet
  facet normal 0 -0.382683 -0.92388
    outer loop
      vertex 5 4.02455 0.0960732
      vertex 45 2.22215 0.842651
      vertex 5 2.22215 0.842651
    endloop
  endfacet
  facet normal -0.075901 -0.381579 -0.921215
    outer loop
      vertex 5 2.22215 0.842651
      vertex 4.62671 4.0988 0.0960732
      vertex 5 4.02455 0.0960732
    endloop
  endfacet
  facet normal 0 0 -1
    outer loop
      vertex 45 4.02455 0.0960732
      vertex 45.9755 5 0.0960732
      vertex 45.9012 4.62671 0.0960732
    endloop
  endfacet
  facet normal -0 0 -1
    outer loop
      vertex 45.9755 5 0.0960732
      vertex 45 4.02455 0.0960732
      vertex 45.9755 25 0.0960732
    endloop
  endfacet
  facet normal 0 0 -1
    outer loop
      vertex 45 4.02455 0.0960732
      vertex 45.9012 4.62671 0.0960732
      vertex 45.6897 4.31025 0.0960732
    endloop
  endfacet
  facet normal 0 0 -1
    outer loop
      vertex 45 25.9755 0.0960732
      vertex 45.9755 25 0.0960732
      vertex 45 4.02455 0.0960732
    endloop
  endfacet
  facet normal 0 0 -1
    outer loop
      vertex 45 4.02455 0.0960732
      vertex 45.6897 4.31025 0.0960732
      vertex 45.3733 4.0988 0.0960732
    endloop
  endfacet
  facet normal 0 0 -1
    outer loop
      vertex 45.9755 25 0.0960732
      vertex 45 25.9755 0.0960732
      vertex 45.9012 25.3733 0.0960732
    endloop
  endfacet
  facet normal 0 0 -1
    outer loop
      vertex 45.9012 25.3733 0.0960732
      vertex 45 25.9755 0.0960732
      vertex 45.6897 25.6897 0.0960732
    endloop
  endfacet
  facet normal 0 0 -1
    outer loop
      vertex 45.6897 25.6897 0.0960732
      vertex 45 25.9755 0.0960732
      vertex 45.3733 25.9012 0.0960732
    endloop
  endfacet
  facet normal 0 0 -1
    outer loop
      vertex 5 4.02455 0.0960732
      vertex 45 25.9755 0.0960732
      vertex 45 4.02455 0.0960732
    endloop
  endfacet
  facet normal 0 0 -1
    outer loop
      vertex 5 4.02455 0.0960732
      vertex 5 25.9755 0.0960732
      vertex 45 25.9755 0.0960732
    endloop
  endfacet
  facet normal 0 0 -1
    outer loop
      vertex 4.02455 5 0.0960732
      vertex 5 4.02455 0.0960732
      vertex 4.62671 4.0988 0.0960732
    endloop
  endfacet
  facet normal 0 0 -1
    outer loop
      vertex 5 4.02455 0.0960732
      vertex 4.02455 5 0.0960732
      vertex 5 25.9755 0.0960732
    endloop
  endfacet
  facet normal 0 0 -1
    outer loop
      vertex 4.02455 5 0.0960732
      vertex 4.62671 4.0988 0.0960732
      vertex 4.31025 4.31025 0.0960732
    endloop
  endfacet
  facet normal 0 0 -1
    outer loop
      vertex 4.02455 25 0.0960732
      vertex 5 25.9755 0.0960732
      vertex 4.02455 5 0.0960732
    endloop
  endfacet
  facet normal 0 0 -1
    outer loop
      vertex 4.02455 5 0.0960732
      vertex 4.31025 4.31025 0.0960732
      vertex 4.0988 4.62671 0.0960732
    endloop
  endfacet
  facet normal 0 0 -1
    outer loop
      vertex 5 25.9755 0.0960732
      vertex 4.02455 25 0.0960732
      vertex 4.62671 25.9012 0.0960732
    endloop
  endfacet
  facet normal 0 0 -1
    outer loop
      vertex 4.62671 25.9012 0.0960732
      vertex 4.02455 25 0.0960732
      vertex 4.31025 25.6897 0.0960732
    endloop
  endfacet
  facet normal 0 0 -1
    outer loop
      vertex 4.31025 25.6897 0.0960732
      vertex 4.02455 25 0.0960732
      vertex 4.0988 25.3733 0.0960732
    endloop
  endfacet
  facet normal -0.323487 -0.216148 -0.921215
    outer loop
      vertex 4.31025 4.31025 0.0960732
      vertex 3.03576 3.03576 0.842651
      vertex 4.0988 4.62671 0.0960732
    endloop
  endfacet
  facet normal -1 0 0
    outer loop
      vertex 0.0960732 5 4.02455
      vertex 0.0960732 25 45.9755
      vertex 0.0960732 25 4.02455
    endloop
  endfacet
  facet normal -1 -0 0
    outer loop
      vertex 0.0960732 25 45.9755
      vertex 0.0960732 5 4.02455
      vertex 0.0960732 5 45.9755
    endloop
  endfacet
  facet normal -0.980785 0.19509 0
    outer loop
      vertex 0.0960732 25 4.02455
      vertex 0.469362 26.8767 45.9755
      vertex 0.469362 26.8767 4.02455
    endloop
  endfacet
  facet normal -0.980785 0.19509 0
    outer loop
      vertex 0.469362 26.8767 45.9755
      vertex 0.0960732 25 4.02455
      vertex 0.0960732 25 45.9755
    endloop
  endfacet
  facet normal -0.396639 0.593613 -0.700215
    outer loop
      vertex 3.93696 27.5664 0.842651
      vertex 3.03576 26.9642 0.842651
      vertex 3.40905 28.8409 2.22215
    endloop
  endfacet
  facet normal -0.382683 0 -0.92388
    outer loop
      vertex 2.22215 5 0.842651
      vertex 4.02455 25 0.0960732
      vertex 4.02455 5 0.0960732
    endloop
  endfacet
  facet normal -0.382683 0 -0.92388
    outer loop
      vertex 4.02455 25 0.0960732
      vertex 2.22215 5 0.842651
      vertex 2.22215 25 0.842651
    endloop
  endfacet
  facet normal 0.0759018 0.381579 -0.921214
    outer loop
      vertex 45.3733 25.9012 0.0960732
      vertex 45 25.9755 0.0960732
      vertex 46.063 27.5664 0.842651
    endloop
  endfacet
  facet normal 0.396639 0.593613 -0.700215
    outer loop
      vertex 46.9642 26.9642 0.842651
      vertex 46.063 27.5664 0.842651
      vertex 46.591 28.8409 2.22215
    endloop
  endfacet
  facet normal -0.0759019 0.381579 -0.921215
    outer loop
      vertex 4.62671 25.9012 0.0960732
      vertex 3.93696 27.5664 0.842651
      vertex 5 25.9755 0.0960732
    endloop
  endfacet
  facet normal 0.139282 0.700214 -0.700215
    outer loop
      vertex 46.063 27.5664 0.842651
      vertex 45 27.7779 0.842651
      vertex 46.591 28.8409 2.22215
    endloop
  endfacet
  facet normal 0.514717 0.770328 -0.37638
    outer loop
      vertex 47.9397 27.9397 2.22215
      vertex 46.591 28.8409 2.22215
      vertex 46.8767 29.5306 4.02455
    endloop
  endfacet
  facet normal 0.39664 0.593613 -0.700215
    outer loop
      vertex 46.9642 26.9642 0.842651
      vertex 46.591 28.8409 2.22215
      vertex 47.9397 27.9397 2.22215
    endloop
  endfacet
  facet normal -0.139281 0.700214 -0.700215
    outer loop
      vertex 5 27.7779 0.842651
      vertex 3.40905 28.8409 2.22215
      vertex 5 29.1573 2.22215
    endloop
  endfacet
  facet normal -0.514717 0.770328 -0.37638
    outer loop
      vertex 2.06031 27.9397 2.22215
      vertex 1.5324 28.4676 4.02455
      vertex 3.12335 29.5306 4.02455
    endloop
  endfacet
  facet normal 0.555571 0.831469 -0
    outer loop
      vertex 48.4676 28.4676 4.02455
      vertex 46.8767 29.5306 45.9755
      vertex 48.4676 28.4676 45.9755
    endloop
  endfacet
  facet normal 0.555571 0.831469 0
    outer loop
      vertex 46.8767 29.5306 45.9755
      vertex 48.4676 28.4676 4.02455
      vertex 46.8767 29.5306 4.02455
    endloop
  endfacet
  facet normal 0.831469 0.555571 0
    outer loop
      vertex 49.5306 26.8767 45.9755
      vertex 48.4676 28.4676 4.02455
      vertex 48.4676 28.4676 45.9755
    endloop
  endfacet
  facet normal 0.831469 0.555571 0
    outer loop
      vertex 48.4676 28.4676 4.02455
      vertex 49.5306 26.8767 45.9755
      vertex 49.5306 26.8767 4.02455
    endloop
  endfacet
  facet normal 0.770317 -0.514711 0.37641
    outer loop
      vertex 48.4676 1.5324 45.9755
      vertex 49.509 3.10887 46
      vertex 48.4604 1.53959 46
    endloop
  endfacet
  facet normal 0.770333 -0.51472 0.376364
    outer loop
      vertex 49.509 3.10887 46
      vertex 48.4676 1.5324 45.9755
      vertex 49.5306 3.12335 45.9755
    endloop
  endfacet
  facet normal 0.83147 -0.55557 0
    outer loop
      vertex 48.4676 1.5324 45.9755
      vertex 49.5306 3.12335 4.02455
      vertex 49.5306 3.12335 45.9755
    endloop
  endfacet
  facet normal 0.83147 -0.55557 0
    outer loop
      vertex 49.5306 3.12335 4.02455
      vertex 48.4676 1.5324 45.9755
      vertex 48.4676 1.5324 4.02455
    endloop
  endfacet
  facet normal 0.980785 -0.195091 0
    outer loop
      vertex 49.5306 3.12335 45.9755
      vertex 49.9039 5 4.02455
      vertex 49.9039 5 45.9755
    endloop
  endfacet
  facet normal 0.980785 -0.195091 0
    outer loop
      vertex 49.9039 5 4.02455
      vertex 49.5306 3.12335 45.9755
      vertex 49.5306 3.12335 4.02455
    endloop
  endfacet
  facet normal 0.514743 0.770315 0.37637
    outer loop
      vertex 46.8767 29.5306 45.9755
      vertex 46.8728 29.5212 46
      vertex 46.8911 29.509 46
    endloop
  endfacet
  facet normal -0.514714 -0.770323 0.376394
    outer loop
      vertex 1.5324 1.5324 45.9755
      vertex 3.10887 0.491031 46
      vertex 1.53959 1.53959 46
    endloop
  endfacet
  facet normal -0.514714 -0.770323 0.376394
    outer loop
      vertex 3.10887 0.491031 46
      vertex 1.5324 1.5324 45.9755
      vertex 3.12335 0.469362 45.9755
    endloop
  endfacet
  facet normal -0.514715 -0.770323 0.376393
    outer loop
      vertex 3.12724 0.478757 46
      vertex 3.10887 0.491031 46
      vertex 3.12335 0.469362 45.9755
    endloop
  endfacet
  facet normal -0.180743 -0.908658 0.376393
    outer loop
      vertex 3.12724 0.478757 46
      vertex 3.12335 0.469362 45.9755
      vertex 3.14891 0.474446 46
    endloop
  endfacet
  facet normal 0.39664 -0.593613 -0.700215
    outer loop
      vertex 47.9397 2.06031 2.22215
      vertex 46.591 1.15911 2.22215
      vertex 46.9642 3.03576 0.842651
    endloop
  endfacet
  facet normal 0.216148 -0.323488 -0.921214
    outer loop
      vertex 46.063 2.4336 0.842651
      vertex 45.3733 4.0988 0.0960732
      vertex 46.9642 3.03576 0.842651
    endloop
  endfacet
  facet normal -0.180745 -0.908663 -0.376381
    outer loop
      vertex 5 0.842651 2.22215
      vertex 3.12335 0.469362 4.02455
      vertex 3.40905 1.15911 2.22215
    endloop
  endfacet
  facet normal -0.707107 0 -0.707107
    outer loop
      vertex 2.22215 5 0.842651
      vertex 0.842651 25 2.22215
      vertex 2.22215 25 0.842651
    endloop
  endfacet
  facet normal -0.707107 -0 -0.707107
    outer loop
      vertex 0.842651 25 2.22215
      vertex 2.22215 5 0.842651
      vertex 0.842651 5 2.22215
    endloop
  endfacet
  facet normal 0.180744 -0.908663 -0.376381
    outer loop
      vertex 46.8767 0.469362 4.02455
      vertex 45 0.0960732 4.02455
      vertex 45 0.842651 2.22215
    endloop
  endfacet
  facet normal 0.19509 -0.980785 0
    outer loop
      vertex 45 0.0960732 4.02455
      vertex 46.8767 0.469362 45.9755
      vertex 45 0.0960732 45.9755
    endloop
  endfacet
  facet normal 0.19509 -0.980785 0
    outer loop
      vertex 46.8767 0.469362 45.9755
      vertex 45 0.0960732 4.02455
      vertex 46.8767 0.469362 4.02455
    endloop
  endfacet
  facet normal 0.38158 -0.0759013 -0.921214
    outer loop
      vertex 47.5664 3.93696 0.842651
      vertex 45.9755 5 0.0960732
      vertex 47.7779 5 0.842651
    endloop
  endfacet
  facet normal 0.216149 -0.323486 -0.921215
    outer loop
      vertex 46.9642 3.03576 0.842651
      vertex 45.3733 4.0988 0.0960732
      vertex 45.6897 4.31025 0.0960732
    endloop
  endfacet
  facet normal 0.139281 -0.700214 -0.700215
    outer loop
      vertex 46.591 1.15911 2.22215
      vertex 45 2.22215 0.842651
      vertex 46.063 2.4336 0.842651
    endloop
  endfacet
  facet normal -0.139281 -0.700214 -0.700214
    outer loop
      vertex 5 0.842651 2.22215
      vertex 3.40905 1.15911 2.22215
      vertex 5 2.22215 0.842651
    endloop
  endfacet
  facet normal -0.075901 -0.381579 -0.921215
    outer loop
      vertex 5 2.22215 0.842651
      vertex 3.93696 2.4336 0.842651
      vertex 4.62671 4.0988 0.0960732
    endloop
  endfacet
  facet normal -0.700215 0.139281 -0.700214
    outer loop
      vertex 2.22215 25 0.842651
      vertex 1.15911 26.5909 2.22215
      vertex 2.4336 26.063 0.842651
    endloop
  endfacet
  facet normal -0.514716 -0.770328 -0.376381
    outer loop
      vertex 3.12335 0.469362 4.02455
      vertex 2.06031 2.06031 2.22215
      vertex 3.40905 1.15911 2.22215
    endloop
  endfacet
  facet normal -0.216148 -0.323487 -0.921215
    outer loop
      vertex 4.62671 4.0988 0.0960732
      vertex 3.03576 3.03576 0.842651
      vertex 4.31025 4.31025 0.0960732
    endloop
  endfacet
  facet normal -0.908663 -0.180744 -0.376381
    outer loop
      vertex 0.469362 3.12335 4.02455
      vertex 0.0960732 5 4.02455
      vertex 0.842651 5 2.22215
    endloop
  endfacet
  facet normal -0.593613 -0.39664 -0.700215
    outer loop
      vertex 2.06031 2.06031 2.22215
      vertex 1.15911 3.40905 2.22215
      vertex 3.03576 3.03576 0.842651
    endloop
  endfacet
  facet normal -0.908657 0.180743 0.376396
    outer loop
      vertex 0.0960732 25 45.9755
      vertex 0.474446 26.8511 46
      vertex 0.469362 26.8767 45.9755
    endloop
  endfacet
  facet normal -0.908658 0.180743 0.376393
    outer loop
      vertex 0.474446 26.8511 46
      vertex 0.0960732 25 45.9755
      vertex 0.106241 25 46
    endloop
  endfacet
  facet normal -0.51472 0.770333 0.376364
    outer loop
      vertex 1.5324 28.4676 45.9755
      vertex 3.10887 29.509 46
      vertex 3.12335 29.5306 45.9755
    endloop
  endfacet
  facet normal -0.514722 0.770335 0.376358
    outer loop
      vertex 3.10887 29.509 46
      vertex 1.5324 28.4676 45.9755
      vertex 1.53959 28.4604 46
    endloop
  endfacet
  facet normal -0.180745 0.908663 -0.376381
    outer loop
      vertex 5 29.1573 2.22215
      vertex 3.12335 29.5306 4.02455
      vertex 5 29.9039 4.02455
    endloop
  endfacet
  facet normal -0.180745 0.908664 -0.37638
    outer loop
      vertex 3.40905 28.8409 2.22215
      vertex 3.12335 29.5306 4.02455
      vertex 5 29.1573 2.22215
    endloop
  endfacet
  facet normal -0.92388 0 -0.382683
    outer loop
      vertex 0.842651 5 2.22215
      vertex 0.0960732 25 4.02455
      vertex 0.842651 25 2.22215
    endloop
  endfacet
  facet normal -0.92388 -0 -0.382683
    outer loop
      vertex 0.0960732 25 4.02455
      vertex 0.842651 5 2.22215
      vertex 0.0960732 5 4.02455
    endloop
  endfacet
  facet normal -0.831469 0.555571 0
    outer loop
      vertex 0.469362 26.8767 4.02455
      vertex 1.5324 28.4676 45.9755
      vertex 1.5324 28.4676 4.02455
    endloop
  endfacet
  facet normal -0.831469 0.555571 0
    outer loop
      vertex 1.5324 28.4676 45.9755
      vertex 0.469362 26.8767 4.02455
      vertex 0.469362 26.8767 45.9755
    endloop
  endfacet
  facet normal -0.514716 0.770328 -0.37638
    outer loop
      vertex 3.40905 28.8409 2.22215
      vertex 2.06031 27.9397 2.22215
      vertex 3.12335 29.5306 4.02455
    endloop
  endfacet
  facet normal 0.38158 0.0759013 -0.921214
    outer loop
      vertex 47.7779 25 0.842651
      vertex 45.9755 25 0.0960732
      vertex 47.5664 26.063 0.842651
    endloop
  endfacet
  facet normal -0.216147 0.323488 -0.921214
    outer loop
      vertex 4.62671 25.9012 0.0960732
      vertex 3.03576 26.9642 0.842651
      vertex 3.93696 27.5664 0.842651
    endloop
  endfacet
  facet normal -0.770328 0.514716 -0.376381
    outer loop
      vertex 1.15911 26.5909 2.22215
      vertex 0.469362 26.8767 4.02455
      vertex 2.06031 27.9397 2.22215
    endloop
  endfacet
  facet normal -0.396639 0.593613 -0.700215
    outer loop
      vertex 3.03576 26.9642 0.842651
      vertex 2.06031 27.9397 2.22215
      vertex 3.40905 28.8409 2.22215
    endloop
  endfacet
  facet normal -0.770323 -0.514715 0.376393
    outer loop
      vertex 0.478757 3.12724 46
      vertex 0.469362 3.12335 45.9755
      vertex 0.491031 3.10887 46
    endloop
  endfacet
  facet normal 0.908664 -0.180745 -0.37638
    outer loop
      vertex 49.5306 3.12335 4.02455
      vertex 48.8409 3.40905 2.22215
      vertex 49.1573 5 2.22215
    endloop
  endfacet
  facet normal 0.770328 -0.514716 -0.37638
    outer loop
      vertex 49.5306 3.12335 4.02455
      vertex 47.9397 2.06031 2.22215
      vertex 48.8409 3.40905 2.22215
    endloop
  endfacet
  facet normal 0.139281 -0.700215 -0.700215
    outer loop
      vertex 46.591 1.15911 2.22215
      vertex 45 0.842651 2.22215
      vertex 45 2.22215 0.842651
    endloop
  endfacet
  facet normal 0.39664 -0.593613 -0.700215
    outer loop
      vertex 46.591 1.15911 2.22215
      vertex 46.063 2.4336 0.842651
      vertex 46.9642 3.03576 0.842651
    endloop
  endfacet
  facet normal 0.700214 -0.139282 -0.700215
    outer loop
      vertex 48.8409 3.40905 2.22215
      vertex 47.5664 3.93696 0.842651
      vertex 47.7779 5 0.842651
    endloop
  endfacet
  facet normal 0.593613 -0.396639 -0.700215
    outer loop
      vertex 47.9397 2.06031 2.22215
      vertex 46.9642 3.03576 0.842651
      vertex 48.8409 3.40905 2.22215
    endloop
  endfacet
  facet normal -0.139282 -0.700214 -0.700215
    outer loop
      vertex 5 2.22215 0.842651
      vertex 3.40905 1.15911 2.22215
      vertex 3.93696 2.4336 0.842651
    endloop
  endfacet
  facet normal -0.396639 -0.593613 -0.700215
    outer loop
      vertex 3.40905 1.15911 2.22215
      vertex 3.03576 3.03576 0.842651
      vertex 3.93696 2.4336 0.842651
    endloop
  endfacet
  facet normal -0.700214 -0.139281 -0.700214
    outer loop
      vertex 1.15911 3.40905 2.22215
      vertex 0.842651 5 2.22215
      vertex 2.22215 5 0.842651
    endloop
  endfacet
  facet normal -0.980785 -0.19509 0
    outer loop
      vertex 0.469362 3.12335 4.02455
      vertex 0.0960732 5 45.9755
      vertex 0.0960732 5 4.02455
    endloop
  endfacet
  facet normal -0.980785 -0.19509 0
    outer loop
      vertex 0.0960732 5 45.9755
      vertex 0.469362 3.12335 4.02455
      vertex 0.469362 3.12335 45.9755
    endloop
  endfacet
  facet normal -0.770331 0.514719 0.37637
    outer loop
      vertex 1.5324 28.4676 45.9755
      vertex 0.491031 26.8911 46
      vertex 1.53959 28.4604 46
    endloop
  endfacet
  facet normal -0.770313 0.514707 0.376423
    outer loop
      vertex 0.491031 26.8911 46
      vertex 1.5324 28.4676 45.9755
      vertex 0.469362 26.8767 45.9755
    endloop
  endfacet
  facet normal -0.770313 0.514708 0.376423
    outer loop
      vertex 0.491031 26.8911 46
      vertex 0.469362 26.8767 45.9755
      vertex 0.478757 26.8728 46
    endloop
  endfacet
  facet normal -0.381579 0.0759009 -0.921215
    outer loop
      vertex 4.02455 25 0.0960732
      vertex 2.22215 25 0.842651
      vertex 2.4336 26.063 0.842651
    endloop
  endfacet
  facet normal 0.593613 0.396639 -0.700215
    outer loop
      vertex 48.8409 26.5909 2.22215
      vertex 46.9642 26.9642 0.842651
      vertex 47.9397 27.9397 2.22215
    endloop
  endfacet
  facet normal 0.593613 0.396639 -0.700215
    outer loop
      vertex 47.5664 26.063 0.842651
      vertex 46.9642 26.9642 0.842651
      vertex 48.8409 26.5909 2.22215
    endloop
  endfacet
  facet normal -0.216148 0.323486 -0.921215
    outer loop
      vertex 4.31025 25.6897 0.0960732
      vertex 3.03576 26.9642 0.842651
      vertex 4.62671 25.9012 0.0960732
    endloop
  endfacet
  facet normal -0.323487 0.216148 -0.921215
    outer loop
      vertex 4.0988 25.3733 0.0960732
      vertex 3.03576 26.9642 0.842651
      vertex 4.31025 25.6897 0.0960732
    endloop
  endfacet
  facet normal 0.0759009 -0.381579 -0.921215
    outer loop
      vertex 46.063 2.4336 0.842651
      vertex 45 2.22215 0.842651
      vertex 45 4.02455 0.0960732
    endloop
  endfacet
  facet normal 0.0759008 -0.38158 -0.921214
    outer loop
      vertex 46.063 2.4336 0.842651
      vertex 45 4.02455 0.0960732
      vertex 45.3733 4.0988 0.0960732
    endloop
  endfacet
  facet normal 0.323488 -0.216147 -0.921214
    outer loop
      vertex 46.9642 3.03576 0.842651
      vertex 45.9012 4.62671 0.0960732
      vertex 47.5664 3.93696 0.842651
    endloop
  endfacet
  facet normal 0.381579 -0.0759019 -0.921215
    outer loop
      vertex 47.5664 3.93696 0.842651
      vertex 45.9012 4.62671 0.0960732
      vertex 45.9755 5 0.0960732
    endloop
  endfacet
  facet normal -0.770328 -0.514716 -0.376381
    outer loop
      vertex 2.06031 2.06031 2.22215
      vertex 0.469362 3.12335 4.02455
      vertex 1.15911 3.40905 2.22215
    endloop
  endfacet
  facet normal -0.908663 -0.180744 -0.376381
    outer loop
      vertex 1.15911 3.40905 2.22215
      vertex 0.469362 3.12335 4.02455
      vertex 0.842651 5 2.22215
    endloop
  endfacet
  facet normal -0.908663 0.180745 -0.376381
    outer loop
      vertex 0.842651 25 2.22215
      vertex 0.469362 26.8767 4.02455
      vertex 1.15911 26.5909 2.22215
    endloop
  endfacet
  facet normal -0.700214 0.139281 -0.700214
    outer loop
      vertex 2.22215 25 0.842651
      vertex 0.842651 25 2.22215
      vertex 1.15911 26.5909 2.22215
    endloop
  endfacet
  facet normal -0.381579 0.0759012 -0.921215
    outer loop
      vertex 4.02455 25 0.0960732
      vertex 2.4336 26.063 0.842651
      vertex 4.0988 25.3733 0.0960732
    endloop
  endfacet
  facet normal 0 0.707107 -0.707107
    outer loop
      vertex 5 27.7779 0.842651
      vertex 45 29.1573 2.22215
      vertex 45 27.7779 0.842651
    endloop
  endfacet
  facet normal 0 0.707107 -0.707107
    outer loop
      vertex 45 29.1573 2.22215
      vertex 5 27.7779 0.842651
      vertex 5 29.1573 2.22215
    endloop
  endfacet
  facet normal 0.139281 0.700214 -0.700215
    outer loop
      vertex 46.591 28.8409 2.22215
      vertex 45 27.7779 0.842651
      vertex 45 29.1573 2.22215
    endloop
  endfacet
  facet normal 0.323488 0.216147 -0.921214
    outer loop
      vertex 47.5664 26.063 0.842651
      vertex 45.9012 25.3733 0.0960732
      vertex 46.9642 26.9642 0.842651
    endloop
  endfacet
  facet normal -0.139282 0.700214 -0.700215
    outer loop
      vertex 3.93696 27.5664 0.842651
      vertex 3.40905 28.8409 2.22215
      vertex 5 27.7779 0.842651
    endloop
  endfacet
  facet normal -0.0759013 0.38158 -0.921214
    outer loop
      vertex 5 25.9755 0.0960732
      vertex 3.93696 27.5664 0.842651
      vertex 5 27.7779 0.842651
    endloop
  endfacet
  facet normal -0.55557 -0.83147 0
    outer loop
      vertex 1.5324 1.5324 4.02455
      vertex 3.12335 0.469362 45.9755
      vertex 1.5324 1.5324 45.9755
    endloop
  endfacet
  facet normal -0.55557 -0.83147 -0
    outer loop
      vertex 3.12335 0.469362 45.9755
      vertex 1.5324 1.5324 4.02455
      vertex 3.12335 0.469362 4.02455
    endloop
  endfacet
  facet normal -0.593613 0.396639 -0.700215
    outer loop
      vertex 3.03576 26.9642 0.842651
      vertex 1.15911 26.5909 2.22215
      vertex 2.06031 27.9397 2.22215
    endloop
  endfacet
  facet normal -0.593613 0.39664 -0.700214
    outer loop
      vertex 2.4336 26.063 0.842651
      vertex 1.15911 26.5909 2.22215
      vertex 3.03576 26.9642 0.842651
    endloop
  endfacet
  facet normal 0.216147 0.323488 -0.921214
    outer loop
      vertex 46.9642 26.9642 0.842651
      vertex 45.3733 25.9012 0.0960732
      vertex 46.063 27.5664 0.842651
    endloop
  endfacet
  facet normal -0.770328 -0.514717 -0.37638
    outer loop
      vertex 1.5324 1.5324 4.02455
      vertex 0.469362 3.12335 4.02455
      vertex 2.06031 2.06031 2.22215
    endloop
  endfacet
  facet normal -0.83147 -0.55557 0
    outer loop
      vertex 1.5324 1.5324 4.02455
      vertex 0.469362 3.12335 45.9755
      vertex 0.469362 3.12335 4.02455
    endloop
  endfacet
  facet normal -0.83147 -0.55557 0
    outer loop
      vertex 0.469362 3.12335 45.9755
      vertex 1.5324 1.5324 4.02455
      vertex 1.5324 1.5324 45.9755
    endloop
  endfacet
  facet normal 0.216149 0.323485 -0.921215
    outer loop
      vertex 45.6897 25.6897 0.0960732
      vertex 45.3733 25.9012 0.0960732
      vertex 46.9642 26.9642 0.842651
    endloop
  endfacet
  facet normal 0.323486 0.216149 -0.921215
    outer loop
      vertex 45.9012 25.3733 0.0960732
      vertex 45.6897 25.6897 0.0960732
      vertex 46.9642 26.9642 0.842651
    endloop
  endfacet
  facet normal -0.700214 -0.139281 -0.700215
    outer loop
      vertex 2.4336 3.93696 0.842651
      vertex 1.15911 3.40905 2.22215
      vertex 2.22215 5 0.842651
    endloop
  endfacet
  facet normal -0.593613 -0.396639 -0.700215
    outer loop
      vertex 3.03576 3.03576 0.842651
      vertex 1.15911 3.40905 2.22215
      vertex 2.4336 3.93696 0.842651
    endloop
  endfacet
endsolid OpenSCAD_Model
