solid OpenSCAD_Model
  facet normal 0.994522 0.104529 0
    outer loop
      vertex 12.5 0 7
      vertex 12.2268 2.5989 0
      vertex 12.2268 2.5989 7
    endloop
  endfacet
  facet normal 0.994522 0.104529 0
    outer loop
      vertex 12.2268 2.5989 0
      vertex 12.5 0 7
      vertex 12.5 0 0
    endloop
  endfacet
  facet normal -0.994522 0.104529 0
    outer loop
      vertex -12.5 0 0
      vertex -12.2268 2.5989 7
      vertex -12.2268 2.5989 0
    endloop
  endfacet
  facet normal -0.994522 0.104529 0
    outer loop
      vertex -12.2268 2.5989 7
      vertex -12.5 0 0
      vertex -12.5 0 7
    endloop
  endfacet
  facet normal 0 1 -0
    outer loop
      vertex 1.30661 12.4315 0
      vertex -1.30661 12.4315 7
      vertex 1.30661 12.4315 7
    endloop
  endfacet
  facet normal 0 1 0
    outer loop
      vertex -1.30661 12.4315 7
      vertex 1.30661 12.4315 0
      vertex -1.30661 12.4315 0
    endloop
  endfacet
  facet normal 0 -1 0
    outer loop
      vertex -1.30661 -12.4315 0
      vertex 1.30661 -12.4315 7
      vertex -1.30661 -12.4315 7
    endloop
  endfacet
  facet normal 0 -1 -0
    outer loop
      vertex 1.30661 -12.4315 7
      vertex -1.30661 -12.4315 0
      vertex 1.30661 -12.4315 0
    endloop
  endfacet
  facet normal 0.587786 0.809017 -0
    outer loop
      vertex 8.36413 9.28931 0
      vertex 6.25 10.8253 7
      vertex 8.36413 9.28931 7
    endloop
  endfacet
  facet normal 0.587786 0.809017 0
    outer loop
      vertex 6.25 10.8253 7
      vertex 8.36413 9.28931 0
      vertex 6.25 10.8253 0
    endloop
  endfacet
  facet normal -0.743145 0.669131 0
    outer loop
      vertex -10.1127 7.34731 0
      vertex -8.36413 9.28931 7
      vertex -8.36413 9.28931 0
    endloop
  endfacet
  facet normal -0.743145 0.669131 0
    outer loop
      vertex -8.36413 9.28931 7
      vertex -10.1127 7.34731 0
      vertex -10.1127 7.34731 7
    endloop
  endfacet
  facet normal -0.866025 0.5 0
    outer loop
      vertex -11.4193 5.08421 0
      vertex -10.1127 7.34731 7
      vertex -10.1127 7.34731 0
    endloop
  endfacet
  facet normal -0.866025 0.5 0
    outer loop
      vertex -10.1127 7.34731 7
      vertex -11.4193 5.08421 0
      vertex -11.4193 5.08421 7
    endloop
  endfacet
  facet normal -0.406736 0.913546 0
    outer loop
      vertex -3.86271 11.8882 0
      vertex -6.25 10.8253 7
      vertex -3.86271 11.8882 7
    endloop
  endfacet
  facet normal -0.406736 0.913546 0
    outer loop
      vertex -6.25 10.8253 7
      vertex -3.86271 11.8882 0
      vertex -6.25 10.8253 0
    endloop
  endfacet
  facet normal 0.866025 -0.5 0
    outer loop
      vertex 10.1127 -7.34731 7
      vertex 11.4193 -5.08421 0
      vertex 11.4193 -5.08421 7
    endloop
  endfacet
  facet normal 0.866025 -0.5 0
    outer loop
      vertex 11.4193 -5.08421 0
      vertex 10.1127 -7.34731 7
      vertex 10.1127 -7.34731 0
    endloop
  endfacet
  facet normal 0.866025 0.5 0
    outer loop
      vertex 11.4193 5.08421 7
      vertex 10.1127 7.34731 0
      vertex 10.1127 7.34731 7
    endloop
  endfacet
  facet normal 0.866025 0.5 0
    outer loop
      vertex 10.1127 7.34731 0
      vertex 11.4193 5.08421 7
      vertex 11.4193 5.08421 0
    endloop
  endfacet
  facet normal 0.951057 0.309017 0
    outer loop
      vertex 12.2268 2.5989 7
      vertex 11.4193 5.08421 0
      vertex 11.4193 5.08421 7
    endloop
  endfacet
  facet normal 0.951057 0.309017 0
    outer loop
      vertex 11.4193 5.08421 0
      vertex 12.2268 2.5989 7
      vertex 12.2268 2.5989 0
    endloop
  endfacet
  facet normal 0.743145 0.669131 0
    outer loop
      vertex 10.1127 7.34731 7
      vertex 8.36413 9.28931 0
      vertex 8.36413 9.28931 7
    endloop
  endfacet
  facet normal 0.743145 0.669131 0
    outer loop
      vertex 8.36413 9.28931 0
      vertex 10.1127 7.34731 7
      vertex 10.1127 7.34731 0
    endloop
  endfacet
  facet normal 0.207912 0.978148 -0
    outer loop
      vertex 3.86271 11.8882 0
      vertex 1.30661 12.4315 7
      vertex 3.86271 11.8882 7
    endloop
  endfacet
  facet normal 0.207912 0.978148 0
    outer loop
      vertex 1.30661 12.4315 7
      vertex 3.86271 11.8882 0
      vertex 1.30661 12.4315 0
    endloop
  endfacet
  facet normal 0.406736 0.913546 -0
    outer loop
      vertex 6.25 10.8253 0
      vertex 3.86271 11.8882 7
      vertex 6.25 10.8253 7
    endloop
  endfacet
  facet normal 0.406736 0.913546 0
    outer loop
      vertex 3.86271 11.8882 7
      vertex 6.25 10.8253 0
      vertex 3.86271 11.8882 0
    endloop
  endfacet
  facet normal -0.951057 0.309017 0
    outer loop
      vertex -12.2268 2.5989 0
      vertex -11.4193 5.08421 7
      vertex -11.4193 5.08421 0
    endloop
  endfacet
  facet normal -0.951057 0.309017 0
    outer loop
      vertex -11.4193 5.08421 7
      vertex -12.2268 2.5989 0
      vertex -12.2268 2.5989 7
    endloop
  endfacet
  facet normal 0 0 1
    outer loop
      vertex -4.76901 -4 7
      vertex -2.45001 2.42805 7
      vertex -2.44801 2.74699 7
    endloop
  endfacet
  facet normal 0 0 1
    outer loop
      vertex -2.45001 2.42805 7
      vertex -4.76901 -4 7
      vertex -2.45601 2.11925 7
    endloop
  endfacet
  facet normal 0 0 1
    outer loop
      vertex -2.45601 2.11925 7
      vertex -4.76901 -4 7
      vertex -2.466 1.82056 7
    endloop
  endfacet
  facet normal 0 0 1
    outer loop
      vertex -4.76901 -4 7
      vertex -2.51201 -4 7
      vertex -2.51201 0.720993 7
    endloop
  endfacet
  facet normal 0 0 1
    outer loop
      vertex -4.76901 -4 7
      vertex -2.51201 0.720993 7
      vertex -2.51001 0.863556 7
    endloop
  endfacet
  facet normal 0 0 1
    outer loop
      vertex -4.76901 -4 7
      vertex -2.51001 0.863556 7
      vertex -2.50401 1.04625 7
    endloop
  endfacet
  facet normal 0 0 1
    outer loop
      vertex -2.466 1.82056 7
      vertex -4.76901 -4 7
      vertex -2.50401 1.04625 7
    endloop
  endfacet
  facet normal 0 0 1
    outer loop
      vertex -6.25 -10.8253 7
      vertex -2.51201 -4 7
      vertex -4.76901 -4 7
    endloop
  endfacet
  facet normal 0 0 1
    outer loop
      vertex -6.25 -10.8253 7
      vertex -4.76901 -4 7
      vertex -5.83401 -4 7
    endloop
  endfacet
  facet normal 0 0 1
    outer loop
      vertex -2.51201 -4 7
      vertex -6.25 -10.8253 7
      vertex -3.86271 -11.8882 7
    endloop
  endfacet
  facet normal 0 0 1
    outer loop
      vertex -8.08 -4 7
      vertex -5.83401 -4 7
      vertex -8.08 0.720993 7
    endloop
  endfacet
  facet normal 0 0 1
    outer loop
      vertex -5.83401 -4 7
      vertex -8.082 0.882431 7
      vertex -8.08 0.720993 7
    endloop
  endfacet
  facet normal 0 0 1
    outer loop
      vertex -5.83401 -4 7
      vertex -8.08801 1.08374 7
      vertex -8.082 0.882431 7
    endloop
  endfacet
  facet normal 0 0 1
    outer loop
      vertex -5.83401 -4 7
      vertex -8.09801 1.32494 7
      vertex -8.08801 1.08374 7
    endloop
  endfacet
  facet normal 0 0 1
    outer loop
      vertex -5.83401 -4 7
      vertex -8.12601 1.88774 7
      vertex -8.09801 1.32494 7
    endloop
  endfacet
  facet normal 0 0 1
    outer loop
      vertex -5.83401 -4 7
      vertex -8.136 2.131 7
      vertex -8.12601 1.88774 7
    endloop
  endfacet
  facet normal 0 0 1
    outer loop
      vertex -5.83401 -4 7
      vertex -8.14201 2.33574 7
      vertex -8.136 2.131 7
    endloop
  endfacet
  facet normal 0 0 1
    outer loop
      vertex -8.14401 2.74699 7
      vertex -8.14201 2.33574 7
      vertex -5.83401 -4 7
    endloop
  endfacet
  facet normal 0 0 1
    outer loop
      vertex -8.14201 2.33574 7
      vertex -8.14401 2.74699 7
      vertex -8.14401 2.502 7
    endloop
  endfacet
  facet normal 0 0 1
    outer loop
      vertex -0.257919 -4 7
      vertex -1.48801 -4 7
      vertex -1.30661 -12.4315 7
    endloop
  endfacet
  facet normal 0 0 1
    outer loop
      vertex -3.86271 -11.8882 7
      vertex -1.48801 -4 7
      vertex -2.51201 -4 7
    endloop
  endfacet
  facet normal 0 0 1
    outer loop
      vertex -1.48801 -4 7
      vertex -3.86271 -11.8882 7
      vertex -1.30661 -12.4315 7
    endloop
  endfacet
  facet normal 0 0 1
    outer loop
      vertex -8.36413 -9.28931 7
      vertex -5.83401 -4 7
      vertex -8.08 -4 7
    endloop
  endfacet
  facet normal 0 0 1
    outer loop
      vertex -5.83401 -4 7
      vertex -8.36413 -9.28931 7
      vertex -6.25 -10.8253 7
    endloop
  endfacet
  facet normal 0 0 1
    outer loop
      vertex -10.1127 -7.34731 7
      vertex -8.08 -4 7
      vertex -9.104 -4 7
    endloop
  endfacet
  facet normal 0 0 1
    outer loop
      vertex -8.08 -4 7
      vertex -10.1127 -7.34731 7
      vertex -8.36413 -9.28931 7
    endloop
  endfacet
  facet normal 0 0 1
    outer loop
      vertex -12.2268 2.5989 7
      vertex -9.104 4 7
      vertex -11.4193 5.08421 7
    endloop
  endfacet
  facet normal 0 0 1
    outer loop
      vertex -12.5 0 7
      vertex -9.104 4 7
      vertex -12.2268 2.5989 7
    endloop
  endfacet
  facet normal 0 0 1
    outer loop
      vertex -9.104 -4 7
      vertex -11.4193 -5.08421 7
      vertex -10.1127 -7.34731 7
    endloop
  endfacet
  facet normal 0 0 1
    outer loop
      vertex -9.104 4 7
      vertex -12.5 0 7
      vertex -9.104 -4 7
    endloop
  endfacet
  facet normal 0 0 1
    outer loop
      vertex -9.104 -4 7
      vertex -12.2268 -2.5989 7
      vertex -11.4193 -5.08421 7
    endloop
  endfacet
  facet normal 0 0 1
    outer loop
      vertex -9.104 -4 7
      vertex -12.5 0 7
      vertex -12.2268 -2.5989 7
    endloop
  endfacet
  facet normal -0 0 1
    outer loop
      vertex -0.257919 2.91199 7
      vertex 0.702072 1.82399 7
      vertex 0.702072 2.91199 7
    endloop
  endfacet
  facet normal 0 0 1
    outer loop
      vertex 0.702072 1.82399 7
      vertex -0.257919 2.91199 7
      vertex -0.257919 1.82399 7
    endloop
  endfacet
  facet normal 0 0 1
    outer loop
      vertex 2.15224 4 7
      vertex 0.702072 1.82399 7
      vertex 2.15224 -4 7
    endloop
  endfacet
  facet normal 0 0 1
    outer loop
      vertex 0.702072 -4 7
      vertex 2.15224 -4 7
      vertex 0.702072 1.82399 7
    endloop
  endfacet
  facet normal 0 0 1
    outer loop
      vertex 2.15224 -4 7
      vertex 0.702072 -4 7
      vertex 1.30661 -12.4315 7
    endloop
  endfacet
  facet normal -0 0 1
    outer loop
      vertex -0.257919 -4 7
      vertex 1.30661 -12.4315 7
      vertex 0.702072 -4 7
    endloop
  endfacet
  facet normal 0 0 1
    outer loop
      vertex -0.257919 -4 7
      vertex -1.30661 -12.4315 7
      vertex 1.30661 -12.4315 7
    endloop
  endfacet
  facet normal 0 0 1
    outer loop
      vertex -1.48801 -4 7
      vertex -0.257919 -4 7
      vertex -0.257919 1.82399 7
    endloop
  endfacet
  facet normal 0 0 1
    outer loop
      vertex -1.48801 -4 7
      vertex -0.257919 1.82399 7
      vertex -1.48801 4 7
    endloop
  endfacet
  facet normal -0 0 1
    outer loop
      vertex -3.86271 11.8882 7
      vertex -1.48801 4 7
      vertex -1.30661 12.4315 7
    endloop
  endfacet
  facet normal 0 0 1
    outer loop
      vertex -1.48801 4 7
      vertex -3.86271 11.8882 7
      vertex -3.01801 4 7
    endloop
  endfacet
  facet normal -0 0 1
    outer loop
      vertex -6.25 10.8253 7
      vertex -3.01801 4 7
      vertex -3.86271 11.8882 7
    endloop
  endfacet
  facet normal -0 0 1
    outer loop
      vertex -8.36413 9.28931 7
      vertex -3.01801 4 7
      vertex -6.25 10.8253 7
    endloop
  endfacet
  facet normal 0 0 1
    outer loop
      vertex -3.01801 4 7
      vertex -7.56801 4 7
      vertex -5.29601 -2.76401 7
    endloop
  endfacet
  facet normal 0 0 1
    outer loop
      vertex -3.01801 4 7
      vertex -8.36413 9.28931 7
      vertex -7.56801 4 7
    endloop
  endfacet
  facet normal -0 0 1
    outer loop
      vertex -10.1127 7.34731 7
      vertex -7.56801 4 7
      vertex -8.36413 9.28931 7
    endloop
  endfacet
  facet normal -0 0 1
    outer loop
      vertex -11.4193 5.08421 7
      vertex -9.104 4 7
      vertex -10.1127 7.34731 7
    endloop
  endfacet
  facet normal 0 0 1
    outer loop
      vertex -7.56801 4 7
      vertex -10.1127 7.34731 7
      vertex -9.104 4 7
    endloop
  endfacet
  facet normal 0 0 1
    outer loop
      vertex 6.25 -10.8253 7
      vertex 3.11223 -4 7
      vertex 3.86271 -11.8882 7
    endloop
  endfacet
  facet normal -0 0 1
    outer loop
      vertex 2.15224 -4 7
      vertex 3.86271 -11.8882 7
      vertex 3.11223 -4 7
    endloop
  endfacet
  facet normal 0 0 1
    outer loop
      vertex 2.15224 -4 7
      vertex 1.30661 -12.4315 7
      vertex 3.86271 -11.8882 7
    endloop
  endfacet
  facet normal 0 0 1
    outer loop
      vertex 0.702072 2.91199 7
      vertex 2.15224 4 7
      vertex 0.702072 4 7
    endloop
  endfacet
  facet normal 0 0 1
    outer loop
      vertex 0.702072 1.82399 7
      vertex 2.15224 4 7
      vertex 0.702072 2.91199 7
    endloop
  endfacet
  facet normal 0 0 1
    outer loop
      vertex 1.30661 12.4315 7
      vertex -0.257919 4 7
      vertex 0.702072 4 7
    endloop
  endfacet
  facet normal 0 0 1
    outer loop
      vertex -1.48801 4 7
      vertex -0.257919 4 7
      vertex -1.30661 12.4315 7
    endloop
  endfacet
  facet normal 0 0 1
    outer loop
      vertex -0.257919 4 7
      vertex -1.48801 4 7
      vertex -0.257919 2.91199 7
    endloop
  endfacet
  facet normal 0 0 1
    outer loop
      vertex -0.257919 2.91199 7
      vertex -1.48801 4 7
      vertex -0.257919 1.82399 7
    endloop
  endfacet
  facet normal -0 0 1
    outer loop
      vertex -1.30661 12.4315 7
      vertex -0.257919 4 7
      vertex 1.30661 12.4315 7
    endloop
  endfacet
  facet normal 0 0 1
    outer loop
      vertex 6.25 10.8253 7
      vertex 4.56239 4 7
      vertex 5.52238 4 7
    endloop
  endfacet
  facet normal 0 0 1
    outer loop
      vertex 6.25 10.8253 7
      vertex 3.11223 4 7
      vertex 4.56239 4 7
    endloop
  endfacet
  facet normal 0 0 1
    outer loop
      vertex 3.11223 4 7
      vertex 6.25 10.8253 7
      vertex 3.86271 11.8882 7
    endloop
  endfacet
  facet normal -0 0 1
    outer loop
      vertex 9.26939 1.82399 7
      vertex 12.5 0 7
      vertex 12.2268 2.5989 7
    endloop
  endfacet
  facet normal 0 0 1
    outer loop
      vertex 9.26939 1.82399 7
      vertex 12.2268 2.5989 7
      vertex 11.4193 5.08421 7
    endloop
  endfacet
  facet normal 0 0 1
    outer loop
      vertex 7.00539 -0.375 7
      vertex 12.5 0 7
      vertex 9.26939 1.82399 7
    endloop
  endfacet
  facet normal 0 0 1
    outer loop
      vertex 5.52238 4 7
      vertex 11.4193 5.08421 7
      vertex 10.1127 7.34731 7
    endloop
  endfacet
  facet normal 0 0 1
    outer loop
      vertex 12.5 0 7
      vertex 7.00539 -0.375 7
      vertex 12.2268 -2.5989 7
    endloop
  endfacet
  facet normal 0 0 1
    outer loop
      vertex 12.2268 -2.5989 7
      vertex 9.34138 -4 7
      vertex 11.4193 -5.08421 7
    endloop
  endfacet
  facet normal 0 0 1
    outer loop
      vertex 11.4193 -5.08421 7
      vertex 9.34138 -4 7
      vertex 10.1127 -7.34731 7
    endloop
  endfacet
  facet normal 0 0 1
    outer loop
      vertex 5.52238 4 7
      vertex 10.1127 7.34731 7
      vertex 8.36413 9.28931 7
    endloop
  endfacet
  facet normal 0 0 1
    outer loop
      vertex 11.4193 5.08421 7
      vertex 5.52238 4 7
      vertex 8.05139 1.82399 7
    endloop
  endfacet
  facet normal 0 0 1
    outer loop
      vertex 5.52238 4 7
      vertex 8.36413 9.28931 7
      vertex 6.25 10.8253 7
    endloop
  endfacet
  facet normal 0 0 1
    outer loop
      vertex 11.4193 5.08421 7
      vertex 8.05139 1.82399 7
      vertex 9.26939 1.82399 7
    endloop
  endfacet
  facet normal 0 0 1
    outer loop
      vertex 8.05139 1.82399 7
      vertex 5.52238 4 7
      vertex 5.52238 -0.678009 7
    endloop
  endfacet
  facet normal -0 0 1
    outer loop
      vertex 8.14839 -4 7
      vertex 10.1127 -7.34731 7
      vertex 9.34138 -4 7
    endloop
  endfacet
  facet normal 0 0 1
    outer loop
      vertex 10.1127 -7.34731 7
      vertex 8.14839 -4 7
      vertex 8.36413 -9.28931 7
    endloop
  endfacet
  facet normal -0 0 1
    outer loop
      vertex 5.52238 -1.81401 7
      vertex 8.14839 -4 7
      vertex 6.32339 -1.03601 7
    endloop
  endfacet
  facet normal 0 0 1
    outer loop
      vertex 8.14839 -4 7
      vertex 5.52238 -4 7
      vertex 8.36413 -9.28931 7
    endloop
  endfacet
  facet normal 0 0 1
    outer loop
      vertex 8.14839 -4 7
      vertex 5.52238 -1.81401 7
      vertex 5.52238 -4 7
    endloop
  endfacet
  facet normal 0 0 1
    outer loop
      vertex 8.36413 -9.28931 7
      vertex 5.52238 -4 7
      vertex 6.25 -10.8253 7
    endloop
  endfacet
  facet normal -0 0 1
    outer loop
      vertex 4.56239 -4 7
      vertex 6.25 -10.8253 7
      vertex 5.52238 -4 7
    endloop
  endfacet
  facet normal -0 0 1
    outer loop
      vertex 3.11223 -4 7
      vertex 6.25 -10.8253 7
      vertex 4.56239 -4 7
    endloop
  endfacet
  facet normal 0 0 1
    outer loop
      vertex 4.56239 4 7
      vertex 3.11223 4 7
      vertex 4.56239 -4 7
    endloop
  endfacet
  facet normal 0 0 1
    outer loop
      vertex 3.11223 -4 7
      vertex 4.56239 -4 7
      vertex 3.11223 4 7
    endloop
  endfacet
  facet normal 0 0 1
    outer loop
      vertex 3.86271 11.8882 7
      vertex 2.15224 4 7
      vertex 3.11223 4 7
    endloop
  endfacet
  facet normal 0 0 1
    outer loop
      vertex 0.702072 4 7
      vertex 2.15224 4 7
      vertex 1.30661 12.4315 7
    endloop
  endfacet
  facet normal 0 0 1
    outer loop
      vertex 1.30661 12.4315 7
      vertex 2.15224 4 7
      vertex 3.86271 11.8882 7
    endloop
  endfacet
  facet normal 0 0 1
    outer loop
      vertex 12.2268 -2.5989 7
      vertex 7.00539 -0.375 7
      vertex 9.34138 -4 7
    endloop
  endfacet
  facet normal -0.587785 0.809017 0
    outer loop
      vertex -6.25 10.8253 0
      vertex -8.36413 9.28931 7
      vertex -6.25 10.8253 7
    endloop
  endfacet
  facet normal -0.587785 0.809017 0
    outer loop
      vertex -8.36413 9.28931 7
      vertex -6.25 10.8253 0
      vertex -8.36413 9.28931 0
    endloop
  endfacet
  facet normal -0.207912 0.978148 0
    outer loop
      vertex -1.30661 12.4315 0
      vertex -3.86271 11.8882 7
      vertex -1.30661 12.4315 7
    endloop
  endfacet
  facet normal -0.207912 0.978148 0
    outer loop
      vertex -3.86271 11.8882 7
      vertex -1.30661 12.4315 0
      vertex -3.86271 11.8882 0
    endloop
  endfacet
  facet normal 0 0 -1
    outer loop
      vertex 12.2268 -2.5989 0
      vertex 12.2268 2.5989 0
      vertex 12.5 0 0
    endloop
  endfacet
  facet normal 0 0 -1
    outer loop
      vertex 11.4193 -5.08421 0
      vertex 12.2268 2.5989 0
      vertex 12.2268 -2.5989 0
    endloop
  endfacet
  facet normal 0 0 -1
    outer loop
      vertex 11.4193 -5.08421 0
      vertex 11.4193 5.08421 0
      vertex 12.2268 2.5989 0
    endloop
  endfacet
  facet normal 0 0 -1
    outer loop
      vertex 10.1127 -7.34731 0
      vertex 11.4193 5.08421 0
      vertex 11.4193 -5.08421 0
    endloop
  endfacet
  facet normal 0 0 -1
    outer loop
      vertex 10.1127 -7.34731 0
      vertex 10.1127 7.34731 0
      vertex 11.4193 5.08421 0
    endloop
  endfacet
  facet normal 0 0 -1
    outer loop
      vertex 8.36413 -9.28931 0
      vertex 10.1127 7.34731 0
      vertex 10.1127 -7.34731 0
    endloop
  endfacet
  facet normal 0 0 -1
    outer loop
      vertex 8.36413 -9.28931 0
      vertex 8.36413 9.28931 0
      vertex 10.1127 7.34731 0
    endloop
  endfacet
  facet normal 0 0 -1
    outer loop
      vertex 6.25 -10.8253 0
      vertex 8.36413 9.28931 0
      vertex 8.36413 -9.28931 0
    endloop
  endfacet
  facet normal 0 0 -1
    outer loop
      vertex 6.25 -10.8253 0
      vertex 6.25 10.8253 0
      vertex 8.36413 9.28931 0
    endloop
  endfacet
  facet normal 0 0 -1
    outer loop
      vertex 3.86271 -11.8882 0
      vertex 6.25 10.8253 0
      vertex 6.25 -10.8253 0
    endloop
  endfacet
  facet normal 0 0 -1
    outer loop
      vertex 3.86271 -11.8882 0
      vertex 3.86271 11.8882 0
      vertex 6.25 10.8253 0
    endloop
  endfacet
  facet normal 0 0 -1
    outer loop
      vertex 1.30661 -12.4315 0
      vertex 3.86271 11.8882 0
      vertex 3.86271 -11.8882 0
    endloop
  endfacet
  facet normal 0 0 -1
    outer loop
      vertex 1.30661 -12.4315 0
      vertex 1.30661 12.4315 0
      vertex 3.86271 11.8882 0
    endloop
  endfacet
  facet normal 0 0 -1
    outer loop
      vertex -1.30661 -12.4315 0
      vertex 1.30661 12.4315 0
      vertex 1.30661 -12.4315 0
    endloop
  endfacet
  facet normal 0 0 -1
    outer loop
      vertex -1.30661 -12.4315 0
      vertex -1.30661 12.4315 0
      vertex 1.30661 12.4315 0
    endloop
  endfacet
  facet normal 0 0 -1
    outer loop
      vertex -3.86271 -11.8882 0
      vertex -1.30661 12.4315 0
      vertex -1.30661 -12.4315 0
    endloop
  endfacet
  facet normal 0 0 -1
    outer loop
      vertex -3.86271 -11.8882 0
      vertex -3.86271 11.8882 0
      vertex -1.30661 12.4315 0
    endloop
  endfacet
  facet normal 0 0 -1
    outer loop
      vertex -3.86271 -11.8882 0
      vertex -6.25 10.8253 0
      vertex -3.86271 11.8882 0
    endloop
  endfacet
  facet normal 0 0 -1
    outer loop
      vertex -6.25 -10.8253 0
      vertex -6.25 10.8253 0
      vertex -3.86271 -11.8882 0
    endloop
  endfacet
  facet normal 0 0 -1
    outer loop
      vertex -8.36413 -9.28931 0
      vertex -6.25 10.8253 0
      vertex -6.25 -10.8253 0
    endloop
  endfacet
  facet normal 0 0 -1
    outer loop
      vertex -8.36413 -9.28931 0
      vertex -8.36413 9.28931 0
      vertex -6.25 10.8253 0
    endloop
  endfacet
  facet normal 0 0 -1
    outer loop
      vertex -10.1127 -7.34731 0
      vertex -8.36413 9.28931 0
      vertex -8.36413 -9.28931 0
    endloop
  endfacet
  facet normal 0 0 -1
    outer loop
      vertex -10.1127 -7.34731 0
      vertex -10.1127 7.34731 0
      vertex -8.36413 9.28931 0
    endloop
  endfacet
  facet normal 0 0 -1
    outer loop
      vertex -11.4193 -5.08421 0
      vertex -10.1127 7.34731 0
      vertex -10.1127 -7.34731 0
    endloop
  endfacet
  facet normal 0 0 -1
    outer loop
      vertex -11.4193 -5.08421 0
      vertex -11.4193 5.08421 0
      vertex -10.1127 7.34731 0
    endloop
  endfacet
  facet normal 0 0 -1
    outer loop
      vertex -12.2268 -2.5989 0
      vertex -11.4193 5.08421 0
      vertex -11.4193 -5.08421 0
    endloop
  endfacet
  facet normal 0 0 -1
    outer loop
      vertex -12.2268 -2.5989 0
      vertex -12.2268 2.5989 0
      vertex -11.4193 5.08421 0
    endloop
  endfacet
  facet normal 0 -0 -1
    outer loop
      vertex -12.2268 2.5989 0
      vertex -12.2268 -2.5989 0
      vertex -12.5 0 0
    endloop
  endfacet
  facet normal 0.951057 -0.309017 0
    outer loop
      vertex 11.4193 -5.08421 7
      vertex 12.2268 -2.5989 0
      vertex 12.2268 -2.5989 7
    endloop
  endfacet
  facet normal 0.951057 -0.309017 0
    outer loop
      vertex 12.2268 -2.5989 0
      vertex 11.4193 -5.08421 7
      vertex 11.4193 -5.08421 0
    endloop
  endfacet
  facet normal 0.994522 -0.104529 0
    outer loop
      vertex 12.2268 -2.5989 7
      vertex 12.5 0 0
      vertex 12.5 0 7
    endloop
  endfacet
  facet normal 0.994522 -0.104529 0
    outer loop
      vertex 12.5 0 0
      vertex 12.2268 -2.5989 7
      vertex 12.2268 -2.5989 0
    endloop
  endfacet
  facet normal -0.866025 -0.5 0
    outer loop
      vertex -10.1127 -7.34731 0
      vertex -11.4193 -5.08421 7
      vertex -11.4193 -5.08421 0
    endloop
  endfacet
  facet normal -0.866025 -0.5 0
    outer loop
      vertex -11.4193 -5.08421 7
      vertex -10.1127 -7.34731 0
      vertex -10.1127 -7.34731 7
    endloop
  endfacet
  facet normal -0.994522 -0.104529 0
    outer loop
      vertex -12.2268 -2.5989 0
      vertex -12.5 0 7
      vertex -12.5 0 0
    endloop
  endfacet
  facet normal -0.994522 -0.104529 0
    outer loop
      vertex -12.5 0 7
      vertex -12.2268 -2.5989 0
      vertex -12.2268 -2.5989 7
    endloop
  endfacet
  facet normal 0.207912 -0.978148 0
    outer loop
      vertex 1.30661 -12.4315 0
      vertex 3.86271 -11.8882 7
      vertex 1.30661 -12.4315 7
    endloop
  endfacet
  facet normal 0.207912 -0.978148 0
    outer loop
      vertex 3.86271 -11.8882 7
      vertex 1.30661 -12.4315 0
      vertex 3.86271 -11.8882 0
    endloop
  endfacet
  facet normal 0.587786 -0.809017 0
    outer loop
      vertex 6.25 -10.8253 0
      vertex 8.36413 -9.28931 7
      vertex 6.25 -10.8253 7
    endloop
  endfacet
  facet normal 0.587786 -0.809017 0
    outer loop
      vertex 8.36413 -9.28931 7
      vertex 6.25 -10.8253 0
      vertex 8.36413 -9.28931 0
    endloop
  endfacet
  facet normal -0.207912 -0.978148 0
    outer loop
      vertex -3.86271 -11.8882 0
      vertex -1.30661 -12.4315 7
      vertex -3.86271 -11.8882 7
    endloop
  endfacet
  facet normal -0.207912 -0.978148 -0
    outer loop
      vertex -1.30661 -12.4315 7
      vertex -3.86271 -11.8882 0
      vertex -1.30661 -12.4315 0
    endloop
  endfacet
  facet normal -0.743145 -0.669131 0
    outer loop
      vertex -8.36413 -9.28931 0
      vertex -10.1127 -7.34731 7
      vertex -10.1127 -7.34731 0
    endloop
  endfacet
  facet normal -0.743145 -0.669131 0
    outer loop
      vertex -10.1127 -7.34731 7
      vertex -8.36413 -9.28931 0
      vertex -8.36413 -9.28931 7
    endloop
  endfacet
  facet normal -0.951057 -0.309017 0
    outer loop
      vertex -11.4193 -5.08421 0
      vertex -12.2268 -2.5989 7
      vertex -12.2268 -2.5989 0
    endloop
  endfacet
  facet normal -0.951057 -0.309017 0
    outer loop
      vertex -12.2268 -2.5989 7
      vertex -11.4193 -5.08421 0
      vertex -11.4193 -5.08421 7
    endloop
  endfacet
  facet normal 0.406736 -0.913546 0
    outer loop
      vertex 3.86271 -11.8882 0
      vertex 6.25 -10.8253 7
      vertex 3.86271 -11.8882 7
    endloop
  endfacet
  facet normal 0.406736 -0.913546 0
    outer loop
      vertex 6.25 -10.8253 7
      vertex 3.86271 -11.8882 0
      vertex 6.25 -10.8253 0
    endloop
  endfacet
  facet normal 0.743145 -0.669131 0
    outer loop
      vertex 8.36413 -9.28931 7
      vertex 10.1127 -7.34731 0
      vertex 10.1127 -7.34731 7
    endloop
  endfacet
  facet normal 0.743145 -0.669131 0
    outer loop
      vertex 10.1127 -7.34731 0
      vertex 8.36413 -9.28931 7
      vertex 8.36413 -9.28931 0
    endloop
  endfacet
  facet normal -0.406736 -0.913546 0
    outer loop
      vertex -6.25 -10.8253 0
      vertex -3.86271 -11.8882 7
      vertex -6.25 -10.8253 7
    endloop
  endfacet
  facet normal -0.406736 -0.913546 -0
    outer loop
      vertex -3.86271 -11.8882 7
      vertex -6.25 -10.8253 0
      vertex -3.86271 -11.8882 0
    endloop
  endfacet
  facet normal -0.587786 -0.809017 0
    outer loop
      vertex -8.36413 -9.28931 0
      vertex -6.25 -10.8253 7
      vertex -8.36413 -9.28931 7
    endloop
  endfacet
  facet normal -0.587786 -0.809017 -0
    outer loop
      vertex -6.25 -10.8253 7
      vertex -8.36413 -9.28931 0
      vertex -6.25 -10.8253 0
    endloop
  endfacet
  facet normal 0 0 1
    outer loop
      vertex -2.45001 2.42805 4
      vertex -1.48801 4 4
      vertex -2.44801 2.74699 4
    endloop
  endfacet
  facet normal -0 0 1
    outer loop
      vertex -3.01801 4 4
      vertex -2.44801 2.74699 4
      vertex -1.48801 4 4
    endloop
  endfacet
  facet normal 0 0 1
    outer loop
      vertex -5.29601 -2.76401 4
      vertex -2.44801 2.74699 4
      vertex -3.01801 4 4
    endloop
  endfacet
  facet normal 0 0 1
    outer loop
      vertex -2.44801 2.74699 4
      vertex -5.29601 -2.76401 4
      vertex -4.76901 -4 4
    endloop
  endfacet
  facet normal 0 0 1
    outer loop
      vertex -5.29601 -2.76401 4
      vertex -5.83401 -4 4
      vertex -4.76901 -4 4
    endloop
  endfacet
  facet normal -0 0 1
    outer loop
      vertex -8.14401 2.74699 4
      vertex -5.29601 -2.76401 4
      vertex -7.56801 4 4
    endloop
  endfacet
  facet normal 0 0 1
    outer loop
      vertex -5.29601 -2.76401 4
      vertex -8.14401 2.74699 4
      vertex -5.83401 -4 4
    endloop
  endfacet
  facet normal 0 0 1
    outer loop
      vertex -8.14401 2.74699 4
      vertex -9.104 4 4
      vertex -8.14401 2.502 4
    endloop
  endfacet
  facet normal -0 0 1
    outer loop
      vertex -9.104 4 4
      vertex -8.14401 2.74699 4
      vertex -7.56801 4 4
    endloop
  endfacet
  facet normal 0 0 1
    outer loop
      vertex -2.45601 2.11925 4
      vertex -1.48801 4 4
      vertex -2.45001 2.42805 4
    endloop
  endfacet
  facet normal 0 0 1
    outer loop
      vertex -2.466 1.82056 4
      vertex -1.48801 4 4
      vertex -2.45601 2.11925 4
    endloop
  endfacet
  facet normal 0 0 1
    outer loop
      vertex -2.50401 1.04625 4
      vertex -1.48801 4 4
      vertex -2.466 1.82056 4
    endloop
  endfacet
  facet normal 0 0 1
    outer loop
      vertex -2.51001 0.863556 4
      vertex -1.48801 4 4
      vertex -2.50401 1.04625 4
    endloop
  endfacet
  facet normal 0 0 1
    outer loop
      vertex -2.51201 0.720993 4
      vertex -1.48801 4 4
      vertex -2.51001 0.863556 4
    endloop
  endfacet
  facet normal 0 0 1
    outer loop
      vertex -1.48801 4 4
      vertex -2.51201 0.720993 4
      vertex -1.48801 -4 4
    endloop
  endfacet
  facet normal 0 0 1
    outer loop
      vertex -1.48801 -4 4
      vertex -2.51201 0.720993 4
      vertex -2.51201 -4 4
    endloop
  endfacet
  facet normal 0 0 1
    outer loop
      vertex -9.104 4 4
      vertex -8.08 0.720993 4
      vertex -8.082 0.882431 4
    endloop
  endfacet
  facet normal 0 0 1
    outer loop
      vertex -9.104 4 4
      vertex -8.082 0.882431 4
      vertex -8.08801 1.08374 4
    endloop
  endfacet
  facet normal 0 0 1
    outer loop
      vertex -9.104 4 4
      vertex -8.08801 1.08374 4
      vertex -8.09801 1.32494 4
    endloop
  endfacet
  facet normal 0 0 1
    outer loop
      vertex -9.104 4 4
      vertex -8.09801 1.32494 4
      vertex -8.12601 1.88774 4
    endloop
  endfacet
  facet normal 0 0 1
    outer loop
      vertex -9.104 4 4
      vertex -8.12601 1.88774 4
      vertex -8.136 2.131 4
    endloop
  endfacet
  facet normal 0 0 1
    outer loop
      vertex -9.104 4 4
      vertex -8.136 2.131 4
      vertex -8.14201 2.33574 4
    endloop
  endfacet
  facet normal 0 0 1
    outer loop
      vertex -9.104 4 4
      vertex -8.14201 2.33574 4
      vertex -8.14401 2.502 4
    endloop
  endfacet
  facet normal 0 0 1
    outer loop
      vertex -8.08 0.720993 4
      vertex -9.104 4 4
      vertex -9.104 -4 4
    endloop
  endfacet
  facet normal 0 0 1
    outer loop
      vertex -8.08 0.720993 4
      vertex -9.104 -4 4
      vertex -8.08 -4 4
    endloop
  endfacet
  facet normal -0 0 1
    outer loop
      vertex -0.257919 4 4
      vertex 0.702072 2.91199 4
      vertex 0.702072 4 4
    endloop
  endfacet
  facet normal 0 0 1
    outer loop
      vertex 0.702072 2.91199 4
      vertex -0.257919 4 4
      vertex -0.257919 2.91199 4
    endloop
  endfacet
  facet normal -0 0 1
    outer loop
      vertex 2.15224 4 4
      vertex 3.11223 -4 4
      vertex 3.11223 4 4
    endloop
  endfacet
  facet normal 0 0 1
    outer loop
      vertex 3.11223 -4 4
      vertex 2.15224 4 4
      vertex 2.15224 -4 4
    endloop
  endfacet
  facet normal -0 0 1
    outer loop
      vertex 4.56239 4 4
      vertex 5.52238 -0.678009 4
      vertex 5.52238 4 4
    endloop
  endfacet
  facet normal 0 0 1
    outer loop
      vertex 4.56239 -4 4
      vertex 5.52238 -0.678009 4
      vertex 4.56239 4 4
    endloop
  endfacet
  facet normal 0 0 1
    outer loop
      vertex 5.52238 -0.678009 4
      vertex 4.56239 -4 4
      vertex 5.52238 -1.81401 4
    endloop
  endfacet
  facet normal 0 0 1
    outer loop
      vertex 5.52238 -1.81401 4
      vertex 4.56239 -4 4
      vertex 5.52238 -4 4
    endloop
  endfacet
  facet normal -0 0 1
    outer loop
      vertex 8.05139 1.82399 4
      vertex 7.00539 -0.375 4
      vertex 9.26939 1.82399 4
    endloop
  endfacet
  facet normal 0 0 1
    outer loop
      vertex 5.52238 -0.678009 4
      vertex 7.00539 -0.375 4
      vertex 8.05139 1.82399 4
    endloop
  endfacet
  facet normal 0 0 1
    outer loop
      vertex 7.00539 -0.375 4
      vertex 5.52238 -0.678009 4
      vertex 6.32339 -1.03601 4
    endloop
  endfacet
  facet normal 0 0 1
    outer loop
      vertex 6.32339 -1.03601 4
      vertex 5.52238 -0.678009 4
      vertex 5.52238 -1.81401 4
    endloop
  endfacet
  facet normal 0 0 1
    outer loop
      vertex 7.00539 -0.375 4
      vertex 8.14839 -4 4
      vertex 9.34138 -4 4
    endloop
  endfacet
  facet normal 0 0 1
    outer loop
      vertex 8.14839 -4 4
      vertex 7.00539 -0.375 4
      vertex 6.32339 -1.03601 4
    endloop
  endfacet
  facet normal -0 0 1
    outer loop
      vertex -0.257919 1.82399 4
      vertex 0.702072 -4 4
      vertex 0.702072 1.82399 4
    endloop
  endfacet
  facet normal 0 0 1
    outer loop
      vertex 0.702072 -4 4
      vertex -0.257919 1.82399 4
      vertex -0.257919 -4 4
    endloop
  endfacet
  facet normal -0.999923 -0.0123809 0
    outer loop
      vertex -8.08 0.720993 4
      vertex -8.082 0.882431 7
      vertex -8.082 0.882431 4
    endloop
  endfacet
  facet normal -0.999923 -0.0123809 0
    outer loop
      vertex -8.082 0.882431 7
      vertex -8.08 0.720993 4
      vertex -8.08 0.720993 7
    endloop
  endfacet
  facet normal -0.999554 -0.029851 0
    outer loop
      vertex -8.082 0.882431 4
      vertex -8.08801 1.08374 7
      vertex -8.08801 1.08374 4
    endloop
  endfacet
  facet normal -0.999554 -0.029851 0
    outer loop
      vertex -8.08801 1.08374 7
      vertex -8.082 0.882431 4
      vertex -8.082 0.882431 7
    endloop
  endfacet
  facet normal -0.999143 -0.0414018 0
    outer loop
      vertex -8.08801 1.08374 4
      vertex -8.09801 1.32494 7
      vertex -8.09801 1.32494 4
    endloop
  endfacet
  facet normal -0.999143 -0.0414018 0
    outer loop
      vertex -8.09801 1.32494 7
      vertex -8.08801 1.08374 4
      vertex -8.08801 1.08374 7
    endloop
  endfacet
  facet normal -0.998765 -0.0496891 0
    outer loop
      vertex -8.09801 1.32494 4
      vertex -8.12601 1.88774 7
      vertex -8.12601 1.88774 4
    endloop
  endfacet
  facet normal -0.998765 -0.0496891 0
    outer loop
      vertex -8.12601 1.88774 7
      vertex -8.09801 1.32494 4
      vertex -8.09801 1.32494 7
    endloop
  endfacet
  facet normal -0.999157 -0.0410518 0
    outer loop
      vertex -8.12601 1.88774 4
      vertex -8.136 2.131 7
      vertex -8.136 2.131 4
    endloop
  endfacet
  facet normal -0.999157 -0.0410518 0
    outer loop
      vertex -8.136 2.131 7
      vertex -8.12601 1.88774 4
      vertex -8.12601 1.88774 7
    endloop
  endfacet
  facet normal -0.999569 -0.0293509 0
    outer loop
      vertex -8.136 2.131 4
      vertex -8.14201 2.33574 7
      vertex -8.14201 2.33574 4
    endloop
  endfacet
  facet normal -0.999569 -0.0293509 0
    outer loop
      vertex -8.14201 2.33574 7
      vertex -8.136 2.131 4
      vertex -8.136 2.131 7
    endloop
  endfacet
  facet normal -0.999928 -0.0120219 0
    outer loop
      vertex -8.14201 2.33574 4
      vertex -8.14401 2.502 7
      vertex -8.14401 2.502 4
    endloop
  endfacet
  facet normal -0.999928 -0.0120219 0
    outer loop
      vertex -8.14401 2.502 7
      vertex -8.14201 2.33574 4
      vertex -8.14201 2.33574 7
    endloop
  endfacet
  facet normal -1 0 0
    outer loop
      vertex -8.14401 2.502 4
      vertex -8.14401 2.74699 7
      vertex -8.14401 2.74699 4
    endloop
  endfacet
  facet normal -1 -0 0
    outer loop
      vertex -8.14401 2.74699 7
      vertex -8.14401 2.502 4
      vertex -8.14401 2.502 7
    endloop
  endfacet
  facet normal 0.946086 0.323916 0
    outer loop
      vertex -5.83401 -4 7
      vertex -8.14401 2.74699 4
      vertex -8.14401 2.74699 7
    endloop
  endfacet
  facet normal 0.946086 0.323916 0
    outer loop
      vertex -8.14401 2.74699 4
      vertex -5.83401 -4 7
      vertex -5.83401 -4 4
    endloop
  endfacet
  facet normal 0 1 -0
    outer loop
      vertex -4.76901 -4 4
      vertex -5.83401 -4 7
      vertex -4.76901 -4 7
    endloop
  endfacet
  facet normal 0 1 0
    outer loop
      vertex -5.83401 -4 7
      vertex -4.76901 -4 4
      vertex -5.83401 -4 4
    endloop
  endfacet
  facet normal -0.945612 0.325295 0
    outer loop
      vertex -4.76901 -4 4
      vertex -2.44801 2.74699 7
      vertex -2.44801 2.74699 4
    endloop
  endfacet
  facet normal -0.945612 0.325295 0
    outer loop
      vertex -2.44801 2.74699 7
      vertex -4.76901 -4 4
      vertex -4.76901 -4 7
    endloop
  endfacet
  facet normal 0.99998 -0.00626722 0
    outer loop
      vertex -2.45001 2.42805 7
      vertex -2.44801 2.74699 4
      vertex -2.44801 2.74699 7
    endloop
  endfacet
  facet normal 0.99998 -0.00626722 0
    outer loop
      vertex -2.44801 2.74699 4
      vertex -2.45001 2.42805 7
      vertex -2.45001 2.42805 4
    endloop
  endfacet
  facet normal 0.999812 -0.0194153 0
    outer loop
      vertex -2.45601 2.11925 7
      vertex -2.45001 2.42805 4
      vertex -2.45001 2.42805 7
    endloop
  endfacet
  facet normal 0.999812 -0.0194153 0
    outer loop
      vertex -2.45001 2.42805 4
      vertex -2.45601 2.11925 7
      vertex -2.45601 2.11925 4
    endloop
  endfacet
  facet normal 0.999441 -0.0334423 0
    outer loop
      vertex -2.466 1.82056 7
      vertex -2.45601 2.11925 4
      vertex -2.45601 2.11925 7
    endloop
  endfacet
  facet normal 0.999441 -0.0334423 0
    outer loop
      vertex -2.45601 2.11925 4
      vertex -2.466 1.82056 7
      vertex -2.466 1.82056 4
    endloop
  endfacet
  facet normal 0.998797 -0.0490295 0
    outer loop
      vertex -2.50401 1.04625 7
      vertex -2.466 1.82056 4
      vertex -2.466 1.82056 7
    endloop
  endfacet
  facet normal 0.998797 -0.0490295 0
    outer loop
      vertex -2.466 1.82056 4
      vertex -2.50401 1.04625 7
      vertex -2.50401 1.04625 4
    endloop
  endfacet
  facet normal 0.999462 -0.0328062 0
    outer loop
      vertex -2.51001 0.863556 7
      vertex -2.50401 1.04625 4
      vertex -2.50401 1.04625 7
    endloop
  endfacet
  facet normal 0.999462 -0.0328062 0
    outer loop
      vertex -2.50401 1.04625 4
      vertex -2.51001 0.863556 7
      vertex -2.51001 0.863556 4
    endloop
  endfacet
  facet normal 0.999902 -0.0140198 0
    outer loop
      vertex -2.51201 0.720993 7
      vertex -2.51001 0.863556 4
      vertex -2.51001 0.863556 7
    endloop
  endfacet
  facet normal 0.999902 -0.0140198 0
    outer loop
      vertex -2.51001 0.863556 4
      vertex -2.51201 0.720993 7
      vertex -2.51201 0.720993 4
    endloop
  endfacet
  facet normal 1 -0 0
    outer loop
      vertex -2.51201 -4 7
      vertex -2.51201 0.720993 4
      vertex -2.51201 0.720993 7
    endloop
  endfacet
  facet normal 1 0 0
    outer loop
      vertex -2.51201 0.720993 4
      vertex -2.51201 -4 7
      vertex -2.51201 -4 4
    endloop
  endfacet
  facet normal 0 1 -0
    outer loop
      vertex -1.48801 -4 4
      vertex -2.51201 -4 7
      vertex -1.48801 -4 7
    endloop
  endfacet
  facet normal 0 1 0
    outer loop
      vertex -2.51201 -4 7
      vertex -1.48801 -4 4
      vertex -2.51201 -4 4
    endloop
  endfacet
  facet normal -1 0 0
    outer loop
      vertex -1.48801 -4 4
      vertex -1.48801 4 7
      vertex -1.48801 4 4
    endloop
  endfacet
  facet normal -1 -0 0
    outer loop
      vertex -1.48801 4 7
      vertex -1.48801 -4 4
      vertex -1.48801 -4 7
    endloop
  endfacet
  facet normal 0 -1 0
    outer loop
      vertex -3.01801 4 4
      vertex -1.48801 4 7
      vertex -3.01801 4 7
    endloop
  endfacet
  facet normal 0 -1 -0
    outer loop
      vertex -1.48801 4 7
      vertex -3.01801 4 4
      vertex -1.48801 4 4
    endloop
  endfacet
  facet normal 0.947698 -0.319168 0
    outer loop
      vertex -5.29601 -2.76401 7
      vertex -3.01801 4 4
      vertex -3.01801 4 7
    endloop
  endfacet
  facet normal 0.947698 -0.319168 0
    outer loop
      vertex -3.01801 4 4
      vertex -5.29601 -2.76401 7
      vertex -5.29601 -2.76401 4
    endloop
  endfacet
  facet normal -0.947952 -0.318413 0
    outer loop
      vertex -5.29601 -2.76401 4
      vertex -7.56801 4 7
      vertex -7.56801 4 4
    endloop
  endfacet
  facet normal -0.947952 -0.318413 0
    outer loop
      vertex -7.56801 4 7
      vertex -5.29601 -2.76401 4
      vertex -5.29601 -2.76401 7
    endloop
  endfacet
  facet normal 0 -1 0
    outer loop
      vertex -9.104 4 4
      vertex -7.56801 4 7
      vertex -9.104 4 7
    endloop
  endfacet
  facet normal 0 -1 -0
    outer loop
      vertex -7.56801 4 7
      vertex -9.104 4 4
      vertex -7.56801 4 4
    endloop
  endfacet
  facet normal 1 -0 0
    outer loop
      vertex -9.104 -4 7
      vertex -9.104 4 4
      vertex -9.104 4 7
    endloop
  endfacet
  facet normal 1 0 0
    outer loop
      vertex -9.104 4 4
      vertex -9.104 -4 7
      vertex -9.104 -4 4
    endloop
  endfacet
  facet normal 0 1 -0
    outer loop
      vertex -8.08 -4 4
      vertex -9.104 -4 7
      vertex -8.08 -4 7
    endloop
  endfacet
  facet normal 0 1 0
    outer loop
      vertex -9.104 -4 7
      vertex -8.08 -4 4
      vertex -9.104 -4 4
    endloop
  endfacet
  facet normal -1 0 0
    outer loop
      vertex -8.08 -4 4
      vertex -8.08 0.720993 7
      vertex -8.08 0.720993 4
    endloop
  endfacet
  facet normal -1 -0 0
    outer loop
      vertex -8.08 0.720993 7
      vertex -8.08 -4 4
      vertex -8.08 -4 7
    endloop
  endfacet
  facet normal 0 -1 0
    outer loop
      vertex -0.257919 4 4
      vertex 0.702072 4 7
      vertex -0.257919 4 7
    endloop
  endfacet
  facet normal 0 -1 -0
    outer loop
      vertex 0.702072 4 7
      vertex -0.257919 4 4
      vertex 0.702072 4 4
    endloop
  endfacet
  facet normal 1 -0 0
    outer loop
      vertex -0.257919 2.91199 7
      vertex -0.257919 4 4
      vertex -0.257919 4 7
    endloop
  endfacet
  facet normal 1 0 0
    outer loop
      vertex -0.257919 4 4
      vertex -0.257919 2.91199 7
      vertex -0.257919 2.91199 4
    endloop
  endfacet
  facet normal 0 1 -0
    outer loop
      vertex 0.702072 2.91199 4
      vertex -0.257919 2.91199 7
      vertex 0.702072 2.91199 7
    endloop
  endfacet
  facet normal 0 1 0
    outer loop
      vertex -0.257919 2.91199 7
      vertex 0.702072 2.91199 4
      vertex -0.257919 2.91199 4
    endloop
  endfacet
  facet normal -1 0 0
    outer loop
      vertex 0.702072 2.91199 4
      vertex 0.702072 4 7
      vertex 0.702072 4 4
    endloop
  endfacet
  facet normal -1 -0 0
    outer loop
      vertex 0.702072 4 7
      vertex 0.702072 2.91199 4
      vertex 0.702072 2.91199 7
    endloop
  endfacet
  facet normal 0 -1 0
    outer loop
      vertex 2.15224 4 4
      vertex 3.11223 4 7
      vertex 2.15224 4 7
    endloop
  endfacet
  facet normal 0 -1 -0
    outer loop
      vertex 3.11223 4 7
      vertex 2.15224 4 4
      vertex 3.11223 4 4
    endloop
  endfacet
  facet normal 1 -0 0
    outer loop
      vertex 2.15224 -4 7
      vertex 2.15224 4 4
      vertex 2.15224 4 7
    endloop
  endfacet
  facet normal 1 0 0
    outer loop
      vertex 2.15224 4 4
      vertex 2.15224 -4 7
      vertex 2.15224 -4 4
    endloop
  endfacet
  facet normal 0 1 -0
    outer loop
      vertex 3.11223 -4 4
      vertex 2.15224 -4 7
      vertex 3.11223 -4 7
    endloop
  endfacet
  facet normal 0 1 0
    outer loop
      vertex 2.15224 -4 7
      vertex 3.11223 -4 4
      vertex 2.15224 -4 4
    endloop
  endfacet
  facet normal -1 0 0
    outer loop
      vertex 3.11223 -4 4
      vertex 3.11223 4 7
      vertex 3.11223 4 4
    endloop
  endfacet
  facet normal -1 -0 0
    outer loop
      vertex 3.11223 4 7
      vertex 3.11223 -4 4
      vertex 3.11223 -4 7
    endloop
  endfacet
  facet normal -0.696728 0.717335 0
    outer loop
      vertex 6.32339 -1.03601 4
      vertex 5.52238 -1.81401 7
      vertex 6.32339 -1.03601 7
    endloop
  endfacet
  facet normal -0.696728 0.717335 0
    outer loop
      vertex 5.52238 -1.81401 7
      vertex 6.32339 -1.03601 4
      vertex 5.52238 -1.81401 4
    endloop
  endfacet
  facet normal 0.85153 0.524307 0
    outer loop
      vertex 8.14839 -4 7
      vertex 6.32339 -1.03601 4
      vertex 6.32339 -1.03601 7
    endloop
  endfacet
  facet normal 0.85153 0.524307 0
    outer loop
      vertex 6.32339 -1.03601 4
      vertex 8.14839 -4 7
      vertex 8.14839 -4 4
    endloop
  endfacet
  facet normal 0 1 -0
    outer loop
      vertex 9.34138 -4 4
      vertex 8.14839 -4 7
      vertex 9.34138 -4 7
    endloop
  endfacet
  facet normal 0 1 0
    outer loop
      vertex 8.14839 -4 7
      vertex 9.34138 -4 4
      vertex 8.14839 -4 4
    endloop
  endfacet
  facet normal -0.840583 -0.541683 0
    outer loop
      vertex 9.34138 -4 4
      vertex 7.00539 -0.375 7
      vertex 7.00539 -0.375 4
    endloop
  endfacet
  facet normal -0.840583 -0.541683 0
    outer loop
      vertex 7.00539 -0.375 7
      vertex 9.34138 -4 4
      vertex 9.34138 -4 7
    endloop
  endfacet
  facet normal -0.696732 0.717332 0
    outer loop
      vertex 9.26939 1.82399 4
      vertex 7.00539 -0.375 7
      vertex 9.26939 1.82399 7
    endloop
  endfacet
  facet normal -0.696732 0.717332 0
    outer loop
      vertex 7.00539 -0.375 7
      vertex 9.26939 1.82399 4
      vertex 7.00539 -0.375 4
    endloop
  endfacet
  facet normal 0 -1 0
    outer loop
      vertex 8.05139 1.82399 4
      vertex 9.26939 1.82399 7
      vertex 8.05139 1.82399 7
    endloop
  endfacet
  facet normal 0 -1 -0
    outer loop
      vertex 9.26939 1.82399 7
      vertex 8.05139 1.82399 4
      vertex 9.26939 1.82399 4
    endloop
  endfacet
  facet normal 0.703301 -0.710893 0
    outer loop
      vertex 5.52238 -0.678009 4
      vertex 8.05139 1.82399 7
      vertex 5.52238 -0.678009 7
    endloop
  endfacet
  facet normal 0.703301 -0.710893 0
    outer loop
      vertex 8.05139 1.82399 7
      vertex 5.52238 -0.678009 4
      vertex 8.05139 1.82399 4
    endloop
  endfacet
  facet normal -1 0 0
    outer loop
      vertex 5.52238 -0.678009 4
      vertex 5.52238 4 7
      vertex 5.52238 4 4
    endloop
  endfacet
  facet normal -1 -0 0
    outer loop
      vertex 5.52238 4 7
      vertex 5.52238 -0.678009 4
      vertex 5.52238 -0.678009 7
    endloop
  endfacet
  facet normal 0 -1 0
    outer loop
      vertex 4.56239 4 4
      vertex 5.52238 4 7
      vertex 4.56239 4 7
    endloop
  endfacet
  facet normal 0 -1 -0
    outer loop
      vertex 5.52238 4 7
      vertex 4.56239 4 4
      vertex 5.52238 4 4
    endloop
  endfacet
  facet normal 1 -0 0
    outer loop
      vertex 4.56239 -4 7
      vertex 4.56239 4 4
      vertex 4.56239 4 7
    endloop
  endfacet
  facet normal 1 0 0
    outer loop
      vertex 4.56239 4 4
      vertex 4.56239 -4 7
      vertex 4.56239 -4 4
    endloop
  endfacet
  facet normal 0 1 -0
    outer loop
      vertex 5.52238 -4 4
      vertex 4.56239 -4 7
      vertex 5.52238 -4 7
    endloop
  endfacet
  facet normal 0 1 0
    outer loop
      vertex 4.56239 -4 7
      vertex 5.52238 -4 4
      vertex 4.56239 -4 4
    endloop
  endfacet
  facet normal -1 0 0
    outer loop
      vertex 5.52238 -4 4
      vertex 5.52238 -1.81401 7
      vertex 5.52238 -1.81401 4
    endloop
  endfacet
  facet normal -1 -0 0
    outer loop
      vertex 5.52238 -1.81401 7
      vertex 5.52238 -4 4
      vertex 5.52238 -4 7
    endloop
  endfacet
  facet normal 0 -1 0
    outer loop
      vertex -0.257919 1.82399 4
      vertex 0.702072 1.82399 7
      vertex -0.257919 1.82399 7
    endloop
  endfacet
  facet normal 0 -1 -0
    outer loop
      vertex 0.702072 1.82399 7
      vertex -0.257919 1.82399 4
      vertex 0.702072 1.82399 4
    endloop
  endfacet
  facet normal 1 -0 0
    outer loop
      vertex -0.257919 -4 7
      vertex -0.257919 1.82399 4
      vertex -0.257919 1.82399 7
    endloop
  endfacet
  facet normal 1 0 0
    outer loop
      vertex -0.257919 1.82399 4
      vertex -0.257919 -4 7
      vertex -0.257919 -4 4
    endloop
  endfacet
  facet normal 0 1 -0
    outer loop
      vertex 0.702072 -4 4
      vertex -0.257919 -4 7
      vertex 0.702072 -4 7
    endloop
  endfacet
  facet normal 0 1 0
    outer loop
      vertex -0.257919 -4 7
      vertex 0.702072 -4 4
      vertex -0.257919 -4 4
    endloop
  endfacet
  facet normal -1 0 0
    outer loop
      vertex 0.702072 -4 4
      vertex 0.702072 1.82399 7
      vertex 0.702072 1.82399 4
    endloop
  endfacet
  facet normal -1 -0 0
    outer loop
      vertex 0.702072 1.82399 7
      vertex 0.702072 -4 4
      vertex 0.702072 -4 7
    endloop
  endfacet
endsolid OpenSCAD_Model
