solid OpenSCAD_Model
  facet normal 0 0 1
    outer loop
      vertex 22 2 4.5
      vertex 7.5 0 4.5
      vertex 22 0 4.5
    endloop
  endfacet
  facet normal 0 0 1
    outer loop
      vertex 22 2 4.5
      vertex 7.33611 1.55934 4.5
      vertex 7.5 0 4.5
    endloop
  endfacet
  facet normal 0 -0 1
    outer loop
      vertex 7.33611 1.55934 4.5
      vertex 22 2 4.5
      vertex 7.19293 2 4.5
    endloop
  endfacet
  facet normal 1 -0 0
    outer loop
      vertex 22 0 4.5
      vertex 22 2 -3.5
      vertex 22 2 4.5
    endloop
  endfacet
  facet normal 1 0 0
    outer loop
      vertex 22 2 -3.5
      vertex 22 0 4.5
      vertex 22 0 -3.5
    endloop
  endfacet
  facet normal 0 1 -0
    outer loop
      vertex 22 2 -3.5
      vertex 7.19293 2 4.5
      vertex 22 2 4.5
    endloop
  endfacet
  facet normal 0 1 0
    outer loop
      vertex 7.19293 2 4.5
      vertex 22 2 -3.5
      vertex 7.19293 2 -3.5
    endloop
  endfacet
  facet normal -0 0 -1
    outer loop
      vertex -2.51225 -1.11853 -3.5
      vertex -7.19293 -2 -3.5
      vertex -2.68991 -0.571756 -3.5
    endloop
  endfacet
  facet normal 0 0 -1
    outer loop
      vertex -2.68991 -0.571756 -3.5
      vertex -7.5 0 -3.5
      vertex -2.75 0 -3.5
    endloop
  endfacet
  facet normal 0 0 -1
    outer loop
      vertex -7.5 0 -3.5
      vertex -2.68991 -0.571756 -3.5
      vertex -7.19293 -2 -3.5
    endloop
  endfacet
  facet normal 0 -0 -1
    outer loop
      vertex -6.06763 4.40839 -3.5
      vertex -2.75 0 -3.5
      vertex -6.85159 3.05052 -3.5
    endloop
  endfacet
  facet normal 0 0 -1
    outer loop
      vertex -2.75 0 -3.5
      vertex -6.06763 4.40839 -3.5
      vertex -5.32851 5.22926 -3.5
    endloop
  endfacet
  facet normal 0 0 -1
    outer loop
      vertex -2.75 0 -3.5
      vertex -7.33611 1.55934 -3.5
      vertex -6.85159 3.05052 -3.5
    endloop
  endfacet
  facet normal 0 0 -1
    outer loop
      vertex -2.75 0 -3.5
      vertex -7.5 0 -3.5
      vertex -7.33611 1.55934 -3.5
    endloop
  endfacet
  facet normal 0 0 -1
    outer loop
      vertex -22 -2 -3.5
      vertex -7.5 0 -3.5
      vertex -7.19293 -2 -3.5
    endloop
  endfacet
  facet normal -0 0 -1
    outer loop
      vertex -7.5 0 -3.5
      vertex -22 -2 -3.5
      vertex -22 0 -3.5
    endloop
  endfacet
  facet normal 0 0 -1
    outer loop
      vertex 3.75 -6.49519 -3.5
      vertex 12.732 -18.0526 -3.5
      vertex 11 -19.0526 -3.5
    endloop
  endfacet
  facet normal -0 0 -1
    outer loop
      vertex 7.19293 2 -3.5
      vertex 2.51225 1.11853 -3.5
      vertex 6.85159 3.05052 -3.5
    endloop
  endfacet
  facet normal 0 0 -1
    outer loop
      vertex 12.732 -18.0526 -3.5
      vertex 3.75 -6.49519 -3.5
      vertex 5.32851 -5.22926 -3.5
    endloop
  endfacet
  facet normal 0 0 -1
    outer loop
      vertex 1.84011 -2.04365 -3.5
      vertex 5.32851 -5.22926 -3.5
      vertex 3.75 -6.49519 -3.5
    endloop
  endfacet
  facet normal -0 0 -1
    outer loop
      vertex 6.85159 3.05052 -3.5
      vertex 2.51225 1.11853 -3.5
      vertex 6.06763 4.40839 -3.5
    endloop
  endfacet
  facet normal 0 0 -1
    outer loop
      vertex 2.2248 1.61641 -3.5
      vertex 6.06763 4.40839 -3.5
      vertex 2.51225 1.11853 -3.5
    endloop
  endfacet
  facet normal 0 0 -1
    outer loop
      vertex 5.32851 -5.22926 -3.5
      vertex 2.68991 -0.571756 -3.5
      vertex 2.75 0 -3.5
    endloop
  endfacet
  facet normal 0 0 -1
    outer loop
      vertex 5.32851 -5.22926 -3.5
      vertex 2.51225 -1.11853 -3.5
      vertex 2.68991 -0.571756 -3.5
    endloop
  endfacet
  facet normal 0 0 -1
    outer loop
      vertex 1.375 -2.38157 -3.5
      vertex 3.75 -6.49519 -3.5
      vertex 2.31763 -7.13292 -3.5
    endloop
  endfacet
  facet normal 0 0 -1
    outer loop
      vertex 5.32851 -5.22926 -3.5
      vertex 2.2248 -1.61641 -3.5
      vertex 2.51225 -1.11853 -3.5
    endloop
  endfacet
  facet normal 0 0 -1
    outer loop
      vertex 5.32851 -5.22926 -3.5
      vertex 1.84011 -2.04365 -3.5
      vertex 2.2248 -1.61641 -3.5
    endloop
  endfacet
  facet normal 0 0 -1
    outer loop
      vertex 3.75 -6.49519 -3.5
      vertex 1.375 -2.38157 -3.5
      vertex 1.84011 -2.04365 -3.5
    endloop
  endfacet
  facet normal 0 0 -1
    outer loop
      vertex 2.31763 -7.13292 -3.5
      vertex 0.849796 -2.61541 -3.5
      vertex 1.375 -2.38157 -3.5
    endloop
  endfacet
  facet normal 0 0 -1
    outer loop
      vertex 0.783963 -7.45891 -3.5
      vertex 0.849796 -2.61541 -3.5
      vertex 2.31763 -7.13292 -3.5
    endloop
  endfacet
  facet normal 0 0 -1
    outer loop
      vertex 0.783963 -7.45891 -3.5
      vertex 0.287453 -2.73493 -3.5
      vertex 0.849796 -2.61541 -3.5
    endloop
  endfacet
  facet normal 0 0 -1
    outer loop
      vertex 0.783963 -7.45891 -3.5
      vertex -0.287453 -2.73493 -3.5
      vertex 0.287453 -2.73493 -3.5
    endloop
  endfacet
  facet normal 0 0 -1
    outer loop
      vertex -0.783963 -7.45891 -3.5
      vertex -0.287453 -2.73493 -3.5
      vertex 0.783963 -7.45891 -3.5
    endloop
  endfacet
  facet normal 0 0 -1
    outer loop
      vertex -1.86441 -7.22926 -3.5
      vertex -0.287453 -2.73493 -3.5
      vertex -0.783963 -7.45891 -3.5
    endloop
  endfacet
  facet normal -0 0 -1
    outer loop
      vertex -0.287453 -2.73493 -3.5
      vertex -1.86441 -7.22926 -3.5
      vertex -0.849796 -2.61541 -3.5
    endloop
  endfacet
  facet normal 0 0 -1
    outer loop
      vertex -3.75 -6.49519 -3.5
      vertex -0.849796 -2.61541 -3.5
      vertex -1.86441 -7.22926 -3.5
    endloop
  endfacet
  facet normal -0 0 -1
    outer loop
      vertex -0.849796 -2.61541 -3.5
      vertex -3.75 -6.49519 -3.5
      vertex -1.375 -2.38157 -3.5
    endloop
  endfacet
  facet normal -0 0 -1
    outer loop
      vertex -1.375 -2.38157 -3.5
      vertex -3.75 -6.49519 -3.5
      vertex -1.84011 -2.04365 -3.5
    endloop
  endfacet
  facet normal 0 0 -1
    outer loop
      vertex -5.01848 -5.57359 -3.5
      vertex -1.84011 -2.04365 -3.5
      vertex -3.75 -6.49519 -3.5
    endloop
  endfacet
  facet normal -0 0 -1
    outer loop
      vertex -1.84011 -2.04365 -3.5
      vertex -5.01848 -5.57359 -3.5
      vertex -2.2248 -1.61641 -3.5
    endloop
  endfacet
  facet normal 0 0 -1
    outer loop
      vertex -6.85159 -3.05052 -3.5
      vertex -2.51225 -1.11853 -3.5
      vertex -6.06763 -4.40839 -3.5
    endloop
  endfacet
  facet normal 0 0 -1
    outer loop
      vertex -6.06763 -4.40839 -3.5
      vertex -2.2248 -1.61641 -3.5
      vertex -5.01848 -5.57359 -3.5
    endloop
  endfacet
  facet normal -0 0 -1
    outer loop
      vertex -2.2248 -1.61641 -3.5
      vertex -6.06763 -4.40839 -3.5
      vertex -2.51225 -1.11853 -3.5
    endloop
  endfacet
  facet normal 0 0 -1
    outer loop
      vertex -9.26795 -20.0526 -3.5
      vertex -3.75 -6.49519 -3.5
      vertex -1.86441 -7.22926 -3.5
    endloop
  endfacet
  facet normal 0 0 -1
    outer loop
      vertex -3.75 -6.49519 -3.5
      vertex -9.26795 -20.0526 -3.5
      vertex -11 -19.0526 -3.5
    endloop
  endfacet
  facet normal 0 0 -1
    outer loop
      vertex 7.5 0 -3.5
      vertex 22 2 -3.5
      vertex 22 0 -3.5
    endloop
  endfacet
  facet normal 0 0 -1
    outer loop
      vertex 7.5 0 -3.5
      vertex 7.19293 2 -3.5
      vertex 22 2 -3.5
    endloop
  endfacet
  facet normal 0 0 -1
    outer loop
      vertex 2.75 0 -3.5
      vertex 7.5 0 -3.5
      vertex 7.33611 -1.55934 -3.5
    endloop
  endfacet
  facet normal 0 0 -1
    outer loop
      vertex 2.75 0 -3.5
      vertex 7.33611 -1.55934 -3.5
      vertex 6.85159 -3.05052 -3.5
    endloop
  endfacet
  facet normal 0 0 -1
    outer loop
      vertex 6.06763 -4.40839 -3.5
      vertex 2.75 0 -3.5
      vertex 6.85159 -3.05052 -3.5
    endloop
  endfacet
  facet normal 0 0 -1
    outer loop
      vertex 2.75 0 -3.5
      vertex 6.06763 -4.40839 -3.5
      vertex 5.32851 -5.22926 -3.5
    endloop
  endfacet
  facet normal 0 0 -1
    outer loop
      vertex 2.68991 0.571756 -3.5
      vertex 7.5 0 -3.5
      vertex 2.75 0 -3.5
    endloop
  endfacet
  facet normal 0 0 -1
    outer loop
      vertex 7.5 0 -3.5
      vertex 2.68991 0.571756 -3.5
      vertex 7.19293 2 -3.5
    endloop
  endfacet
  facet normal 0 0 -1
    outer loop
      vertex 2.51225 1.11853 -3.5
      vertex 7.19293 2 -3.5
      vertex 2.68991 0.571756 -3.5
    endloop
  endfacet
  facet normal 0 0 -1
    outer loop
      vertex 3.75 6.49519 -3.5
      vertex 9.26795 20.0526 -3.5
      vertex 11 19.0526 -3.5
    endloop
  endfacet
  facet normal -0 0 -1
    outer loop
      vertex 6.06763 4.40839 -3.5
      vertex 2.2248 1.61641 -3.5
      vertex 5.01848 5.57359 -3.5
    endloop
  endfacet
  facet normal 0 0 -1
    outer loop
      vertex 1.84011 2.04365 -3.5
      vertex 5.01848 5.57359 -3.5
      vertex 2.2248 1.61641 -3.5
    endloop
  endfacet
  facet normal 0 -0 -1
    outer loop
      vertex 3.75 6.49519 -3.5
      vertex 5.01848 5.57359 -3.5
      vertex 1.84011 2.04365 -3.5
    endloop
  endfacet
  facet normal 0 0 -1
    outer loop
      vertex 3.75 6.49519 -3.5
      vertex 1.86441 7.22926 -3.5
      vertex 9.26795 20.0526 -3.5
    endloop
  endfacet
  facet normal 0 0 -1
    outer loop
      vertex 1.375 2.38157 -3.5
      vertex 3.75 6.49519 -3.5
      vertex 1.84011 2.04365 -3.5
    endloop
  endfacet
  facet normal 0 0 -1
    outer loop
      vertex 0.849796 2.61541 -3.5
      vertex 3.75 6.49519 -3.5
      vertex 1.375 2.38157 -3.5
    endloop
  endfacet
  facet normal -0 0 -1
    outer loop
      vertex 3.75 6.49519 -3.5
      vertex 0.849796 2.61541 -3.5
      vertex 1.86441 7.22926 -3.5
    endloop
  endfacet
  facet normal 0 0 -1
    outer loop
      vertex 0.287453 2.73493 -3.5
      vertex 1.86441 7.22926 -3.5
      vertex 0.849796 2.61541 -3.5
    endloop
  endfacet
  facet normal -0 0 -1
    outer loop
      vertex 1.86441 7.22926 -3.5
      vertex 0.287453 2.73493 -3.5
      vertex 0.783963 7.45891 -3.5
    endloop
  endfacet
  facet normal 0 0 -1
    outer loop
      vertex -0.287453 2.73493 -3.5
      vertex 0.783963 7.45891 -3.5
      vertex 0.287453 2.73493 -3.5
    endloop
  endfacet
  facet normal 0 0 -1
    outer loop
      vertex -0.287453 2.73493 -3.5
      vertex -0.783963 7.45891 -3.5
      vertex 0.783963 7.45891 -3.5
    endloop
  endfacet
  facet normal 0 0 -1
    outer loop
      vertex -0.849796 2.61541 -3.5
      vertex -0.783963 7.45891 -3.5
      vertex -0.287453 2.73493 -3.5
    endloop
  endfacet
  facet normal 0 0 -1
    outer loop
      vertex -2.31763 7.13292 -3.5
      vertex -0.849796 2.61541 -3.5
      vertex -1.375 2.38157 -3.5
    endloop
  endfacet
  facet normal 0 0 -1
    outer loop
      vertex -3.75 6.49519 -3.5
      vertex -1.375 2.38157 -3.5
      vertex -1.84011 2.04365 -3.5
    endloop
  endfacet
  facet normal 0 0 -1
    outer loop
      vertex -3.75 6.49519 -3.5
      vertex -1.84011 2.04365 -3.5
      vertex -2.2248 1.61641 -3.5
    endloop
  endfacet
  facet normal 0 0 -1
    outer loop
      vertex -0.849796 2.61541 -3.5
      vertex -2.31763 7.13292 -3.5
      vertex -0.783963 7.45891 -3.5
    endloop
  endfacet
  facet normal 0 0 -1
    outer loop
      vertex -3.75 6.49519 -3.5
      vertex -2.2248 1.61641 -3.5
      vertex -2.51225 1.11853 -3.5
    endloop
  endfacet
  facet normal 0 0 -1
    outer loop
      vertex -3.75 6.49519 -3.5
      vertex -2.51225 1.11853 -3.5
      vertex -2.68991 0.571756 -3.5
    endloop
  endfacet
  facet normal 0 0 -1
    outer loop
      vertex -3.75 6.49519 -3.5
      vertex -2.68991 0.571756 -3.5
      vertex -2.75 0 -3.5
    endloop
  endfacet
  facet normal 0 0 -1
    outer loop
      vertex -1.375 2.38157 -3.5
      vertex -3.75 6.49519 -3.5
      vertex -2.31763 7.13292 -3.5
    endloop
  endfacet
  facet normal 0 0 -1
    outer loop
      vertex -7.19293 -2 -3.5
      vertex -2.51225 -1.11853 -3.5
      vertex -6.85159 -3.05052 -3.5
    endloop
  endfacet
  facet normal 0 0 -1
    outer loop
      vertex -2.75 0 -3.5
      vertex -5.32851 5.22926 -3.5
      vertex -3.75 6.49519 -3.5
    endloop
  endfacet
  facet normal 0 0 -1
    outer loop
      vertex -12.732 18.0526 -3.5
      vertex -3.75 6.49519 -3.5
      vertex -5.32851 5.22926 -3.5
    endloop
  endfacet
  facet normal 0 0 -1
    outer loop
      vertex -3.75 6.49519 -3.5
      vertex -12.732 18.0526 -3.5
      vertex -11 19.0526 -3.5
    endloop
  endfacet
  facet normal 0 -1 0
    outer loop
      vertex 7.5 0 -3.5
      vertex 22 0 4.5
      vertex 7.5 0 4.5
    endloop
  endfacet
  facet normal 0 -1 -0
    outer loop
      vertex 22 0 4.5
      vertex 7.5 0 -3.5
      vertex 22 0 -3.5
    endloop
  endfacet
  facet normal 0.5 0.866025 -0
    outer loop
      vertex 11 19.0526 -3.5
      vertex 9.26795 20.0526 4.5
      vertex 11 19.0526 4.5
    endloop
  endfacet
  facet normal 0.5 0.866025 0
    outer loop
      vertex 9.26795 20.0526 4.5
      vertex 11 19.0526 -3.5
      vertex 9.26795 20.0526 -3.5
    endloop
  endfacet
  facet normal 0 0 1
    outer loop
      vertex 9.26795 20.0526 4.5
      vertex 3.75 6.49519 4.5
      vertex 11 19.0526 4.5
    endloop
  endfacet
  facet normal 0 0 1
    outer loop
      vertex 9.26795 20.0526 4.5
      vertex 2.31763 7.13292 4.5
      vertex 3.75 6.49519 4.5
    endloop
  endfacet
  facet normal 0 -0 1
    outer loop
      vertex 2.31763 7.13292 4.5
      vertex 9.26795 20.0526 4.5
      vertex 1.86441 7.22926 4.5
    endloop
  endfacet
  facet normal 0.866025 -0.5 0
    outer loop
      vertex 3.75 6.49519 4.5
      vertex 11 19.0526 -3.5
      vertex 11 19.0526 4.5
    endloop
  endfacet
  facet normal 0.866025 -0.5 0
    outer loop
      vertex 11 19.0526 -3.5
      vertex 3.75 6.49519 4.5
      vertex 3.75 6.49519 -3.5
    endloop
  endfacet
  facet normal -0.866025 0.5 0
    outer loop
      vertex 1.86441 7.22926 -3.5
      vertex 9.26795 20.0526 4.5
      vertex 9.26795 20.0526 -3.5
    endloop
  endfacet
  facet normal -0.866025 0.5 0
    outer loop
      vertex 9.26795 20.0526 4.5
      vertex 1.86441 7.22926 -3.5
      vertex 1.86441 7.22926 4.5
    endloop
  endfacet
  facet normal -0 0 1
    outer loop
      vertex -12.732 18.0526 4.5
      vertex -3.75 6.49519 4.5
      vertex -11 19.0526 4.5
    endloop
  endfacet
  facet normal 0 0 1
    outer loop
      vertex -3.75 6.49519 4.5
      vertex -12.732 18.0526 4.5
      vertex -5.01848 5.57359 4.5
    endloop
  endfacet
  facet normal 0 0 1
    outer loop
      vertex -5.01848 5.57359 4.5
      vertex -12.732 18.0526 4.5
      vertex -5.32851 5.22926 4.5
    endloop
  endfacet
  facet normal -0.5 0.866025 0
    outer loop
      vertex -11 19.0526 -3.5
      vertex -12.732 18.0526 4.5
      vertex -11 19.0526 4.5
    endloop
  endfacet
  facet normal -0.5 0.866025 0
    outer loop
      vertex -12.732 18.0526 4.5
      vertex -11 19.0526 -3.5
      vertex -12.732 18.0526 -3.5
    endloop
  endfacet
  facet normal 0.866025 0.5 0
    outer loop
      vertex -3.75 6.49519 4.5
      vertex -11 19.0526 -3.5
      vertex -11 19.0526 4.5
    endloop
  endfacet
  facet normal 0.866025 0.5 0
    outer loop
      vertex -11 19.0526 -3.5
      vertex -3.75 6.49519 4.5
      vertex -3.75 6.49519 -3.5
    endloop
  endfacet
  facet normal -0.866025 -0.5 0
    outer loop
      vertex -5.32851 5.22926 -3.5
      vertex -12.732 18.0526 4.5
      vertex -12.732 18.0526 -3.5
    endloop
  endfacet
  facet normal -0.866025 -0.5 0
    outer loop
      vertex -12.732 18.0526 4.5
      vertex -5.32851 5.22926 -3.5
      vertex -5.32851 5.22926 4.5
    endloop
  endfacet
  facet normal 0 0 1
    outer loop
      vertex -22 -2 4.5
      vertex -7.5 0 4.5
      vertex -22 0 4.5
    endloop
  endfacet
  facet normal 0 0 1
    outer loop
      vertex -7.5 0 4.5
      vertex -22 -2 4.5
      vertex -7.33611 -1.55934 4.5
    endloop
  endfacet
  facet normal 0 0 1
    outer loop
      vertex -7.33611 -1.55934 4.5
      vertex -22 -2 4.5
      vertex -7.19293 -2 4.5
    endloop
  endfacet
  facet normal -1 0 0
    outer loop
      vertex -22 -2 -3.5
      vertex -22 0 4.5
      vertex -22 0 -3.5
    endloop
  endfacet
  facet normal -1 -0 0
    outer loop
      vertex -22 0 4.5
      vertex -22 -2 -3.5
      vertex -22 -2 4.5
    endloop
  endfacet
  facet normal 0 1 -0
    outer loop
      vertex -7.5 0 -3.5
      vertex -22 0 4.5
      vertex -7.5 0 4.5
    endloop
  endfacet
  facet normal 0 1 0
    outer loop
      vertex -22 0 4.5
      vertex -7.5 0 -3.5
      vertex -22 0 -3.5
    endloop
  endfacet
  facet normal 0 -1 0
    outer loop
      vertex -22 -2 -3.5
      vertex -7.19293 -2 4.5
      vertex -22 -2 4.5
    endloop
  endfacet
  facet normal 0 -1 -0
    outer loop
      vertex -7.19293 -2 4.5
      vertex -22 -2 -3.5
      vertex -7.19293 -2 -3.5
    endloop
  endfacet
  facet normal 0 0 1
    outer loop
      vertex -2.31763 -7.13292 4.5
      vertex -9.26795 -20.0526 4.5
      vertex -1.86441 -7.22926 4.5
    endloop
  endfacet
  facet normal 0 0 1
    outer loop
      vertex -3.75 -6.49519 4.5
      vertex -9.26795 -20.0526 4.5
      vertex -2.31763 -7.13292 4.5
    endloop
  endfacet
  facet normal 0 -0 1
    outer loop
      vertex -9.26795 -20.0526 4.5
      vertex -3.75 -6.49519 4.5
      vertex -11 -19.0526 4.5
    endloop
  endfacet
  facet normal -0.5 -0.866025 0
    outer loop
      vertex -11 -19.0526 -3.5
      vertex -9.26795 -20.0526 4.5
      vertex -11 -19.0526 4.5
    endloop
  endfacet
  facet normal -0.5 -0.866025 -0
    outer loop
      vertex -9.26795 -20.0526 4.5
      vertex -11 -19.0526 -3.5
      vertex -9.26795 -20.0526 -3.5
    endloop
  endfacet
  facet normal -0.866025 0.5 0
    outer loop
      vertex -11 -19.0526 -3.5
      vertex -3.75 -6.49519 4.5
      vertex -3.75 -6.49519 -3.5
    endloop
  endfacet
  facet normal -0.866025 0.5 0
    outer loop
      vertex -3.75 -6.49519 4.5
      vertex -11 -19.0526 -3.5
      vertex -11 -19.0526 4.5
    endloop
  endfacet
  facet normal 0.866025 -0.5 0
    outer loop
      vertex -9.26795 -20.0526 4.5
      vertex -1.86441 -7.22926 -3.5
      vertex -1.86441 -7.22926 4.5
    endloop
  endfacet
  facet normal 0.866025 -0.5 0
    outer loop
      vertex -1.86441 -7.22926 -3.5
      vertex -9.26795 -20.0526 4.5
      vertex -9.26795 -20.0526 -3.5
    endloop
  endfacet
  facet normal -0 0 1
    outer loop
      vertex 5.01848 -5.57359 4.5
      vertex 12.732 -18.0526 4.5
      vertex 5.32851 -5.22926 4.5
    endloop
  endfacet
  facet normal -0 0 1
    outer loop
      vertex 3.75 -6.49519 4.5
      vertex 12.732 -18.0526 4.5
      vertex 5.01848 -5.57359 4.5
    endloop
  endfacet
  facet normal 0 0 1
    outer loop
      vertex 12.732 -18.0526 4.5
      vertex 3.75 -6.49519 4.5
      vertex 11 -19.0526 4.5
    endloop
  endfacet
  facet normal 0.5 -0.866025 0
    outer loop
      vertex 11 -19.0526 -3.5
      vertex 12.732 -18.0526 4.5
      vertex 11 -19.0526 4.5
    endloop
  endfacet
  facet normal 0.5 -0.866025 0
    outer loop
      vertex 12.732 -18.0526 4.5
      vertex 11 -19.0526 -3.5
      vertex 12.732 -18.0526 -3.5
    endloop
  endfacet
  facet normal 0.866025 0.5 0
    outer loop
      vertex 12.732 -18.0526 4.5
      vertex 5.32851 -5.22926 -3.5
      vertex 5.32851 -5.22926 4.5
    endloop
  endfacet
  facet normal 0.866025 0.5 0
    outer loop
      vertex 5.32851 -5.22926 -3.5
      vertex 12.732 -18.0526 4.5
      vertex 12.732 -18.0526 -3.5
    endloop
  endfacet
  facet normal -0.866025 -0.5 0
    outer loop
      vertex 11 -19.0526 -3.5
      vertex 3.75 -6.49519 4.5
      vertex 3.75 -6.49519 -3.5
    endloop
  endfacet
  facet normal -0.866025 -0.5 0
    outer loop
      vertex 3.75 -6.49519 4.5
      vertex 11 -19.0526 -3.5
      vertex 11 -19.0526 4.5
    endloop
  endfacet
  facet normal 0.866025 0.5 0
    outer loop
      vertex 6.85159 3.05052 6.5
      vertex 6.06763 4.40839 -3.5
      vertex 6.06763 4.40839 6.5
    endloop
  endfacet
  facet normal 0.866025 0.5 0
    outer loop
      vertex 6.06763 4.40839 -3.5
      vertex 6.85159 3.05052 6.5
      vertex 6.85159 3.05052 -3.5
    endloop
  endfacet
  facet normal 0.743145 0.669131 0
    outer loop
      vertex 6.06763 4.40839 6.5
      vertex 5.01848 5.57359 -3.5
      vertex 5.01848 5.57359 6.5
    endloop
  endfacet
  facet normal 0.743145 0.669131 0
    outer loop
      vertex 5.01848 5.57359 -3.5
      vertex 6.06763 4.40839 6.5
      vertex 6.06763 4.40839 -3.5
    endloop
  endfacet
  facet normal 0.406737 0.913545 -4.84868e-08
    outer loop
      vertex 3.75 6.49519 6.5
      vertex 3.75 6.49519 4.5
      vertex 2.31763 7.13292 6.5
    endloop
  endfacet
  facet normal 0 1 -0
    outer loop
      vertex 3.75 6.49519 -3.5
      vertex 3.75 6.49519 4.5
      vertex 3.75 6.49519 6.5
    endloop
  endfacet
  facet normal 0.406737 0.913545 0
    outer loop
      vertex 2.31763 7.13292 6.5
      vertex 3.75 6.49519 4.5
      vertex 2.31763 7.13292 4.5
    endloop
  endfacet
  facet normal -0.207912 0.978148 0
    outer loop
      vertex -0.783963 7.45891 -3.5
      vertex -2.31763 7.13292 6.5
      vertex -0.783963 7.45891 6.5
    endloop
  endfacet
  facet normal -0.207912 0.978148 0
    outer loop
      vertex -2.31763 7.13292 6.5
      vertex -0.783963 7.45891 -3.5
      vertex -2.31763 7.13292 -3.5
    endloop
  endfacet
  facet normal -0.866025 0.5 0
    outer loop
      vertex -6.85159 3.05052 -3.5
      vertex -6.06763 4.40839 6.5
      vertex -6.06763 4.40839 -3.5
    endloop
  endfacet
  facet normal -0.866025 0.5 0
    outer loop
      vertex -6.06763 4.40839 6.5
      vertex -6.85159 3.05052 -3.5
      vertex -6.85159 3.05052 6.5
    endloop
  endfacet
  facet normal 0.994522 -0.104529 0
    outer loop
      vertex 7.33611 -1.55934 6.5
      vertex 7.5 0 4.5
      vertex 7.5 0 6.5
    endloop
  endfacet
  facet normal 0.994522 -0.104529 0
    outer loop
      vertex 7.33611 -1.55934 -3.5
      vertex 7.5 0 4.5
      vertex 7.33611 -1.55934 6.5
    endloop
  endfacet
  facet normal 0.994522 -0.104529 0
    outer loop
      vertex 7.5 0 4.5
      vertex 7.33611 -1.55934 -3.5
      vertex 7.5 0 -3.5
    endloop
  endfacet
  facet normal 0.207912 -0.978148 0
    outer loop
      vertex 0.783963 -7.45891 -3.5
      vertex 2.31763 -7.13292 6.5
      vertex 0.783963 -7.45891 6.5
    endloop
  endfacet
  facet normal 0.207912 -0.978148 0
    outer loop
      vertex 2.31763 -7.13292 6.5
      vertex 0.783963 -7.45891 -3.5
      vertex 2.31763 -7.13292 -3.5
    endloop
  endfacet
  facet normal 0.951056 0.309017 0
    outer loop
      vertex 6.85159 3.05052 6.5
      vertex 7.19293 2 4.5
      vertex 6.85159 3.05052 -3.5
    endloop
  endfacet
  facet normal 0.951057 0.309017 9.40599e-09
    outer loop
      vertex 7.33611 1.55934 6.5
      vertex 7.19293 2 4.5
      vertex 6.85159 3.05052 6.5
    endloop
  endfacet
  facet normal 0.951057 0.309017 0
    outer loop
      vertex 7.19293 2 4.5
      vertex 7.33611 1.55934 6.5
      vertex 7.33611 1.55934 4.5
    endloop
  endfacet
  facet normal 0.951056 0.309017 0
    outer loop
      vertex 6.85159 3.05052 -3.5
      vertex 7.19293 2 4.5
      vertex 7.19293 2 -3.5
    endloop
  endfacet
  facet normal 0 1 -0
    outer loop
      vertex 0.783963 7.45891 -3.5
      vertex -0.783963 7.45891 6.5
      vertex 0.783963 7.45891 6.5
    endloop
  endfacet
  facet normal 0 1 0
    outer loop
      vertex -0.783963 7.45891 6.5
      vertex 0.783963 7.45891 -3.5
      vertex -0.783963 7.45891 -3.5
    endloop
  endfacet
  facet normal 0.587785 0.809017 -0
    outer loop
      vertex 5.01848 5.57359 -3.5
      vertex 3.75 6.49519 6.5
      vertex 5.01848 5.57359 6.5
    endloop
  endfacet
  facet normal 0.587785 0.809017 0
    outer loop
      vertex 3.75 6.49519 6.5
      vertex 5.01848 5.57359 -3.5
      vertex 3.75 6.49519 -3.5
    endloop
  endfacet
  facet normal -0.994522 0.104529 0
    outer loop
      vertex -7.5 0 4.5
      vertex -7.33611 1.55934 -3.5
      vertex -7.5 0 -3.5
    endloop
  endfacet
  facet normal -0.994522 0.104529 0
    outer loop
      vertex -7.33611 1.55934 -3.5
      vertex -7.5 0 4.5
      vertex -7.33611 1.55934 6.5
    endloop
  endfacet
  facet normal -0.994522 0.104529 0
    outer loop
      vertex -7.33611 1.55934 6.5
      vertex -7.5 0 4.5
      vertex -7.5 0 6.5
    endloop
  endfacet
  facet normal -0.743145 0.669131 0
    outer loop
      vertex -5.32851 5.22926 -3.5
      vertex -6.06763 4.40839 -3.5
      vertex -5.32851 5.22926 4.5
    endloop
  endfacet
  facet normal -0.743145 0.669131 0
    outer loop
      vertex -5.32851 5.22926 4.5
      vertex -5.01848 5.57359 6.5
      vertex -5.01848 5.57359 4.5
    endloop
  endfacet
  facet normal -0.743145 0.669131 2.26877e-09
    outer loop
      vertex -5.32851 5.22926 4.5
      vertex -6.06763 4.40839 6.5
      vertex -5.01848 5.57359 6.5
    endloop
  endfacet
  facet normal -0.743145 0.669131 0
    outer loop
      vertex -6.06763 4.40839 6.5
      vertex -5.32851 5.22926 4.5
      vertex -6.06763 4.40839 -3.5
    endloop
  endfacet
  facet normal -0.406737 0.913545 -4.84868e-08
    outer loop
      vertex -2.31763 7.13292 6.5
      vertex -3.75 6.49519 4.5
      vertex -3.75 6.49519 6.5
    endloop
  endfacet
  facet normal -0.406737 0.913545 0
    outer loop
      vertex -2.31763 7.13292 -3.5
      vertex -3.75 6.49519 4.5
      vertex -2.31763 7.13292 6.5
    endloop
  endfacet
  facet normal -0.406737 0.913545 0
    outer loop
      vertex -3.75 6.49519 4.5
      vertex -2.31763 7.13292 -3.5
      vertex -3.75 6.49519 -3.5
    endloop
  endfacet
  facet normal -0.587785 0.809017 0
    outer loop
      vertex -3.75 6.49519 4.5
      vertex -5.01848 5.57359 6.5
      vertex -3.75 6.49519 6.5
    endloop
  endfacet
  facet normal -0.587785 0.809017 0
    outer loop
      vertex -5.01848 5.57359 6.5
      vertex -3.75 6.49519 4.5
      vertex -5.01848 5.57359 4.5
    endloop
  endfacet
  facet normal 0.994522 0.104529 0
    outer loop
      vertex 7.5 0 6.5
      vertex 7.33611 1.55934 4.5
      vertex 7.33611 1.55934 6.5
    endloop
  endfacet
  facet normal 0.994522 0.104529 0
    outer loop
      vertex 7.33611 1.55934 4.5
      vertex 7.5 0 6.5
      vertex 7.5 0 4.5
    endloop
  endfacet
  facet normal -0.207912 -0.978147 0
    outer loop
      vertex -1.86441 -7.22926 4.5
      vertex -2.31763 -7.13292 6.5
      vertex -2.31763 -7.13292 4.5
    endloop
  endfacet
  facet normal -0.207912 -0.978148 7.13328e-08
    outer loop
      vertex -2.31763 -7.13292 6.5
      vertex -1.86441 -7.22926 4.5
      vertex -0.783963 -7.45891 6.5
    endloop
  endfacet
  facet normal -0.207912 -0.978148 0
    outer loop
      vertex -0.783963 -7.45891 -3.5
      vertex -1.86441 -7.22926 4.5
      vertex -1.86441 -7.22926 -3.5
    endloop
  endfacet
  facet normal -0.207912 -0.978148 0
    outer loop
      vertex -1.86441 -7.22926 4.5
      vertex -0.783963 -7.45891 -3.5
      vertex -0.783963 -7.45891 6.5
    endloop
  endfacet
  facet normal 0.587785 -0.809017 0
    outer loop
      vertex 3.75 -6.49519 4.5
      vertex 5.01848 -5.57359 6.5
      vertex 3.75 -6.49519 6.5
    endloop
  endfacet
  facet normal 0.587785 -0.809017 0
    outer loop
      vertex 5.01848 -5.57359 6.5
      vertex 3.75 -6.49519 4.5
      vertex 5.01848 -5.57359 4.5
    endloop
  endfacet
  facet normal 0.207912 0.978147 0
    outer loop
      vertex 1.86441 7.22926 4.5
      vertex 2.31763 7.13292 6.5
      vertex 2.31763 7.13292 4.5
    endloop
  endfacet
  facet normal 0.207912 0.978148 7.13328e-08
    outer loop
      vertex 2.31763 7.13292 6.5
      vertex 1.86441 7.22926 4.5
      vertex 0.783963 7.45891 6.5
    endloop
  endfacet
  facet normal 0.207912 0.978148 0
    outer loop
      vertex 0.783963 7.45891 -3.5
      vertex 1.86441 7.22926 4.5
      vertex 1.86441 7.22926 -3.5
    endloop
  endfacet
  facet normal 0.207912 0.978148 0
    outer loop
      vertex 1.86441 7.22926 4.5
      vertex 0.783963 7.45891 -3.5
      vertex 0.783963 7.45891 6.5
    endloop
  endfacet
  facet normal 0 0 1
    outer loop
      vertex 7.33611 1.55934 6.5
      vertex 3.66805 0.779669 6.5
      vertex 3.75 0 6.5
    endloop
  endfacet
  facet normal 0 0 1
    outer loop
      vertex 5.01848 5.57359 6.5
      vertex 3.42579 1.52526 6.5
      vertex 3.66805 0.779669 6.5
    endloop
  endfacet
  facet normal 0 0 1
    outer loop
      vertex 5.01848 5.57359 6.5
      vertex 3.03381 2.20419 6.5
      vertex 3.42579 1.52526 6.5
    endloop
  endfacet
  facet normal 0 0 1
    outer loop
      vertex 5.01848 5.57359 6.5
      vertex 2.50924 2.78679 6.5
      vertex 3.03381 2.20419 6.5
    endloop
  endfacet
  facet normal 0 0 1
    outer loop
      vertex 1.875 3.24759 6.5
      vertex 3.75 6.49519 6.5
      vertex 2.31763 7.13292 6.5
    endloop
  endfacet
  facet normal 0 0 1
    outer loop
      vertex 3.75 6.49519 6.5
      vertex 1.875 3.24759 6.5
      vertex 2.50924 2.78679 6.5
    endloop
  endfacet
  facet normal 0 0 1
    outer loop
      vertex 2.31763 7.13292 6.5
      vertex 1.15881 3.56646 6.5
      vertex 1.875 3.24759 6.5
    endloop
  endfacet
  facet normal 0 0 1
    outer loop
      vertex 0.783963 7.45891 6.5
      vertex 1.15881 3.56646 6.5
      vertex 2.31763 7.13292 6.5
    endloop
  endfacet
  facet normal 0 0 1
    outer loop
      vertex 0.783963 7.45891 6.5
      vertex 0.391981 3.72946 6.5
      vertex 1.15881 3.56646 6.5
    endloop
  endfacet
  facet normal 0 0 1
    outer loop
      vertex 0.783963 7.45891 6.5
      vertex -0.391981 3.72946 6.5
      vertex 0.391981 3.72946 6.5
    endloop
  endfacet
  facet normal -0 0 1
    outer loop
      vertex -0.783963 7.45891 6.5
      vertex -0.391981 3.72946 6.5
      vertex 0.783963 7.45891 6.5
    endloop
  endfacet
  facet normal 0 0 1
    outer loop
      vertex -0.783963 7.45891 6.5
      vertex -1.15881 3.56646 6.5
      vertex -0.391981 3.72946 6.5
    endloop
  endfacet
  facet normal -0 0 1
    outer loop
      vertex -2.31763 7.13292 6.5
      vertex -1.15881 3.56646 6.5
      vertex -0.783963 7.45891 6.5
    endloop
  endfacet
  facet normal 0 0 1
    outer loop
      vertex -1.15881 3.56646 6.5
      vertex -2.31763 7.13292 6.5
      vertex -1.875 3.24759 6.5
    endloop
  endfacet
  facet normal -0 0 1
    outer loop
      vertex -3.75 6.49519 6.5
      vertex -1.875 3.24759 6.5
      vertex -2.31763 7.13292 6.5
    endloop
  endfacet
  facet normal 0 0 1
    outer loop
      vertex -1.875 3.24759 6.5
      vertex -3.75 6.49519 6.5
      vertex -2.50924 2.78679 6.5
    endloop
  endfacet
  facet normal -0 0 1
    outer loop
      vertex -5.01848 5.57359 6.5
      vertex -2.50924 2.78679 6.5
      vertex -3.75 6.49519 6.5
    endloop
  endfacet
  facet normal 0 0 1
    outer loop
      vertex -2.50924 2.78679 6.5
      vertex -5.01848 5.57359 6.5
      vertex -3.03381 2.20419 6.5
    endloop
  endfacet
  facet normal -0 0 1
    outer loop
      vertex -6.06763 4.40839 6.5
      vertex -3.03381 2.20419 6.5
      vertex -5.01848 5.57359 6.5
    endloop
  endfacet
  facet normal 0 0 1
    outer loop
      vertex -3.03381 2.20419 6.5
      vertex -6.06763 4.40839 6.5
      vertex -3.42579 1.52526 6.5
    endloop
  endfacet
  facet normal -0 0 1
    outer loop
      vertex -6.85159 3.05052 6.5
      vertex -3.42579 1.52526 6.5
      vertex -6.06763 4.40839 6.5
    endloop
  endfacet
  facet normal 0 0 1
    outer loop
      vertex -3.42579 1.52526 6.5
      vertex -6.85159 3.05052 6.5
      vertex -3.66805 0.779669 6.5
    endloop
  endfacet
  facet normal 0 0 1
    outer loop
      vertex -3.75 0 6.5
      vertex -5.01848 -5.57359 6.5
      vertex -3.75 -6.49519 6.5
    endloop
  endfacet
  facet normal -0 0 1
    outer loop
      vertex -7.33611 1.55934 6.5
      vertex -3.66805 0.779669 6.5
      vertex -6.85159 3.05052 6.5
    endloop
  endfacet
  facet normal 0 0 1
    outer loop
      vertex -3.75 0 6.5
      vertex -6.06763 -4.40839 6.5
      vertex -5.01848 -5.57359 6.5
    endloop
  endfacet
  facet normal 0 0 1
    outer loop
      vertex -3.66805 0.779669 6.5
      vertex -7.33611 1.55934 6.5
      vertex -3.75 0 6.5
    endloop
  endfacet
  facet normal 0 0 1
    outer loop
      vertex -3.75 0 6.5
      vertex -6.85159 -3.05052 6.5
      vertex -6.06763 -4.40839 6.5
    endloop
  endfacet
  facet normal 0 0 1
    outer loop
      vertex -7.5 0 6.5
      vertex -3.75 0 6.5
      vertex -7.33611 1.55934 6.5
    endloop
  endfacet
  facet normal 0 0 1
    outer loop
      vertex -3.75 0 6.5
      vertex -7.33611 -1.55934 6.5
      vertex -6.85159 -3.05052 6.5
    endloop
  endfacet
  facet normal 0 0 1
    outer loop
      vertex -3.75 0 6.5
      vertex -7.5 0 6.5
      vertex -7.33611 -1.55934 6.5
    endloop
  endfacet
  facet normal 0 0 1
    outer loop
      vertex 3.75 0 6.5
      vertex 7.5 0 6.5
      vertex 7.33611 1.55934 6.5
    endloop
  endfacet
  facet normal 0 0 1
    outer loop
      vertex 3.66805 0.779669 6.5
      vertex 7.33611 1.55934 6.5
      vertex 6.85159 3.05052 6.5
    endloop
  endfacet
  facet normal 0 0 1
    outer loop
      vertex 7.5 0 6.5
      vertex 3.75 0 6.5
      vertex 7.33611 -1.55934 6.5
    endloop
  endfacet
  facet normal 0 0 1
    outer loop
      vertex 3.66805 0.779669 6.5
      vertex 6.85159 3.05052 6.5
      vertex 6.06763 4.40839 6.5
    endloop
  endfacet
  facet normal -0 0 1
    outer loop
      vertex 3.66805 -0.779669 6.5
      vertex 7.33611 -1.55934 6.5
      vertex 3.75 0 6.5
    endloop
  endfacet
  facet normal 0 0 1
    outer loop
      vertex 3.66805 0.779669 6.5
      vertex 6.06763 4.40839 6.5
      vertex 5.01848 5.57359 6.5
    endloop
  endfacet
  facet normal 0 0 1
    outer loop
      vertex 7.33611 -1.55934 6.5
      vertex 3.66805 -0.779669 6.5
      vertex 6.85159 -3.05052 6.5
    endloop
  endfacet
  facet normal 0 0 1
    outer loop
      vertex 2.50924 2.78679 6.5
      vertex 5.01848 5.57359 6.5
      vertex 3.75 6.49519 6.5
    endloop
  endfacet
  facet normal -0 0 1
    outer loop
      vertex 3.42579 -1.52526 6.5
      vertex 6.85159 -3.05052 6.5
      vertex 3.66805 -0.779669 6.5
    endloop
  endfacet
  facet normal 0 0 1
    outer loop
      vertex 6.85159 -3.05052 6.5
      vertex 3.42579 -1.52526 6.5
      vertex 6.06763 -4.40839 6.5
    endloop
  endfacet
  facet normal -0 0 1
    outer loop
      vertex 3.03381 -2.20419 6.5
      vertex 6.06763 -4.40839 6.5
      vertex 3.42579 -1.52526 6.5
    endloop
  endfacet
  facet normal 0 0 1
    outer loop
      vertex 6.06763 -4.40839 6.5
      vertex 3.03381 -2.20419 6.5
      vertex 5.01848 -5.57359 6.5
    endloop
  endfacet
  facet normal -0 0 1
    outer loop
      vertex 2.50924 -2.78679 6.5
      vertex 5.01848 -5.57359 6.5
      vertex 3.03381 -2.20419 6.5
    endloop
  endfacet
  facet normal 0 0 1
    outer loop
      vertex 5.01848 -5.57359 6.5
      vertex 2.50924 -2.78679 6.5
      vertex 3.75 -6.49519 6.5
    endloop
  endfacet
  facet normal -0 0 1
    outer loop
      vertex 1.875 -3.24759 6.5
      vertex 3.75 -6.49519 6.5
      vertex 2.50924 -2.78679 6.5
    endloop
  endfacet
  facet normal 0 0 1
    outer loop
      vertex 3.75 -6.49519 6.5
      vertex 1.875 -3.24759 6.5
      vertex 2.31763 -7.13292 6.5
    endloop
  endfacet
  facet normal -0 0 1
    outer loop
      vertex 1.15881 -3.56646 6.5
      vertex 2.31763 -7.13292 6.5
      vertex 1.875 -3.24759 6.5
    endloop
  endfacet
  facet normal 0 0 1
    outer loop
      vertex 1.15881 -3.56646 6.5
      vertex 0.783963 -7.45891 6.5
      vertex 2.31763 -7.13292 6.5
    endloop
  endfacet
  facet normal -0 0 1
    outer loop
      vertex 0.391981 -3.72946 6.5
      vertex 0.783963 -7.45891 6.5
      vertex 1.15881 -3.56646 6.5
    endloop
  endfacet
  facet normal -0 0 1
    outer loop
      vertex -0.391981 -3.72946 6.5
      vertex 0.783963 -7.45891 6.5
      vertex 0.391981 -3.72946 6.5
    endloop
  endfacet
  facet normal 0 0 1
    outer loop
      vertex -0.391981 -3.72946 6.5
      vertex -0.783963 -7.45891 6.5
      vertex 0.783963 -7.45891 6.5
    endloop
  endfacet
  facet normal 0 0 1
    outer loop
      vertex -1.15881 -3.56646 6.5
      vertex -0.783963 -7.45891 6.5
      vertex -0.391981 -3.72946 6.5
    endloop
  endfacet
  facet normal 0 0 1
    outer loop
      vertex -2.31763 -7.13292 6.5
      vertex -1.15881 -3.56646 6.5
      vertex -1.875 -3.24759 6.5
    endloop
  endfacet
  facet normal 0 0 1
    outer loop
      vertex -1.15881 -3.56646 6.5
      vertex -2.31763 -7.13292 6.5
      vertex -0.783963 -7.45891 6.5
    endloop
  endfacet
  facet normal 0 0 1
    outer loop
      vertex -3.75 -6.49519 6.5
      vertex -1.875 -3.24759 6.5
      vertex -2.50924 -2.78679 6.5
    endloop
  endfacet
  facet normal 0 0 1
    outer loop
      vertex -3.75 -6.49519 6.5
      vertex -2.50924 -2.78679 6.5
      vertex -3.03381 -2.20419 6.5
    endloop
  endfacet
  facet normal 0 0 1
    outer loop
      vertex -3.75 -6.49519 6.5
      vertex -3.03381 -2.20419 6.5
      vertex -3.42579 -1.52526 6.5
    endloop
  endfacet
  facet normal 0 0 1
    outer loop
      vertex -3.75 -6.49519 6.5
      vertex -3.42579 -1.52526 6.5
      vertex -3.66805 -0.779669 6.5
    endloop
  endfacet
  facet normal 0 0 1
    outer loop
      vertex -1.875 -3.24759 6.5
      vertex -3.75 -6.49519 6.5
      vertex -2.31763 -7.13292 6.5
    endloop
  endfacet
  facet normal 0 0 1
    outer loop
      vertex -3.75 -6.49519 6.5
      vertex -3.66805 -0.779669 6.5
      vertex -3.75 0 6.5
    endloop
  endfacet
  facet normal -0.951057 0.309017 0
    outer loop
      vertex -7.33611 1.55934 -3.5
      vertex -6.85159 3.05052 6.5
      vertex -6.85159 3.05052 -3.5
    endloop
  endfacet
  facet normal -0.951057 0.309017 0
    outer loop
      vertex -6.85159 3.05052 6.5
      vertex -7.33611 1.55934 -3.5
      vertex -7.33611 1.55934 6.5
    endloop
  endfacet
  facet normal 0.951057 -0.309017 0
    outer loop
      vertex 6.85159 -3.05052 6.5
      vertex 7.33611 -1.55934 -3.5
      vertex 7.33611 -1.55934 6.5
    endloop
  endfacet
  facet normal 0.951057 -0.309017 0
    outer loop
      vertex 7.33611 -1.55934 -3.5
      vertex 6.85159 -3.05052 6.5
      vertex 6.85159 -3.05052 -3.5
    endloop
  endfacet
  facet normal 0.866025 -0.5 0
    outer loop
      vertex 6.06763 -4.40839 6.5
      vertex 6.85159 -3.05052 -3.5
      vertex 6.85159 -3.05052 6.5
    endloop
  endfacet
  facet normal 0.866025 -0.5 0
    outer loop
      vertex 6.85159 -3.05052 -3.5
      vertex 6.06763 -4.40839 6.5
      vertex 6.06763 -4.40839 -3.5
    endloop
  endfacet
  facet normal -0.994522 -0.104529 0
    outer loop
      vertex -7.33611 -1.55934 4.5
      vertex -7.5 0 6.5
      vertex -7.5 0 4.5
    endloop
  endfacet
  facet normal -0.994522 -0.104529 0
    outer loop
      vertex -7.5 0 6.5
      vertex -7.33611 -1.55934 4.5
      vertex -7.33611 -1.55934 6.5
    endloop
  endfacet
  facet normal -0.866025 -0.5 0
    outer loop
      vertex -6.06763 -4.40839 -3.5
      vertex -6.85159 -3.05052 6.5
      vertex -6.85159 -3.05052 -3.5
    endloop
  endfacet
  facet normal -0.866025 -0.5 0
    outer loop
      vertex -6.85159 -3.05052 6.5
      vertex -6.06763 -4.40839 -3.5
      vertex -6.06763 -4.40839 6.5
    endloop
  endfacet
  facet normal 0.743145 -0.669131 0
    outer loop
      vertex 6.06763 -4.40839 6.5
      vertex 5.32851 -5.22926 4.5
      vertex 6.06763 -4.40839 -3.5
    endloop
  endfacet
  facet normal 0.743145 -0.669131 2.26877e-09
    outer loop
      vertex 5.01848 -5.57359 6.5
      vertex 5.32851 -5.22926 4.5
      vertex 6.06763 -4.40839 6.5
    endloop
  endfacet
  facet normal 0.743145 -0.669131 0
    outer loop
      vertex 5.32851 -5.22926 4.5
      vertex 5.01848 -5.57359 6.5
      vertex 5.01848 -5.57359 4.5
    endloop
  endfacet
  facet normal 0.743145 -0.669131 0
    outer loop
      vertex 6.06763 -4.40839 -3.5
      vertex 5.32851 -5.22926 4.5
      vertex 5.32851 -5.22926 -3.5
    endloop
  endfacet
  facet normal -0.587785 -0.809017 0
    outer loop
      vertex -5.01848 -5.57359 -3.5
      vertex -3.75 -6.49519 6.5
      vertex -5.01848 -5.57359 6.5
    endloop
  endfacet
  facet normal -0.587785 -0.809017 -0
    outer loop
      vertex -3.75 -6.49519 6.5
      vertex -5.01848 -5.57359 -3.5
      vertex -3.75 -6.49519 -3.5
    endloop
  endfacet
  facet normal 0 -1 0
    outer loop
      vertex -0.783963 -7.45891 -3.5
      vertex 0.783963 -7.45891 6.5
      vertex -0.783963 -7.45891 6.5
    endloop
  endfacet
  facet normal 0 -1 -0
    outer loop
      vertex 0.783963 -7.45891 6.5
      vertex -0.783963 -7.45891 -3.5
      vertex 0.783963 -7.45891 -3.5
    endloop
  endfacet
  facet normal -0.951056 -0.309017 0
    outer loop
      vertex -7.19293 -2 -3.5
      vertex -6.85159 -3.05052 -3.5
      vertex -7.19293 -2 4.5
    endloop
  endfacet
  facet normal -0.951057 -0.309017 0
    outer loop
      vertex -7.19293 -2 4.5
      vertex -7.33611 -1.55934 6.5
      vertex -7.33611 -1.55934 4.5
    endloop
  endfacet
  facet normal -0.951057 -0.309017 8.88047e-08
    outer loop
      vertex -7.19293 -2 4.5
      vertex -6.85159 -3.05052 6.5
      vertex -7.33611 -1.55934 6.5
    endloop
  endfacet
  facet normal -0.951056 -0.309017 -0
    outer loop
      vertex -6.85159 -3.05052 6.5
      vertex -7.19293 -2 4.5
      vertex -6.85159 -3.05052 -3.5
    endloop
  endfacet
  facet normal -0.743145 -0.669131 0
    outer loop
      vertex -5.01848 -5.57359 -3.5
      vertex -6.06763 -4.40839 6.5
      vertex -6.06763 -4.40839 -3.5
    endloop
  endfacet
  facet normal -0.743145 -0.669131 0
    outer loop
      vertex -6.06763 -4.40839 6.5
      vertex -5.01848 -5.57359 -3.5
      vertex -5.01848 -5.57359 6.5
    endloop
  endfacet
  facet normal 0.406737 -0.913545 -4.84868e-08
    outer loop
      vertex 2.31763 -7.13292 6.5
      vertex 3.75 -6.49519 4.5
      vertex 3.75 -6.49519 6.5
    endloop
  endfacet
  facet normal 0.406737 -0.913545 0
    outer loop
      vertex 2.31763 -7.13292 -3.5
      vertex 3.75 -6.49519 4.5
      vertex 2.31763 -7.13292 6.5
    endloop
  endfacet
  facet normal 0.406737 -0.913545 0
    outer loop
      vertex 3.75 -6.49519 4.5
      vertex 2.31763 -7.13292 -3.5
      vertex 3.75 -6.49519 -3.5
    endloop
  endfacet
  facet normal -0.406737 -0.913545 -4.84868e-08
    outer loop
      vertex -3.75 -6.49519 6.5
      vertex -3.75 -6.49519 4.5
      vertex -2.31763 -7.13292 6.5
    endloop
  endfacet
  facet normal 0 -1 0
    outer loop
      vertex -3.75 -6.49519 -3.5
      vertex -3.75 -6.49519 4.5
      vertex -3.75 -6.49519 6.5
    endloop
  endfacet
  facet normal -0.406737 -0.913545 -0
    outer loop
      vertex -2.31763 -7.13292 6.5
      vertex -3.75 -6.49519 4.5
      vertex -2.31763 -7.13292 4.5
    endloop
  endfacet
  facet normal 0.951057 -0.309016 0
    outer loop
      vertex -2.68991 0.571756 16.5
      vertex -2.51225 1.11853 -3.5
      vertex -2.51225 1.11853 16.5
    endloop
  endfacet
  facet normal 0.951057 -0.309016 0
    outer loop
      vertex -2.51225 1.11853 -3.5
      vertex -2.68991 0.571756 16.5
      vertex -2.68991 0.571756 -3.5
    endloop
  endfacet
  facet normal -0.866025 -0.5 0
    outer loop
      vertex 2.51225 1.11853 -3.5
      vertex 2.2248 1.61641 16.5
      vertex 2.2248 1.61641 -3.5
    endloop
  endfacet
  facet normal -0.866025 -0.5 0
    outer loop
      vertex 2.2248 1.61641 16.5
      vertex 2.51225 1.11853 -3.5
      vertex 2.51225 1.11853 16.5
    endloop
  endfacet
  facet normal -0.951057 -0.309016 0
    outer loop
      vertex 2.68991 0.571756 -3.5
      vertex 2.51225 1.11853 16.5
      vertex 2.51225 1.11853 -3.5
    endloop
  endfacet
  facet normal -0.951057 -0.309016 0
    outer loop
      vertex 2.51225 1.11853 16.5
      vertex 2.68991 0.571756 -3.5
      vertex 2.68991 0.571756 16.5
    endloop
  endfacet
  facet normal -0.406737 -0.913545 0
    outer loop
      vertex 0.849796 2.61541 -3.5
      vertex 1.375 2.38157 16.5
      vertex 0.849796 2.61541 16.5
    endloop
  endfacet
  facet normal -0.406737 -0.913545 -0
    outer loop
      vertex 1.375 2.38157 16.5
      vertex 0.849796 2.61541 -3.5
      vertex 1.375 2.38157 -3.5
    endloop
  endfacet
  facet normal 0.406738 -0.913545 0
    outer loop
      vertex -1.375 2.38157 -3.5
      vertex -0.849796 2.61541 16.5
      vertex -1.375 2.38157 16.5
    endloop
  endfacet
  facet normal 0.406738 -0.913545 0
    outer loop
      vertex -0.849796 2.61541 16.5
      vertex -1.375 2.38157 -3.5
      vertex -0.849796 2.61541 -3.5
    endloop
  endfacet
  facet normal 0.866025 -0.5 0
    outer loop
      vertex -2.51225 1.11853 16.5
      vertex -2.2248 1.61641 -3.5
      vertex -2.2248 1.61641 16.5
    endloop
  endfacet
  facet normal 0.866025 -0.5 0
    outer loop
      vertex -2.2248 1.61641 -3.5
      vertex -2.51225 1.11853 16.5
      vertex -2.51225 1.11853 -3.5
    endloop
  endfacet
  facet normal -0.994522 0.10453 0
    outer loop
      vertex 2.68991 -0.571756 -3.5
      vertex 2.75 0 16.5
      vertex 2.75 0 -3.5
    endloop
  endfacet
  facet normal -0.994522 0.10453 0
    outer loop
      vertex 2.75 0 16.5
      vertex 2.68991 -0.571756 -3.5
      vertex 2.68991 -0.571756 16.5
    endloop
  endfacet
  facet normal -0.743145 -0.669131 0
    outer loop
      vertex 2.2248 1.61641 -3.5
      vertex 1.84011 2.04365 16.5
      vertex 1.84011 2.04365 -3.5
    endloop
  endfacet
  facet normal -0.743145 -0.669131 0
    outer loop
      vertex 1.84011 2.04365 16.5
      vertex 2.2248 1.61641 -3.5
      vertex 2.2248 1.61641 16.5
    endloop
  endfacet
  facet normal 0 -1 0
    outer loop
      vertex -0.287453 2.73493 -3.5
      vertex 0.287453 2.73493 16.5
      vertex -0.287453 2.73493 16.5
    endloop
  endfacet
  facet normal 0 -1 -0
    outer loop
      vertex 0.287453 2.73493 16.5
      vertex -0.287453 2.73493 -3.5
      vertex 0.287453 2.73493 -3.5
    endloop
  endfacet
  facet normal -0.587785 -0.809017 0
    outer loop
      vertex 1.375 2.38157 -3.5
      vertex 1.84011 2.04365 16.5
      vertex 1.375 2.38157 16.5
    endloop
  endfacet
  facet normal -0.587785 -0.809017 -0
    outer loop
      vertex 1.84011 2.04365 16.5
      vertex 1.375 2.38157 -3.5
      vertex 1.84011 2.04365 -3.5
    endloop
  endfacet
  facet normal 0.994522 -0.10453 0
    outer loop
      vertex -2.75 0 16.5
      vertex -2.68991 0.571756 -3.5
      vertex -2.68991 0.571756 16.5
    endloop
  endfacet
  facet normal 0.994522 -0.10453 0
    outer loop
      vertex -2.68991 0.571756 -3.5
      vertex -2.75 0 16.5
      vertex -2.75 0 -3.5
    endloop
  endfacet
  facet normal 0.587784 -0.809018 0
    outer loop
      vertex -1.84011 2.04365 -3.5
      vertex -1.375 2.38157 16.5
      vertex -1.84011 2.04365 16.5
    endloop
  endfacet
  facet normal 0.587784 -0.809018 0
    outer loop
      vertex -1.375 2.38157 16.5
      vertex -1.84011 2.04365 -3.5
      vertex -1.375 2.38157 -3.5
    endloop
  endfacet
  facet normal 0.207912 -0.978148 0
    outer loop
      vertex -0.849796 2.61541 -3.5
      vertex -0.287453 2.73493 16.5
      vertex -0.849796 2.61541 16.5
    endloop
  endfacet
  facet normal 0.207912 -0.978148 0
    outer loop
      vertex -0.287453 2.73493 16.5
      vertex -0.849796 2.61541 -3.5
      vertex -0.287453 2.73493 -3.5
    endloop
  endfacet
  facet normal 0.743145 -0.669131 0
    outer loop
      vertex -2.2248 1.61641 16.5
      vertex -1.84011 2.04365 -3.5
      vertex -1.84011 2.04365 16.5
    endloop
  endfacet
  facet normal 0.743145 -0.669131 0
    outer loop
      vertex -1.84011 2.04365 -3.5
      vertex -2.2248 1.61641 16.5
      vertex -2.2248 1.61641 -3.5
    endloop
  endfacet
  facet normal -0.994522 -0.10453 0
    outer loop
      vertex 2.75 0 -3.5
      vertex 2.68991 0.571756 16.5
      vertex 2.68991 0.571756 -3.5
    endloop
  endfacet
  facet normal -0.994522 -0.10453 0
    outer loop
      vertex 2.68991 0.571756 16.5
      vertex 2.75 0 -3.5
      vertex 2.75 0 16.5
    endloop
  endfacet
  facet normal 0.207912 0.978148 -0
    outer loop
      vertex -0.287453 -2.73493 -3.5
      vertex -0.849796 -2.61541 16.5
      vertex -0.287453 -2.73493 16.5
    endloop
  endfacet
  facet normal 0.207912 0.978148 0
    outer loop
      vertex -0.849796 -2.61541 16.5
      vertex -0.287453 -2.73493 -3.5
      vertex -0.849796 -2.61541 -3.5
    endloop
  endfacet
  facet normal -0.587785 0.809017 0
    outer loop
      vertex 1.84011 -2.04365 -3.5
      vertex 1.375 -2.38157 16.5
      vertex 1.84011 -2.04365 16.5
    endloop
  endfacet
  facet normal -0.587785 0.809017 0
    outer loop
      vertex 1.375 -2.38157 16.5
      vertex 1.84011 -2.04365 -3.5
      vertex 1.375 -2.38157 -3.5
    endloop
  endfacet
  facet normal -0.207912 -0.978148 0
    outer loop
      vertex 0.287453 2.73493 -3.5
      vertex 0.849796 2.61541 16.5
      vertex 0.287453 2.73493 16.5
    endloop
  endfacet
  facet normal -0.207912 -0.978148 -0
    outer loop
      vertex 0.849796 2.61541 16.5
      vertex 0.287453 2.73493 -3.5
      vertex 0.849796 2.61541 -3.5
    endloop
  endfacet
  facet normal -0.951057 0.309016 0
    outer loop
      vertex 2.51225 -1.11853 -3.5
      vertex 2.68991 -0.571756 16.5
      vertex 2.68991 -0.571756 -3.5
    endloop
  endfacet
  facet normal -0.951057 0.309016 0
    outer loop
      vertex 2.68991 -0.571756 16.5
      vertex 2.51225 -1.11853 -3.5
      vertex 2.51225 -1.11853 16.5
    endloop
  endfacet
  facet normal -0.866025 0.5 0
    outer loop
      vertex 2.2248 -1.61641 -3.5
      vertex 2.51225 -1.11853 16.5
      vertex 2.51225 -1.11853 -3.5
    endloop
  endfacet
  facet normal -0.866025 0.5 0
    outer loop
      vertex 2.51225 -1.11853 16.5
      vertex 2.2248 -1.61641 -3.5
      vertex 2.2248 -1.61641 16.5
    endloop
  endfacet
  facet normal 0.994522 0.10453 0
    outer loop
      vertex -2.68991 -0.571756 16.5
      vertex -2.75 0 -3.5
      vertex -2.75 0 16.5
    endloop
  endfacet
  facet normal 0.994522 0.10453 0
    outer loop
      vertex -2.75 0 -3.5
      vertex -2.68991 -0.571756 16.5
      vertex -2.68991 -0.571756 -3.5
    endloop
  endfacet
  facet normal -0.207912 0.978148 0
    outer loop
      vertex 0.849796 -2.61541 -3.5
      vertex 0.287453 -2.73493 16.5
      vertex 0.849796 -2.61541 16.5
    endloop
  endfacet
  facet normal -0.207912 0.978148 0
    outer loop
      vertex 0.287453 -2.73493 16.5
      vertex 0.849796 -2.61541 -3.5
      vertex 0.287453 -2.73493 -3.5
    endloop
  endfacet
  facet normal -0.406737 0.913545 0
    outer loop
      vertex 1.375 -2.38157 -3.5
      vertex 0.849796 -2.61541 16.5
      vertex 1.375 -2.38157 16.5
    endloop
  endfacet
  facet normal -0.406737 0.913545 0
    outer loop
      vertex 0.849796 -2.61541 16.5
      vertex 1.375 -2.38157 -3.5
      vertex 0.849796 -2.61541 -3.5
    endloop
  endfacet
  facet normal -0.743145 0.669131 0
    outer loop
      vertex 1.84011 -2.04365 -3.5
      vertex 2.2248 -1.61641 16.5
      vertex 2.2248 -1.61641 -3.5
    endloop
  endfacet
  facet normal -0.743145 0.669131 0
    outer loop
      vertex 2.2248 -1.61641 16.5
      vertex 1.84011 -2.04365 -3.5
      vertex 1.84011 -2.04365 16.5
    endloop
  endfacet
  facet normal 0.406737 0.913545 -0
    outer loop
      vertex -0.849796 -2.61541 -3.5
      vertex -1.375 -2.38157 16.5
      vertex -0.849796 -2.61541 16.5
    endloop
  endfacet
  facet normal 0.406737 0.913545 0
    outer loop
      vertex -1.375 -2.38157 16.5
      vertex -0.849796 -2.61541 -3.5
      vertex -1.375 -2.38157 -3.5
    endloop
  endfacet
  facet normal 0 1 -0
    outer loop
      vertex 0.287453 -2.73493 -3.5
      vertex -0.287453 -2.73493 16.5
      vertex 0.287453 -2.73493 16.5
    endloop
  endfacet
  facet normal 0 1 0
    outer loop
      vertex -0.287453 -2.73493 16.5
      vertex 0.287453 -2.73493 -3.5
      vertex -0.287453 -2.73493 -3.5
    endloop
  endfacet
  facet normal 0.951057 0.309016 0
    outer loop
      vertex -2.51225 -1.11853 16.5
      vertex -2.68991 -0.571756 -3.5
      vertex -2.68991 -0.571756 16.5
    endloop
  endfacet
  facet normal 0.951057 0.309016 0
    outer loop
      vertex -2.68991 -0.571756 -3.5
      vertex -2.51225 -1.11853 16.5
      vertex -2.51225 -1.11853 -3.5
    endloop
  endfacet
  facet normal 0.743145 0.669131 0
    outer loop
      vertex -1.84011 -2.04365 16.5
      vertex -2.2248 -1.61641 -3.5
      vertex -2.2248 -1.61641 16.5
    endloop
  endfacet
  facet normal 0.743145 0.669131 0
    outer loop
      vertex -2.2248 -1.61641 -3.5
      vertex -1.84011 -2.04365 16.5
      vertex -1.84011 -2.04365 -3.5
    endloop
  endfacet
  facet normal 0.866025 0.5 0
    outer loop
      vertex -2.2248 -1.61641 16.5
      vertex -2.51225 -1.11853 -3.5
      vertex -2.51225 -1.11853 16.5
    endloop
  endfacet
  facet normal 0.866025 0.5 0
    outer loop
      vertex -2.51225 -1.11853 -3.5
      vertex -2.2248 -1.61641 16.5
      vertex -2.2248 -1.61641 -3.5
    endloop
  endfacet
  facet normal 0.587785 0.809017 -0
    outer loop
      vertex -1.375 -2.38157 -3.5
      vertex -1.84011 -2.04365 16.5
      vertex -1.375 -2.38157 16.5
    endloop
  endfacet
  facet normal 0.587785 0.809017 0
    outer loop
      vertex -1.84011 -2.04365 16.5
      vertex -1.375 -2.38157 -3.5
      vertex -1.84011 -2.04365 -3.5
    endloop
  endfacet
  facet normal 0.866026 0.499999 0
    outer loop
      vertex 3.42579 1.52526 16.5
      vertex 3.03381 2.20419 6.5
      vertex 3.03381 2.20419 16.5
    endloop
  endfacet
  facet normal 0.866026 0.499999 0
    outer loop
      vertex 3.03381 2.20419 6.5
      vertex 3.42579 1.52526 16.5
      vertex 3.42579 1.52526 6.5
    endloop
  endfacet
  facet normal 0.743145 0.669131 0
    outer loop
      vertex 3.03381 2.20419 16.5
      vertex 2.50924 2.78679 6.5
      vertex 2.50924 2.78679 16.5
    endloop
  endfacet
  facet normal 0.743145 0.669131 0
    outer loop
      vertex 2.50924 2.78679 6.5
      vertex 3.03381 2.20419 16.5
      vertex 3.03381 2.20419 6.5
    endloop
  endfacet
  facet normal -0.207912 0.978148 0
    outer loop
      vertex -0.391981 3.72946 6.5
      vertex -1.15881 3.56646 16.5
      vertex -0.391981 3.72946 16.5
    endloop
  endfacet
  facet normal -0.207912 0.978148 0
    outer loop
      vertex -1.15881 3.56646 16.5
      vertex -0.391981 3.72946 6.5
      vertex -1.15881 3.56646 6.5
    endloop
  endfacet
  facet normal -0.866026 0.499999 0
    outer loop
      vertex -3.42579 1.52526 6.5
      vertex -3.03381 2.20419 16.5
      vertex -3.03381 2.20419 6.5
    endloop
  endfacet
  facet normal -0.866026 0.499999 0
    outer loop
      vertex -3.03381 2.20419 16.5
      vertex -3.42579 1.52526 6.5
      vertex -3.42579 1.52526 16.5
    endloop
  endfacet
  facet normal 0.994522 -0.10453 0
    outer loop
      vertex 3.66805 -0.779669 16.5
      vertex 3.75 0 6.5
      vertex 3.75 0 16.5
    endloop
  endfacet
  facet normal 0.994522 -0.10453 0
    outer loop
      vertex 3.75 0 6.5
      vertex 3.66805 -0.779669 16.5
      vertex 3.66805 -0.779669 6.5
    endloop
  endfacet
  facet normal 0.587786 0.809017 -0
    outer loop
      vertex 2.50924 2.78679 6.5
      vertex 1.875 3.24759 16.5
      vertex 2.50924 2.78679 16.5
    endloop
  endfacet
  facet normal 0.587786 0.809017 0
    outer loop
      vertex 1.875 3.24759 16.5
      vertex 2.50924 2.78679 6.5
      vertex 1.875 3.24759 6.5
    endloop
  endfacet
  facet normal 0 1 -0
    outer loop
      vertex 0.391981 3.72946 6.5
      vertex -0.391981 3.72946 16.5
      vertex 0.391981 3.72946 16.5
    endloop
  endfacet
  facet normal 0 1 0
    outer loop
      vertex -0.391981 3.72946 16.5
      vertex 0.391981 3.72946 6.5
      vertex -0.391981 3.72946 6.5
    endloop
  endfacet
  facet normal 0.406737 0.913545 -0
    outer loop
      vertex 1.875 3.24759 6.5
      vertex 1.15881 3.56646 16.5
      vertex 1.875 3.24759 16.5
    endloop
  endfacet
  facet normal 0.406737 0.913545 0
    outer loop
      vertex 1.15881 3.56646 16.5
      vertex 1.875 3.24759 6.5
      vertex 1.15881 3.56646 6.5
    endloop
  endfacet
  facet normal -0.994522 0.10453 0
    outer loop
      vertex -3.75 0 6.5
      vertex -3.66805 0.779669 16.5
      vertex -3.66805 0.779669 6.5
    endloop
  endfacet
  facet normal -0.994522 0.10453 0
    outer loop
      vertex -3.66805 0.779669 16.5
      vertex -3.75 0 6.5
      vertex -3.75 0 16.5
    endloop
  endfacet
  facet normal -0.743145 0.669131 0
    outer loop
      vertex -3.03381 2.20419 6.5
      vertex -2.50924 2.78679 16.5
      vertex -2.50924 2.78679 6.5
    endloop
  endfacet
  facet normal -0.743145 0.669131 0
    outer loop
      vertex -2.50924 2.78679 16.5
      vertex -3.03381 2.20419 6.5
      vertex -3.03381 2.20419 16.5
    endloop
  endfacet
  facet normal -0.406737 0.913545 0
    outer loop
      vertex -1.15881 3.56646 6.5
      vertex -1.875 3.24759 16.5
      vertex -1.15881 3.56646 16.5
    endloop
  endfacet
  facet normal -0.406737 0.913545 0
    outer loop
      vertex -1.875 3.24759 16.5
      vertex -1.15881 3.56646 6.5
      vertex -1.875 3.24759 6.5
    endloop
  endfacet
  facet normal -0.587785 0.809017 0
    outer loop
      vertex -1.875 3.24759 6.5
      vertex -2.50924 2.78679 16.5
      vertex -1.875 3.24759 16.5
    endloop
  endfacet
  facet normal -0.587785 0.809017 0
    outer loop
      vertex -2.50924 2.78679 16.5
      vertex -1.875 3.24759 6.5
      vertex -2.50924 2.78679 6.5
    endloop
  endfacet
  facet normal 0.994522 0.10453 0
    outer loop
      vertex 3.75 0 16.5
      vertex 3.66805 0.779669 6.5
      vertex 3.66805 0.779669 16.5
    endloop
  endfacet
  facet normal 0.994522 0.10453 0
    outer loop
      vertex 3.66805 0.779669 6.5
      vertex 3.75 0 16.5
      vertex 3.75 0 6.5
    endloop
  endfacet
  facet normal 0.951056 -0.309017 0
    outer loop
      vertex 3.42579 -1.52526 16.5
      vertex 3.66805 -0.779669 6.5
      vertex 3.66805 -0.779669 16.5
    endloop
  endfacet
  facet normal 0.951056 -0.309017 0
    outer loop
      vertex 3.66805 -0.779669 6.5
      vertex 3.42579 -1.52526 16.5
      vertex 3.42579 -1.52526 6.5
    endloop
  endfacet
  facet normal -0.587786 -0.809017 0
    outer loop
      vertex -2.50924 -2.78679 6.5
      vertex -1.875 -3.24759 16.5
      vertex -2.50924 -2.78679 16.5
    endloop
  endfacet
  facet normal -0.587786 -0.809017 -0
    outer loop
      vertex -1.875 -3.24759 16.5
      vertex -2.50924 -2.78679 6.5
      vertex -1.875 -3.24759 6.5
    endloop
  endfacet
  facet normal -0.866026 -0.499999 0
    outer loop
      vertex -3.03381 -2.20419 6.5
      vertex -3.42579 -1.52526 16.5
      vertex -3.42579 -1.52526 6.5
    endloop
  endfacet
  facet normal -0.866026 -0.499999 0
    outer loop
      vertex -3.42579 -1.52526 16.5
      vertex -3.03381 -2.20419 6.5
      vertex -3.03381 -2.20419 16.5
    endloop
  endfacet
  facet normal 0.587786 -0.809017 0
    outer loop
      vertex 1.875 -3.24759 6.5
      vertex 2.50924 -2.78679 16.5
      vertex 1.875 -3.24759 16.5
    endloop
  endfacet
  facet normal 0.587786 -0.809017 0
    outer loop
      vertex 2.50924 -2.78679 16.5
      vertex 1.875 -3.24759 6.5
      vertex 2.50924 -2.78679 6.5
    endloop
  endfacet
  facet normal 0.951056 0.309017 0
    outer loop
      vertex 3.66805 0.779669 16.5
      vertex 3.42579 1.52526 6.5
      vertex 3.42579 1.52526 16.5
    endloop
  endfacet
  facet normal 0.951056 0.309017 0
    outer loop
      vertex 3.42579 1.52526 6.5
      vertex 3.66805 0.779669 16.5
      vertex 3.66805 0.779669 6.5
    endloop
  endfacet
  facet normal 0.207912 0.978148 -0
    outer loop
      vertex 1.15881 3.56646 6.5
      vertex 0.391981 3.72946 16.5
      vertex 1.15881 3.56646 16.5
    endloop
  endfacet
  facet normal 0.207912 0.978148 0
    outer loop
      vertex 0.391981 3.72946 16.5
      vertex 1.15881 3.56646 6.5
      vertex 0.391981 3.72946 6.5
    endloop
  endfacet
  facet normal 0 0 1
    outer loop
      vertex 2.75 0 16.5
      vertex 3.75 0 16.5
      vertex 3.66805 0.779669 16.5
    endloop
  endfacet
  facet normal 0 0 1
    outer loop
      vertex 2.68991 0.571756 16.5
      vertex 3.66805 0.779669 16.5
      vertex 3.42579 1.52526 16.5
    endloop
  endfacet
  facet normal 0 0 1
    outer loop
      vertex 3.75 0 16.5
      vertex 2.75 0 16.5
      vertex 3.66805 -0.779669 16.5
    endloop
  endfacet
  facet normal 0 0 1
    outer loop
      vertex 2.51225 1.11853 16.5
      vertex 3.42579 1.52526 16.5
      vertex 3.03381 2.20419 16.5
    endloop
  endfacet
  facet normal -0 0 1
    outer loop
      vertex 2.68991 -0.571756 16.5
      vertex 3.66805 -0.779669 16.5
      vertex 2.75 0 16.5
    endloop
  endfacet
  facet normal 0 0 1
    outer loop
      vertex 3.66805 -0.779669 16.5
      vertex 2.68991 -0.571756 16.5
      vertex 3.42579 -1.52526 16.5
    endloop
  endfacet
  facet normal 0 0 1
    outer loop
      vertex 3.66805 0.779669 16.5
      vertex 2.68991 0.571756 16.5
      vertex 2.75 0 16.5
    endloop
  endfacet
  facet normal 0 0 1
    outer loop
      vertex 3.42579 1.52526 16.5
      vertex 2.51225 1.11853 16.5
      vertex 2.68991 0.571756 16.5
    endloop
  endfacet
  facet normal 0 0 1
    outer loop
      vertex 2.2248 1.61641 16.5
      vertex 3.03381 2.20419 16.5
      vertex 2.50924 2.78679 16.5
    endloop
  endfacet
  facet normal 0 0 1
    outer loop
      vertex 3.03381 2.20419 16.5
      vertex 2.2248 1.61641 16.5
      vertex 2.51225 1.11853 16.5
    endloop
  endfacet
  facet normal 0 0 1
    outer loop
      vertex 1.84011 2.04365 16.5
      vertex 2.50924 2.78679 16.5
      vertex 1.875 3.24759 16.5
    endloop
  endfacet
  facet normal 0 0 1
    outer loop
      vertex 2.50924 2.78679 16.5
      vertex 1.84011 2.04365 16.5
      vertex 2.2248 1.61641 16.5
    endloop
  endfacet
  facet normal 0 0 1
    outer loop
      vertex 1.875 3.24759 16.5
      vertex 1.375 2.38157 16.5
      vertex 1.84011 2.04365 16.5
    endloop
  endfacet
  facet normal 0 0 1
    outer loop
      vertex 1.15881 3.56646 16.5
      vertex 1.375 2.38157 16.5
      vertex 1.875 3.24759 16.5
    endloop
  endfacet
  facet normal 0 0 1
    outer loop
      vertex 1.15881 3.56646 16.5
      vertex 0.849796 2.61541 16.5
      vertex 1.375 2.38157 16.5
    endloop
  endfacet
  facet normal 0 0 1
    outer loop
      vertex 0.391981 3.72946 16.5
      vertex 0.849796 2.61541 16.5
      vertex 1.15881 3.56646 16.5
    endloop
  endfacet
  facet normal 0 0 1
    outer loop
      vertex 0.391981 3.72946 16.5
      vertex 0.287453 2.73493 16.5
      vertex 0.849796 2.61541 16.5
    endloop
  endfacet
  facet normal 0 0 1
    outer loop
      vertex 0.391981 3.72946 16.5
      vertex -0.287453 2.73493 16.5
      vertex 0.287453 2.73493 16.5
    endloop
  endfacet
  facet normal -0 0 1
    outer loop
      vertex -0.391981 3.72946 16.5
      vertex -0.287453 2.73493 16.5
      vertex 0.391981 3.72946 16.5
    endloop
  endfacet
  facet normal 0 0 1
    outer loop
      vertex -0.391981 3.72946 16.5
      vertex -0.849796 2.61541 16.5
      vertex -0.287453 2.73493 16.5
    endloop
  endfacet
  facet normal -0 0 1
    outer loop
      vertex -1.15881 3.56646 16.5
      vertex -0.849796 2.61541 16.5
      vertex -0.391981 3.72946 16.5
    endloop
  endfacet
  facet normal 0 0 1
    outer loop
      vertex -1.15881 3.56646 16.5
      vertex -1.375 2.38157 16.5
      vertex -0.849796 2.61541 16.5
    endloop
  endfacet
  facet normal -0 0 1
    outer loop
      vertex -1.875 3.24759 16.5
      vertex -1.375 2.38157 16.5
      vertex -1.15881 3.56646 16.5
    endloop
  endfacet
  facet normal 0 0 1
    outer loop
      vertex -1.375 2.38157 16.5
      vertex -1.875 3.24759 16.5
      vertex -1.84011 2.04365 16.5
    endloop
  endfacet
  facet normal -0 0 1
    outer loop
      vertex -2.50924 2.78679 16.5
      vertex -1.84011 2.04365 16.5
      vertex -1.875 3.24759 16.5
    endloop
  endfacet
  facet normal 0 0 1
    outer loop
      vertex -1.84011 2.04365 16.5
      vertex -2.50924 2.78679 16.5
      vertex -2.2248 1.61641 16.5
    endloop
  endfacet
  facet normal -0 0 1
    outer loop
      vertex -3.03381 2.20419 16.5
      vertex -2.2248 1.61641 16.5
      vertex -2.50924 2.78679 16.5
    endloop
  endfacet
  facet normal 0 0 1
    outer loop
      vertex -2.2248 1.61641 16.5
      vertex -3.03381 2.20419 16.5
      vertex -2.51225 1.11853 16.5
    endloop
  endfacet
  facet normal -0 0 1
    outer loop
      vertex -3.42579 1.52526 16.5
      vertex -2.51225 1.11853 16.5
      vertex -3.03381 2.20419 16.5
    endloop
  endfacet
  facet normal 0 0 1
    outer loop
      vertex -2.51225 1.11853 16.5
      vertex -3.42579 1.52526 16.5
      vertex -2.68991 0.571756 16.5
    endloop
  endfacet
  facet normal -0 0 1
    outer loop
      vertex 2.51225 -1.11853 16.5
      vertex 3.42579 -1.52526 16.5
      vertex 2.68991 -0.571756 16.5
    endloop
  endfacet
  facet normal 0 0 1
    outer loop
      vertex 3.42579 -1.52526 16.5
      vertex 2.51225 -1.11853 16.5
      vertex 3.03381 -2.20419 16.5
    endloop
  endfacet
  facet normal -0 0 1
    outer loop
      vertex 2.2248 -1.61641 16.5
      vertex 3.03381 -2.20419 16.5
      vertex 2.51225 -1.11853 16.5
    endloop
  endfacet
  facet normal 0 0 1
    outer loop
      vertex 3.03381 -2.20419 16.5
      vertex 2.2248 -1.61641 16.5
      vertex 2.50924 -2.78679 16.5
    endloop
  endfacet
  facet normal -0 0 1
    outer loop
      vertex 1.84011 -2.04365 16.5
      vertex 2.50924 -2.78679 16.5
      vertex 2.2248 -1.61641 16.5
    endloop
  endfacet
  facet normal 0 0 1
    outer loop
      vertex 2.50924 -2.78679 16.5
      vertex 1.84011 -2.04365 16.5
      vertex 1.875 -3.24759 16.5
    endloop
  endfacet
  facet normal -0 0 1
    outer loop
      vertex 1.375 -2.38157 16.5
      vertex 1.875 -3.24759 16.5
      vertex 1.84011 -2.04365 16.5
    endloop
  endfacet
  facet normal 0 0 1
    outer loop
      vertex 1.375 -2.38157 16.5
      vertex 1.15881 -3.56646 16.5
      vertex 1.875 -3.24759 16.5
    endloop
  endfacet
  facet normal -0 0 1
    outer loop
      vertex 0.849796 -2.61541 16.5
      vertex 1.15881 -3.56646 16.5
      vertex 1.375 -2.38157 16.5
    endloop
  endfacet
  facet normal 0 0 1
    outer loop
      vertex 0.849796 -2.61541 16.5
      vertex 0.391981 -3.72946 16.5
      vertex 1.15881 -3.56646 16.5
    endloop
  endfacet
  facet normal -0 0 1
    outer loop
      vertex 0.287453 -2.73493 16.5
      vertex 0.391981 -3.72946 16.5
      vertex 0.849796 -2.61541 16.5
    endloop
  endfacet
  facet normal -0 0 1
    outer loop
      vertex -0.287453 -2.73493 16.5
      vertex 0.391981 -3.72946 16.5
      vertex 0.287453 -2.73493 16.5
    endloop
  endfacet
  facet normal 0 0 1
    outer loop
      vertex -0.287453 -2.73493 16.5
      vertex -0.391981 -3.72946 16.5
      vertex 0.391981 -3.72946 16.5
    endloop
  endfacet
  facet normal 0 0 1
    outer loop
      vertex -0.849796 -2.61541 16.5
      vertex -0.391981 -3.72946 16.5
      vertex -0.287453 -2.73493 16.5
    endloop
  endfacet
  facet normal 0 0 1
    outer loop
      vertex -0.849796 -2.61541 16.5
      vertex -1.15881 -3.56646 16.5
      vertex -0.391981 -3.72946 16.5
    endloop
  endfacet
  facet normal 0 0 1
    outer loop
      vertex -1.375 -2.38157 16.5
      vertex -1.15881 -3.56646 16.5
      vertex -0.849796 -2.61541 16.5
    endloop
  endfacet
  facet normal 0 0 1
    outer loop
      vertex -1.875 -3.24759 16.5
      vertex -1.375 -2.38157 16.5
      vertex -1.84011 -2.04365 16.5
    endloop
  endfacet
  facet normal 0 0 1
    outer loop
      vertex -1.375 -2.38157 16.5
      vertex -1.875 -3.24759 16.5
      vertex -1.15881 -3.56646 16.5
    endloop
  endfacet
  facet normal 0 0 1
    outer loop
      vertex -2.50924 -2.78679 16.5
      vertex -1.84011 -2.04365 16.5
      vertex -2.2248 -1.61641 16.5
    endloop
  endfacet
  facet normal 0 0 1
    outer loop
      vertex -1.84011 -2.04365 16.5
      vertex -2.50924 -2.78679 16.5
      vertex -1.875 -3.24759 16.5
    endloop
  endfacet
  facet normal 0 0 1
    outer loop
      vertex -3.03381 -2.20419 16.5
      vertex -2.2248 -1.61641 16.5
      vertex -2.51225 -1.11853 16.5
    endloop
  endfacet
  facet normal 0 0 1
    outer loop
      vertex -3.42579 -1.52526 16.5
      vertex -2.51225 -1.11853 16.5
      vertex -2.68991 -0.571756 16.5
    endloop
  endfacet
  facet normal 0 0 1
    outer loop
      vertex -3.66805 -0.779669 16.5
      vertex -2.68991 -0.571756 16.5
      vertex -2.75 0 16.5
    endloop
  endfacet
  facet normal -0 0 1
    outer loop
      vertex -3.66805 0.779669 16.5
      vertex -2.68991 0.571756 16.5
      vertex -3.42579 1.52526 16.5
    endloop
  endfacet
  facet normal 0 0 1
    outer loop
      vertex -2.2248 -1.61641 16.5
      vertex -3.03381 -2.20419 16.5
      vertex -2.50924 -2.78679 16.5
    endloop
  endfacet
  facet normal 0 0 1
    outer loop
      vertex -2.68991 0.571756 16.5
      vertex -3.66805 0.779669 16.5
      vertex -2.75 0 16.5
    endloop
  endfacet
  facet normal 0 0 1
    outer loop
      vertex -2.51225 -1.11853 16.5
      vertex -3.42579 -1.52526 16.5
      vertex -3.03381 -2.20419 16.5
    endloop
  endfacet
  facet normal 0 0 1
    outer loop
      vertex -3.75 0 16.5
      vertex -2.75 0 16.5
      vertex -3.66805 0.779669 16.5
    endloop
  endfacet
  facet normal 0 0 1
    outer loop
      vertex -2.68991 -0.571756 16.5
      vertex -3.66805 -0.779669 16.5
      vertex -3.42579 -1.52526 16.5
    endloop
  endfacet
  facet normal 0 0 1
    outer loop
      vertex -2.75 0 16.5
      vertex -3.75 0 16.5
      vertex -3.66805 -0.779669 16.5
    endloop
  endfacet
  facet normal -0.951056 0.309017 0
    outer loop
      vertex -3.66805 0.779669 6.5
      vertex -3.42579 1.52526 16.5
      vertex -3.42579 1.52526 6.5
    endloop
  endfacet
  facet normal -0.951056 0.309017 0
    outer loop
      vertex -3.42579 1.52526 16.5
      vertex -3.66805 0.779669 6.5
      vertex -3.66805 0.779669 16.5
    endloop
  endfacet
  facet normal 0.866026 -0.499999 0
    outer loop
      vertex 3.03381 -2.20419 16.5
      vertex 3.42579 -1.52526 6.5
      vertex 3.42579 -1.52526 16.5
    endloop
  endfacet
  facet normal 0.866026 -0.499999 0
    outer loop
      vertex 3.42579 -1.52526 6.5
      vertex 3.03381 -2.20419 16.5
      vertex 3.03381 -2.20419 6.5
    endloop
  endfacet
  facet normal -0.994522 -0.10453 0
    outer loop
      vertex -3.66805 -0.779669 6.5
      vertex -3.75 0 16.5
      vertex -3.75 0 6.5
    endloop
  endfacet
  facet normal -0.994522 -0.10453 0
    outer loop
      vertex -3.75 0 16.5
      vertex -3.66805 -0.779669 6.5
      vertex -3.66805 -0.779669 16.5
    endloop
  endfacet
  facet normal -0.743145 -0.669131 0
    outer loop
      vertex -2.50924 -2.78679 6.5
      vertex -3.03381 -2.20419 16.5
      vertex -3.03381 -2.20419 6.5
    endloop
  endfacet
  facet normal -0.743145 -0.669131 0
    outer loop
      vertex -3.03381 -2.20419 16.5
      vertex -2.50924 -2.78679 6.5
      vertex -2.50924 -2.78679 16.5
    endloop
  endfacet
  facet normal 0.207912 -0.978148 0
    outer loop
      vertex 0.391981 -3.72946 6.5
      vertex 1.15881 -3.56646 16.5
      vertex 0.391981 -3.72946 16.5
    endloop
  endfacet
  facet normal 0.207912 -0.978148 0
    outer loop
      vertex 1.15881 -3.56646 16.5
      vertex 0.391981 -3.72946 6.5
      vertex 1.15881 -3.56646 6.5
    endloop
  endfacet
  facet normal 0.406737 -0.913545 0
    outer loop
      vertex 1.15881 -3.56646 6.5
      vertex 1.875 -3.24759 16.5
      vertex 1.15881 -3.56646 16.5
    endloop
  endfacet
  facet normal 0.406737 -0.913545 0
    outer loop
      vertex 1.875 -3.24759 16.5
      vertex 1.15881 -3.56646 6.5
      vertex 1.875 -3.24759 6.5
    endloop
  endfacet
  facet normal -0.406737 -0.913545 0
    outer loop
      vertex -1.875 -3.24759 6.5
      vertex -1.15881 -3.56646 16.5
      vertex -1.875 -3.24759 16.5
    endloop
  endfacet
  facet normal -0.406737 -0.913545 -0
    outer loop
      vertex -1.15881 -3.56646 16.5
      vertex -1.875 -3.24759 6.5
      vertex -1.15881 -3.56646 6.5
    endloop
  endfacet
  facet normal 0 -1 0
    outer loop
      vertex -0.391981 -3.72946 6.5
      vertex 0.391981 -3.72946 16.5
      vertex -0.391981 -3.72946 16.5
    endloop
  endfacet
  facet normal 0 -1 -0
    outer loop
      vertex 0.391981 -3.72946 16.5
      vertex -0.391981 -3.72946 6.5
      vertex 0.391981 -3.72946 6.5
    endloop
  endfacet
  facet normal -0.951056 -0.309017 0
    outer loop
      vertex -3.42579 -1.52526 6.5
      vertex -3.66805 -0.779669 16.5
      vertex -3.66805 -0.779669 6.5
    endloop
  endfacet
  facet normal -0.951056 -0.309017 0
    outer loop
      vertex -3.66805 -0.779669 16.5
      vertex -3.42579 -1.52526 6.5
      vertex -3.42579 -1.52526 16.5
    endloop
  endfacet
  facet normal 0.743145 -0.669131 0
    outer loop
      vertex 2.50924 -2.78679 16.5
      vertex 3.03381 -2.20419 6.5
      vertex 3.03381 -2.20419 16.5
    endloop
  endfacet
  facet normal 0.743145 -0.669131 0
    outer loop
      vertex 3.03381 -2.20419 6.5
      vertex 2.50924 -2.78679 16.5
      vertex 2.50924 -2.78679 6.5
    endloop
  endfacet
  facet normal -0.207912 -0.978148 0
    outer loop
      vertex -1.15881 -3.56646 6.5
      vertex -0.391981 -3.72946 16.5
      vertex -1.15881 -3.56646 16.5
    endloop
  endfacet
  facet normal -0.207912 -0.978148 -0
    outer loop
      vertex -0.391981 -3.72946 16.5
      vertex -1.15881 -3.56646 6.5
      vertex -0.391981 -3.72946 6.5
    endloop
  endfacet
endsolid OpenSCAD_Model
