solid OpenSCAD_Model
  facet normal -1 0 0
    outer loop
      vertex 0 6 -8.3
      vertex 0 4.5 -4
      vertex 0 6 1.7
    endloop
  endfacet
  facet normal -1 0 0
    outer loop
      vertex 0 6 -8.3
      vertex 0 -4.5 -4
      vertex 0 4.5 -4
    endloop
  endfacet
  facet normal -1 0 0
    outer loop
      vertex 0 -6 1.7
      vertex 0 -4.5 -4
      vertex 0 -6 -8.3
    endloop
  endfacet
  facet normal -1 0 0
    outer loop
      vertex 0 -6 -8.3
      vertex 0 -4.5 -4
      vertex 0 6 -8.3
    endloop
  endfacet
  facet normal -1 0 0
    outer loop
      vertex 0 4.5 0
      vertex 0 6 1.7
      vertex 0 4.5 -4
    endloop
  endfacet
  facet normal -1 0 0
    outer loop
      vertex 0 2.5 1.7
      vertex 0 4.5 0
      vertex 0 2.5 0
    endloop
  endfacet
  facet normal -1 0 0
    outer loop
      vertex 0 4.5 0
      vertex 0 2.5 1.7
      vertex 0 6 1.7
    endloop
  endfacet
  facet normal -1 0 0
    outer loop
      vertex 0 -4.5 0
      vertex 0 -2.5 1.7
      vertex 0 -2.5 0
    endloop
  endfacet
  facet normal -1 0 0
    outer loop
      vertex 0 -4.5 0
      vertex 0 -6 1.7
      vertex 0 -2.5 1.7
    endloop
  endfacet
  facet normal -1 0 0
    outer loop
      vertex 0 -4.5 -4
      vertex 0 -6 1.7
      vertex 0 -4.5 0
    endloop
  endfacet
  facet normal -0 0 1
    outer loop
      vertex 0 -2.5 1.7
      vertex 100 -6 1.7
      vertex 100 -2.5 1.7
    endloop
  endfacet
  facet normal 0 0 1
    outer loop
      vertex 100 -6 1.7
      vertex 0 -2.5 1.7
      vertex 0 -6 1.7
    endloop
  endfacet
  facet normal -0 0 1
    outer loop
      vertex 0 6 1.7
      vertex 100 2.5 1.7
      vertex 100 6 1.7
    endloop
  endfacet
  facet normal 0 0 1
    outer loop
      vertex 100 2.5 1.7
      vertex 0 6 1.7
      vertex 0 2.5 1.7
    endloop
  endfacet
  facet normal 1 0 0
    outer loop
      vertex 100 -2.5 1.7
      vertex 100 -4.5 0
      vertex 100 -2.5 0
    endloop
  endfacet
  facet normal 1 0 0
    outer loop
      vertex 100 -4.5 0
      vertex 100 -6 1.7
      vertex 100 -4.5 -4
    endloop
  endfacet
  facet normal 1 -0 0
    outer loop
      vertex 100 -6 1.7
      vertex 100 -4.5 0
      vertex 100 -2.5 1.7
    endloop
  endfacet
  facet normal 1 0 0
    outer loop
      vertex 100 4.5 -4
      vertex 100 6 1.7
      vertex 100 4.5 0
    endloop
  endfacet
  facet normal 1 -0 0
    outer loop
      vertex 100 2.5 1.7
      vertex 100 4.5 0
      vertex 100 6 1.7
    endloop
  endfacet
  facet normal 1 0 0
    outer loop
      vertex 100 4.5 0
      vertex 100 2.5 1.7
      vertex 100 2.5 0
    endloop
  endfacet
  facet normal 1 0 0
    outer loop
      vertex 100 6 1.7
      vertex 100 4.5 -4
      vertex 100 6 -8.3
    endloop
  endfacet
  facet normal 1 -0 0
    outer loop
      vertex 100 -4.5 -4
      vertex 100 6 -8.3
      vertex 100 4.5 -4
    endloop
  endfacet
  facet normal 1 0 0
    outer loop
      vertex 100 -4.5 -4
      vertex 100 -6 -8.3
      vertex 100 6 -8.3
    endloop
  endfacet
  facet normal 1 0 0
    outer loop
      vertex 100 -6 -8.3
      vertex 100 -4.5 -4
      vertex 100 -6 1.7
    endloop
  endfacet
  facet normal 0 0 -1
    outer loop
      vertex 0 -6 -8.3
      vertex 100 6 -8.3
      vertex 100 -6 -8.3
    endloop
  endfacet
  facet normal -0 0 -1
    outer loop
      vertex 100 6 -8.3
      vertex 0 -6 -8.3
      vertex 0 6 -8.3
    endloop
  endfacet
  facet normal 0 -1 0
    outer loop
      vertex 0 -6 -8.3
      vertex 100 -6 1.7
      vertex 0 -6 1.7
    endloop
  endfacet
  facet normal 0 -1 -0
    outer loop
      vertex 100 -6 1.7
      vertex 0 -6 -8.3
      vertex 100 -6 -8.3
    endloop
  endfacet
  facet normal 0 1 -0
    outer loop
      vertex 100 6 -8.3
      vertex 0 6 1.7
      vertex 100 6 1.7
    endloop
  endfacet
  facet normal 0 1 0
    outer loop
      vertex 0 6 1.7
      vertex 100 6 -8.3
      vertex 0 6 -8.3
    endloop
  endfacet
  facet normal 0 0 -1
    outer loop
      vertex 0 -4.5 0
      vertex 100 -2.5 0
      vertex 100 -4.5 0
    endloop
  endfacet
  facet normal -0 0 -1
    outer loop
      vertex 100 -2.5 0
      vertex 0 -4.5 0
      vertex 0 -2.5 0
    endloop
  endfacet
  facet normal 0 0 -1
    outer loop
      vertex 0 2.5 0
      vertex 100 4.5 0
      vertex 100 2.5 0
    endloop
  endfacet
  facet normal -0 0 -1
    outer loop
      vertex 100 4.5 0
      vertex 0 2.5 0
      vertex 0 4.5 0
    endloop
  endfacet
  facet normal -0 0 1
    outer loop
      vertex 0 4.5 -4
      vertex 100 -4.5 -4
      vertex 100 4.5 -4
    endloop
  endfacet
  facet normal 0 0 1
    outer loop
      vertex 100 -4.5 -4
      vertex 0 4.5 -4
      vertex 0 -4.5 -4
    endloop
  endfacet
  facet normal 0 1 -0
    outer loop
      vertex 100 -4.5 -4
      vertex 0 -4.5 0
      vertex 100 -4.5 0
    endloop
  endfacet
  facet normal 0 1 0
    outer loop
      vertex 0 -4.5 0
      vertex 100 -4.5 -4
      vertex 0 -4.5 -4
    endloop
  endfacet
  facet normal 0 -1 0
    outer loop
      vertex 0 4.5 -4
      vertex 100 4.5 0
      vertex 0 4.5 0
    endloop
  endfacet
  facet normal 0 -1 -0
    outer loop
      vertex 100 4.5 0
      vertex 0 4.5 -4
      vertex 100 4.5 -4
    endloop
  endfacet
  facet normal 0 1 -0
    outer loop
      vertex 100 -2.5 0
      vertex 0 -2.5 1.7
      vertex 100 -2.5 1.7
    endloop
  endfacet
  facet normal 0 1 0
    outer loop
      vertex 0 -2.5 1.7
      vertex 100 -2.5 0
      vertex 0 -2.5 0
    endloop
  endfacet
  facet normal 0 -1 0
    outer loop
      vertex 0 2.5 0
      vertex 100 2.5 1.7
      vertex 0 2.5 1.7
    endloop
  endfacet
  facet normal 0 -1 -0
    outer loop
      vertex 100 2.5 1.7
      vertex 0 2.5 0
      vertex 100 2.5 0
    endloop
  endfacet
endsolid OpenSCAD_Model
