solid OpenSCAD_Model
  facet normal 0 1 0
    outer loop
      vertex 95.5712 1.5 -0.73
      vertex 93.6242 1.5 1.27324
      vertex 95.3758 1.5 1.27324
    endloop
  endfacet
  facet normal 0 1 0
    outer loop
      vertex 93.6242 1.5 1.27324
      vertex 95.5712 1.5 -0.73
      vertex 93.4288 1.5 -0.73
    endloop
  endfacet
  facet normal 0 1 0
    outer loop
      vertex 91.5712 1.5 -0.73
      vertex 89.6242 1.5 1.27324
      vertex 91.3758 1.5 1.27324
    endloop
  endfacet
  facet normal 0 1 0
    outer loop
      vertex 89.6242 1.5 1.27324
      vertex 91.5712 1.5 -0.73
      vertex 89.4288 1.5 -0.73
    endloop
  endfacet
  facet normal 0 1 0
    outer loop
      vertex 87.5712 1.5 -0.73
      vertex 85.6242 1.5 1.27324
      vertex 87.3758 1.5 1.27324
    endloop
  endfacet
  facet normal 0 1 0
    outer loop
      vertex 85.6242 1.5 1.27324
      vertex 87.5712 1.5 -0.73
      vertex 85.4288 1.5 -0.73
    endloop
  endfacet
  facet normal 0 1 0
    outer loop
      vertex 83.5712 1.5 -0.73
      vertex 81.6242 1.5 1.27324
      vertex 83.3758 1.5 1.27324
    endloop
  endfacet
  facet normal 0 1 0
    outer loop
      vertex 81.6242 1.5 1.27324
      vertex 83.5712 1.5 -0.73
      vertex 81.4288 1.5 -0.73
    endloop
  endfacet
  facet normal 0 1 0
    outer loop
      vertex 79.5712 1.5 -0.73
      vertex 77.6242 1.5 1.27324
      vertex 79.3758 1.5 1.27324
    endloop
  endfacet
  facet normal 0 1 0
    outer loop
      vertex 77.6242 1.5 1.27324
      vertex 79.5712 1.5 -0.73
      vertex 77.4288 1.5 -0.73
    endloop
  endfacet
  facet normal 0 1 0
    outer loop
      vertex 75.5712 1.5 -0.73
      vertex 73.6242 1.5 1.27324
      vertex 75.3758 1.5 1.27324
    endloop
  endfacet
  facet normal 0 1 0
    outer loop
      vertex 73.6242 1.5 1.27324
      vertex 75.5712 1.5 -0.73
      vertex 73.4288 1.5 -0.73
    endloop
  endfacet
  facet normal 0 1 0
    outer loop
      vertex 71.5712 1.5 -0.73
      vertex 69.6242 1.5 1.27324
      vertex 71.3758 1.5 1.27324
    endloop
  endfacet
  facet normal 0 1 0
    outer loop
      vertex 69.6242 1.5 1.27324
      vertex 71.5712 1.5 -0.73
      vertex 69.4288 1.5 -0.73
    endloop
  endfacet
  facet normal 0 1 0
    outer loop
      vertex 67.5712 1.5 -0.73
      vertex 65.6242 1.5 1.27324
      vertex 67.3758 1.5 1.27324
    endloop
  endfacet
  facet normal 0 1 0
    outer loop
      vertex 65.6242 1.5 1.27324
      vertex 67.5712 1.5 -0.73
      vertex 65.4288 1.5 -0.73
    endloop
  endfacet
  facet normal 0 1 0
    outer loop
      vertex 63.5712 1.5 -0.73
      vertex 61.6242 1.5 1.27324
      vertex 63.3758 1.5 1.27324
    endloop
  endfacet
  facet normal 0 1 0
    outer loop
      vertex 61.6242 1.5 1.27324
      vertex 63.5712 1.5 -0.73
      vertex 61.4288 1.5 -0.73
    endloop
  endfacet
  facet normal 0 1 0
    outer loop
      vertex 59.5712 1.5 -0.73
      vertex 57.6242 1.5 1.27324
      vertex 59.3758 1.5 1.27324
    endloop
  endfacet
  facet normal 0 1 0
    outer loop
      vertex 57.6242 1.5 1.27324
      vertex 59.5712 1.5 -0.73
      vertex 57.4288 1.5 -0.73
    endloop
  endfacet
  facet normal 0 1 0
    outer loop
      vertex 55.5712 1.5 -0.73
      vertex 53.6242 1.5 1.27324
      vertex 55.3758 1.5 1.27324
    endloop
  endfacet
  facet normal 0 1 0
    outer loop
      vertex 53.6242 1.5 1.27324
      vertex 55.5712 1.5 -0.73
      vertex 53.4288 1.5 -0.73
    endloop
  endfacet
  facet normal 0 1 0
    outer loop
      vertex 51.5712 1.5 -0.73
      vertex 49.6242 1.5 1.27324
      vertex 51.3758 1.5 1.27324
    endloop
  endfacet
  facet normal 0 1 0
    outer loop
      vertex 49.6242 1.5 1.27324
      vertex 51.5712 1.5 -0.73
      vertex 49.4288 1.5 -0.73
    endloop
  endfacet
  facet normal 0 1 0
    outer loop
      vertex 47.5712 1.5 -0.73
      vertex 45.6242 1.5 1.27324
      vertex 47.3758 1.5 1.27324
    endloop
  endfacet
  facet normal 0 1 0
    outer loop
      vertex 45.6242 1.5 1.27324
      vertex 47.5712 1.5 -0.73
      vertex 45.4288 1.5 -0.73
    endloop
  endfacet
  facet normal 0 1 0
    outer loop
      vertex 43.5712 1.5 -0.73
      vertex 41.6242 1.5 1.27324
      vertex 43.3758 1.5 1.27324
    endloop
  endfacet
  facet normal 0 1 0
    outer loop
      vertex 41.6242 1.5 1.27324
      vertex 43.5712 1.5 -0.73
      vertex 41.4288 1.5 -0.73
    endloop
  endfacet
  facet normal 0 1 0
    outer loop
      vertex 39.5712 1.5 -0.73
      vertex 37.6242 1.5 1.27324
      vertex 39.3758 1.5 1.27324
    endloop
  endfacet
  facet normal 0 1 0
    outer loop
      vertex 37.6242 1.5 1.27324
      vertex 39.5712 1.5 -0.73
      vertex 37.4288 1.5 -0.73
    endloop
  endfacet
  facet normal 0 1 0
    outer loop
      vertex 35.5712 1.5 -0.73
      vertex 33.6242 1.5 1.27324
      vertex 35.3758 1.5 1.27324
    endloop
  endfacet
  facet normal 0 1 0
    outer loop
      vertex 33.6242 1.5 1.27324
      vertex 35.5712 1.5 -0.73
      vertex 33.4288 1.5 -0.73
    endloop
  endfacet
  facet normal 0 1 0
    outer loop
      vertex 31.5712 1.5 -0.73
      vertex 29.6242 1.5 1.27324
      vertex 31.3758 1.5 1.27324
    endloop
  endfacet
  facet normal 0 1 0
    outer loop
      vertex 29.6242 1.5 1.27324
      vertex 31.5712 1.5 -0.73
      vertex 29.4288 1.5 -0.73
    endloop
  endfacet
  facet normal 0 1 0
    outer loop
      vertex 27.5712 1.5 -0.73
      vertex 25.6242 1.5 1.27324
      vertex 27.3758 1.5 1.27324
    endloop
  endfacet
  facet normal 0 1 0
    outer loop
      vertex 25.6242 1.5 1.27324
      vertex 27.5712 1.5 -0.73
      vertex 25.4288 1.5 -0.73
    endloop
  endfacet
  facet normal 0 1 0
    outer loop
      vertex 23.5712 1.5 -0.73
      vertex 21.6242 1.5 1.27324
      vertex 23.3758 1.5 1.27324
    endloop
  endfacet
  facet normal 0 1 0
    outer loop
      vertex 21.6242 1.5 1.27324
      vertex 23.5712 1.5 -0.73
      vertex 21.4288 1.5 -0.73
    endloop
  endfacet
  facet normal 0 1 0
    outer loop
      vertex 19.5712 1.5 -0.73
      vertex 17.6242 1.5 1.27324
      vertex 19.3758 1.5 1.27324
    endloop
  endfacet
  facet normal 0 1 0
    outer loop
      vertex 17.6242 1.5 1.27324
      vertex 19.5712 1.5 -0.73
      vertex 17.4288 1.5 -0.73
    endloop
  endfacet
  facet normal 0 1 0
    outer loop
      vertex 15.5712 1.5 -0.73
      vertex 13.6242 1.5 1.27324
      vertex 15.3758 1.5 1.27324
    endloop
  endfacet
  facet normal 0 1 0
    outer loop
      vertex 13.6242 1.5 1.27324
      vertex 15.5712 1.5 -0.73
      vertex 13.4288 1.5 -0.73
    endloop
  endfacet
  facet normal 0 1 0
    outer loop
      vertex 11.5712 1.5 -0.73
      vertex 9.62421 1.5 1.27324
      vertex 11.3758 1.5 1.27324
    endloop
  endfacet
  facet normal 0 1 0
    outer loop
      vertex 9.62421 1.5 1.27324
      vertex 11.5712 1.5 -0.73
      vertex 9.4288 1.5 -0.73
    endloop
  endfacet
  facet normal 0 1 0
    outer loop
      vertex 7.5712 1.5 -0.73
      vertex 5.62421 1.5 1.27324
      vertex 7.37579 1.5 1.27324
    endloop
  endfacet
  facet normal 0 1 0
    outer loop
      vertex 5.62421 1.5 1.27324
      vertex 7.5712 1.5 -0.73
      vertex 5.4288 1.5 -0.73
    endloop
  endfacet
  facet normal 0 1 0
    outer loop
      vertex 3.5712 1.5 -0.73
      vertex 1.62421 1.5 1.27324
      vertex 3.37579 1.5 1.27324
    endloop
  endfacet
  facet normal 0 1 0
    outer loop
      vertex 1.62421 1.5 1.27324
      vertex 3.5712 1.5 -0.73
      vertex 1.4288 1.5 -0.73
    endloop
  endfacet
  facet normal 0 -1 0
    outer loop
      vertex 93.4288 -1.5 -0.73
      vertex 95.3758 -1.5 1.27324
      vertex 93.6242 -1.5 1.27324
    endloop
  endfacet
  facet normal 0 -1 -0
    outer loop
      vertex 95.3758 -1.5 1.27324
      vertex 93.4288 -1.5 -0.73
      vertex 95.5712 -1.5 -0.73
    endloop
  endfacet
  facet normal 0 -1 0
    outer loop
      vertex 89.4288 -1.5 -0.73
      vertex 91.3758 -1.5 1.27324
      vertex 89.6242 -1.5 1.27324
    endloop
  endfacet
  facet normal 0 -1 -0
    outer loop
      vertex 91.3758 -1.5 1.27324
      vertex 89.4288 -1.5 -0.73
      vertex 91.5712 -1.5 -0.73
    endloop
  endfacet
  facet normal 0 -1 0
    outer loop
      vertex 85.4288 -1.5 -0.73
      vertex 87.3758 -1.5 1.27324
      vertex 85.6242 -1.5 1.27324
    endloop
  endfacet
  facet normal 0 -1 -0
    outer loop
      vertex 87.3758 -1.5 1.27324
      vertex 85.4288 -1.5 -0.73
      vertex 87.5712 -1.5 -0.73
    endloop
  endfacet
  facet normal 0 -1 0
    outer loop
      vertex 81.4288 -1.5 -0.73
      vertex 83.3758 -1.5 1.27324
      vertex 81.6242 -1.5 1.27324
    endloop
  endfacet
  facet normal 0 -1 -0
    outer loop
      vertex 83.3758 -1.5 1.27324
      vertex 81.4288 -1.5 -0.73
      vertex 83.5712 -1.5 -0.73
    endloop
  endfacet
  facet normal 0 -1 0
    outer loop
      vertex 77.4288 -1.5 -0.73
      vertex 79.3758 -1.5 1.27324
      vertex 77.6242 -1.5 1.27324
    endloop
  endfacet
  facet normal 0 -1 -0
    outer loop
      vertex 79.3758 -1.5 1.27324
      vertex 77.4288 -1.5 -0.73
      vertex 79.5712 -1.5 -0.73
    endloop
  endfacet
  facet normal 0 -1 0
    outer loop
      vertex 73.4288 -1.5 -0.73
      vertex 75.3758 -1.5 1.27324
      vertex 73.6242 -1.5 1.27324
    endloop
  endfacet
  facet normal 0 -1 -0
    outer loop
      vertex 75.3758 -1.5 1.27324
      vertex 73.4288 -1.5 -0.73
      vertex 75.5712 -1.5 -0.73
    endloop
  endfacet
  facet normal 0 -1 0
    outer loop
      vertex 69.4288 -1.5 -0.73
      vertex 71.3758 -1.5 1.27324
      vertex 69.6242 -1.5 1.27324
    endloop
  endfacet
  facet normal 0 -1 -0
    outer loop
      vertex 71.3758 -1.5 1.27324
      vertex 69.4288 -1.5 -0.73
      vertex 71.5712 -1.5 -0.73
    endloop
  endfacet
  facet normal 0 -1 0
    outer loop
      vertex 65.4288 -1.5 -0.73
      vertex 67.3758 -1.5 1.27324
      vertex 65.6242 -1.5 1.27324
    endloop
  endfacet
  facet normal 0 -1 -0
    outer loop
      vertex 67.3758 -1.5 1.27324
      vertex 65.4288 -1.5 -0.73
      vertex 67.5712 -1.5 -0.73
    endloop
  endfacet
  facet normal 0 -1 0
    outer loop
      vertex 61.4288 -1.5 -0.73
      vertex 63.3758 -1.5 1.27324
      vertex 61.6242 -1.5 1.27324
    endloop
  endfacet
  facet normal 0 -1 -0
    outer loop
      vertex 63.3758 -1.5 1.27324
      vertex 61.4288 -1.5 -0.73
      vertex 63.5712 -1.5 -0.73
    endloop
  endfacet
  facet normal 0 -1 0
    outer loop
      vertex 57.4288 -1.5 -0.73
      vertex 59.3758 -1.5 1.27324
      vertex 57.6242 -1.5 1.27324
    endloop
  endfacet
  facet normal 0 -1 -0
    outer loop
      vertex 59.3758 -1.5 1.27324
      vertex 57.4288 -1.5 -0.73
      vertex 59.5712 -1.5 -0.73
    endloop
  endfacet
  facet normal 0 -1 0
    outer loop
      vertex 53.4288 -1.5 -0.73
      vertex 55.3758 -1.5 1.27324
      vertex 53.6242 -1.5 1.27324
    endloop
  endfacet
  facet normal 0 -1 -0
    outer loop
      vertex 55.3758 -1.5 1.27324
      vertex 53.4288 -1.5 -0.73
      vertex 55.5712 -1.5 -0.73
    endloop
  endfacet
  facet normal 0 -1 0
    outer loop
      vertex 49.4288 -1.5 -0.73
      vertex 51.3758 -1.5 1.27324
      vertex 49.6242 -1.5 1.27324
    endloop
  endfacet
  facet normal 0 -1 -0
    outer loop
      vertex 51.3758 -1.5 1.27324
      vertex 49.4288 -1.5 -0.73
      vertex 51.5712 -1.5 -0.73
    endloop
  endfacet
  facet normal 0 -1 0
    outer loop
      vertex 45.4288 -1.5 -0.73
      vertex 47.3758 -1.5 1.27324
      vertex 45.6242 -1.5 1.27324
    endloop
  endfacet
  facet normal 0 -1 -0
    outer loop
      vertex 47.3758 -1.5 1.27324
      vertex 45.4288 -1.5 -0.73
      vertex 47.5712 -1.5 -0.73
    endloop
  endfacet
  facet normal 0 -1 0
    outer loop
      vertex 41.4288 -1.5 -0.73
      vertex 43.3758 -1.5 1.27324
      vertex 41.6242 -1.5 1.27324
    endloop
  endfacet
  facet normal 0 -1 -0
    outer loop
      vertex 43.3758 -1.5 1.27324
      vertex 41.4288 -1.5 -0.73
      vertex 43.5712 -1.5 -0.73
    endloop
  endfacet
  facet normal 0 -1 0
    outer loop
      vertex 37.4288 -1.5 -0.73
      vertex 39.3758 -1.5 1.27324
      vertex 37.6242 -1.5 1.27324
    endloop
  endfacet
  facet normal 0 -1 -0
    outer loop
      vertex 39.3758 -1.5 1.27324
      vertex 37.4288 -1.5 -0.73
      vertex 39.5712 -1.5 -0.73
    endloop
  endfacet
  facet normal 0 -1 0
    outer loop
      vertex 33.4288 -1.5 -0.73
      vertex 35.3758 -1.5 1.27324
      vertex 33.6242 -1.5 1.27324
    endloop
  endfacet
  facet normal 0 -1 -0
    outer loop
      vertex 35.3758 -1.5 1.27324
      vertex 33.4288 -1.5 -0.73
      vertex 35.5712 -1.5 -0.73
    endloop
  endfacet
  facet normal 0 -1 0
    outer loop
      vertex 29.4288 -1.5 -0.73
      vertex 31.3758 -1.5 1.27324
      vertex 29.6242 -1.5 1.27324
    endloop
  endfacet
  facet normal 0 -1 -0
    outer loop
      vertex 31.3758 -1.5 1.27324
      vertex 29.4288 -1.5 -0.73
      vertex 31.5712 -1.5 -0.73
    endloop
  endfacet
  facet normal 0 -1 0
    outer loop
      vertex 25.4288 -1.5 -0.73
      vertex 27.3758 -1.5 1.27324
      vertex 25.6242 -1.5 1.27324
    endloop
  endfacet
  facet normal 0 -1 -0
    outer loop
      vertex 27.3758 -1.5 1.27324
      vertex 25.4288 -1.5 -0.73
      vertex 27.5712 -1.5 -0.73
    endloop
  endfacet
  facet normal 0 -1 0
    outer loop
      vertex 21.4288 -1.5 -0.73
      vertex 23.3758 -1.5 1.27324
      vertex 21.6242 -1.5 1.27324
    endloop
  endfacet
  facet normal 0 -1 -0
    outer loop
      vertex 23.3758 -1.5 1.27324
      vertex 21.4288 -1.5 -0.73
      vertex 23.5712 -1.5 -0.73
    endloop
  endfacet
  facet normal 0 -1 0
    outer loop
      vertex 17.4288 -1.5 -0.73
      vertex 19.3758 -1.5 1.27324
      vertex 17.6242 -1.5 1.27324
    endloop
  endfacet
  facet normal 0 -1 -0
    outer loop
      vertex 19.3758 -1.5 1.27324
      vertex 17.4288 -1.5 -0.73
      vertex 19.5712 -1.5 -0.73
    endloop
  endfacet
  facet normal 0 -1 0
    outer loop
      vertex 13.4288 -1.5 -0.73
      vertex 15.3758 -1.5 1.27324
      vertex 13.6242 -1.5 1.27324
    endloop
  endfacet
  facet normal 0 -1 -0
    outer loop
      vertex 15.3758 -1.5 1.27324
      vertex 13.4288 -1.5 -0.73
      vertex 15.5712 -1.5 -0.73
    endloop
  endfacet
  facet normal 0 -1 0
    outer loop
      vertex 9.4288 -1.5 -0.73
      vertex 11.3758 -1.5 1.27324
      vertex 9.62421 -1.5 1.27324
    endloop
  endfacet
  facet normal 0 -1 -0
    outer loop
      vertex 11.3758 -1.5 1.27324
      vertex 9.4288 -1.5 -0.73
      vertex 11.5712 -1.5 -0.73
    endloop
  endfacet
  facet normal 0 -1 0
    outer loop
      vertex 5.4288 -1.5 -0.73
      vertex 7.37579 -1.5 1.27324
      vertex 5.62421 -1.5 1.27324
    endloop
  endfacet
  facet normal 0 -1 -0
    outer loop
      vertex 7.37579 -1.5 1.27324
      vertex 5.4288 -1.5 -0.73
      vertex 7.5712 -1.5 -0.73
    endloop
  endfacet
  facet normal 0 -1 0
    outer loop
      vertex 1.4288 -1.5 -0.73
      vertex 3.37579 -1.5 1.27324
      vertex 1.62421 -1.5 1.27324
    endloop
  endfacet
  facet normal 0 -1 -0
    outer loop
      vertex 3.37579 -1.5 1.27324
      vertex 1.4288 -1.5 -0.73
      vertex 3.5712 -1.5 -0.73
    endloop
  endfacet
  facet normal 0.995276 -0 0.0970848
    outer loop
      vertex 3.37579 -1.5 1.27324
      vertex 3.5712 1.5 -0.73
      vertex 3.37579 1.5 1.27324
    endloop
  endfacet
  facet normal 0.995276 0 0.0970848
    outer loop
      vertex 3.5712 1.5 -0.73
      vertex 3.37579 -1.5 1.27324
      vertex 3.5712 -1.5 -0.73
    endloop
  endfacet
  facet normal -0 0 1
    outer loop
      vertex 1.62421 1.5 1.27324
      vertex 3.37579 -1.5 1.27324
      vertex 3.37579 1.5 1.27324
    endloop
  endfacet
  facet normal 0 0 1
    outer loop
      vertex 3.37579 -1.5 1.27324
      vertex 1.62421 1.5 1.27324
      vertex 1.62421 -1.5 1.27324
    endloop
  endfacet
  facet normal -0.995276 0 0.0970848
    outer loop
      vertex 1.4288 -1.5 -0.73
      vertex 1.62421 1.5 1.27324
      vertex 1.4288 1.5 -0.73
    endloop
  endfacet
  facet normal -0.995276 0 0.0970848
    outer loop
      vertex 1.62421 1.5 1.27324
      vertex 1.4288 -1.5 -0.73
      vertex 1.62421 -1.5 1.27324
    endloop
  endfacet
  facet normal -1 0 0
    outer loop
      vertex -0.5 -4 -3.73
      vertex -0.5 4 -0.73
      vertex -0.5 4 -3.73
    endloop
  endfacet
  facet normal -1 -0 0
    outer loop
      vertex -0.5 4 -0.73
      vertex -0.5 -4 -3.73
      vertex -0.5 -4 -0.73
    endloop
  endfacet
  facet normal 0.995276 -0 0.0970849
    outer loop
      vertex 7.37579 -1.5 1.27324
      vertex 7.5712 1.5 -0.73
      vertex 7.37579 1.5 1.27324
    endloop
  endfacet
  facet normal 0.995276 0 0.0970849
    outer loop
      vertex 7.5712 1.5 -0.73
      vertex 7.37579 -1.5 1.27324
      vertex 7.5712 -1.5 -0.73
    endloop
  endfacet
  facet normal -0 0 1
    outer loop
      vertex 5.62421 1.5 1.27324
      vertex 7.37579 -1.5 1.27324
      vertex 7.37579 1.5 1.27324
    endloop
  endfacet
  facet normal 0 0 1
    outer loop
      vertex 7.37579 -1.5 1.27324
      vertex 5.62421 1.5 1.27324
      vertex 5.62421 -1.5 1.27324
    endloop
  endfacet
  facet normal -0.995276 0 0.0970849
    outer loop
      vertex 5.4288 -1.5 -0.73
      vertex 5.62421 1.5 1.27324
      vertex 5.4288 1.5 -0.73
    endloop
  endfacet
  facet normal -0.995276 0 0.0970849
    outer loop
      vertex 5.62421 1.5 1.27324
      vertex 5.4288 -1.5 -0.73
      vertex 5.62421 -1.5 1.27324
    endloop
  endfacet
  facet normal 0.995276 -0 0.0970847
    outer loop
      vertex 11.3758 -1.5 1.27324
      vertex 11.5712 1.5 -0.73
      vertex 11.3758 1.5 1.27324
    endloop
  endfacet
  facet normal 0.995276 0 0.0970847
    outer loop
      vertex 11.5712 1.5 -0.73
      vertex 11.3758 -1.5 1.27324
      vertex 11.5712 -1.5 -0.73
    endloop
  endfacet
  facet normal -0 0 1
    outer loop
      vertex 9.62421 1.5 1.27324
      vertex 11.3758 -1.5 1.27324
      vertex 11.3758 1.5 1.27324
    endloop
  endfacet
  facet normal 0 0 1
    outer loop
      vertex 11.3758 -1.5 1.27324
      vertex 9.62421 1.5 1.27324
      vertex 9.62421 -1.5 1.27324
    endloop
  endfacet
  facet normal -0.995276 0 0.0970847
    outer loop
      vertex 9.4288 -1.5 -0.73
      vertex 9.62421 1.5 1.27324
      vertex 9.4288 1.5 -0.73
    endloop
  endfacet
  facet normal -0.995276 0 0.0970847
    outer loop
      vertex 9.62421 1.5 1.27324
      vertex 9.4288 -1.5 -0.73
      vertex 9.62421 -1.5 1.27324
    endloop
  endfacet
  facet normal 0.995276 -0 0.0970847
    outer loop
      vertex 15.3758 -1.5 1.27324
      vertex 15.5712 1.5 -0.73
      vertex 15.3758 1.5 1.27324
    endloop
  endfacet
  facet normal 0.995276 0 0.0970847
    outer loop
      vertex 15.5712 1.5 -0.73
      vertex 15.3758 -1.5 1.27324
      vertex 15.5712 -1.5 -0.73
    endloop
  endfacet
  facet normal -0 0 1
    outer loop
      vertex 13.6242 1.5 1.27324
      vertex 15.3758 -1.5 1.27324
      vertex 15.3758 1.5 1.27324
    endloop
  endfacet
  facet normal 0 0 1
    outer loop
      vertex 15.3758 -1.5 1.27324
      vertex 13.6242 1.5 1.27324
      vertex 13.6242 -1.5 1.27324
    endloop
  endfacet
  facet normal -0.995276 0 0.0970847
    outer loop
      vertex 13.4288 -1.5 -0.73
      vertex 13.6242 1.5 1.27324
      vertex 13.4288 1.5 -0.73
    endloop
  endfacet
  facet normal -0.995276 0 0.0970847
    outer loop
      vertex 13.6242 1.5 1.27324
      vertex 13.4288 -1.5 -0.73
      vertex 13.6242 -1.5 1.27324
    endloop
  endfacet
  facet normal 0.995276 -0 0.0970852
    outer loop
      vertex 19.3758 -1.5 1.27324
      vertex 19.5712 1.5 -0.73
      vertex 19.3758 1.5 1.27324
    endloop
  endfacet
  facet normal 0.995276 0 0.0970852
    outer loop
      vertex 19.5712 1.5 -0.73
      vertex 19.3758 -1.5 1.27324
      vertex 19.5712 -1.5 -0.73
    endloop
  endfacet
  facet normal -0 0 1
    outer loop
      vertex 17.6242 1.5 1.27324
      vertex 19.3758 -1.5 1.27324
      vertex 19.3758 1.5 1.27324
    endloop
  endfacet
  facet normal 0 0 1
    outer loop
      vertex 19.3758 -1.5 1.27324
      vertex 17.6242 1.5 1.27324
      vertex 17.6242 -1.5 1.27324
    endloop
  endfacet
  facet normal -0.995276 0 0.0970852
    outer loop
      vertex 17.4288 -1.5 -0.73
      vertex 17.6242 1.5 1.27324
      vertex 17.4288 1.5 -0.73
    endloop
  endfacet
  facet normal -0.995276 0 0.0970852
    outer loop
      vertex 17.6242 1.5 1.27324
      vertex 17.4288 -1.5 -0.73
      vertex 17.6242 -1.5 1.27324
    endloop
  endfacet
  facet normal 0.995276 -0 0.0970852
    outer loop
      vertex 23.3758 -1.5 1.27324
      vertex 23.5712 1.5 -0.73
      vertex 23.3758 1.5 1.27324
    endloop
  endfacet
  facet normal 0.995276 0 0.0970852
    outer loop
      vertex 23.5712 1.5 -0.73
      vertex 23.3758 -1.5 1.27324
      vertex 23.5712 -1.5 -0.73
    endloop
  endfacet
  facet normal -0 0 1
    outer loop
      vertex 21.6242 1.5 1.27324
      vertex 23.3758 -1.5 1.27324
      vertex 23.3758 1.5 1.27324
    endloop
  endfacet
  facet normal 0 0 1
    outer loop
      vertex 23.3758 -1.5 1.27324
      vertex 21.6242 1.5 1.27324
      vertex 21.6242 -1.5 1.27324
    endloop
  endfacet
  facet normal -0.995276 0 0.0970852
    outer loop
      vertex 21.4288 -1.5 -0.73
      vertex 21.6242 1.5 1.27324
      vertex 21.4288 1.5 -0.73
    endloop
  endfacet
  facet normal -0.995276 0 0.0970852
    outer loop
      vertex 21.6242 1.5 1.27324
      vertex 21.4288 -1.5 -0.73
      vertex 21.6242 -1.5 1.27324
    endloop
  endfacet
  facet normal 0.995276 -0 0.0970852
    outer loop
      vertex 27.3758 -1.5 1.27324
      vertex 27.5712 1.5 -0.73
      vertex 27.3758 1.5 1.27324
    endloop
  endfacet
  facet normal 0.995276 0 0.0970852
    outer loop
      vertex 27.5712 1.5 -0.73
      vertex 27.3758 -1.5 1.27324
      vertex 27.5712 -1.5 -0.73
    endloop
  endfacet
  facet normal -0 0 1
    outer loop
      vertex 25.6242 1.5 1.27324
      vertex 27.3758 -1.5 1.27324
      vertex 27.3758 1.5 1.27324
    endloop
  endfacet
  facet normal 0 0 1
    outer loop
      vertex 27.3758 -1.5 1.27324
      vertex 25.6242 1.5 1.27324
      vertex 25.6242 -1.5 1.27324
    endloop
  endfacet
  facet normal -0.995276 0 0.0970852
    outer loop
      vertex 25.4288 -1.5 -0.73
      vertex 25.6242 1.5 1.27324
      vertex 25.4288 1.5 -0.73
    endloop
  endfacet
  facet normal -0.995276 0 0.0970852
    outer loop
      vertex 25.6242 1.5 1.27324
      vertex 25.4288 -1.5 -0.73
      vertex 25.6242 -1.5 1.27324
    endloop
  endfacet
  facet normal 0.995276 -0 0.0970852
    outer loop
      vertex 31.3758 -1.5 1.27324
      vertex 31.5712 1.5 -0.73
      vertex 31.3758 1.5 1.27324
    endloop
  endfacet
  facet normal 0.995276 0 0.0970852
    outer loop
      vertex 31.5712 1.5 -0.73
      vertex 31.3758 -1.5 1.27324
      vertex 31.5712 -1.5 -0.73
    endloop
  endfacet
  facet normal -0 0 1
    outer loop
      vertex 29.6242 1.5 1.27324
      vertex 31.3758 -1.5 1.27324
      vertex 31.3758 1.5 1.27324
    endloop
  endfacet
  facet normal 0 0 1
    outer loop
      vertex 31.3758 -1.5 1.27324
      vertex 29.6242 1.5 1.27324
      vertex 29.6242 -1.5 1.27324
    endloop
  endfacet
  facet normal -0.995276 0 0.0970852
    outer loop
      vertex 29.4288 -1.5 -0.73
      vertex 29.6242 1.5 1.27324
      vertex 29.4288 1.5 -0.73
    endloop
  endfacet
  facet normal -0.995276 0 0.0970852
    outer loop
      vertex 29.6242 1.5 1.27324
      vertex 29.4288 -1.5 -0.73
      vertex 29.6242 -1.5 1.27324
    endloop
  endfacet
  facet normal 0.995276 -0 0.0970852
    outer loop
      vertex 35.3758 -1.5 1.27324
      vertex 35.5712 1.5 -0.73
      vertex 35.3758 1.5 1.27324
    endloop
  endfacet
  facet normal 0.995276 0 0.0970852
    outer loop
      vertex 35.5712 1.5 -0.73
      vertex 35.3758 -1.5 1.27324
      vertex 35.5712 -1.5 -0.73
    endloop
  endfacet
  facet normal -0 0 1
    outer loop
      vertex 33.6242 1.5 1.27324
      vertex 35.3758 -1.5 1.27324
      vertex 35.3758 1.5 1.27324
    endloop
  endfacet
  facet normal 0 0 1
    outer loop
      vertex 35.3758 -1.5 1.27324
      vertex 33.6242 1.5 1.27324
      vertex 33.6242 -1.5 1.27324
    endloop
  endfacet
  facet normal -0.995276 0 0.0970852
    outer loop
      vertex 33.4288 -1.5 -0.73
      vertex 33.6242 1.5 1.27324
      vertex 33.4288 1.5 -0.73
    endloop
  endfacet
  facet normal -0.995276 0 0.0970852
    outer loop
      vertex 33.6242 1.5 1.27324
      vertex 33.4288 -1.5 -0.73
      vertex 33.6242 -1.5 1.27324
    endloop
  endfacet
  facet normal 0.995276 -0 0.0970852
    outer loop
      vertex 39.3758 -1.5 1.27324
      vertex 39.5712 1.5 -0.73
      vertex 39.3758 1.5 1.27324
    endloop
  endfacet
  facet normal 0.995276 0 0.0970852
    outer loop
      vertex 39.5712 1.5 -0.73
      vertex 39.3758 -1.5 1.27324
      vertex 39.5712 -1.5 -0.73
    endloop
  endfacet
  facet normal -0 0 1
    outer loop
      vertex 37.6242 1.5 1.27324
      vertex 39.3758 -1.5 1.27324
      vertex 39.3758 1.5 1.27324
    endloop
  endfacet
  facet normal 0 0 1
    outer loop
      vertex 39.3758 -1.5 1.27324
      vertex 37.6242 1.5 1.27324
      vertex 37.6242 -1.5 1.27324
    endloop
  endfacet
  facet normal -0.995276 0 0.0970852
    outer loop
      vertex 37.4288 -1.5 -0.73
      vertex 37.6242 1.5 1.27324
      vertex 37.4288 1.5 -0.73
    endloop
  endfacet
  facet normal -0.995276 0 0.0970852
    outer loop
      vertex 37.6242 1.5 1.27324
      vertex 37.4288 -1.5 -0.73
      vertex 37.6242 -1.5 1.27324
    endloop
  endfacet
  facet normal 0.995276 -0 0.0970852
    outer loop
      vertex 43.3758 -1.5 1.27324
      vertex 43.5712 1.5 -0.73
      vertex 43.3758 1.5 1.27324
    endloop
  endfacet
  facet normal 0.995276 0 0.0970852
    outer loop
      vertex 43.5712 1.5 -0.73
      vertex 43.3758 -1.5 1.27324
      vertex 43.5712 -1.5 -0.73
    endloop
  endfacet
  facet normal -0 0 1
    outer loop
      vertex 41.6242 1.5 1.27324
      vertex 43.3758 -1.5 1.27324
      vertex 43.3758 1.5 1.27324
    endloop
  endfacet
  facet normal 0 0 1
    outer loop
      vertex 43.3758 -1.5 1.27324
      vertex 41.6242 1.5 1.27324
      vertex 41.6242 -1.5 1.27324
    endloop
  endfacet
  facet normal -0.995276 0 0.0970852
    outer loop
      vertex 41.4288 -1.5 -0.73
      vertex 41.6242 1.5 1.27324
      vertex 41.4288 1.5 -0.73
    endloop
  endfacet
  facet normal -0.995276 0 0.0970852
    outer loop
      vertex 41.6242 1.5 1.27324
      vertex 41.4288 -1.5 -0.73
      vertex 41.6242 -1.5 1.27324
    endloop
  endfacet
  facet normal 0.995276 -0 0.0970852
    outer loop
      vertex 47.3758 -1.5 1.27324
      vertex 47.5712 1.5 -0.73
      vertex 47.3758 1.5 1.27324
    endloop
  endfacet
  facet normal 0.995276 0 0.0970852
    outer loop
      vertex 47.5712 1.5 -0.73
      vertex 47.3758 -1.5 1.27324
      vertex 47.5712 -1.5 -0.73
    endloop
  endfacet
  facet normal -0 0 1
    outer loop
      vertex 45.6242 1.5 1.27324
      vertex 47.3758 -1.5 1.27324
      vertex 47.3758 1.5 1.27324
    endloop
  endfacet
  facet normal 0 0 1
    outer loop
      vertex 47.3758 -1.5 1.27324
      vertex 45.6242 1.5 1.27324
      vertex 45.6242 -1.5 1.27324
    endloop
  endfacet
  facet normal -0.995276 0 0.0970852
    outer loop
      vertex 45.4288 -1.5 -0.73
      vertex 45.6242 1.5 1.27324
      vertex 45.4288 1.5 -0.73
    endloop
  endfacet
  facet normal -0.995276 0 0.0970852
    outer loop
      vertex 45.6242 1.5 1.27324
      vertex 45.4288 -1.5 -0.73
      vertex 45.6242 -1.5 1.27324
    endloop
  endfacet
  facet normal 0.995276 -0 0.0970852
    outer loop
      vertex 51.3758 -1.5 1.27324
      vertex 51.5712 1.5 -0.73
      vertex 51.3758 1.5 1.27324
    endloop
  endfacet
  facet normal 0.995276 0 0.0970852
    outer loop
      vertex 51.5712 1.5 -0.73
      vertex 51.3758 -1.5 1.27324
      vertex 51.5712 -1.5 -0.73
    endloop
  endfacet
  facet normal -0 0 1
    outer loop
      vertex 49.6242 1.5 1.27324
      vertex 51.3758 -1.5 1.27324
      vertex 51.3758 1.5 1.27324
    endloop
  endfacet
  facet normal 0 0 1
    outer loop
      vertex 51.3758 -1.5 1.27324
      vertex 49.6242 1.5 1.27324
      vertex 49.6242 -1.5 1.27324
    endloop
  endfacet
  facet normal -0.995276 0 0.0970852
    outer loop
      vertex 49.4288 -1.5 -0.73
      vertex 49.6242 1.5 1.27324
      vertex 49.4288 1.5 -0.73
    endloop
  endfacet
  facet normal -0.995276 0 0.0970852
    outer loop
      vertex 49.6242 1.5 1.27324
      vertex 49.4288 -1.5 -0.73
      vertex 49.6242 -1.5 1.27324
    endloop
  endfacet
  facet normal 0.995276 -0 0.0970852
    outer loop
      vertex 55.3758 -1.5 1.27324
      vertex 55.5712 1.5 -0.73
      vertex 55.3758 1.5 1.27324
    endloop
  endfacet
  facet normal 0.995276 0 0.0970852
    outer loop
      vertex 55.5712 1.5 -0.73
      vertex 55.3758 -1.5 1.27324
      vertex 55.5712 -1.5 -0.73
    endloop
  endfacet
  facet normal -0 0 1
    outer loop
      vertex 53.6242 1.5 1.27324
      vertex 55.3758 -1.5 1.27324
      vertex 55.3758 1.5 1.27324
    endloop
  endfacet
  facet normal 0 0 1
    outer loop
      vertex 55.3758 -1.5 1.27324
      vertex 53.6242 1.5 1.27324
      vertex 53.6242 -1.5 1.27324
    endloop
  endfacet
  facet normal -0.995276 0 0.0970852
    outer loop
      vertex 53.4288 -1.5 -0.73
      vertex 53.6242 1.5 1.27324
      vertex 53.4288 1.5 -0.73
    endloop
  endfacet
  facet normal -0.995276 0 0.0970852
    outer loop
      vertex 53.6242 1.5 1.27324
      vertex 53.4288 -1.5 -0.73
      vertex 53.6242 -1.5 1.27324
    endloop
  endfacet
  facet normal 0.995276 -0 0.0970852
    outer loop
      vertex 59.3758 -1.5 1.27324
      vertex 59.5712 1.5 -0.73
      vertex 59.3758 1.5 1.27324
    endloop
  endfacet
  facet normal 0.995276 0 0.0970852
    outer loop
      vertex 59.5712 1.5 -0.73
      vertex 59.3758 -1.5 1.27324
      vertex 59.5712 -1.5 -0.73
    endloop
  endfacet
  facet normal -0 0 1
    outer loop
      vertex 57.6242 1.5 1.27324
      vertex 59.3758 -1.5 1.27324
      vertex 59.3758 1.5 1.27324
    endloop
  endfacet
  facet normal 0 0 1
    outer loop
      vertex 59.3758 -1.5 1.27324
      vertex 57.6242 1.5 1.27324
      vertex 57.6242 -1.5 1.27324
    endloop
  endfacet
  facet normal -0.995276 0 0.0970852
    outer loop
      vertex 57.4288 -1.5 -0.73
      vertex 57.6242 1.5 1.27324
      vertex 57.4288 1.5 -0.73
    endloop
  endfacet
  facet normal -0.995276 0 0.0970852
    outer loop
      vertex 57.6242 1.5 1.27324
      vertex 57.4288 -1.5 -0.73
      vertex 57.6242 -1.5 1.27324
    endloop
  endfacet
  facet normal 0.995276 -0 0.0970852
    outer loop
      vertex 63.3758 -1.5 1.27324
      vertex 63.5712 1.5 -0.73
      vertex 63.3758 1.5 1.27324
    endloop
  endfacet
  facet normal 0.995276 0 0.0970852
    outer loop
      vertex 63.5712 1.5 -0.73
      vertex 63.3758 -1.5 1.27324
      vertex 63.5712 -1.5 -0.73
    endloop
  endfacet
  facet normal -0 0 1
    outer loop
      vertex 61.6242 1.5 1.27324
      vertex 63.3758 -1.5 1.27324
      vertex 63.3758 1.5 1.27324
    endloop
  endfacet
  facet normal 0 0 1
    outer loop
      vertex 63.3758 -1.5 1.27324
      vertex 61.6242 1.5 1.27324
      vertex 61.6242 -1.5 1.27324
    endloop
  endfacet
  facet normal -0.995276 0 0.0970852
    outer loop
      vertex 61.4288 -1.5 -0.73
      vertex 61.6242 1.5 1.27324
      vertex 61.4288 1.5 -0.73
    endloop
  endfacet
  facet normal -0.995276 0 0.0970852
    outer loop
      vertex 61.6242 1.5 1.27324
      vertex 61.4288 -1.5 -0.73
      vertex 61.6242 -1.5 1.27324
    endloop
  endfacet
  facet normal 0.995276 -0 0.0970833
    outer loop
      vertex 67.3758 -1.5 1.27324
      vertex 67.5712 1.5 -0.73
      vertex 67.3758 1.5 1.27324
    endloop
  endfacet
  facet normal 0.995276 0 0.0970833
    outer loop
      vertex 67.5712 1.5 -0.73
      vertex 67.3758 -1.5 1.27324
      vertex 67.5712 -1.5 -0.73
    endloop
  endfacet
  facet normal -0 0 1
    outer loop
      vertex 65.6242 1.5 1.27324
      vertex 67.3758 -1.5 1.27324
      vertex 67.3758 1.5 1.27324
    endloop
  endfacet
  facet normal 0 0 1
    outer loop
      vertex 67.3758 -1.5 1.27324
      vertex 65.6242 1.5 1.27324
      vertex 65.6242 -1.5 1.27324
    endloop
  endfacet
  facet normal -0.995276 0 0.0970833
    outer loop
      vertex 65.4288 -1.5 -0.73
      vertex 65.6242 1.5 1.27324
      vertex 65.4288 1.5 -0.73
    endloop
  endfacet
  facet normal -0.995276 0 0.0970833
    outer loop
      vertex 65.6242 1.5 1.27324
      vertex 65.4288 -1.5 -0.73
      vertex 65.6242 -1.5 1.27324
    endloop
  endfacet
  facet normal 0.995276 -0 0.0970833
    outer loop
      vertex 71.3758 -1.5 1.27324
      vertex 71.5712 1.5 -0.73
      vertex 71.3758 1.5 1.27324
    endloop
  endfacet
  facet normal 0.995276 0 0.0970833
    outer loop
      vertex 71.5712 1.5 -0.73
      vertex 71.3758 -1.5 1.27324
      vertex 71.5712 -1.5 -0.73
    endloop
  endfacet
  facet normal -0 0 1
    outer loop
      vertex 69.6242 1.5 1.27324
      vertex 71.3758 -1.5 1.27324
      vertex 71.3758 1.5 1.27324
    endloop
  endfacet
  facet normal 0 0 1
    outer loop
      vertex 71.3758 -1.5 1.27324
      vertex 69.6242 1.5 1.27324
      vertex 69.6242 -1.5 1.27324
    endloop
  endfacet
  facet normal -0.995276 0 0.0970833
    outer loop
      vertex 69.4288 -1.5 -0.73
      vertex 69.6242 1.5 1.27324
      vertex 69.4288 1.5 -0.73
    endloop
  endfacet
  facet normal -0.995276 0 0.0970833
    outer loop
      vertex 69.6242 1.5 1.27324
      vertex 69.4288 -1.5 -0.73
      vertex 69.6242 -1.5 1.27324
    endloop
  endfacet
  facet normal 0.995276 -0 0.0970833
    outer loop
      vertex 75.3758 -1.5 1.27324
      vertex 75.5712 1.5 -0.73
      vertex 75.3758 1.5 1.27324
    endloop
  endfacet
  facet normal 0.995276 0 0.0970833
    outer loop
      vertex 75.5712 1.5 -0.73
      vertex 75.3758 -1.5 1.27324
      vertex 75.5712 -1.5 -0.73
    endloop
  endfacet
  facet normal -0 0 1
    outer loop
      vertex 73.6242 1.5 1.27324
      vertex 75.3758 -1.5 1.27324
      vertex 75.3758 1.5 1.27324
    endloop
  endfacet
  facet normal 0 0 1
    outer loop
      vertex 75.3758 -1.5 1.27324
      vertex 73.6242 1.5 1.27324
      vertex 73.6242 -1.5 1.27324
    endloop
  endfacet
  facet normal -0.995276 0 0.0970833
    outer loop
      vertex 73.4288 -1.5 -0.73
      vertex 73.6242 1.5 1.27324
      vertex 73.4288 1.5 -0.73
    endloop
  endfacet
  facet normal -0.995276 0 0.0970833
    outer loop
      vertex 73.6242 1.5 1.27324
      vertex 73.4288 -1.5 -0.73
      vertex 73.6242 -1.5 1.27324
    endloop
  endfacet
  facet normal 0.995276 -0 0.0970833
    outer loop
      vertex 79.3758 -1.5 1.27324
      vertex 79.5712 1.5 -0.73
      vertex 79.3758 1.5 1.27324
    endloop
  endfacet
  facet normal 0.995276 0 0.0970833
    outer loop
      vertex 79.5712 1.5 -0.73
      vertex 79.3758 -1.5 1.27324
      vertex 79.5712 -1.5 -0.73
    endloop
  endfacet
  facet normal -0 0 1
    outer loop
      vertex 77.6242 1.5 1.27324
      vertex 79.3758 -1.5 1.27324
      vertex 79.3758 1.5 1.27324
    endloop
  endfacet
  facet normal 0 0 1
    outer loop
      vertex 79.3758 -1.5 1.27324
      vertex 77.6242 1.5 1.27324
      vertex 77.6242 -1.5 1.27324
    endloop
  endfacet
  facet normal -0.995276 0 0.0970833
    outer loop
      vertex 77.4288 -1.5 -0.73
      vertex 77.6242 1.5 1.27324
      vertex 77.4288 1.5 -0.73
    endloop
  endfacet
  facet normal -0.995276 0 0.0970833
    outer loop
      vertex 77.6242 1.5 1.27324
      vertex 77.4288 -1.5 -0.73
      vertex 77.6242 -1.5 1.27324
    endloop
  endfacet
  facet normal 0.995276 -0 0.0970833
    outer loop
      vertex 83.3758 -1.5 1.27324
      vertex 83.5712 1.5 -0.73
      vertex 83.3758 1.5 1.27324
    endloop
  endfacet
  facet normal 0.995276 0 0.0970833
    outer loop
      vertex 83.5712 1.5 -0.73
      vertex 83.3758 -1.5 1.27324
      vertex 83.5712 -1.5 -0.73
    endloop
  endfacet
  facet normal -0 0 1
    outer loop
      vertex 81.6242 1.5 1.27324
      vertex 83.3758 -1.5 1.27324
      vertex 83.3758 1.5 1.27324
    endloop
  endfacet
  facet normal 0 0 1
    outer loop
      vertex 83.3758 -1.5 1.27324
      vertex 81.6242 1.5 1.27324
      vertex 81.6242 -1.5 1.27324
    endloop
  endfacet
  facet normal -0.995276 0 0.0970833
    outer loop
      vertex 81.4288 -1.5 -0.73
      vertex 81.6242 1.5 1.27324
      vertex 81.4288 1.5 -0.73
    endloop
  endfacet
  facet normal -0.995276 0 0.0970833
    outer loop
      vertex 81.6242 1.5 1.27324
      vertex 81.4288 -1.5 -0.73
      vertex 81.6242 -1.5 1.27324
    endloop
  endfacet
  facet normal 0.995276 -0 0.0970833
    outer loop
      vertex 87.3758 -1.5 1.27324
      vertex 87.5712 1.5 -0.73
      vertex 87.3758 1.5 1.27324
    endloop
  endfacet
  facet normal 0.995276 0 0.0970833
    outer loop
      vertex 87.5712 1.5 -0.73
      vertex 87.3758 -1.5 1.27324
      vertex 87.5712 -1.5 -0.73
    endloop
  endfacet
  facet normal -0 0 1
    outer loop
      vertex 85.6242 1.5 1.27324
      vertex 87.3758 -1.5 1.27324
      vertex 87.3758 1.5 1.27324
    endloop
  endfacet
  facet normal 0 0 1
    outer loop
      vertex 87.3758 -1.5 1.27324
      vertex 85.6242 1.5 1.27324
      vertex 85.6242 -1.5 1.27324
    endloop
  endfacet
  facet normal -0.995276 0 0.0970833
    outer loop
      vertex 85.4288 -1.5 -0.73
      vertex 85.6242 1.5 1.27324
      vertex 85.4288 1.5 -0.73
    endloop
  endfacet
  facet normal -0.995276 0 0.0970833
    outer loop
      vertex 85.6242 1.5 1.27324
      vertex 85.4288 -1.5 -0.73
      vertex 85.6242 -1.5 1.27324
    endloop
  endfacet
  facet normal 0.995276 -0 0.0970833
    outer loop
      vertex 91.3758 -1.5 1.27324
      vertex 91.5712 1.5 -0.73
      vertex 91.3758 1.5 1.27324
    endloop
  endfacet
  facet normal 0.995276 0 0.0970833
    outer loop
      vertex 91.5712 1.5 -0.73
      vertex 91.3758 -1.5 1.27324
      vertex 91.5712 -1.5 -0.73
    endloop
  endfacet
  facet normal -0 0 1
    outer loop
      vertex 89.6242 1.5 1.27324
      vertex 91.3758 -1.5 1.27324
      vertex 91.3758 1.5 1.27324
    endloop
  endfacet
  facet normal 0 0 1
    outer loop
      vertex 91.3758 -1.5 1.27324
      vertex 89.6242 1.5 1.27324
      vertex 89.6242 -1.5 1.27324
    endloop
  endfacet
  facet normal -0.995276 0 0.0970833
    outer loop
      vertex 89.4288 -1.5 -0.73
      vertex 89.6242 1.5 1.27324
      vertex 89.4288 1.5 -0.73
    endloop
  endfacet
  facet normal -0.995276 0 0.0970833
    outer loop
      vertex 89.6242 1.5 1.27324
      vertex 89.4288 -1.5 -0.73
      vertex 89.6242 -1.5 1.27324
    endloop
  endfacet
  facet normal 0.995276 -0 0.0970833
    outer loop
      vertex 95.3758 -1.5 1.27324
      vertex 95.5712 1.5 -0.73
      vertex 95.3758 1.5 1.27324
    endloop
  endfacet
  facet normal 0.995276 0 0.0970833
    outer loop
      vertex 95.5712 1.5 -0.73
      vertex 95.3758 -1.5 1.27324
      vertex 95.5712 -1.5 -0.73
    endloop
  endfacet
  facet normal -0 0 1
    outer loop
      vertex 93.6242 1.5 1.27324
      vertex 95.3758 -1.5 1.27324
      vertex 95.3758 1.5 1.27324
    endloop
  endfacet
  facet normal 0 0 1
    outer loop
      vertex 95.3758 -1.5 1.27324
      vertex 93.6242 1.5 1.27324
      vertex 93.6242 -1.5 1.27324
    endloop
  endfacet
  facet normal -0.995276 0 0.0970833
    outer loop
      vertex 93.4288 -1.5 -0.73
      vertex 93.6242 1.5 1.27324
      vertex 93.4288 1.5 -0.73
    endloop
  endfacet
  facet normal -0.995276 0 0.0970833
    outer loop
      vertex 93.6242 1.5 1.27324
      vertex 93.4288 -1.5 -0.73
      vertex 93.6242 -1.5 1.27324
    endloop
  endfacet
  facet normal 0 -1 0
    outer loop
      vertex -0.5 -4 -3.73
      vertex 99.5 -4 -0.73
      vertex -0.5 -4 -0.73
    endloop
  endfacet
  facet normal 0 -1 -0
    outer loop
      vertex 99.5 -4 -0.73
      vertex -0.5 -4 -3.73
      vertex 99.5 -4 -3.73
    endloop
  endfacet
  facet normal 1 -0 0
    outer loop
      vertex 99.5 -4 -0.73
      vertex 99.5 4 -3.73
      vertex 99.5 4 -0.73
    endloop
  endfacet
  facet normal 1 0 0
    outer loop
      vertex 99.5 4 -3.73
      vertex 99.5 -4 -0.73
      vertex 99.5 -4 -3.73
    endloop
  endfacet
  facet normal 0 0 1
    outer loop
      vertex 99.5 4 -0.73
      vertex 95.5712 1.5 -0.73
      vertex 99.5 -4 -0.73
    endloop
  endfacet
  facet normal 0 0 1
    outer loop
      vertex 99.5 4 -0.73
      vertex 93.4288 1.5 -0.73
      vertex 95.5712 1.5 -0.73
    endloop
  endfacet
  facet normal 0 0 1
    outer loop
      vertex 93.4288 1.5 -0.73
      vertex 91.5712 1.5 -0.73
      vertex 93.4288 -1.5 -0.73
    endloop
  endfacet
  facet normal 0 0 1
    outer loop
      vertex 99.5 4 -0.73
      vertex 91.5712 1.5 -0.73
      vertex 93.4288 1.5 -0.73
    endloop
  endfacet
  facet normal 0 0 1
    outer loop
      vertex 99.5 4 -0.73
      vertex 89.4288 1.5 -0.73
      vertex 91.5712 1.5 -0.73
    endloop
  endfacet
  facet normal 0 0 1
    outer loop
      vertex 89.4288 1.5 -0.73
      vertex 87.5712 1.5 -0.73
      vertex 89.4288 -1.5 -0.73
    endloop
  endfacet
  facet normal 0 0 1
    outer loop
      vertex 99.5 4 -0.73
      vertex 87.5712 1.5 -0.73
      vertex 89.4288 1.5 -0.73
    endloop
  endfacet
  facet normal 0 0 1
    outer loop
      vertex 99.5 4 -0.73
      vertex 85.4288 1.5 -0.73
      vertex 87.5712 1.5 -0.73
    endloop
  endfacet
  facet normal 0 0 1
    outer loop
      vertex 85.4288 1.5 -0.73
      vertex 83.5712 1.5 -0.73
      vertex 85.4288 -1.5 -0.73
    endloop
  endfacet
  facet normal 0 0 1
    outer loop
      vertex 99.5 4 -0.73
      vertex 83.5712 1.5 -0.73
      vertex 85.4288 1.5 -0.73
    endloop
  endfacet
  facet normal 0 0 1
    outer loop
      vertex 99.5 4 -0.73
      vertex 81.4288 1.5 -0.73
      vertex 83.5712 1.5 -0.73
    endloop
  endfacet
  facet normal 0 0 1
    outer loop
      vertex 81.4288 1.5 -0.73
      vertex 79.5712 1.5 -0.73
      vertex 81.4288 -1.5 -0.73
    endloop
  endfacet
  facet normal 0 0 1
    outer loop
      vertex 99.5 4 -0.73
      vertex 79.5712 1.5 -0.73
      vertex 81.4288 1.5 -0.73
    endloop
  endfacet
  facet normal 0 0 1
    outer loop
      vertex 99.5 4 -0.73
      vertex 77.4288 1.5 -0.73
      vertex 79.5712 1.5 -0.73
    endloop
  endfacet
  facet normal 0 0 1
    outer loop
      vertex 77.4288 1.5 -0.73
      vertex 75.5712 1.5 -0.73
      vertex 77.4288 -1.5 -0.73
    endloop
  endfacet
  facet normal 0 0 1
    outer loop
      vertex 99.5 4 -0.73
      vertex 75.5712 1.5 -0.73
      vertex 77.4288 1.5 -0.73
    endloop
  endfacet
  facet normal 0 0 1
    outer loop
      vertex 99.5 4 -0.73
      vertex 73.4288 1.5 -0.73
      vertex 75.5712 1.5 -0.73
    endloop
  endfacet
  facet normal 0 0 1
    outer loop
      vertex 73.4288 1.5 -0.73
      vertex 71.5712 1.5 -0.73
      vertex 73.4288 -1.5 -0.73
    endloop
  endfacet
  facet normal 0 0 1
    outer loop
      vertex 99.5 4 -0.73
      vertex 71.5712 1.5 -0.73
      vertex 73.4288 1.5 -0.73
    endloop
  endfacet
  facet normal 0 0 1
    outer loop
      vertex 99.5 4 -0.73
      vertex 69.4288 1.5 -0.73
      vertex 71.5712 1.5 -0.73
    endloop
  endfacet
  facet normal 0 0 1
    outer loop
      vertex 69.4288 1.5 -0.73
      vertex 67.5712 1.5 -0.73
      vertex 69.4288 -1.5 -0.73
    endloop
  endfacet
  facet normal 0 0 1
    outer loop
      vertex 99.5 4 -0.73
      vertex 67.5712 1.5 -0.73
      vertex 69.4288 1.5 -0.73
    endloop
  endfacet
  facet normal 0 0 1
    outer loop
      vertex 99.5 4 -0.73
      vertex 65.4288 1.5 -0.73
      vertex 67.5712 1.5 -0.73
    endloop
  endfacet
  facet normal 0 0 1
    outer loop
      vertex 65.4288 1.5 -0.73
      vertex 63.5712 1.5 -0.73
      vertex 65.4288 -1.5 -0.73
    endloop
  endfacet
  facet normal 0 0 1
    outer loop
      vertex 99.5 4 -0.73
      vertex 63.5712 1.5 -0.73
      vertex 65.4288 1.5 -0.73
    endloop
  endfacet
  facet normal 0 0 1
    outer loop
      vertex 99.5 4 -0.73
      vertex 61.4288 1.5 -0.73
      vertex 63.5712 1.5 -0.73
    endloop
  endfacet
  facet normal 0 0 1
    outer loop
      vertex 61.4288 1.5 -0.73
      vertex 59.5712 1.5 -0.73
      vertex 61.4288 -1.5 -0.73
    endloop
  endfacet
  facet normal 0 0 1
    outer loop
      vertex 99.5 4 -0.73
      vertex 59.5712 1.5 -0.73
      vertex 61.4288 1.5 -0.73
    endloop
  endfacet
  facet normal 0 0 1
    outer loop
      vertex 99.5 4 -0.73
      vertex 57.4288 1.5 -0.73
      vertex 59.5712 1.5 -0.73
    endloop
  endfacet
  facet normal 0 0 1
    outer loop
      vertex 57.4288 1.5 -0.73
      vertex 55.5712 1.5 -0.73
      vertex 57.4288 -1.5 -0.73
    endloop
  endfacet
  facet normal 0 0 1
    outer loop
      vertex 99.5 4 -0.73
      vertex 55.5712 1.5 -0.73
      vertex 57.4288 1.5 -0.73
    endloop
  endfacet
  facet normal 0 0 1
    outer loop
      vertex 99.5 4 -0.73
      vertex 53.4288 1.5 -0.73
      vertex 55.5712 1.5 -0.73
    endloop
  endfacet
  facet normal 0 0 1
    outer loop
      vertex 53.4288 1.5 -0.73
      vertex 51.5712 1.5 -0.73
      vertex 53.4288 -1.5 -0.73
    endloop
  endfacet
  facet normal 0 0 1
    outer loop
      vertex 99.5 4 -0.73
      vertex 51.5712 1.5 -0.73
      vertex 53.4288 1.5 -0.73
    endloop
  endfacet
  facet normal 0 0 1
    outer loop
      vertex 99.5 4 -0.73
      vertex 49.4288 1.5 -0.73
      vertex 51.5712 1.5 -0.73
    endloop
  endfacet
  facet normal 0 0 1
    outer loop
      vertex 49.4288 1.5 -0.73
      vertex 47.5712 1.5 -0.73
      vertex 49.4288 -1.5 -0.73
    endloop
  endfacet
  facet normal 0 0 1
    outer loop
      vertex 99.5 4 -0.73
      vertex 47.5712 1.5 -0.73
      vertex 49.4288 1.5 -0.73
    endloop
  endfacet
  facet normal 0 0 1
    outer loop
      vertex 99.5 4 -0.73
      vertex 45.4288 1.5 -0.73
      vertex 47.5712 1.5 -0.73
    endloop
  endfacet
  facet normal 0 0 1
    outer loop
      vertex 45.4288 1.5 -0.73
      vertex 43.5712 1.5 -0.73
      vertex 45.4288 -1.5 -0.73
    endloop
  endfacet
  facet normal -0 0 1
    outer loop
      vertex -0.5 4 -0.73
      vertex 45.4288 1.5 -0.73
      vertex 99.5 4 -0.73
    endloop
  endfacet
  facet normal 0 0 1
    outer loop
      vertex 45.4288 1.5 -0.73
      vertex -0.5 4 -0.73
      vertex 43.5712 1.5 -0.73
    endloop
  endfacet
  facet normal 0 0 1
    outer loop
      vertex 41.4288 1.5 -0.73
      vertex 39.5712 1.5 -0.73
      vertex 41.4288 -1.5 -0.73
    endloop
  endfacet
  facet normal 0 0 1
    outer loop
      vertex 43.5712 1.5 -0.73
      vertex -0.5 4 -0.73
      vertex 41.4288 1.5 -0.73
    endloop
  endfacet
  facet normal 0 0 1
    outer loop
      vertex 41.4288 1.5 -0.73
      vertex -0.5 4 -0.73
      vertex 39.5712 1.5 -0.73
    endloop
  endfacet
  facet normal 0 0 1
    outer loop
      vertex 37.4288 1.5 -0.73
      vertex 35.5712 1.5 -0.73
      vertex 37.4288 -1.5 -0.73
    endloop
  endfacet
  facet normal 0 0 1
    outer loop
      vertex 39.5712 1.5 -0.73
      vertex -0.5 4 -0.73
      vertex 37.4288 1.5 -0.73
    endloop
  endfacet
  facet normal 0 0 1
    outer loop
      vertex 37.4288 1.5 -0.73
      vertex -0.5 4 -0.73
      vertex 35.5712 1.5 -0.73
    endloop
  endfacet
  facet normal 0 0 1
    outer loop
      vertex 33.4288 1.5 -0.73
      vertex 31.5712 1.5 -0.73
      vertex 33.4288 -1.5 -0.73
    endloop
  endfacet
  facet normal 0 0 1
    outer loop
      vertex 35.5712 1.5 -0.73
      vertex -0.5 4 -0.73
      vertex 33.4288 1.5 -0.73
    endloop
  endfacet
  facet normal 0 0 1
    outer loop
      vertex 33.4288 1.5 -0.73
      vertex -0.5 4 -0.73
      vertex 31.5712 1.5 -0.73
    endloop
  endfacet
  facet normal 0 0 1
    outer loop
      vertex 29.4288 1.5 -0.73
      vertex 27.5712 1.5 -0.73
      vertex 29.4288 -1.5 -0.73
    endloop
  endfacet
  facet normal 0 0 1
    outer loop
      vertex 31.5712 1.5 -0.73
      vertex -0.5 4 -0.73
      vertex 29.4288 1.5 -0.73
    endloop
  endfacet
  facet normal 0 0 1
    outer loop
      vertex 29.4288 1.5 -0.73
      vertex -0.5 4 -0.73
      vertex 27.5712 1.5 -0.73
    endloop
  endfacet
  facet normal 0 0 1
    outer loop
      vertex 25.4288 1.5 -0.73
      vertex 23.5712 1.5 -0.73
      vertex 25.4288 -1.5 -0.73
    endloop
  endfacet
  facet normal 0 0 1
    outer loop
      vertex 27.5712 1.5 -0.73
      vertex -0.5 4 -0.73
      vertex 25.4288 1.5 -0.73
    endloop
  endfacet
  facet normal 0 0 1
    outer loop
      vertex 25.4288 1.5 -0.73
      vertex -0.5 4 -0.73
      vertex 23.5712 1.5 -0.73
    endloop
  endfacet
  facet normal 0 0 1
    outer loop
      vertex 21.4288 1.5 -0.73
      vertex 19.5712 1.5 -0.73
      vertex 21.4288 -1.5 -0.73
    endloop
  endfacet
  facet normal 0 0 1
    outer loop
      vertex 23.5712 1.5 -0.73
      vertex -0.5 4 -0.73
      vertex 21.4288 1.5 -0.73
    endloop
  endfacet
  facet normal 0 0 1
    outer loop
      vertex 21.4288 1.5 -0.73
      vertex -0.5 4 -0.73
      vertex 19.5712 1.5 -0.73
    endloop
  endfacet
  facet normal 0 0 1
    outer loop
      vertex 17.4288 1.5 -0.73
      vertex 15.5712 1.5 -0.73
      vertex 17.4288 -1.5 -0.73
    endloop
  endfacet
  facet normal 0 0 1
    outer loop
      vertex 19.5712 1.5 -0.73
      vertex -0.5 4 -0.73
      vertex 17.4288 1.5 -0.73
    endloop
  endfacet
  facet normal 0 0 1
    outer loop
      vertex 17.4288 1.5 -0.73
      vertex -0.5 4 -0.73
      vertex 15.5712 1.5 -0.73
    endloop
  endfacet
  facet normal 0 0 1
    outer loop
      vertex 13.4288 1.5 -0.73
      vertex 11.5712 1.5 -0.73
      vertex 13.4288 -1.5 -0.73
    endloop
  endfacet
  facet normal 0 0 1
    outer loop
      vertex 15.5712 1.5 -0.73
      vertex -0.5 4 -0.73
      vertex 13.4288 1.5 -0.73
    endloop
  endfacet
  facet normal 0 0 1
    outer loop
      vertex 13.4288 1.5 -0.73
      vertex -0.5 4 -0.73
      vertex 11.5712 1.5 -0.73
    endloop
  endfacet
  facet normal 0 0 1
    outer loop
      vertex 9.4288 1.5 -0.73
      vertex 7.5712 1.5 -0.73
      vertex 9.4288 -1.5 -0.73
    endloop
  endfacet
  facet normal 0 0 1
    outer loop
      vertex 11.5712 1.5 -0.73
      vertex -0.5 4 -0.73
      vertex 9.4288 1.5 -0.73
    endloop
  endfacet
  facet normal 0 0 1
    outer loop
      vertex 9.4288 1.5 -0.73
      vertex -0.5 4 -0.73
      vertex 7.5712 1.5 -0.73
    endloop
  endfacet
  facet normal 0 0 1
    outer loop
      vertex 5.4288 1.5 -0.73
      vertex 3.5712 1.5 -0.73
      vertex 5.4288 -1.5 -0.73
    endloop
  endfacet
  facet normal 0 0 1
    outer loop
      vertex 7.5712 1.5 -0.73
      vertex -0.5 4 -0.73
      vertex 5.4288 1.5 -0.73
    endloop
  endfacet
  facet normal 0 0 1
    outer loop
      vertex 5.4288 1.5 -0.73
      vertex -0.5 4 -0.73
      vertex 3.5712 1.5 -0.73
    endloop
  endfacet
  facet normal 0 0 1
    outer loop
      vertex 1.4288 1.5 -0.73
      vertex -0.5 4 -0.73
      vertex 1.4288 -1.5 -0.73
    endloop
  endfacet
  facet normal 0 0 1
    outer loop
      vertex 3.5712 1.5 -0.73
      vertex -0.5 4 -0.73
      vertex 1.4288 1.5 -0.73
    endloop
  endfacet
  facet normal -0 0 1
    outer loop
      vertex 95.5712 -1.5 -0.73
      vertex 99.5 -4 -0.73
      vertex 95.5712 1.5 -0.73
    endloop
  endfacet
  facet normal -0 0 1
    outer loop
      vertex 93.4288 -1.5 -0.73
      vertex 99.5 -4 -0.73
      vertex 95.5712 -1.5 -0.73
    endloop
  endfacet
  facet normal 0 0 1
    outer loop
      vertex 91.5712 -1.5 -0.73
      vertex 93.4288 -1.5 -0.73
      vertex 91.5712 1.5 -0.73
    endloop
  endfacet
  facet normal -0 0 1
    outer loop
      vertex 91.5712 -1.5 -0.73
      vertex 99.5 -4 -0.73
      vertex 93.4288 -1.5 -0.73
    endloop
  endfacet
  facet normal -0 0 1
    outer loop
      vertex 89.4288 -1.5 -0.73
      vertex 99.5 -4 -0.73
      vertex 91.5712 -1.5 -0.73
    endloop
  endfacet
  facet normal 0 0 1
    outer loop
      vertex 87.5712 -1.5 -0.73
      vertex 89.4288 -1.5 -0.73
      vertex 87.5712 1.5 -0.73
    endloop
  endfacet
  facet normal -0 0 1
    outer loop
      vertex 87.5712 -1.5 -0.73
      vertex 99.5 -4 -0.73
      vertex 89.4288 -1.5 -0.73
    endloop
  endfacet
  facet normal -0 0 1
    outer loop
      vertex 85.4288 -1.5 -0.73
      vertex 99.5 -4 -0.73
      vertex 87.5712 -1.5 -0.73
    endloop
  endfacet
  facet normal 0 0 1
    outer loop
      vertex 83.5712 -1.5 -0.73
      vertex 85.4288 -1.5 -0.73
      vertex 83.5712 1.5 -0.73
    endloop
  endfacet
  facet normal -0 0 1
    outer loop
      vertex 83.5712 -1.5 -0.73
      vertex 99.5 -4 -0.73
      vertex 85.4288 -1.5 -0.73
    endloop
  endfacet
  facet normal -0 0 1
    outer loop
      vertex 81.4288 -1.5 -0.73
      vertex 99.5 -4 -0.73
      vertex 83.5712 -1.5 -0.73
    endloop
  endfacet
  facet normal 0 0 1
    outer loop
      vertex 79.5712 -1.5 -0.73
      vertex 81.4288 -1.5 -0.73
      vertex 79.5712 1.5 -0.73
    endloop
  endfacet
  facet normal -0 0 1
    outer loop
      vertex 79.5712 -1.5 -0.73
      vertex 99.5 -4 -0.73
      vertex 81.4288 -1.5 -0.73
    endloop
  endfacet
  facet normal -0 0 1
    outer loop
      vertex 77.4288 -1.5 -0.73
      vertex 99.5 -4 -0.73
      vertex 79.5712 -1.5 -0.73
    endloop
  endfacet
  facet normal 0 0 1
    outer loop
      vertex 75.5712 -1.5 -0.73
      vertex 77.4288 -1.5 -0.73
      vertex 75.5712 1.5 -0.73
    endloop
  endfacet
  facet normal -0 0 1
    outer loop
      vertex 75.5712 -1.5 -0.73
      vertex 99.5 -4 -0.73
      vertex 77.4288 -1.5 -0.73
    endloop
  endfacet
  facet normal -0 0 1
    outer loop
      vertex 73.4288 -1.5 -0.73
      vertex 99.5 -4 -0.73
      vertex 75.5712 -1.5 -0.73
    endloop
  endfacet
  facet normal 0 0 1
    outer loop
      vertex 71.5712 -1.5 -0.73
      vertex 73.4288 -1.5 -0.73
      vertex 71.5712 1.5 -0.73
    endloop
  endfacet
  facet normal -0 0 1
    outer loop
      vertex 71.5712 -1.5 -0.73
      vertex 99.5 -4 -0.73
      vertex 73.4288 -1.5 -0.73
    endloop
  endfacet
  facet normal -0 0 1
    outer loop
      vertex 69.4288 -1.5 -0.73
      vertex 99.5 -4 -0.73
      vertex 71.5712 -1.5 -0.73
    endloop
  endfacet
  facet normal 0 0 1
    outer loop
      vertex 67.5712 -1.5 -0.73
      vertex 69.4288 -1.5 -0.73
      vertex 67.5712 1.5 -0.73
    endloop
  endfacet
  facet normal -0 0 1
    outer loop
      vertex 67.5712 -1.5 -0.73
      vertex 99.5 -4 -0.73
      vertex 69.4288 -1.5 -0.73
    endloop
  endfacet
  facet normal -0 0 1
    outer loop
      vertex 65.4288 -1.5 -0.73
      vertex 99.5 -4 -0.73
      vertex 67.5712 -1.5 -0.73
    endloop
  endfacet
  facet normal 0 0 1
    outer loop
      vertex 63.5712 -1.5 -0.73
      vertex 65.4288 -1.5 -0.73
      vertex 63.5712 1.5 -0.73
    endloop
  endfacet
  facet normal -0 0 1
    outer loop
      vertex 63.5712 -1.5 -0.73
      vertex 99.5 -4 -0.73
      vertex 65.4288 -1.5 -0.73
    endloop
  endfacet
  facet normal -0 0 1
    outer loop
      vertex 61.4288 -1.5 -0.73
      vertex 99.5 -4 -0.73
      vertex 63.5712 -1.5 -0.73
    endloop
  endfacet
  facet normal 0 0 1
    outer loop
      vertex 59.5712 -1.5 -0.73
      vertex 61.4288 -1.5 -0.73
      vertex 59.5712 1.5 -0.73
    endloop
  endfacet
  facet normal -0 0 1
    outer loop
      vertex 59.5712 -1.5 -0.73
      vertex 99.5 -4 -0.73
      vertex 61.4288 -1.5 -0.73
    endloop
  endfacet
  facet normal -0 0 1
    outer loop
      vertex 57.4288 -1.5 -0.73
      vertex 99.5 -4 -0.73
      vertex 59.5712 -1.5 -0.73
    endloop
  endfacet
  facet normal 0 0 1
    outer loop
      vertex 55.5712 -1.5 -0.73
      vertex 57.4288 -1.5 -0.73
      vertex 55.5712 1.5 -0.73
    endloop
  endfacet
  facet normal -0 0 1
    outer loop
      vertex 55.5712 -1.5 -0.73
      vertex 99.5 -4 -0.73
      vertex 57.4288 -1.5 -0.73
    endloop
  endfacet
  facet normal -0 0 1
    outer loop
      vertex 53.4288 -1.5 -0.73
      vertex 99.5 -4 -0.73
      vertex 55.5712 -1.5 -0.73
    endloop
  endfacet
  facet normal 0 0 1
    outer loop
      vertex 51.5712 -1.5 -0.73
      vertex 53.4288 -1.5 -0.73
      vertex 51.5712 1.5 -0.73
    endloop
  endfacet
  facet normal -0 0 1
    outer loop
      vertex 51.5712 -1.5 -0.73
      vertex 99.5 -4 -0.73
      vertex 53.4288 -1.5 -0.73
    endloop
  endfacet
  facet normal -0 0 1
    outer loop
      vertex 49.4288 -1.5 -0.73
      vertex 99.5 -4 -0.73
      vertex 51.5712 -1.5 -0.73
    endloop
  endfacet
  facet normal 0 0 1
    outer loop
      vertex 47.5712 -1.5 -0.73
      vertex 49.4288 -1.5 -0.73
      vertex 47.5712 1.5 -0.73
    endloop
  endfacet
  facet normal -0 0 1
    outer loop
      vertex 47.5712 -1.5 -0.73
      vertex 99.5 -4 -0.73
      vertex 49.4288 -1.5 -0.73
    endloop
  endfacet
  facet normal -0 0 1
    outer loop
      vertex 45.4288 -1.5 -0.73
      vertex 99.5 -4 -0.73
      vertex 47.5712 -1.5 -0.73
    endloop
  endfacet
  facet normal 0 0 1
    outer loop
      vertex 43.5712 -1.5 -0.73
      vertex 45.4288 -1.5 -0.73
      vertex 43.5712 1.5 -0.73
    endloop
  endfacet
  facet normal 0 0 1
    outer loop
      vertex -0.5 -4 -0.73
      vertex 45.4288 -1.5 -0.73
      vertex 43.5712 -1.5 -0.73
    endloop
  endfacet
  facet normal 0 0 1
    outer loop
      vertex -0.5 -4 -0.73
      vertex 43.5712 -1.5 -0.73
      vertex 41.4288 -1.5 -0.73
    endloop
  endfacet
  facet normal 0 0 1
    outer loop
      vertex 39.5712 -1.5 -0.73
      vertex 41.4288 -1.5 -0.73
      vertex 39.5712 1.5 -0.73
    endloop
  endfacet
  facet normal 0 0 1
    outer loop
      vertex -0.5 -4 -0.73
      vertex 41.4288 -1.5 -0.73
      vertex 39.5712 -1.5 -0.73
    endloop
  endfacet
  facet normal 0 0 1
    outer loop
      vertex -0.5 -4 -0.73
      vertex 39.5712 -1.5 -0.73
      vertex 37.4288 -1.5 -0.73
    endloop
  endfacet
  facet normal 0 0 1
    outer loop
      vertex 35.5712 -1.5 -0.73
      vertex 37.4288 -1.5 -0.73
      vertex 35.5712 1.5 -0.73
    endloop
  endfacet
  facet normal 0 0 1
    outer loop
      vertex -0.5 -4 -0.73
      vertex 37.4288 -1.5 -0.73
      vertex 35.5712 -1.5 -0.73
    endloop
  endfacet
  facet normal 0 0 1
    outer loop
      vertex -0.5 -4 -0.73
      vertex 35.5712 -1.5 -0.73
      vertex 33.4288 -1.5 -0.73
    endloop
  endfacet
  facet normal 0 0 1
    outer loop
      vertex 31.5712 -1.5 -0.73
      vertex 33.4288 -1.5 -0.73
      vertex 31.5712 1.5 -0.73
    endloop
  endfacet
  facet normal 0 0 1
    outer loop
      vertex -0.5 -4 -0.73
      vertex 33.4288 -1.5 -0.73
      vertex 31.5712 -1.5 -0.73
    endloop
  endfacet
  facet normal 0 0 1
    outer loop
      vertex -0.5 -4 -0.73
      vertex 31.5712 -1.5 -0.73
      vertex 29.4288 -1.5 -0.73
    endloop
  endfacet
  facet normal 0 0 1
    outer loop
      vertex 27.5712 -1.5 -0.73
      vertex 29.4288 -1.5 -0.73
      vertex 27.5712 1.5 -0.73
    endloop
  endfacet
  facet normal 0 0 1
    outer loop
      vertex -0.5 -4 -0.73
      vertex 29.4288 -1.5 -0.73
      vertex 27.5712 -1.5 -0.73
    endloop
  endfacet
  facet normal 0 0 1
    outer loop
      vertex -0.5 -4 -0.73
      vertex 27.5712 -1.5 -0.73
      vertex 25.4288 -1.5 -0.73
    endloop
  endfacet
  facet normal 0 0 1
    outer loop
      vertex 23.5712 -1.5 -0.73
      vertex 25.4288 -1.5 -0.73
      vertex 23.5712 1.5 -0.73
    endloop
  endfacet
  facet normal 0 0 1
    outer loop
      vertex -0.5 -4 -0.73
      vertex 25.4288 -1.5 -0.73
      vertex 23.5712 -1.5 -0.73
    endloop
  endfacet
  facet normal 0 0 1
    outer loop
      vertex -0.5 -4 -0.73
      vertex 23.5712 -1.5 -0.73
      vertex 21.4288 -1.5 -0.73
    endloop
  endfacet
  facet normal 0 0 1
    outer loop
      vertex 19.5712 -1.5 -0.73
      vertex 21.4288 -1.5 -0.73
      vertex 19.5712 1.5 -0.73
    endloop
  endfacet
  facet normal 0 0 1
    outer loop
      vertex -0.5 -4 -0.73
      vertex 21.4288 -1.5 -0.73
      vertex 19.5712 -1.5 -0.73
    endloop
  endfacet
  facet normal 0 0 1
    outer loop
      vertex -0.5 -4 -0.73
      vertex 19.5712 -1.5 -0.73
      vertex 17.4288 -1.5 -0.73
    endloop
  endfacet
  facet normal 0 0 1
    outer loop
      vertex 15.5712 -1.5 -0.73
      vertex 17.4288 -1.5 -0.73
      vertex 15.5712 1.5 -0.73
    endloop
  endfacet
  facet normal 0 0 1
    outer loop
      vertex -0.5 -4 -0.73
      vertex 17.4288 -1.5 -0.73
      vertex 15.5712 -1.5 -0.73
    endloop
  endfacet
  facet normal 0 0 1
    outer loop
      vertex -0.5 -4 -0.73
      vertex 15.5712 -1.5 -0.73
      vertex 13.4288 -1.5 -0.73
    endloop
  endfacet
  facet normal 0 0 1
    outer loop
      vertex 11.5712 -1.5 -0.73
      vertex 13.4288 -1.5 -0.73
      vertex 11.5712 1.5 -0.73
    endloop
  endfacet
  facet normal 0 0 1
    outer loop
      vertex -0.5 -4 -0.73
      vertex 13.4288 -1.5 -0.73
      vertex 11.5712 -1.5 -0.73
    endloop
  endfacet
  facet normal 0 0 1
    outer loop
      vertex -0.5 -4 -0.73
      vertex 11.5712 -1.5 -0.73
      vertex 9.4288 -1.5 -0.73
    endloop
  endfacet
  facet normal 0 0 1
    outer loop
      vertex 7.5712 -1.5 -0.73
      vertex 9.4288 -1.5 -0.73
      vertex 7.5712 1.5 -0.73
    endloop
  endfacet
  facet normal 0 0 1
    outer loop
      vertex -0.5 -4 -0.73
      vertex 9.4288 -1.5 -0.73
      vertex 7.5712 -1.5 -0.73
    endloop
  endfacet
  facet normal 0 0 1
    outer loop
      vertex -0.5 -4 -0.73
      vertex 7.5712 -1.5 -0.73
      vertex 5.4288 -1.5 -0.73
    endloop
  endfacet
  facet normal 0 0 1
    outer loop
      vertex 3.5712 -1.5 -0.73
      vertex 5.4288 -1.5 -0.73
      vertex 3.5712 1.5 -0.73
    endloop
  endfacet
  facet normal 0 0 1
    outer loop
      vertex -0.5 -4 -0.73
      vertex 5.4288 -1.5 -0.73
      vertex 3.5712 -1.5 -0.73
    endloop
  endfacet
  facet normal 0 0 1
    outer loop
      vertex -0.5 -4 -0.73
      vertex 3.5712 -1.5 -0.73
      vertex 1.4288 -1.5 -0.73
    endloop
  endfacet
  facet normal 0 0 1
    outer loop
      vertex 45.4288 -1.5 -0.73
      vertex -0.5 -4 -0.73
      vertex 99.5 -4 -0.73
    endloop
  endfacet
  facet normal 0 0 1
    outer loop
      vertex -0.5 -4 -0.73
      vertex 1.4288 -1.5 -0.73
      vertex -0.5 4 -0.73
    endloop
  endfacet
  facet normal 0 1 -0
    outer loop
      vertex 99.5 4 -3.73
      vertex -0.5 4 -0.73
      vertex 99.5 4 -0.73
    endloop
  endfacet
  facet normal 0 1 0
    outer loop
      vertex -0.5 4 -0.73
      vertex 99.5 4 -3.73
      vertex -0.5 4 -3.73
    endloop
  endfacet
  facet normal 0 0 -1
    outer loop
      vertex -0.5 -4 -3.73
      vertex 99.5 4 -3.73
      vertex 99.5 -4 -3.73
    endloop
  endfacet
  facet normal -0 0 -1
    outer loop
      vertex 99.5 4 -3.73
      vertex -0.5 -4 -3.73
      vertex -0.5 4 -3.73
    endloop
  endfacet
endsolid OpenSCAD_Model
