solid OpenSCAD_Model
  facet normal -1 0 0
    outer loop
      vertex 0 4 -2.5
      vertex 0 8.3 -4
      vertex 0 8.3 -11
    endloop
  endfacet
  facet normal -1 0 0
    outer loop
      vertex 0 8.3 -4
      vertex 0 4 -2.5
      vertex 0 8.3 8
    endloop
  endfacet
  facet normal -1 0 0
    outer loop
      vertex 0 -1.7 -11
      vertex 0 4 -2.5
      vertex 0 8.3 -11
    endloop
  endfacet
  facet normal -1 0 0
    outer loop
      vertex 0 -1.7 -4
      vertex 0 4 -2.5
      vertex 0 -1.7 -11
    endloop
  endfacet
  facet normal -1 0 0
    outer loop
      vertex 0 4 6.5
      vertex 0 8.3 8
      vertex 0 4 -2.5
    endloop
  endfacet
  facet normal -1 0 0
    outer loop
      vertex 0 -1.7 8
      vertex 0 4 6.5
      vertex 0 9.99201e-16 6.5
    endloop
  endfacet
  facet normal -1 0 0
    outer loop
      vertex 0 -1.7 4.5
      vertex 0 9.99201e-16 6.5
      vertex 0 5.55112e-16 4.5
    endloop
  endfacet
  facet normal -1 0 0
    outer loop
      vertex 0 4 6.5
      vertex 0 -1.7 8
      vertex 0 8.3 8
    endloop
  endfacet
  facet normal -1 0 0
    outer loop
      vertex 0 -1.7 8
      vertex 0 9.99201e-16 6.5
      vertex 0 -1.7 4.5
    endloop
  endfacet
  facet normal -1 -0 0
    outer loop
      vertex 0 4 -2.5
      vertex 0 -1.7 -4
      vertex 0 -9.99201e-16 -2.5
    endloop
  endfacet
  facet normal -1 0 0
    outer loop
      vertex 0 -1.7 -0.5
      vertex 0 -9.99201e-16 -2.5
      vertex 0 -1.7 -4
    endloop
  endfacet
  facet normal -1 0 0
    outer loop
      vertex 0 -9.99201e-16 -2.5
      vertex 0 -1.7 -0.5
      vertex 0 -5.55112e-16 -0.5
    endloop
  endfacet
  facet normal 0 -1 0
    outer loop
      vertex 0 -1.7 -4
      vertex 100 -1.7 -0.5
      vertex 0 -1.7 -0.5
    endloop
  endfacet
  facet normal 0 -1 -0
    outer loop
      vertex 100 -1.7 -0.5
      vertex 0 -1.7 -4
      vertex 100 -1.7 -4
    endloop
  endfacet
  facet normal 0 -1 0
    outer loop
      vertex 0 -1.7 4.5
      vertex 100 -1.7 8
      vertex 0 -1.7 8
    endloop
  endfacet
  facet normal 0 -1 -0
    outer loop
      vertex 100 -1.7 8
      vertex 0 -1.7 4.5
      vertex 100 -1.7 4.5
    endloop
  endfacet
  facet normal 1 0 0
    outer loop
      vertex 100 -5.55112e-16 -0.5
      vertex 100 -1.7 -0.5
      vertex 100 -9.99201e-16 -2.5
    endloop
  endfacet
  facet normal 1 -0 0
    outer loop
      vertex 100 4 -2.5
      vertex 100 8.3 -4
      vertex 100 8.3 8
    endloop
  endfacet
  facet normal 1 0 0
    outer loop
      vertex 100 4 -2.5
      vertex 100 8.3 8
      vertex 100 4 6.5
    endloop
  endfacet
  facet normal 1 -0 0
    outer loop
      vertex 100 -1.7 8
      vertex 100 4 6.5
      vertex 100 8.3 8
    endloop
  endfacet
  facet normal 1 0 0
    outer loop
      vertex 100 4 6.5
      vertex 100 -1.7 8
      vertex 100 9.99201e-16 6.5
    endloop
  endfacet
  facet normal 1 0 0
    outer loop
      vertex 100 -1.7 4.5
      vertex 100 9.99201e-16 6.5
      vertex 100 -1.7 8
    endloop
  endfacet
  facet normal 1 0 0
    outer loop
      vertex 100 9.99201e-16 6.5
      vertex 100 -1.7 4.5
      vertex 100 5.55112e-16 4.5
    endloop
  endfacet
  facet normal 1 0 0
    outer loop
      vertex 100 8.3 -4
      vertex 100 4 -2.5
      vertex 100 8.3 -11
    endloop
  endfacet
  facet normal 1 0 0
    outer loop
      vertex 100 -1.7 -4
      vertex 100 4 -2.5
      vertex 100 -9.99201e-16 -2.5
    endloop
  endfacet
  facet normal 1 0 0
    outer loop
      vertex 100 -1.7 -4
      vertex 100 -9.99201e-16 -2.5
      vertex 100 -1.7 -0.5
    endloop
  endfacet
  facet normal 1 0 0
    outer loop
      vertex 100 4 -2.5
      vertex 100 -1.7 -4
      vertex 100 -1.7 -11
    endloop
  endfacet
  facet normal 1 0 0
    outer loop
      vertex 100 4 -2.5
      vertex 100 -1.7 -11
      vertex 100 8.3 -11
    endloop
  endfacet
  facet normal -0 0 1
    outer loop
      vertex 0 8.3 8
      vertex 100 -1.7 8
      vertex 100 8.3 8
    endloop
  endfacet
  facet normal 0 0 1
    outer loop
      vertex 100 -1.7 8
      vertex 0 8.3 8
      vertex 0 -1.7 8
    endloop
  endfacet
  facet normal 0 1 -0
    outer loop
      vertex 100 8.3 -4
      vertex 0 8.3 8
      vertex 100 8.3 8
    endloop
  endfacet
  facet normal 0 1 0
    outer loop
      vertex 0 8.3 8
      vertex 100 8.3 -4
      vertex 0 8.3 -4
    endloop
  endfacet
  facet normal 0 0 -1
    outer loop
      vertex 0 -1.7 -4
      vertex 100 -1.33227e-15 -4
      vertex 100 -1.7 -4
    endloop
  endfacet
  facet normal -0 0 -1
    outer loop
      vertex 100 -1.33227e-15 -4
      vertex 0 -1.7 -4
      vertex 0 -1.33227e-15 -4
    endloop
  endfacet
  facet normal 0 1 -2.22045e-16
    outer loop
      vertex 100 -9.99201e-16 -2.5
      vertex 0 -5.55112e-16 -0.5
      vertex 100 -5.55112e-16 -0.5
    endloop
  endfacet
  facet normal 0 1 -2.22045e-16
    outer loop
      vertex 0 -5.55112e-16 -0.5
      vertex 100 -9.99201e-16 -2.5
      vertex 0 -9.99201e-16 -2.5
    endloop
  endfacet
  facet normal 0 1 -2.22045e-16
    outer loop
      vertex 100 5.55112e-16 4.5
      vertex 0 9.99201e-16 6.5
      vertex 100 9.99201e-16 6.5
    endloop
  endfacet
  facet normal 0 1 -2.22045e-16
    outer loop
      vertex 0 9.99201e-16 6.5
      vertex 100 5.55112e-16 4.5
      vertex 0 5.55112e-16 4.5
    endloop
  endfacet
  facet normal 0 0 -1
    outer loop
      vertex 0 9.99201e-16 6.5
      vertex 100 4 6.5
      vertex 100 9.99201e-16 6.5
    endloop
  endfacet
  facet normal -0 0 -1
    outer loop
      vertex 100 4 6.5
      vertex 0 9.99201e-16 6.5
      vertex 0 4 6.5
    endloop
  endfacet
  facet normal 0 -1 0
    outer loop
      vertex 0 4 -2.5
      vertex 100 4 6.5
      vertex 0 4 6.5
    endloop
  endfacet
  facet normal 0 -1 -0
    outer loop
      vertex 100 4 6.5
      vertex 0 4 -2.5
      vertex 100 4 -2.5
    endloop
  endfacet
  facet normal -0 0 1
    outer loop
      vertex 0 4 -2.5
      vertex 100 -9.99201e-16 -2.5
      vertex 100 4 -2.5
    endloop
  endfacet
  facet normal 0 0 1
    outer loop
      vertex 100 -9.99201e-16 -2.5
      vertex 0 4 -2.5
      vertex 0 -9.99201e-16 -2.5
    endloop
  endfacet
  facet normal -0 0 1
    outer loop
      vertex 0 -5.55112e-16 -0.5
      vertex 100 -1.7 -0.5
      vertex 100 -5.55112e-16 -0.5
    endloop
  endfacet
  facet normal 0 0 1
    outer loop
      vertex 100 -1.7 -0.5
      vertex 0 -5.55112e-16 -0.5
      vertex 0 -1.7 -0.5
    endloop
  endfacet
  facet normal 0 0 -1
    outer loop
      vertex 0 -1.7 4.5
      vertex 100 5.55112e-16 4.5
      vertex 100 -1.7 4.5
    endloop
  endfacet
  facet normal -0 0 -1
    outer loop
      vertex 100 5.55112e-16 4.5
      vertex 0 -1.7 4.5
      vertex 0 5.55112e-16 4.5
    endloop
  endfacet
  facet normal 0 1 -0
    outer loop
      vertex 100 -1.7 -11
      vertex 50 -1.7 -4
      vertex 100 -1.7 -4
    endloop
  endfacet
  facet normal 0 1 0
    outer loop
      vertex 50 -1.7 -4
      vertex 100 -1.7 -11
      vertex 50 -1.7 -11
    endloop
  endfacet
  facet normal 0 0 1
    outer loop
      vertex 78.4808 -16.5658 -4
      vertex 100 -1.7 -4
      vertex 78.4808 -15.8341 -4
    endloop
  endfacet
  facet normal 0 0 1
    outer loop
      vertex 100 -1.7 -4
      vertex 78.3287 -15.1184 -4
      vertex 78.4808 -15.8341 -4
    endloop
  endfacet
  facet normal 0 0 1
    outer loop
      vertex 100 -1.7 -4
      vertex 78.0311 -14.45 -4
      vertex 78.3287 -15.1184 -4
    endloop
  endfacet
  facet normal 0 0 1
    outer loop
      vertex 100 -1.7 -4
      vertex 77.601 -13.858 -4
      vertex 78.0311 -14.45 -4
    endloop
  endfacet
  facet normal 0 0 1
    outer loop
      vertex 100 -1.7 -4
      vertex 77.0573 -13.3684 -4
      vertex 77.601 -13.858 -4
    endloop
  endfacet
  facet normal 0 0 1
    outer loop
      vertex 100 -1.7 -4
      vertex 76.4236 -13.0026 -4
      vertex 77.0573 -13.3684 -4
    endloop
  endfacet
  facet normal 0 0 1
    outer loop
      vertex 100 -1.7 -4
      vertex 75.7277 -12.7765 -4
      vertex 76.4236 -13.0026 -4
    endloop
  endfacet
  facet normal 0 0 1
    outer loop
      vertex 100 -1.7 -4
      vertex 75 -12.7 -4
      vertex 75.7277 -12.7765 -4
    endloop
  endfacet
  facet normal -0 0 1
    outer loop
      vertex 50 -1.7 -4
      vertex 75 -12.7 -4
      vertex 100 -1.7 -4
    endloop
  endfacet
  facet normal 0 0 1
    outer loop
      vertex 75 -12.7 -4
      vertex 50 -1.7 -4
      vertex 74.2723 -12.7765 -4
    endloop
  endfacet
  facet normal 0 0 1
    outer loop
      vertex 71.5192 -15.8341 -4
      vertex 50 -1.7 -4
      vertex 71.5192 -16.5658 -4
    endloop
  endfacet
  facet normal 0 0 1
    outer loop
      vertex 71.6713 -15.1184 -4
      vertex 50 -1.7 -4
      vertex 71.5192 -15.8341 -4
    endloop
  endfacet
  facet normal 0 0 1
    outer loop
      vertex 71.9689 -14.45 -4
      vertex 50 -1.7 -4
      vertex 71.6713 -15.1184 -4
    endloop
  endfacet
  facet normal 0 0 1
    outer loop
      vertex 72.399 -13.858 -4
      vertex 50 -1.7 -4
      vertex 71.9689 -14.45 -4
    endloop
  endfacet
  facet normal 0 0 1
    outer loop
      vertex 72.9427 -13.3684 -4
      vertex 50 -1.7 -4
      vertex 72.399 -13.858 -4
    endloop
  endfacet
  facet normal 0 0 1
    outer loop
      vertex 73.5764 -13.0026 -4
      vertex 50 -1.7 -4
      vertex 72.9427 -13.3684 -4
    endloop
  endfacet
  facet normal 0 0 1
    outer loop
      vertex 74.2723 -12.7765 -4
      vertex 50 -1.7 -4
      vertex 73.5764 -13.0026 -4
    endloop
  endfacet
  facet normal 0 0 1
    outer loop
      vertex 100 -1.7 -4
      vertex 78.4808 -16.5658 -4
      vertex 100 -31.7 -4
    endloop
  endfacet
  facet normal -0 0 1
    outer loop
      vertex 78.3287 -17.2816 -4
      vertex 100 -31.7 -4
      vertex 78.4808 -16.5658 -4
    endloop
  endfacet
  facet normal -0 0 1
    outer loop
      vertex 78.0311 -17.95 -4
      vertex 100 -31.7 -4
      vertex 78.3287 -17.2816 -4
    endloop
  endfacet
  facet normal -0 0 1
    outer loop
      vertex 77.601 -18.542 -4
      vertex 100 -31.7 -4
      vertex 78.0311 -17.95 -4
    endloop
  endfacet
  facet normal -0 0 1
    outer loop
      vertex 77.0573 -19.0316 -4
      vertex 100 -31.7 -4
      vertex 77.601 -18.542 -4
    endloop
  endfacet
  facet normal -0 0 1
    outer loop
      vertex 76.4236 -19.3974 -4
      vertex 100 -31.7 -4
      vertex 77.0573 -19.0316 -4
    endloop
  endfacet
  facet normal -0 0 1
    outer loop
      vertex 75.7277 -19.6235 -4
      vertex 100 -31.7 -4
      vertex 76.4236 -19.3974 -4
    endloop
  endfacet
  facet normal -0 0 1
    outer loop
      vertex 75 -19.7 -4
      vertex 100 -31.7 -4
      vertex 75.7277 -19.6235 -4
    endloop
  endfacet
  facet normal 0 0 1
    outer loop
      vertex 50 -31.7 -4
      vertex 75 -19.7 -4
      vertex 74.2723 -19.6235 -4
    endloop
  endfacet
  facet normal 0 0 1
    outer loop
      vertex 50 -31.7 -4
      vertex 74.2723 -19.6235 -4
      vertex 73.5764 -19.3974 -4
    endloop
  endfacet
  facet normal 0 0 1
    outer loop
      vertex 50 -31.7 -4
      vertex 71.5192 -16.5658 -4
      vertex 50 -1.7 -4
    endloop
  endfacet
  facet normal 0 0 1
    outer loop
      vertex 71.5192 -16.5658 -4
      vertex 50 -31.7 -4
      vertex 71.6713 -17.2816 -4
    endloop
  endfacet
  facet normal 0 0 1
    outer loop
      vertex 71.6713 -17.2816 -4
      vertex 50 -31.7 -4
      vertex 71.9689 -17.95 -4
    endloop
  endfacet
  facet normal 0 0 1
    outer loop
      vertex 71.9689 -17.95 -4
      vertex 50 -31.7 -4
      vertex 72.399 -18.542 -4
    endloop
  endfacet
  facet normal 0 0 1
    outer loop
      vertex 75 -19.7 -4
      vertex 50 -31.7 -4
      vertex 100 -31.7 -4
    endloop
  endfacet
  facet normal 0 0 1
    outer loop
      vertex 72.9427 -19.0316 -4
      vertex 50 -31.7 -4
      vertex 73.5764 -19.3974 -4
    endloop
  endfacet
  facet normal 0 0 1
    outer loop
      vertex 72.399 -18.542 -4
      vertex 50 -31.7 -4
      vertex 72.9427 -19.0316 -4
    endloop
  endfacet
  facet normal 0 -1 0
    outer loop
      vertex 50 -31.7 -11
      vertex 100 -31.7 -4
      vertex 50 -31.7 -4
    endloop
  endfacet
  facet normal 0 -1 -0
    outer loop
      vertex 100 -31.7 -4
      vertex 50 -31.7 -11
      vertex 100 -31.7 -11
    endloop
  endfacet
  facet normal 1 -0 0
    outer loop
      vertex 100 -31.7 -4
      vertex 100 -1.7 -11
      vertex 100 -1.7 -4
    endloop
  endfacet
  facet normal 1 0 0
    outer loop
      vertex 100 -1.7 -11
      vertex 100 -31.7 -4
      vertex 100 -31.7 -11
    endloop
  endfacet
  facet normal 0 0 -1
    outer loop
      vertex 50 -31.7 -11
      vertex 100 -1.7 -11
      vertex 100 -31.7 -11
    endloop
  endfacet
  facet normal -0 0 -1
    outer loop
      vertex 100 -1.7 -11
      vertex 50 -31.7 -11
      vertex 50 -1.7 -11
    endloop
  endfacet
  facet normal -1 0 0
    outer loop
      vertex 50 -31.7 -11
      vertex 50 -1.7 -4
      vertex 50 -1.7 -11
    endloop
  endfacet
  facet normal -1 -0 0
    outer loop
      vertex 50 -1.7 -4
      vertex 50 -31.7 -11
      vertex 50 -31.7 -4
    endloop
  endfacet
  facet normal 0.10453 -0.994522 0
    outer loop
      vertex 75 -19.7 -4
      vertex 75.7277 -19.6235 -0.5
      vertex 75 -19.7 -0.5
    endloop
  endfacet
  facet normal 0.10453 -0.994522 0
    outer loop
      vertex 75.7277 -19.6235 -0.5
      vertex 75 -19.7 -4
      vertex 75.7277 -19.6235 -4
    endloop
  endfacet
  facet normal 1 -0 0
    outer loop
      vertex 78.4808 -16.5658 -0.5
      vertex 78.4808 -15.8341 -4
      vertex 78.4808 -15.8341 -0.5
    endloop
  endfacet
  facet normal 1 0 0
    outer loop
      vertex 78.4808 -15.8341 -4
      vertex 78.4808 -16.5658 -0.5
      vertex 78.4808 -16.5658 -4
    endloop
  endfacet
  facet normal -0.809016 0.587787 0
    outer loop
      vertex 71.9689 -14.45 -4
      vertex 72.399 -13.858 -0.5
      vertex 72.399 -13.858 -4
    endloop
  endfacet
  facet normal -0.809016 0.587787 0
    outer loop
      vertex 72.399 -13.858 -0.5
      vertex 71.9689 -14.45 -4
      vertex 71.9689 -14.45 -0.5
    endloop
  endfacet
  facet normal 0.809016 -0.587787 0
    outer loop
      vertex 77.601 -18.542 -0.5
      vertex 78.0311 -17.95 -4
      vertex 78.0311 -17.95 -0.5
    endloop
  endfacet
  facet normal 0.809016 -0.587787 0
    outer loop
      vertex 78.0311 -17.95 -4
      vertex 77.601 -18.542 -0.5
      vertex 77.601 -18.542 -4
    endloop
  endfacet
  facet normal 0.669133 0.743143 -0
    outer loop
      vertex 77.601 -13.858 -4
      vertex 77.0573 -13.3684 -0.5
      vertex 77.601 -13.858 -0.5
    endloop
  endfacet
  facet normal 0.669133 0.743143 0
    outer loop
      vertex 77.0573 -13.3684 -0.5
      vertex 77.601 -13.858 -4
      vertex 77.0573 -13.3684 -4
    endloop
  endfacet
  facet normal 0.913546 0.406735 0
    outer loop
      vertex 78.3287 -15.1184 -0.5
      vertex 78.0311 -14.45 -4
      vertex 78.0311 -14.45 -0.5
    endloop
  endfacet
  facet normal 0.913546 0.406735 0
    outer loop
      vertex 78.0311 -14.45 -4
      vertex 78.3287 -15.1184 -0.5
      vertex 78.3287 -15.1184 -4
    endloop
  endfacet
  facet normal -0.499998 -0.866026 0
    outer loop
      vertex 72.9427 -19.0316 -4
      vertex 73.5764 -19.3974 -0.5
      vertex 72.9427 -19.0316 -0.5
    endloop
  endfacet
  facet normal -0.499998 -0.866026 -0
    outer loop
      vertex 73.5764 -19.3974 -0.5
      vertex 72.9427 -19.0316 -4
      vertex 73.5764 -19.3974 -4
    endloop
  endfacet
  facet normal 0.499998 -0.866026 0
    outer loop
      vertex 76.4236 -19.3974 -4
      vertex 77.0573 -19.0316 -0.5
      vertex 76.4236 -19.3974 -0.5
    endloop
  endfacet
  facet normal 0.499998 -0.866026 0
    outer loop
      vertex 77.0573 -19.0316 -0.5
      vertex 76.4236 -19.3974 -4
      vertex 77.0573 -19.0316 -4
    endloop
  endfacet
  facet normal 0.309017 -0.951057 0
    outer loop
      vertex 75.7277 -19.6235 -4
      vertex 76.4236 -19.3974 -0.5
      vertex 75.7277 -19.6235 -0.5
    endloop
  endfacet
  facet normal 0.309017 -0.951057 0
    outer loop
      vertex 76.4236 -19.3974 -0.5
      vertex 75.7277 -19.6235 -4
      vertex 76.4236 -19.3974 -4
    endloop
  endfacet
  facet normal 0.669132 -0.743143 0
    outer loop
      vertex 77.0573 -19.0316 -4
      vertex 77.601 -18.542 -0.5
      vertex 77.0573 -19.0316 -0.5
    endloop
  endfacet
  facet normal 0.669132 -0.743143 0
    outer loop
      vertex 77.601 -18.542 -0.5
      vertex 77.0573 -19.0316 -4
      vertex 77.601 -18.542 -4
    endloop
  endfacet
  facet normal 0.978147 -0.207913 0
    outer loop
      vertex 78.3287 -17.2816 -0.5
      vertex 78.4808 -16.5658 -4
      vertex 78.4808 -16.5658 -0.5
    endloop
  endfacet
  facet normal 0.978147 -0.207913 0
    outer loop
      vertex 78.4808 -16.5658 -4
      vertex 78.3287 -17.2816 -0.5
      vertex 78.3287 -17.2816 -4
    endloop
  endfacet
  facet normal 0.913546 -0.406734 0
    outer loop
      vertex 78.0311 -17.95 -0.5
      vertex 78.3287 -17.2816 -4
      vertex 78.3287 -17.2816 -0.5
    endloop
  endfacet
  facet normal 0.913546 -0.406734 0
    outer loop
      vertex 78.3287 -17.2816 -4
      vertex 78.0311 -17.95 -0.5
      vertex 78.0311 -17.95 -4
    endloop
  endfacet
  facet normal 0.309018 0.951056 -0
    outer loop
      vertex 76.4236 -13.0026 -4
      vertex 75.7277 -12.7765 -0.5
      vertex 76.4236 -13.0026 -0.5
    endloop
  endfacet
  facet normal 0.309018 0.951056 0
    outer loop
      vertex 75.7277 -12.7765 -0.5
      vertex 76.4236 -13.0026 -4
      vertex 75.7277 -12.7765 -4
    endloop
  endfacet
  facet normal 0.499997 0.866027 -0
    outer loop
      vertex 77.0573 -13.3684 -4
      vertex 76.4236 -13.0026 -0.5
      vertex 77.0573 -13.3684 -0.5
    endloop
  endfacet
  facet normal 0.499997 0.866027 0
    outer loop
      vertex 76.4236 -13.0026 -0.5
      vertex 77.0573 -13.3684 -4
      vertex 76.4236 -13.0026 -4
    endloop
  endfacet
  facet normal 0.104528 0.994522 -0
    outer loop
      vertex 75.7277 -12.7765 -4
      vertex 75 -12.7 -0.5
      vertex 75.7277 -12.7765 -0.5
    endloop
  endfacet
  facet normal 0.104528 0.994522 0
    outer loop
      vertex 75 -12.7 -0.5
      vertex 75.7277 -12.7765 -4
      vertex 75 -12.7 -4
    endloop
  endfacet
  facet normal -0 0 1
    outer loop
      vertex 77.2497 -15.7218 -0.5
      vertex 78.4808 -15.8341 -0.5
      vertex 78.3287 -15.1184 -0.5
    endloop
  endfacet
  facet normal 0 0 1
    outer loop
      vertex 78.4808 -15.8341 -0.5
      vertex 77.3 -16.2 -0.5
      vertex 78.4808 -16.5658 -0.5
    endloop
  endfacet
  facet normal 0 0 1
    outer loop
      vertex 77.1012 -15.2645 -0.5
      vertex 78.3287 -15.1184 -0.5
      vertex 78.0311 -14.45 -0.5
    endloop
  endfacet
  facet normal 0 0 1
    outer loop
      vertex 77.2497 -16.6782 -0.5
      vertex 78.4808 -16.5658 -0.5
      vertex 77.3 -16.2 -0.5
    endloop
  endfacet
  facet normal 0 0 1
    outer loop
      vertex 76.8607 -14.8481 -0.5
      vertex 78.0311 -14.45 -0.5
      vertex 77.601 -13.858 -0.5
    endloop
  endfacet
  facet normal 0 0 1
    outer loop
      vertex 78.4808 -16.5658 -0.5
      vertex 77.2497 -16.6782 -0.5
      vertex 78.3287 -17.2816 -0.5
    endloop
  endfacet
  facet normal -0 0 1
    outer loop
      vertex 77.1012 -17.1355 -0.5
      vertex 78.3287 -17.2816 -0.5
      vertex 77.2497 -16.6782 -0.5
    endloop
  endfacet
  facet normal 0 0 1
    outer loop
      vertex 78.4808 -15.8341 -0.5
      vertex 77.2497 -15.7218 -0.5
      vertex 77.3 -16.2 -0.5
    endloop
  endfacet
  facet normal 0 0 1
    outer loop
      vertex 78.3287 -15.1184 -0.5
      vertex 77.1012 -15.2645 -0.5
      vertex 77.2497 -15.7218 -0.5
    endloop
  endfacet
  facet normal 0 0 1
    outer loop
      vertex 76.539 -14.4908 -0.5
      vertex 77.601 -13.858 -0.5
      vertex 77.0573 -13.3684 -0.5
    endloop
  endfacet
  facet normal 0 0 1
    outer loop
      vertex 78.0311 -14.45 -0.5
      vertex 76.8607 -14.8481 -0.5
      vertex 77.1012 -15.2645 -0.5
    endloop
  endfacet
  facet normal 0 0 1
    outer loop
      vertex 77.601 -13.858 -0.5
      vertex 76.539 -14.4908 -0.5
      vertex 76.8607 -14.8481 -0.5
    endloop
  endfacet
  facet normal 0 0 1
    outer loop
      vertex 76.15 -14.2081 -0.5
      vertex 77.0573 -13.3684 -0.5
      vertex 76.4236 -13.0026 -0.5
    endloop
  endfacet
  facet normal 0 0 1
    outer loop
      vertex 77.0573 -13.3684 -0.5
      vertex 76.15 -14.2081 -0.5
      vertex 76.539 -14.4908 -0.5
    endloop
  endfacet
  facet normal 0 0 1
    outer loop
      vertex 75.7107 -14.0126 -0.5
      vertex 76.4236 -13.0026 -0.5
      vertex 75.7277 -12.7765 -0.5
    endloop
  endfacet
  facet normal 0 0 1
    outer loop
      vertex 76.4236 -13.0026 -0.5
      vertex 75.7107 -14.0126 -0.5
      vertex 76.15 -14.2081 -0.5
    endloop
  endfacet
  facet normal 0 0 1
    outer loop
      vertex 75.7277 -12.7765 -0.5
      vertex 75.2404 -13.9126 -0.5
      vertex 75.7107 -14.0126 -0.5
    endloop
  endfacet
  facet normal 0 0 1
    outer loop
      vertex 75 -12.7 -0.5
      vertex 75.2404 -13.9126 -0.5
      vertex 75.7277 -12.7765 -0.5
    endloop
  endfacet
  facet normal 0 0 1
    outer loop
      vertex 75 -12.7 -0.5
      vertex 74.7596 -13.9126 -0.5
      vertex 75.2404 -13.9126 -0.5
    endloop
  endfacet
  facet normal -0 0 1
    outer loop
      vertex 74.2723 -12.7765 -0.5
      vertex 74.7596 -13.9126 -0.5
      vertex 75 -12.7 -0.5
    endloop
  endfacet
  facet normal 0 0 1
    outer loop
      vertex 74.7596 -13.9126 -0.5
      vertex 74.2723 -12.7765 -0.5
      vertex 74.2893 -14.0126 -0.5
    endloop
  endfacet
  facet normal -0 0 1
    outer loop
      vertex 73.5764 -13.0026 -0.5
      vertex 74.2893 -14.0126 -0.5
      vertex 74.2723 -12.7765 -0.5
    endloop
  endfacet
  facet normal 0 0 1
    outer loop
      vertex 74.2893 -14.0126 -0.5
      vertex 73.5764 -13.0026 -0.5
      vertex 73.85 -14.2081 -0.5
    endloop
  endfacet
  facet normal -0 0 1
    outer loop
      vertex 72.9427 -13.3684 -0.5
      vertex 73.85 -14.2081 -0.5
      vertex 73.5764 -13.0026 -0.5
    endloop
  endfacet
  facet normal 0 0 1
    outer loop
      vertex 73.85 -14.2081 -0.5
      vertex 72.9427 -13.3684 -0.5
      vertex 73.461 -14.4908 -0.5
    endloop
  endfacet
  facet normal -0 0 1
    outer loop
      vertex 72.399 -13.858 -0.5
      vertex 73.461 -14.4908 -0.5
      vertex 72.9427 -13.3684 -0.5
    endloop
  endfacet
  facet normal 0 0 1
    outer loop
      vertex 73.461 -14.4908 -0.5
      vertex 72.399 -13.858 -0.5
      vertex 73.1393 -14.8481 -0.5
    endloop
  endfacet
  facet normal -0 0 1
    outer loop
      vertex 71.9689 -14.45 -0.5
      vertex 73.1393 -14.8481 -0.5
      vertex 72.399 -13.858 -0.5
    endloop
  endfacet
  facet normal 0 0 1
    outer loop
      vertex 73.1393 -14.8481 -0.5
      vertex 71.9689 -14.45 -0.5
      vertex 72.8988 -15.2645 -0.5
    endloop
  endfacet
  facet normal -0 0 1
    outer loop
      vertex 71.6713 -15.1184 -0.5
      vertex 72.8988 -15.2645 -0.5
      vertex 71.9689 -14.45 -0.5
    endloop
  endfacet
  facet normal 0 0 1
    outer loop
      vertex 78.3287 -17.2816 -0.5
      vertex 77.1012 -17.1355 -0.5
      vertex 78.0311 -17.95 -0.5
    endloop
  endfacet
  facet normal -0 0 1
    outer loop
      vertex 76.8607 -17.5519 -0.5
      vertex 78.0311 -17.95 -0.5
      vertex 77.1012 -17.1355 -0.5
    endloop
  endfacet
  facet normal 0 0 1
    outer loop
      vertex 78.0311 -17.95 -0.5
      vertex 76.8607 -17.5519 -0.5
      vertex 77.601 -18.542 -0.5
    endloop
  endfacet
  facet normal -0 0 1
    outer loop
      vertex 76.539 -17.9092 -0.5
      vertex 77.601 -18.542 -0.5
      vertex 76.8607 -17.5519 -0.5
    endloop
  endfacet
  facet normal 0 0 1
    outer loop
      vertex 77.601 -18.542 -0.5
      vertex 76.539 -17.9092 -0.5
      vertex 77.0573 -19.0316 -0.5
    endloop
  endfacet
  facet normal -0 0 1
    outer loop
      vertex 76.15 -18.1919 -0.5
      vertex 77.0573 -19.0316 -0.5
      vertex 76.539 -17.9092 -0.5
    endloop
  endfacet
  facet normal 0 0 1
    outer loop
      vertex 77.0573 -19.0316 -0.5
      vertex 76.15 -18.1919 -0.5
      vertex 76.4236 -19.3974 -0.5
    endloop
  endfacet
  facet normal -0 0 1
    outer loop
      vertex 75.7107 -18.3874 -0.5
      vertex 76.4236 -19.3974 -0.5
      vertex 76.15 -18.1919 -0.5
    endloop
  endfacet
  facet normal 0 0 1
    outer loop
      vertex 76.4236 -19.3974 -0.5
      vertex 75.7107 -18.3874 -0.5
      vertex 75.7277 -19.6235 -0.5
    endloop
  endfacet
  facet normal -0 0 1
    outer loop
      vertex 75.2404 -18.4874 -0.5
      vertex 75.7277 -19.6235 -0.5
      vertex 75.7107 -18.3874 -0.5
    endloop
  endfacet
  facet normal 0 0 1
    outer loop
      vertex 75.2404 -18.4874 -0.5
      vertex 75 -19.7 -0.5
      vertex 75.7277 -19.6235 -0.5
    endloop
  endfacet
  facet normal -0 0 1
    outer loop
      vertex 74.7596 -18.4874 -0.5
      vertex 75 -19.7 -0.5
      vertex 75.2404 -18.4874 -0.5
    endloop
  endfacet
  facet normal 0 0 1
    outer loop
      vertex 74.2723 -19.6235 -0.5
      vertex 74.7596 -18.4874 -0.5
      vertex 74.2893 -18.3874 -0.5
    endloop
  endfacet
  facet normal 0 0 1
    outer loop
      vertex 74.7596 -18.4874 -0.5
      vertex 74.2723 -19.6235 -0.5
      vertex 75 -19.7 -0.5
    endloop
  endfacet
  facet normal 0 0 1
    outer loop
      vertex 73.5764 -19.3974 -0.5
      vertex 74.2893 -18.3874 -0.5
      vertex 73.85 -18.1919 -0.5
    endloop
  endfacet
  facet normal 0 0 1
    outer loop
      vertex 74.2893 -18.3874 -0.5
      vertex 73.5764 -19.3974 -0.5
      vertex 74.2723 -19.6235 -0.5
    endloop
  endfacet
  facet normal 0 0 1
    outer loop
      vertex 72.9427 -19.0316 -0.5
      vertex 73.85 -18.1919 -0.5
      vertex 73.461 -17.9092 -0.5
    endloop
  endfacet
  facet normal 0 0 1
    outer loop
      vertex 72.399 -18.542 -0.5
      vertex 73.461 -17.9092 -0.5
      vertex 73.1393 -17.5519 -0.5
    endloop
  endfacet
  facet normal 0 0 1
    outer loop
      vertex 73.85 -18.1919 -0.5
      vertex 72.9427 -19.0316 -0.5
      vertex 73.5764 -19.3974 -0.5
    endloop
  endfacet
  facet normal 0 0 1
    outer loop
      vertex 71.9689 -17.95 -0.5
      vertex 73.1393 -17.5519 -0.5
      vertex 72.8988 -17.1355 -0.5
    endloop
  endfacet
  facet normal 0 0 1
    outer loop
      vertex 71.6713 -17.2816 -0.5
      vertex 72.8988 -17.1355 -0.5
      vertex 72.7503 -16.6782 -0.5
    endloop
  endfacet
  facet normal -0 0 1
    outer loop
      vertex 71.5192 -16.5658 -0.5
      vertex 72.7503 -16.6782 -0.5
      vertex 72.7 -16.2 -0.5
    endloop
  endfacet
  facet normal 0 0 1
    outer loop
      vertex 72.8988 -15.2645 -0.5
      vertex 71.6713 -15.1184 -0.5
      vertex 72.7503 -15.7218 -0.5
    endloop
  endfacet
  facet normal 0 0 1
    outer loop
      vertex 73.461 -17.9092 -0.5
      vertex 72.399 -18.542 -0.5
      vertex 72.9427 -19.0316 -0.5
    endloop
  endfacet
  facet normal 0 0 1
    outer loop
      vertex 71.5192 -15.8341 -0.5
      vertex 72.7503 -15.7218 -0.5
      vertex 71.6713 -15.1184 -0.5
    endloop
  endfacet
  facet normal 0 0 1
    outer loop
      vertex 73.1393 -17.5519 -0.5
      vertex 71.9689 -17.95 -0.5
      vertex 72.399 -18.542 -0.5
    endloop
  endfacet
  facet normal 0 0 1
    outer loop
      vertex 72.7503 -15.7218 -0.5
      vertex 71.5192 -15.8341 -0.5
      vertex 72.7 -16.2 -0.5
    endloop
  endfacet
  facet normal 0 0 1
    outer loop
      vertex 72.8988 -17.1355 -0.5
      vertex 71.6713 -17.2816 -0.5
      vertex 71.9689 -17.95 -0.5
    endloop
  endfacet
  facet normal 0 0 1
    outer loop
      vertex 71.5192 -16.5658 -0.5
      vertex 72.7 -16.2 -0.5
      vertex 71.5192 -15.8341 -0.5
    endloop
  endfacet
  facet normal 0 0 1
    outer loop
      vertex 72.7503 -16.6782 -0.5
      vertex 71.5192 -16.5658 -0.5
      vertex 71.6713 -17.2816 -0.5
    endloop
  endfacet
  facet normal 0.809016 0.587787 0
    outer loop
      vertex 78.0311 -14.45 -0.5
      vertex 77.601 -13.858 -4
      vertex 77.601 -13.858 -0.5
    endloop
  endfacet
  facet normal 0.809016 0.587787 0
    outer loop
      vertex 77.601 -13.858 -4
      vertex 78.0311 -14.45 -0.5
      vertex 78.0311 -14.45 -4
    endloop
  endfacet
  facet normal 0.978147 0.207913 0
    outer loop
      vertex 78.4808 -15.8341 -0.5
      vertex 78.3287 -15.1184 -4
      vertex 78.3287 -15.1184 -0.5
    endloop
  endfacet
  facet normal 0.978147 0.207913 0
    outer loop
      vertex 78.3287 -15.1184 -4
      vertex 78.4808 -15.8341 -0.5
      vertex 78.4808 -15.8341 -4
    endloop
  endfacet
  facet normal -0.978147 -0.207913 0
    outer loop
      vertex 71.6713 -17.2816 -4
      vertex 71.5192 -16.5658 -0.5
      vertex 71.5192 -16.5658 -4
    endloop
  endfacet
  facet normal -0.978147 -0.207913 0
    outer loop
      vertex 71.5192 -16.5658 -0.5
      vertex 71.6713 -17.2816 -4
      vertex 71.6713 -17.2816 -0.5
    endloop
  endfacet
  facet normal -0.809016 -0.587787 0
    outer loop
      vertex 72.399 -18.542 -4
      vertex 71.9689 -17.95 -0.5
      vertex 71.9689 -17.95 -4
    endloop
  endfacet
  facet normal -0.809016 -0.587787 0
    outer loop
      vertex 71.9689 -17.95 -0.5
      vertex 72.399 -18.542 -4
      vertex 72.399 -18.542 -0.5
    endloop
  endfacet
  facet normal -0.913546 0.406735 0
    outer loop
      vertex 71.6713 -15.1184 -4
      vertex 71.9689 -14.45 -0.5
      vertex 71.9689 -14.45 -4
    endloop
  endfacet
  facet normal -0.913546 0.406735 0
    outer loop
      vertex 71.9689 -14.45 -0.5
      vertex 71.6713 -15.1184 -4
      vertex 71.6713 -15.1184 -0.5
    endloop
  endfacet
  facet normal -1 0 0
    outer loop
      vertex 71.5192 -16.5658 -4
      vertex 71.5192 -15.8341 -0.5
      vertex 71.5192 -15.8341 -4
    endloop
  endfacet
  facet normal -1 -0 0
    outer loop
      vertex 71.5192 -15.8341 -0.5
      vertex 71.5192 -16.5658 -4
      vertex 71.5192 -16.5658 -0.5
    endloop
  endfacet
  facet normal -0.669133 0.743143 0
    outer loop
      vertex 72.9427 -13.3684 -4
      vertex 72.399 -13.858 -0.5
      vertex 72.9427 -13.3684 -0.5
    endloop
  endfacet
  facet normal -0.669133 0.743143 0
    outer loop
      vertex 72.399 -13.858 -0.5
      vertex 72.9427 -13.3684 -4
      vertex 72.399 -13.858 -4
    endloop
  endfacet
  facet normal -0.309018 0.951056 0
    outer loop
      vertex 74.2723 -12.7765 -4
      vertex 73.5764 -13.0026 -0.5
      vertex 74.2723 -12.7765 -0.5
    endloop
  endfacet
  facet normal -0.309018 0.951056 0
    outer loop
      vertex 73.5764 -13.0026 -0.5
      vertex 74.2723 -12.7765 -4
      vertex 73.5764 -13.0026 -4
    endloop
  endfacet
  facet normal -0.104528 0.994522 0
    outer loop
      vertex 75 -12.7 -4
      vertex 74.2723 -12.7765 -0.5
      vertex 75 -12.7 -0.5
    endloop
  endfacet
  facet normal -0.104528 0.994522 0
    outer loop
      vertex 74.2723 -12.7765 -0.5
      vertex 75 -12.7 -4
      vertex 74.2723 -12.7765 -4
    endloop
  endfacet
  facet normal -0.913546 -0.406734 0
    outer loop
      vertex 71.9689 -17.95 -4
      vertex 71.6713 -17.2816 -0.5
      vertex 71.6713 -17.2816 -4
    endloop
  endfacet
  facet normal -0.913546 -0.406734 0
    outer loop
      vertex 71.6713 -17.2816 -0.5
      vertex 71.9689 -17.95 -4
      vertex 71.9689 -17.95 -0.5
    endloop
  endfacet
  facet normal -0.669132 -0.743143 0
    outer loop
      vertex 72.399 -18.542 -4
      vertex 72.9427 -19.0316 -0.5
      vertex 72.399 -18.542 -0.5
    endloop
  endfacet
  facet normal -0.669132 -0.743143 -0
    outer loop
      vertex 72.9427 -19.0316 -0.5
      vertex 72.399 -18.542 -4
      vertex 72.9427 -19.0316 -4
    endloop
  endfacet
  facet normal -0.309017 -0.951057 0
    outer loop
      vertex 73.5764 -19.3974 -4
      vertex 74.2723 -19.6235 -0.5
      vertex 73.5764 -19.3974 -0.5
    endloop
  endfacet
  facet normal -0.309017 -0.951057 -0
    outer loop
      vertex 74.2723 -19.6235 -0.5
      vertex 73.5764 -19.3974 -4
      vertex 74.2723 -19.6235 -4
    endloop
  endfacet
  facet normal -0.10453 -0.994522 0
    outer loop
      vertex 74.2723 -19.6235 -4
      vertex 75 -19.7 -0.5
      vertex 74.2723 -19.6235 -0.5
    endloop
  endfacet
  facet normal -0.10453 -0.994522 -0
    outer loop
      vertex 75 -19.7 -0.5
      vertex 74.2723 -19.6235 -4
      vertex 75 -19.7 -4
    endloop
  endfacet
  facet normal -0.978147 0.207913 0
    outer loop
      vertex 71.5192 -15.8341 -4
      vertex 71.6713 -15.1184 -0.5
      vertex 71.6713 -15.1184 -4
    endloop
  endfacet
  facet normal -0.978147 0.207913 0
    outer loop
      vertex 71.6713 -15.1184 -0.5
      vertex 71.5192 -15.8341 -4
      vertex 71.5192 -15.8341 -0.5
    endloop
  endfacet
  facet normal -0.499997 0.866027 0
    outer loop
      vertex 73.5764 -13.0026 -4
      vertex 72.9427 -13.3684 -0.5
      vertex 73.5764 -13.0026 -0.5
    endloop
  endfacet
  facet normal -0.499997 0.866027 0
    outer loop
      vertex 72.9427 -13.3684 -0.5
      vertex 73.5764 -13.0026 -4
      vertex 72.9427 -13.3684 -4
    endloop
  endfacet
  facet normal -0.866031 -0.499991 0
    outer loop
      vertex 77.1012 -15.2645 -9
      vertex 76.8607 -14.8481 -0.5
      vertex 76.8607 -14.8481 -9
    endloop
  endfacet
  facet normal -0.866031 -0.499991 0
    outer loop
      vertex 76.8607 -14.8481 -0.5
      vertex 77.1012 -15.2645 -9
      vertex 77.1012 -15.2645 -0.5
    endloop
  endfacet
  facet normal -0.743144 -0.669132 0
    outer loop
      vertex 76.8607 -14.8481 -9
      vertex 76.539 -14.4908 -0.5
      vertex 76.539 -14.4908 -9
    endloop
  endfacet
  facet normal -0.743144 -0.669132 0
    outer loop
      vertex 76.539 -14.4908 -0.5
      vertex 76.8607 -14.8481 -9
      vertex 76.8607 -14.8481 -0.5
    endloop
  endfacet
  facet normal -0.207913 -0.978147 0
    outer loop
      vertex 75.2404 -13.9126 -9
      vertex 75.7107 -14.0126 -0.5
      vertex 75.2404 -13.9126 -0.5
    endloop
  endfacet
  facet normal -0.207913 -0.978147 -0
    outer loop
      vertex 75.7107 -14.0126 -0.5
      vertex 75.2404 -13.9126 -9
      vertex 75.7107 -14.0126 -9
    endloop
  endfacet
  facet normal -0.406736 -0.913546 0
    outer loop
      vertex 75.7107 -14.0126 -9
      vertex 76.15 -14.2081 -0.5
      vertex 75.7107 -14.0126 -0.5
    endloop
  endfacet
  facet normal -0.406736 -0.913546 -0
    outer loop
      vertex 76.15 -14.2081 -0.5
      vertex 75.7107 -14.0126 -9
      vertex 76.15 -14.2081 -9
    endloop
  endfacet
  facet normal 0.406736 -0.913546 0
    outer loop
      vertex 73.85 -14.2081 -9
      vertex 74.2893 -14.0126 -0.5
      vertex 73.85 -14.2081 -0.5
    endloop
  endfacet
  facet normal 0.406736 -0.913546 0
    outer loop
      vertex 74.2893 -14.0126 -0.5
      vertex 73.85 -14.2081 -9
      vertex 74.2893 -14.0126 -9
    endloop
  endfacet
  facet normal -0.994521 0.104533 0
    outer loop
      vertex 77.2497 -16.6782 -9
      vertex 77.3 -16.2 -0.5
      vertex 77.3 -16.2 -9
    endloop
  endfacet
  facet normal -0.994521 0.104533 0
    outer loop
      vertex 77.3 -16.2 -0.5
      vertex 77.2497 -16.6782 -9
      vertex 77.2497 -16.6782 -0.5
    endloop
  endfacet
  facet normal -0.207912 0.978148 0
    outer loop
      vertex 75.7107 -18.3874 -9
      vertex 75.2404 -18.4874 -0.5
      vertex 75.7107 -18.3874 -0.5
    endloop
  endfacet
  facet normal -0.207912 0.978148 0
    outer loop
      vertex 75.2404 -18.4874 -0.5
      vertex 75.7107 -18.3874 -9
      vertex 75.2404 -18.4874 -9
    endloop
  endfacet
  facet normal 0 -1 0
    outer loop
      vertex 74.7596 -13.9126 -9
      vertex 75.2404 -13.9126 -0.5
      vertex 74.7596 -13.9126 -0.5
    endloop
  endfacet
  facet normal 0 -1 -0
    outer loop
      vertex 75.2404 -13.9126 -0.5
      vertex 74.7596 -13.9126 -9
      vertex 75.2404 -13.9126 -9
    endloop
  endfacet
  facet normal -0.587786 -0.809017 0
    outer loop
      vertex 76.15 -14.2081 -9
      vertex 76.539 -14.4908 -0.5
      vertex 76.15 -14.2081 -0.5
    endloop
  endfacet
  facet normal -0.587786 -0.809017 -0
    outer loop
      vertex 76.539 -14.4908 -0.5
      vertex 76.15 -14.2081 -9
      vertex 76.539 -14.4908 -9
    endloop
  endfacet
  facet normal 0.994521 -0.104533 0
    outer loop
      vertex 72.7 -16.2 -0.5
      vertex 72.7503 -15.7218 -9
      vertex 72.7503 -15.7218 -0.5
    endloop
  endfacet
  facet normal 0.994521 -0.104533 0
    outer loop
      vertex 72.7503 -15.7218 -9
      vertex 72.7 -16.2 -0.5
      vertex 72.7 -16.2 -9
    endloop
  endfacet
  facet normal 0.866031 -0.499991 0
    outer loop
      vertex 72.8988 -15.2645 -0.5
      vertex 73.1393 -14.8481 -9
      vertex 73.1393 -14.8481 -0.5
    endloop
  endfacet
  facet normal 0.866031 -0.499991 0
    outer loop
      vertex 73.1393 -14.8481 -9
      vertex 72.8988 -15.2645 -0.5
      vertex 72.8988 -15.2645 -9
    endloop
  endfacet
  facet normal 0.587786 -0.809017 0
    outer loop
      vertex 73.461 -14.4908 -9
      vertex 73.85 -14.2081 -0.5
      vertex 73.461 -14.4908 -0.5
    endloop
  endfacet
  facet normal 0.587786 -0.809017 0
    outer loop
      vertex 73.85 -14.2081 -0.5
      vertex 73.461 -14.4908 -9
      vertex 73.85 -14.2081 -9
    endloop
  endfacet
  facet normal 0.207913 -0.978147 0
    outer loop
      vertex 74.2893 -14.0126 -9
      vertex 74.7596 -13.9126 -0.5
      vertex 74.2893 -14.0126 -0.5
    endloop
  endfacet
  facet normal 0.207913 -0.978147 0
    outer loop
      vertex 74.7596 -13.9126 -0.5
      vertex 74.2893 -14.0126 -9
      vertex 74.7596 -13.9126 -9
    endloop
  endfacet
  facet normal 0.743144 -0.669132 0
    outer loop
      vertex 73.1393 -14.8481 -0.5
      vertex 73.461 -14.4908 -9
      vertex 73.461 -14.4908 -0.5
    endloop
  endfacet
  facet normal 0.743144 -0.669132 0
    outer loop
      vertex 73.461 -14.4908 -9
      vertex 73.1393 -14.8481 -0.5
      vertex 73.1393 -14.8481 -9
    endloop
  endfacet
  facet normal -0.994522 -0.104532 0
    outer loop
      vertex 77.3 -16.2 -9
      vertex 77.2497 -15.7218 -0.5
      vertex 77.2497 -15.7218 -9
    endloop
  endfacet
  facet normal -0.994522 -0.104532 0
    outer loop
      vertex 77.2497 -15.7218 -0.5
      vertex 77.3 -16.2 -9
      vertex 77.3 -16.2 -0.5
    endloop
  endfacet
  facet normal -0.951054 0.309026 0
    outer loop
      vertex 77.1012 -17.1355 -9
      vertex 77.2497 -16.6782 -0.5
      vertex 77.2497 -16.6782 -9
    endloop
  endfacet
  facet normal -0.951054 0.309026 0
    outer loop
      vertex 77.2497 -16.6782 -0.5
      vertex 77.1012 -17.1355 -9
      vertex 77.1012 -17.1355 -0.5
    endloop
  endfacet
  facet normal 0.866031 0.499991 0
    outer loop
      vertex 73.1393 -17.5519 -0.5
      vertex 72.8988 -17.1355 -9
      vertex 72.8988 -17.1355 -0.5
    endloop
  endfacet
  facet normal 0.866031 0.499991 0
    outer loop
      vertex 72.8988 -17.1355 -9
      vertex 73.1393 -17.5519 -0.5
      vertex 73.1393 -17.5519 -9
    endloop
  endfacet
  facet normal -0.587786 0.809017 0
    outer loop
      vertex 76.539 -17.9092 -9
      vertex 76.15 -18.1919 -0.5
      vertex 76.539 -17.9092 -0.5
    endloop
  endfacet
  facet normal -0.587786 0.809017 0
    outer loop
      vertex 76.15 -18.1919 -0.5
      vertex 76.539 -17.9092 -9
      vertex 76.15 -18.1919 -9
    endloop
  endfacet
  facet normal -0.951053 -0.309027 0
    outer loop
      vertex 77.2497 -15.7218 -9
      vertex 77.1012 -15.2645 -0.5
      vertex 77.1012 -15.2645 -9
    endloop
  endfacet
  facet normal -0.951053 -0.309027 0
    outer loop
      vertex 77.1012 -15.2645 -0.5
      vertex 77.2497 -15.7218 -9
      vertex 77.2497 -15.7218 -0.5
    endloop
  endfacet
  facet normal 0.951053 -0.309027 0
    outer loop
      vertex 72.7503 -15.7218 -0.5
      vertex 72.8988 -15.2645 -9
      vertex 72.8988 -15.2645 -0.5
    endloop
  endfacet
  facet normal 0.951053 -0.309027 0
    outer loop
      vertex 72.8988 -15.2645 -9
      vertex 72.7503 -15.7218 -0.5
      vertex 72.7503 -15.7218 -9
    endloop
  endfacet
  facet normal -0.866031 0.499991 0
    outer loop
      vertex 76.8607 -17.5519 -9
      vertex 77.1012 -17.1355 -0.5
      vertex 77.1012 -17.1355 -9
    endloop
  endfacet
  facet normal -0.866031 0.499991 0
    outer loop
      vertex 77.1012 -17.1355 -0.5
      vertex 76.8607 -17.5519 -9
      vertex 76.8607 -17.5519 -0.5
    endloop
  endfacet
  facet normal 0.994521 0.104532 0
    outer loop
      vertex 72.7503 -16.6782 -0.5
      vertex 72.7 -16.2 -9
      vertex 72.7 -16.2 -0.5
    endloop
  endfacet
  facet normal 0.994521 0.104532 0
    outer loop
      vertex 72.7 -16.2 -9
      vertex 72.7503 -16.6782 -0.5
      vertex 72.7503 -16.6782 -9
    endloop
  endfacet
  facet normal -0.406736 0.913546 0
    outer loop
      vertex 76.15 -18.1919 -9
      vertex 75.7107 -18.3874 -0.5
      vertex 76.15 -18.1919 -0.5
    endloop
  endfacet
  facet normal -0.406736 0.913546 0
    outer loop
      vertex 75.7107 -18.3874 -0.5
      vertex 76.15 -18.1919 -9
      vertex 75.7107 -18.3874 -9
    endloop
  endfacet
  facet normal 0.207912 0.978148 -0
    outer loop
      vertex 74.7596 -18.4874 -9
      vertex 74.2893 -18.3874 -0.5
      vertex 74.7596 -18.4874 -0.5
    endloop
  endfacet
  facet normal 0.207912 0.978148 0
    outer loop
      vertex 74.2893 -18.3874 -0.5
      vertex 74.7596 -18.4874 -9
      vertex 74.2893 -18.3874 -9
    endloop
  endfacet
  facet normal 0 1 -0
    outer loop
      vertex 75.2404 -18.4874 -9
      vertex 74.7596 -18.4874 -0.5
      vertex 75.2404 -18.4874 -0.5
    endloop
  endfacet
  facet normal 0 1 0
    outer loop
      vertex 74.7596 -18.4874 -0.5
      vertex 75.2404 -18.4874 -9
      vertex 74.7596 -18.4874 -9
    endloop
  endfacet
  facet normal 0 0 1
    outer loop
      vertex 77.2497 -15.7218 -9
      vertex 77.2497 -16.6782 -9
      vertex 77.3 -16.2 -9
    endloop
  endfacet
  facet normal 0 0 1
    outer loop
      vertex 77.1012 -15.2645 -9
      vertex 77.2497 -16.6782 -9
      vertex 77.2497 -15.7218 -9
    endloop
  endfacet
  facet normal 0 0 1
    outer loop
      vertex 77.1012 -15.2645 -9
      vertex 77.1012 -17.1355 -9
      vertex 77.2497 -16.6782 -9
    endloop
  endfacet
  facet normal 0 0 1
    outer loop
      vertex 76.8607 -14.8481 -9
      vertex 77.1012 -17.1355 -9
      vertex 77.1012 -15.2645 -9
    endloop
  endfacet
  facet normal 0 0 1
    outer loop
      vertex 76.8607 -14.8481 -9
      vertex 76.8607 -17.5519 -9
      vertex 77.1012 -17.1355 -9
    endloop
  endfacet
  facet normal 0 0 1
    outer loop
      vertex 76.539 -14.4908 -9
      vertex 76.8607 -17.5519 -9
      vertex 76.8607 -14.8481 -9
    endloop
  endfacet
  facet normal 0 0 1
    outer loop
      vertex 76.539 -14.4908 -9
      vertex 76.539 -17.9092 -9
      vertex 76.8607 -17.5519 -9
    endloop
  endfacet
  facet normal 0 0 1
    outer loop
      vertex 76.15 -14.2081 -9
      vertex 76.539 -17.9092 -9
      vertex 76.539 -14.4908 -9
    endloop
  endfacet
  facet normal 0 0 1
    outer loop
      vertex 76.15 -14.2081 -9
      vertex 76.15 -18.1919 -9
      vertex 76.539 -17.9092 -9
    endloop
  endfacet
  facet normal 0 0 1
    outer loop
      vertex 75.7107 -14.0126 -9
      vertex 76.15 -18.1919 -9
      vertex 76.15 -14.2081 -9
    endloop
  endfacet
  facet normal 0 0 1
    outer loop
      vertex 75.7107 -14.0126 -9
      vertex 75.7107 -18.3874 -9
      vertex 76.15 -18.1919 -9
    endloop
  endfacet
  facet normal 0 0 1
    outer loop
      vertex 75.2404 -13.9126 -9
      vertex 75.7107 -18.3874 -9
      vertex 75.7107 -14.0126 -9
    endloop
  endfacet
  facet normal 0 0 1
    outer loop
      vertex 75.2404 -13.9126 -9
      vertex 75.2404 -18.4874 -9
      vertex 75.7107 -18.3874 -9
    endloop
  endfacet
  facet normal -0 0 1
    outer loop
      vertex 74.7596 -13.9126 -9
      vertex 75.2404 -18.4874 -9
      vertex 75.2404 -13.9126 -9
    endloop
  endfacet
  facet normal 0 0 1
    outer loop
      vertex 74.7596 -13.9126 -9
      vertex 74.7596 -18.4874 -9
      vertex 75.2404 -18.4874 -9
    endloop
  endfacet
  facet normal -0 0 1
    outer loop
      vertex 74.2893 -14.0126 -9
      vertex 74.7596 -18.4874 -9
      vertex 74.7596 -13.9126 -9
    endloop
  endfacet
  facet normal 0 0 1
    outer loop
      vertex 74.2893 -14.0126 -9
      vertex 74.2893 -18.3874 -9
      vertex 74.7596 -18.4874 -9
    endloop
  endfacet
  facet normal -0 0 1
    outer loop
      vertex 73.85 -14.2081 -9
      vertex 74.2893 -18.3874 -9
      vertex 74.2893 -14.0126 -9
    endloop
  endfacet
  facet normal 0 0 1
    outer loop
      vertex 73.85 -14.2081 -9
      vertex 73.85 -18.1919 -9
      vertex 74.2893 -18.3874 -9
    endloop
  endfacet
  facet normal -0 0 1
    outer loop
      vertex 73.461 -14.4908 -9
      vertex 73.85 -18.1919 -9
      vertex 73.85 -14.2081 -9
    endloop
  endfacet
  facet normal 0 0 1
    outer loop
      vertex 73.461 -14.4908 -9
      vertex 73.461 -17.9092 -9
      vertex 73.85 -18.1919 -9
    endloop
  endfacet
  facet normal -0 0 1
    outer loop
      vertex 73.1393 -14.8481 -9
      vertex 73.461 -17.9092 -9
      vertex 73.461 -14.4908 -9
    endloop
  endfacet
  facet normal 0 0 1
    outer loop
      vertex 73.1393 -14.8481 -9
      vertex 73.1393 -17.5519 -9
      vertex 73.461 -17.9092 -9
    endloop
  endfacet
  facet normal -0 0 1
    outer loop
      vertex 72.8988 -15.2645 -9
      vertex 73.1393 -17.5519 -9
      vertex 73.1393 -14.8481 -9
    endloop
  endfacet
  facet normal 0 0 1
    outer loop
      vertex 72.8988 -15.2645 -9
      vertex 72.8988 -17.1355 -9
      vertex 73.1393 -17.5519 -9
    endloop
  endfacet
  facet normal -0 0 1
    outer loop
      vertex 72.7503 -15.7218 -9
      vertex 72.8988 -17.1355 -9
      vertex 72.8988 -15.2645 -9
    endloop
  endfacet
  facet normal 0 0 1
    outer loop
      vertex 72.7503 -15.7218 -9
      vertex 72.7503 -16.6782 -9
      vertex 72.8988 -17.1355 -9
    endloop
  endfacet
  facet normal 0 -0 1
    outer loop
      vertex 72.7503 -16.6782 -9
      vertex 72.7503 -15.7218 -9
      vertex 72.7 -16.2 -9
    endloop
  endfacet
  facet normal 0.951054 0.309026 0
    outer loop
      vertex 72.8988 -17.1355 -0.5
      vertex 72.7503 -16.6782 -9
      vertex 72.7503 -16.6782 -0.5
    endloop
  endfacet
  facet normal 0.951054 0.309026 0
    outer loop
      vertex 72.7503 -16.6782 -9
      vertex 72.8988 -17.1355 -0.5
      vertex 72.8988 -17.1355 -9
    endloop
  endfacet
  facet normal 0.743144 0.669132 0
    outer loop
      vertex 73.461 -17.9092 -0.5
      vertex 73.1393 -17.5519 -9
      vertex 73.1393 -17.5519 -0.5
    endloop
  endfacet
  facet normal 0.743144 0.669132 0
    outer loop
      vertex 73.1393 -17.5519 -9
      vertex 73.461 -17.9092 -0.5
      vertex 73.461 -17.9092 -9
    endloop
  endfacet
  facet normal -0.743144 0.669132 0
    outer loop
      vertex 76.539 -17.9092 -9
      vertex 76.8607 -17.5519 -0.5
      vertex 76.8607 -17.5519 -9
    endloop
  endfacet
  facet normal -0.743144 0.669132 0
    outer loop
      vertex 76.8607 -17.5519 -0.5
      vertex 76.539 -17.9092 -9
      vertex 76.539 -17.9092 -0.5
    endloop
  endfacet
  facet normal 0.406736 0.913546 -0
    outer loop
      vertex 74.2893 -18.3874 -9
      vertex 73.85 -18.1919 -0.5
      vertex 74.2893 -18.3874 -0.5
    endloop
  endfacet
  facet normal 0.406736 0.913546 0
    outer loop
      vertex 73.85 -18.1919 -0.5
      vertex 74.2893 -18.3874 -9
      vertex 73.85 -18.1919 -9
    endloop
  endfacet
  facet normal 0.587786 0.809017 -0
    outer loop
      vertex 73.85 -18.1919 -9
      vertex 73.461 -17.9092 -0.5
      vertex 73.85 -18.1919 -0.5
    endloop
  endfacet
  facet normal 0.587786 0.809017 0
    outer loop
      vertex 73.461 -17.9092 -0.5
      vertex 73.85 -18.1919 -9
      vertex 73.461 -17.9092 -9
    endloop
  endfacet
  facet normal -0 0 1
    outer loop
      vertex 0 -1.33227e-15 -4
      vertex 100 -1.7 -4
      vertex 100 -1.33227e-15 -4
    endloop
  endfacet
  facet normal 0 0 1
    outer loop
      vertex 100 -1.7 -4
      vertex 0 -1.33227e-15 -4
      vertex 0 -1.7 -4
    endloop
  endfacet
  facet normal 0 1 -0
    outer loop
      vertex 100 8.3 -11
      vertex 0 8.3 -4
      vertex 100 8.3 -4
    endloop
  endfacet
  facet normal 0 1 0
    outer loop
      vertex 0 8.3 -4
      vertex 100 8.3 -11
      vertex 0 8.3 -11
    endloop
  endfacet
  facet normal 0 0 -1
    outer loop
      vertex 0 -1.7 -11
      vertex 100 8.3 -11
      vertex 100 -1.7 -11
    endloop
  endfacet
  facet normal -0 0 -1
    outer loop
      vertex 100 8.3 -11
      vertex 0 -1.7 -11
      vertex 0 8.3 -11
    endloop
  endfacet
  facet normal 0 -1 0
    outer loop
      vertex 0 -1.7 -11
      vertex 100 -1.7 -4
      vertex 0 -1.7 -4
    endloop
  endfacet
  facet normal 0 -1 -0
    outer loop
      vertex 100 -1.7 -4
      vertex 0 -1.7 -11
      vertex 100 -1.7 -11
    endloop
  endfacet
endsolid OpenSCAD_Model
