solid OpenSCAD_Model
  facet normal 0 0 -1
    outer loop
      vertex -5.5 1.75 -2
      vertex -5.46722 2.06187 -2
      vertex -5.46722 1.43813 -2
    endloop
  endfacet
  facet normal 0 0 -1
    outer loop
      vertex -5.46722 1.43813 -2
      vertex -5.46722 2.06187 -2
      vertex -5.37032 2.3601 -2
    endloop
  endfacet
  facet normal 0 0 -1
    outer loop
      vertex -5.46722 1.43813 -2
      vertex -5.37032 2.3601 -2
      vertex -5.21352 2.63168 -2
    endloop
  endfacet
  facet normal 0 0 -1
    outer loop
      vertex -5.46722 1.43813 -2
      vertex -5.21352 2.63168 -2
      vertex -5.0037 2.86472 -2
    endloop
  endfacet
  facet normal 0 0 -1
    outer loop
      vertex -5.46722 1.43813 -2
      vertex -5.0037 2.86472 -2
      vertex -4.75 3.04904 -2
    endloop
  endfacet
  facet normal 0 0 -1
    outer loop
      vertex -5.46722 1.43813 -2
      vertex -4.75 3.04904 -2
      vertex -4.46352 3.17658 -2
    endloop
  endfacet
  facet normal 0 0 -1
    outer loop
      vertex -5.46722 1.43813 -2
      vertex -4.46352 3.17658 -2
      vertex -4.15679 3.24178 -2
    endloop
  endfacet
  facet normal 0 0 -1
    outer loop
      vertex -5.46722 1.43813 -2
      vertex -4.15679 3.24178 -2
      vertex -3.84321 3.24178 -2
    endloop
  endfacet
  facet normal 0 0 -1
    outer loop
      vertex -5.46722 1.43813 -2
      vertex -3.84321 3.24178 -2
      vertex -3.53647 3.17658 -2
    endloop
  endfacet
  facet normal 0 0 -1
    outer loop
      vertex -5.46722 1.43813 -2
      vertex -3.53647 3.17658 -2
      vertex -3.25 3.04904 -2
    endloop
  endfacet
  facet normal 0 0 -1
    outer loop
      vertex -5.46722 1.43813 -2
      vertex -3.25 3.04904 -2
      vertex -2.9963 2.86472 -2
    endloop
  endfacet
  facet normal 0 0 -1
    outer loop
      vertex -5.46722 1.43813 -2
      vertex -2.9963 2.86472 -2
      vertex -2.78647 2.63168 -2
    endloop
  endfacet
  facet normal 0 0 -1
    outer loop
      vertex -5.46722 1.43813 -2
      vertex -2.78647 2.63168 -2
      vertex -2.62968 2.3601 -2
    endloop
  endfacet
  facet normal 0 0 -1
    outer loop
      vertex -5.46722 1.43813 -2
      vertex -2.62968 2.3601 -2
      vertex -2.53278 2.06187 -2
    endloop
  endfacet
  facet normal 0 0 -1
    outer loop
      vertex -5.46722 1.43813 -2
      vertex -2.53278 2.06187 -2
      vertex -2.5 1.75 -2
    endloop
  endfacet
  facet normal 0 0 -1
    outer loop
      vertex -5.46722 1.43813 -2
      vertex -2.5 1.75 -2
      vertex -2.52628 1.5 -2
    endloop
  endfacet
  facet normal 0 0 -1
    outer loop
      vertex -5.46722 1.43813 -2
      vertex -2.52628 1.5 -2
      vertex 8 1.5 -2
    endloop
  endfacet
  facet normal 0 0 -1
    outer loop
      vertex 8 1.5 -2
      vertex 8 4 -2
      vertex 12 4 -2
    endloop
  endfacet
  facet normal 0 0 -1
    outer loop
      vertex 8 1.5 -2
      vertex 12 4 -2
      vertex 12 1 -2
    endloop
  endfacet
  facet normal 0 0 -1
    outer loop
      vertex 8 1.5 -2
      vertex 12 1 -2
      vertex -5.46722 1.43813 -2
    endloop
  endfacet
  facet normal 0 0 -1
    outer loop
      vertex -5.46722 1.43813 -2
      vertex 12 1 -2
      vertex -2.71045 1 -2
    endloop
  endfacet
  facet normal 0 0 -1
    outer loop
      vertex -5.46722 1.43813 -2
      vertex -2.71045 1 -2
      vertex -2.78647 0.868322 -2
    endloop
  endfacet
  facet normal 0 0 -1
    outer loop
      vertex -5.46722 1.43813 -2
      vertex -2.78647 0.868322 -2
      vertex -2.9963 0.635283 -2
    endloop
  endfacet
  facet normal 0 0 -1
    outer loop
      vertex -5.46722 1.43813 -2
      vertex -2.9963 0.635283 -2
      vertex -3.25 0.450962 -2
    endloop
  endfacet
  facet normal 0 0 -1
    outer loop
      vertex -5.46722 1.43813 -2
      vertex -3.25 0.450962 -2
      vertex -3.53647 0.323415 -2
    endloop
  endfacet
  facet normal 0 0 -1
    outer loop
      vertex -5.46722 1.43813 -2
      vertex -3.53647 0.323415 -2
      vertex -3.84321 0.258217 -2
    endloop
  endfacet
  facet normal 0 0 -1
    outer loop
      vertex -5.46722 1.43813 -2
      vertex -3.84321 0.258217 -2
      vertex -4.15679 0.258217 -2
    endloop
  endfacet
  facet normal 0 0 -1
    outer loop
      vertex -5.46722 1.43813 -2
      vertex -4.15679 0.258217 -2
      vertex -4.46352 0.323415 -2
    endloop
  endfacet
  facet normal 0 0 -1
    outer loop
      vertex -5.46722 1.43813 -2
      vertex -4.46352 0.323415 -2
      vertex -4.75 0.450962 -2
    endloop
  endfacet
  facet normal 0 0 -1
    outer loop
      vertex -5.46722 1.43813 -2
      vertex -4.75 0.450962 -2
      vertex -5.0037 0.635283 -2
    endloop
  endfacet
  facet normal 0 0 -1
    outer loop
      vertex -5.46722 1.43813 -2
      vertex -5.0037 0.635283 -2
      vertex -5.21352 0.868322 -2
    endloop
  endfacet
  facet normal 0 0 -1
    outer loop
      vertex -5.46722 1.43813 -2
      vertex -5.21352 0.868322 -2
      vertex -5.37032 1.13989 -2
    endloop
  endfacet
  facet normal -0.994522 0.10453 0
    outer loop
      vertex -5.5 1.75 -2
      vertex -5.5 1.75 4
      vertex -5.46722 2.06187 -2
    endloop
  endfacet
  facet normal -0.994522 0.10453 0
    outer loop
      vertex -5.46722 2.06187 -2
      vertex -5.5 1.75 4
      vertex -5.46722 2.06187 4
    endloop
  endfacet
  facet normal -0.994522 -0.10453 0
    outer loop
      vertex -5.5 1.75 -2
      vertex -5.46722 1.43813 -2
      vertex -5.5 1.75 4
    endloop
  endfacet
  facet normal -0.994522 -0.10453 0
    outer loop
      vertex -5.5 1.75 4
      vertex -5.46722 1.43813 -2
      vertex -5.46722 1.43813 4
    endloop
  endfacet
  facet normal -0.951057 -0.309017 0
    outer loop
      vertex -5.46722 1.43813 -2
      vertex -5.37032 1.13989 -2
      vertex -5.46722 1.43813 4
    endloop
  endfacet
  facet normal -0.951057 -0.309017 0
    outer loop
      vertex -5.46722 1.43813 4
      vertex -5.37032 1.13989 -2
      vertex -5.37032 1.13989 4
    endloop
  endfacet
  facet normal -0.866025 -0.500001 0
    outer loop
      vertex -5.37032 1.13989 -2
      vertex -5.21352 0.868322 -2
      vertex -5.37032 1.13989 4
    endloop
  endfacet
  facet normal -0.866025 -0.500001 0
    outer loop
      vertex -5.37032 1.13989 4
      vertex -5.21352 0.868322 -2
      vertex -5.21352 0.868322 4
    endloop
  endfacet
  facet normal -0.743145 -0.66913 0
    outer loop
      vertex -5.21352 0.868322 -2
      vertex -5.0037 0.635283 -2
      vertex -5.21352 0.868322 4
    endloop
  endfacet
  facet normal -0.743145 -0.66913 0
    outer loop
      vertex -5.21352 0.868322 4
      vertex -5.0037 0.635283 -2
      vertex -5.0037 0.635283 4
    endloop
  endfacet
  facet normal -0.587785 -0.809017 0
    outer loop
      vertex -5.0037 0.635283 4
      vertex -5.0037 0.635283 -2
      vertex -4.75 0.450962 -2
    endloop
  endfacet
  facet normal -0.587785 -0.809017 0
    outer loop
      vertex -4.75 0.450962 4
      vertex -5.0037 0.635283 4
      vertex -4.75 0.450962 -2
    endloop
  endfacet
  facet normal -0.406737 -0.913545 0
    outer loop
      vertex -4.75 0.450962 4
      vertex -4.75 0.450962 -2
      vertex -4.46352 0.323415 -2
    endloop
  endfacet
  facet normal -0.406737 -0.913545 0
    outer loop
      vertex -4.46352 0.323415 4
      vertex -4.75 0.450962 4
      vertex -4.46352 0.323415 -2
    endloop
  endfacet
  facet normal -0.207912 -0.978148 0
    outer loop
      vertex -4.46352 0.323415 4
      vertex -4.46352 0.323415 -2
      vertex -4.15679 0.258217 -2
    endloop
  endfacet
  facet normal -0.207912 -0.978148 0
    outer loop
      vertex -4.15679 0.258217 4
      vertex -4.46352 0.323415 4
      vertex -4.15679 0.258217 -2
    endloop
  endfacet
  facet normal 0 -1 0
    outer loop
      vertex -4.15679 0.258217 4
      vertex -4.15679 0.258217 -2
      vertex -3.84321 0.258217 -2
    endloop
  endfacet
  facet normal 0 -1 0
    outer loop
      vertex -3.84321 0.258217 4
      vertex -4.15679 0.258217 4
      vertex -3.84321 0.258217 -2
    endloop
  endfacet
  facet normal 0.207912 -0.978148 0
    outer loop
      vertex -3.84321 0.258217 4
      vertex -3.84321 0.258217 -2
      vertex -3.53647 0.323415 -2
    endloop
  endfacet
  facet normal 0.207912 -0.978148 0
    outer loop
      vertex -3.53647 0.323415 4
      vertex -3.84321 0.258217 4
      vertex -3.53647 0.323415 -2
    endloop
  endfacet
  facet normal 0.406737 -0.913545 0
    outer loop
      vertex -3.53647 0.323415 4
      vertex -3.53647 0.323415 -2
      vertex -3.25 0.450962 -2
    endloop
  endfacet
  facet normal 0.406737 -0.913545 0
    outer loop
      vertex -3.25 0.450962 4
      vertex -3.53647 0.323415 4
      vertex -3.25 0.450962 -2
    endloop
  endfacet
  facet normal 0.587785 -0.809017 0
    outer loop
      vertex -3.25 0.450962 4
      vertex -3.25 0.450962 -2
      vertex -2.9963 0.635283 -2
    endloop
  endfacet
  facet normal 0.587785 -0.809017 0
    outer loop
      vertex -2.9963 0.635283 4
      vertex -3.25 0.450962 4
      vertex -2.9963 0.635283 -2
    endloop
  endfacet
  facet normal 0.743145 -0.66913 0
    outer loop
      vertex -2.9963 0.635283 4
      vertex -2.9963 0.635283 -2
      vertex -2.78647 0.868322 -2
    endloop
  endfacet
  facet normal 0.743145 -0.66913 0
    outer loop
      vertex -2.78647 0.868322 4
      vertex -2.9963 0.635283 4
      vertex -2.78647 0.868322 -2
    endloop
  endfacet
  facet normal 0.866025 -0.500001 0
    outer loop
      vertex -2.78647 0.868322 4
      vertex -2.78647 0.868322 -2
      vertex -2.71045 1 -2
    endloop
  endfacet
  facet normal 0.866025 -0.500001 0
    outer loop
      vertex -2.71045 1 4
      vertex -2.78647 0.868322 4
      vertex -2.71045 1 -2
    endloop
  endfacet
  facet normal 0 -1 0
    outer loop
      vertex -2.71045 1 4
      vertex -2.71045 1 -2
      vertex 12 1 -2
    endloop
  endfacet
  facet normal 0 -1 0
    outer loop
      vertex 12 1 4
      vertex -2.71045 1 4
      vertex 12 1 -2
    endloop
  endfacet
  facet normal 1 0 0
    outer loop
      vertex 12 1 4
      vertex 12 1 -2
      vertex 12 4 -2
    endloop
  endfacet
  facet normal 1 0 0
    outer loop
      vertex 12 4 4
      vertex 12 1 4
      vertex 12 4 0
    endloop
  endfacet
  facet normal 1 0 0
    outer loop
      vertex 12 4 0
      vertex 12 1 4
      vertex 12 4 -2
    endloop
  endfacet
  facet normal 0 1 0
    outer loop
      vertex 8 4 -2
      vertex 8 4 0
      vertex 12 4 -2
    endloop
  endfacet
  facet normal 0 1 0
    outer loop
      vertex 12 4 -2
      vertex 8 4 0
      vertex 12 4 0
    endloop
  endfacet
  facet normal -1 0 0
    outer loop
      vertex 8 1.5 -2
      vertex 8 1.5 4
      vertex 8 4 -2
    endloop
  endfacet
  facet normal -1 0 0
    outer loop
      vertex 8 4 0
      vertex 8 1.5 4
      vertex 8 4 4
    endloop
  endfacet
  facet normal -1 0 0
    outer loop
      vertex 8 4 -2
      vertex 8 1.5 4
      vertex 8 4 0
    endloop
  endfacet
  facet normal 0 1 0
    outer loop
      vertex -2.52628 1.5 -2
      vertex -2.52628 1.5 4
      vertex 8 1.5 -2
    endloop
  endfacet
  facet normal 0 1 0
    outer loop
      vertex 8 1.5 -2
      vertex -2.52628 1.5 4
      vertex 8 1.5 4
    endloop
  endfacet
  facet normal 0.994522 -0.10453 0
    outer loop
      vertex -2.52628 1.5 4
      vertex -2.52628 1.5 -2
      vertex -2.5 1.75 -2
    endloop
  endfacet
  facet normal 0.994522 -0.10453 0
    outer loop
      vertex -2.5 1.75 4
      vertex -2.52628 1.5 4
      vertex -2.5 1.75 -2
    endloop
  endfacet
  facet normal 0.994522 0.10453 0
    outer loop
      vertex -2.5 1.75 -2
      vertex -2.53278 2.06187 -2
      vertex -2.53278 2.06187 4
    endloop
  endfacet
  facet normal 0.994522 0.10453 0
    outer loop
      vertex -2.5 1.75 4
      vertex -2.5 1.75 -2
      vertex -2.53278 2.06187 4
    endloop
  endfacet
  facet normal 0.951057 0.309017 0
    outer loop
      vertex -2.53278 2.06187 -2
      vertex -2.62968 2.3601 -2
      vertex -2.62968 2.3601 4
    endloop
  endfacet
  facet normal 0.951057 0.309017 0
    outer loop
      vertex -2.53278 2.06187 4
      vertex -2.53278 2.06187 -2
      vertex -2.62968 2.3601 4
    endloop
  endfacet
  facet normal 0.866025 0.500001 0
    outer loop
      vertex -2.62968 2.3601 -2
      vertex -2.78647 2.63168 -2
      vertex -2.78647 2.63168 4
    endloop
  endfacet
  facet normal 0.866025 0.500001 0
    outer loop
      vertex -2.62968 2.3601 4
      vertex -2.62968 2.3601 -2
      vertex -2.78647 2.63168 4
    endloop
  endfacet
  facet normal 0.743145 0.66913 0
    outer loop
      vertex -2.78647 2.63168 -2
      vertex -2.9963 2.86472 -2
      vertex -2.9963 2.86472 4
    endloop
  endfacet
  facet normal 0.743145 0.66913 0
    outer loop
      vertex -2.78647 2.63168 4
      vertex -2.78647 2.63168 -2
      vertex -2.9963 2.86472 4
    endloop
  endfacet
  facet normal 0.587785 0.809017 0
    outer loop
      vertex -3.25 3.04904 -2
      vertex -3.25 3.04904 4
      vertex -2.9963 2.86472 -2
    endloop
  endfacet
  facet normal 0.587785 0.809017 0
    outer loop
      vertex -2.9963 2.86472 -2
      vertex -3.25 3.04904 4
      vertex -2.9963 2.86472 4
    endloop
  endfacet
  facet normal 0.406737 0.913545 0
    outer loop
      vertex -3.53647 3.17658 -2
      vertex -3.53647 3.17658 4
      vertex -3.25 3.04904 -2
    endloop
  endfacet
  facet normal 0.406737 0.913545 0
    outer loop
      vertex -3.25 3.04904 -2
      vertex -3.53647 3.17658 4
      vertex -3.25 3.04904 4
    endloop
  endfacet
  facet normal 0.207912 0.978148 0
    outer loop
      vertex -3.84321 3.24178 -2
      vertex -3.84321 3.24178 4
      vertex -3.53647 3.17658 -2
    endloop
  endfacet
  facet normal 0.207912 0.978148 0
    outer loop
      vertex -3.53647 3.17658 -2
      vertex -3.84321 3.24178 4
      vertex -3.53647 3.17658 4
    endloop
  endfacet
  facet normal 0 1 0
    outer loop
      vertex -4.15679 3.24178 -2
      vertex -4.15679 3.24178 4
      vertex -3.84321 3.24178 -2
    endloop
  endfacet
  facet normal 0 1 0
    outer loop
      vertex -3.84321 3.24178 -2
      vertex -4.15679 3.24178 4
      vertex -3.84321 3.24178 4
    endloop
  endfacet
  facet normal -0.207912 0.978148 0
    outer loop
      vertex -4.46352 3.17658 -2
      vertex -4.46352 3.17658 4
      vertex -4.15679 3.24178 -2
    endloop
  endfacet
  facet normal -0.207912 0.978148 0
    outer loop
      vertex -4.15679 3.24178 -2
      vertex -4.46352 3.17658 4
      vertex -4.15679 3.24178 4
    endloop
  endfacet
  facet normal -0.406737 0.913545 0
    outer loop
      vertex -4.75 3.04904 -2
      vertex -4.75 3.04904 4
      vertex -4.46352 3.17658 -2
    endloop
  endfacet
  facet normal -0.406737 0.913545 0
    outer loop
      vertex -4.46352 3.17658 -2
      vertex -4.75 3.04904 4
      vertex -4.46352 3.17658 4
    endloop
  endfacet
  facet normal -0.587785 0.809017 0
    outer loop
      vertex -5.0037 2.86472 -2
      vertex -5.0037 2.86472 4
      vertex -4.75 3.04904 -2
    endloop
  endfacet
  facet normal -0.587785 0.809017 0
    outer loop
      vertex -4.75 3.04904 -2
      vertex -5.0037 2.86472 4
      vertex -4.75 3.04904 4
    endloop
  endfacet
  facet normal -0.743145 0.66913 0
    outer loop
      vertex -5.21352 2.63168 -2
      vertex -5.21352 2.63168 4
      vertex -5.0037 2.86472 -2
    endloop
  endfacet
  facet normal -0.743145 0.66913 0
    outer loop
      vertex -5.0037 2.86472 -2
      vertex -5.21352 2.63168 4
      vertex -5.0037 2.86472 4
    endloop
  endfacet
  facet normal -0.866025 0.500001 0
    outer loop
      vertex -5.37032 2.3601 -2
      vertex -5.37032 2.3601 4
      vertex -5.21352 2.63168 -2
    endloop
  endfacet
  facet normal -0.866025 0.500001 0
    outer loop
      vertex -5.21352 2.63168 -2
      vertex -5.37032 2.3601 4
      vertex -5.21352 2.63168 4
    endloop
  endfacet
  facet normal -0.951057 0.309017 0
    outer loop
      vertex -5.46722 2.06187 -2
      vertex -5.46722 2.06187 4
      vertex -5.37032 2.3601 -2
    endloop
  endfacet
  facet normal -0.951057 0.309017 0
    outer loop
      vertex -5.37032 2.3601 -2
      vertex -5.46722 2.06187 4
      vertex -5.37032 2.3601 4
    endloop
  endfacet
  facet normal 0 0 1
    outer loop
      vertex -5.46722 2.06187 4
      vertex -5.5 1.75 4
      vertex -5.46722 1.43813 4
    endloop
  endfacet
  facet normal 0 0 1
    outer loop
      vertex -5.21352 0.868322 4
      vertex -5.46722 2.06187 4
      vertex -5.37032 1.13989 4
    endloop
  endfacet
  facet normal 0 0 1
    outer loop
      vertex -5.37032 1.13989 4
      vertex -5.46722 2.06187 4
      vertex -5.46722 1.43813 4
    endloop
  endfacet
  facet normal 0 0 1
    outer loop
      vertex -5.0037 0.635283 4
      vertex -5.46722 2.06187 4
      vertex -5.21352 0.868322 4
    endloop
  endfacet
  facet normal 0 0 1
    outer loop
      vertex -4.75 0.450962 4
      vertex -5.46722 2.06187 4
      vertex -5.0037 0.635283 4
    endloop
  endfacet
  facet normal 0 0 1
    outer loop
      vertex -4.46352 0.323415 4
      vertex -5.46722 2.06187 4
      vertex -4.75 0.450962 4
    endloop
  endfacet
  facet normal 0 0 1
    outer loop
      vertex -4.15679 0.258217 4
      vertex -5.46722 2.06187 4
      vertex -4.46352 0.323415 4
    endloop
  endfacet
  facet normal 0 0 1
    outer loop
      vertex -3.84321 0.258217 4
      vertex -5.46722 2.06187 4
      vertex -4.15679 0.258217 4
    endloop
  endfacet
  facet normal 0 0 1
    outer loop
      vertex -3.53647 0.323415 4
      vertex -5.46722 2.06187 4
      vertex -3.84321 0.258217 4
    endloop
  endfacet
  facet normal 0 0 1
    outer loop
      vertex -3.25 0.450962 4
      vertex -5.46722 2.06187 4
      vertex -3.53647 0.323415 4
    endloop
  endfacet
  facet normal 0 0 1
    outer loop
      vertex -2.9963 0.635283 4
      vertex -5.46722 2.06187 4
      vertex -3.25 0.450962 4
    endloop
  endfacet
  facet normal 0 0 1
    outer loop
      vertex -2.78647 0.868322 4
      vertex -5.46722 2.06187 4
      vertex -2.9963 0.635283 4
    endloop
  endfacet
  facet normal 0 0 1
    outer loop
      vertex -2.71045 1 4
      vertex -5.46722 2.06187 4
      vertex -2.78647 0.868322 4
    endloop
  endfacet
  facet normal 0 0 1
    outer loop
      vertex -2.52628 1.5 4
      vertex -5.46722 2.06187 4
      vertex -2.71045 1 4
    endloop
  endfacet
  facet normal 0 0 1
    outer loop
      vertex 29.5276 8 4
      vertex 12 4 4
      vertex 29.5276 4 4
    endloop
  endfacet
  facet normal 0 0 1
    outer loop
      vertex -2.9963 2.86472 4
      vertex -3.25 3.04904 4
      vertex -5.46722 2.06187 4
    endloop
  endfacet
  facet normal 0 0 1
    outer loop
      vertex 0 8 4
      vertex 0 4 4
      vertex 29.5276 8 4
    endloop
  endfacet
  facet normal 0 0 1
    outer loop
      vertex 29.5276 8 4
      vertex 8 4 4
      vertex 12 4 4
    endloop
  endfacet
  facet normal 0 0 1
    outer loop
      vertex 12 4 4
      vertex 8 1.5 4
      vertex 12 1 4
    endloop
  endfacet
  facet normal 0 0 1
    outer loop
      vertex 12 1 4
      vertex -2.52628 1.5 4
      vertex -2.71045 1 4
    endloop
  endfacet
  facet normal 0 0 1
    outer loop
      vertex -2.5 1.75 4
      vertex -5.46722 2.06187 4
      vertex -2.52628 1.5 4
    endloop
  endfacet
  facet normal 0 0 1
    outer loop
      vertex -2.5 1.75 4
      vertex -2.53278 2.06187 4
      vertex -5.46722 2.06187 4
    endloop
  endfacet
  facet normal 0 0 1
    outer loop
      vertex -2.62968 2.3601 4
      vertex -2.78647 2.63168 4
      vertex -5.46722 2.06187 4
    endloop
  endfacet
  facet normal 0 0 1
    outer loop
      vertex -2.62968 2.3601 4
      vertex -5.46722 2.06187 4
      vertex -2.53278 2.06187 4
    endloop
  endfacet
  facet normal 0 0 1
    outer loop
      vertex 8 1.5 4
      vertex -2.52628 1.5 4
      vertex 12 1 4
    endloop
  endfacet
  facet normal 0 0 1
    outer loop
      vertex -2.9963 2.86472 4
      vertex -5.46722 2.06187 4
      vertex -2.78647 2.63168 4
    endloop
  endfacet
  facet normal 0 0 1
    outer loop
      vertex -4.15679 3.24178 4
      vertex -4.46352 3.17658 4
      vertex -5.46722 2.06187 4
    endloop
  endfacet
  facet normal 0 0 1
    outer loop
      vertex -3.53647 3.17658 4
      vertex -5.46722 2.06187 4
      vertex -3.25 3.04904 4
    endloop
  endfacet
  facet normal 0 0 1
    outer loop
      vertex -3.84321 3.24178 4
      vertex -5.46722 2.06187 4
      vertex -3.53647 3.17658 4
    endloop
  endfacet
  facet normal 0 0 1
    outer loop
      vertex -4.15679 3.24178 4
      vertex -5.46722 2.06187 4
      vertex -3.84321 3.24178 4
    endloop
  endfacet
  facet normal 0 0 1
    outer loop
      vertex -4.75 3.04904 4
      vertex -5.46722 2.06187 4
      vertex -4.46352 3.17658 4
    endloop
  endfacet
  facet normal 0 0 1
    outer loop
      vertex -5.0037 2.86472 4
      vertex -5.46722 2.06187 4
      vertex -4.75 3.04904 4
    endloop
  endfacet
  facet normal 0 0 1
    outer loop
      vertex -5.21352 2.63168 4
      vertex -5.46722 2.06187 4
      vertex -5.0037 2.86472 4
    endloop
  endfacet
  facet normal 0 0 1
    outer loop
      vertex -5.37032 2.3601 4
      vertex -5.46722 2.06187 4
      vertex -5.21352 2.63168 4
    endloop
  endfacet
  facet normal 0 0 1
    outer loop
      vertex 0 4 4
      vertex 8 4 4
      vertex 29.5276 8 4
    endloop
  endfacet
  facet normal 0 0 1
    outer loop
      vertex 8 4 4
      vertex 8 1.5 4
      vertex 12 4 4
    endloop
  endfacet
  facet normal 0 -1 0
    outer loop
      vertex 29.5276 4 0
      vertex 29.5276 4 4
      vertex 12 4 4
    endloop
  endfacet
  facet normal 0 -1 0
    outer loop
      vertex 12 4 0
      vertex 29.5276 4 0
      vertex 12 4 4
    endloop
  endfacet
  facet normal 0 0 -1
    outer loop
      vertex 0 4 0
      vertex 0 8 0
      vertex 8 4 0
    endloop
  endfacet
  facet normal 0 0 -1
    outer loop
      vertex 8 4 0
      vertex 0 8 0
      vertex 29.5276 8 0
    endloop
  endfacet
  facet normal 0 0 -1
    outer loop
      vertex 12 4 0
      vertex 29.5276 8 0
      vertex 29.5276 4 0
    endloop
  endfacet
  facet normal 0 0 -1
    outer loop
      vertex 8 4 0
      vertex 29.5276 8 0
      vertex 12 4 0
    endloop
  endfacet
  facet normal 0 -1 0
    outer loop
      vertex 8 4 0
      vertex 8 4 4
      vertex 0 4 4
    endloop
  endfacet
  facet normal 0 -1 0
    outer loop
      vertex 0 4 0
      vertex 8 4 0
      vertex 0 4 4
    endloop
  endfacet
  facet normal -1 0 0
    outer loop
      vertex 0 4 0
      vertex 0 4 4
      vertex 0 8 0
    endloop
  endfacet
  facet normal -1 0 0
    outer loop
      vertex 0 8 0
      vertex 0 4 4
      vertex 0 8 4
    endloop
  endfacet
  facet normal 0 1 0
    outer loop
      vertex 0 8 0
      vertex 0 8 4
      vertex 29.5276 8 0
    endloop
  endfacet
  facet normal 0 1 0
    outer loop
      vertex 29.5276 8 0
      vertex 0 8 4
      vertex 29.5276 8 4
    endloop
  endfacet
  facet normal 1 0 0
    outer loop
      vertex 29.5276 4 4
      vertex 29.5276 4 0
      vertex 29.5276 8 0
    endloop
  endfacet
  facet normal 1 0 0
    outer loop
      vertex 29.5276 8 4
      vertex 29.5276 4 4
      vertex 29.5276 8 0
    endloop
  endfacet
  facet normal -1 0 0
    outer loop
      vertex -31.5276 4 0
      vertex -31.5276 4 4
      vertex -31.5276 8 0
    endloop
  endfacet
  facet normal -1 0 0
    outer loop
      vertex -31.5276 8 0
      vertex -31.5276 4 4
      vertex -31.5276 8 4
    endloop
  endfacet
  facet normal 0 -1 0
    outer loop
      vertex -31.5276 4 4
      vertex -31.5276 4 0
      vertex -2 4 0
    endloop
  endfacet
  facet normal 0 -1 0
    outer loop
      vertex -2 4 4
      vertex -31.5276 4 4
      vertex -2 4 0
    endloop
  endfacet
  facet normal 0 0 -1
    outer loop
      vertex -31.5276 4 0
      vertex -31.5276 8 0
      vertex -2 4 0
    endloop
  endfacet
  facet normal 0 0 -1
    outer loop
      vertex -2 4 0
      vertex -31.5276 8 0
      vertex -2 8 0
    endloop
  endfacet
  facet normal 0 1 0
    outer loop
      vertex -31.5276 8 0
      vertex -31.5276 8 4
      vertex -2 8 0
    endloop
  endfacet
  facet normal 0 1 0
    outer loop
      vertex -2 8 0
      vertex -31.5276 8 4
      vertex -2 8 4
    endloop
  endfacet
  facet normal 0 0 1
    outer loop
      vertex -31.5276 8 4
      vertex -31.5276 4 4
      vertex -2 4 4
    endloop
  endfacet
  facet normal 0 0 1
    outer loop
      vertex -2 8 4
      vertex -31.5276 8 4
      vertex -2 4 4
    endloop
  endfacet
  facet normal 1 0 0
    outer loop
      vertex -2 4 4
      vertex -2 4 0
      vertex -2 8 0
    endloop
  endfacet
  facet normal 1 0 0
    outer loop
      vertex -2 8 4
      vertex -2 4 4
      vertex -2 8 0
    endloop
  endfacet
endsolid OpenSCAD_Model
