solid OpenSCAD_Model
  facet normal -1 0 0
    outer loop
      vertex 20.82 16.38 2
      vertex 20.82 49.14 3
      vertex 20.82 49.14 2
    endloop
  endfacet
  facet normal -1 -0 0
    outer loop
      vertex 20.82 49.14 3
      vertex 20.82 16.38 2
      vertex 20.82 16.38 3
    endloop
  endfacet
  facet normal -0 0 1
    outer loop
      vertex 20.82 49.14 3
      vertex 62.46 16.38 3
      vertex 62.46 49.14 3
    endloop
  endfacet
  facet normal 0 0 1
    outer loop
      vertex 62.46 16.38 3
      vertex 20.82 49.14 3
      vertex 20.82 16.38 3
    endloop
  endfacet
  facet normal 1 -0 0
    outer loop
      vertex 62.46 16.38 3
      vertex 62.46 49.14 2
      vertex 62.46 49.14 3
    endloop
  endfacet
  facet normal 1 0 0
    outer loop
      vertex 62.46 49.14 2
      vertex 62.46 16.38 3
      vertex 62.46 16.38 2
    endloop
  endfacet
  facet normal 0 0 -1
    outer loop
      vertex 20.82 16.38 2
      vertex 62.46 49.14 2
      vertex 62.46 16.38 2
    endloop
  endfacet
  facet normal -0 0 -1
    outer loop
      vertex 62.46 49.14 2
      vertex 20.82 16.38 2
      vertex 20.82 49.14 2
    endloop
  endfacet
  facet normal 0 -1 0
    outer loop
      vertex 20.82 16.38 2
      vertex 62.46 16.38 3
      vertex 20.82 16.38 3
    endloop
  endfacet
  facet normal 0 -1 -0
    outer loop
      vertex 62.46 16.38 3
      vertex 20.82 16.38 2
      vertex 62.46 16.38 2
    endloop
  endfacet
  facet normal 0 1 -0
    outer loop
      vertex 62.46 49.14 2
      vertex 20.82 49.14 3
      vertex 62.46 49.14 3
    endloop
  endfacet
  facet normal 0 1 0
    outer loop
      vertex 20.82 49.14 3
      vertex 62.46 49.14 2
      vertex 20.82 49.14 2
    endloop
  endfacet
  facet normal -1 0 0
    outer loop
      vertex 0 0 0
      vertex 0 65.52 1
      vertex 0 65.52 0
    endloop
  endfacet
  facet normal -1 -0 0
    outer loop
      vertex 0 65.52 1
      vertex 0 0 0
      vertex 0 0 1
    endloop
  endfacet
  facet normal -0 0 1
    outer loop
      vertex 0 65.52 1
      vertex 83.28 0 1
      vertex 83.28 65.52 1
    endloop
  endfacet
  facet normal 0 0 1
    outer loop
      vertex 83.28 0 1
      vertex 0 65.52 1
      vertex 0 0 1
    endloop
  endfacet
  facet normal 1 -0 0
    outer loop
      vertex 83.28 0 1
      vertex 83.28 65.52 0
      vertex 83.28 65.52 1
    endloop
  endfacet
  facet normal 1 0 0
    outer loop
      vertex 83.28 65.52 0
      vertex 83.28 0 1
      vertex 83.28 0 0
    endloop
  endfacet
  facet normal 0 1 -0
    outer loop
      vertex 83.28 65.52 0
      vertex 0 65.52 1
      vertex 83.28 65.52 1
    endloop
  endfacet
  facet normal 0 1 0
    outer loop
      vertex 0 65.52 1
      vertex 83.28 65.52 0
      vertex 0 65.52 0
    endloop
  endfacet
  facet normal 0 0 -1
    outer loop
      vertex 0 0 0
      vertex 83.28 65.52 0
      vertex 83.28 0 0
    endloop
  endfacet
  facet normal -0 0 -1
    outer loop
      vertex 83.28 65.52 0
      vertex 0 0 0
      vertex 0 65.52 0
    endloop
  endfacet
  facet normal 0 -1 0
    outer loop
      vertex 0 0 0
      vertex 83.28 0 1
      vertex 0 0 1
    endloop
  endfacet
  facet normal 0 -1 -0
    outer loop
      vertex 83.28 0 1
      vertex 0 0 0
      vertex 83.28 0 0
    endloop
  endfacet
endsolid OpenSCAD_Model
